<?xml version="1.0" encoding="iso-8859-1"?>
<!-- Generator: Adobe Illustrator 29.2.1, SVG Export Plug-In . SVG Version: 9.03 Build 55982)  -->
<svg version="1.1" id="Layer_1" xmlns="http://www.w3.org/2000/svg" xmlns:xlink="http://www.w3.org/1999/xlink" x="0px" y="0px"
	 viewBox="0 0 2696.453 2200" style="enable-background:new 0 0 2696.453 2200;" xml:space="preserve">
<g>
	<path style="fill:#030302;" d="M2167.39,1378.491c-258.121-307.643-113.085-909.3-579.154-1050.073
		c-36.492-11.022-74.234-19.563-112.381-21.953c-17.22-145.564-166.895-255.411-307.511-184.195
		c-92.279,46.735-128.385,153.928-98.416,250.929C863.08,461.654,755.632,639.709,717.234,855.527
		c-38.473,216.235,15.658,423.621-73.092,628.862c-65.997,152.623-174.004,287.246-88.712,460.353
		c36.463,74.006,183.331,100.046,257.56,109.305c182.071,22.711,366.105,8.974,548.44-5.345
		c95.106,79.21,235.803,67.061,304.622-39.047c58.142-1.579,120.191-16.546,177.024-31.177
		c129.6-33.363,425.885-135.561,484.316-263.858c14.226-31.238,6.249-37.138,3.278-66.103
		C2317.018,1515.457,2246.151,1472.363,2167.39,1378.491z M1299.346,158.004c61.078,15.514,112.317,81.756,121.344,142.946
		l-37.417-0.119c-26.58-167.697-275.131-126.681-231.219,43.442l-31.739,8.699C1080.79,236.983,1179.108,127.462,1299.346,158.004z
		 M1331.141,306.728l-122.799,20.344c-21.579-15.54-6.505-50.059,10.089-65.166C1261.069,223.09,1324.303,251.622,1331.141,306.728z
		 M577.2,1784.313c9.387-92.469,79.571-197.025,116.049-282.592c117.595-275.843-4.378-572.957,145.317-851.285
		C953.42,436.885,1228.094,332.64,1462.55,355.887c541.409,53.683,396.961,685.244,634.641,1017.696
		c52.654,73.65,129.893,129.704,167.036,214.272c-18.257-6.575-36.144-14.591-54.917-20.189
		c-109.868-32.762-253.462-41.638-368.185-44.9c-335.792-9.546-650.567,58.599-965,167.61
		c-105.831,36.69-214.315,77.899-298.926,153.155C578.594,1824.462,575.296,1803.066,577.2,1784.313z M798.599,1999.109
		c-43.193-6.403-91.577-15.989-131.754-32.902c-21.22-8.932-71.471-31.79-65.99-59.845c8.304-42.506,115.171-94.635,152.556-111.938
		c80.229-37.133,164.715-64.061,249.104-90.319c90.229-28.075,181.275-54.459,273.732-74.327
		c-29.415,75.579-37.066,151.38-20.201,231.086c10.594,50.066,32.492,96.27,60.662,138.629
		C1145.593,2013.677,969.148,2024.39,798.599,1999.109z M1305.153,1831.977c-10.517-63.723-6.713-120.769,20.635-180.13
		c5.029-10.915,16.615-35.45,27.676-38.625c40.672-11.674,111.966-18.752,155.702-23.537c16.013-1.752,70.993-9.629,81.933-4.658
		c6.053,2.75,22.32,29.679,26.53,37.024c26.039,45.425,40.31,97.266,45.723,149.264
		C1698.989,2113.64,1356.512,2143.153,1305.153,1831.977z M2225.124,1753.902c-65.524,53.359-157.678,94.945-236.743,124.345
		c-95.532,35.523-195.382,61.932-296.141,77.916c19.585-48.212,27.437-100.921,25.997-153.073
		c-1.617-58.574-15.674-122.465-39.093-176.115c-7.352-16.842-17.74-32.147-24.444-49.188c63.731-2.835,128.277-4.948,192.222-3.042
		c94.179,2.807,191.873,10.746,284.399,29.025c35.527,7.018,142.028,28.677,151.861,69.314
		C2289.478,1699.104,2243.913,1738.602,2225.124,1753.902z"/>
	<path style="fill:#040404;" d="M397.437,1272.09l-284.444,117.345c-27.571,18.393-7.159,51.909,23.008,43.211l277.607-115.238
		C435.608,1303.019,421.405,1269.397,397.437,1272.09z"/>
	<path style="fill:#060606;" d="M2575.158,1178.702c-87.315-29.551-189.287-40.638-278.056-68.609
		c-32.477-6.865-46.679,30.627-17.189,46.105l289.781,71.377c22.4,0.86,35.505-25.115,20.023-41.768
		C2586.414,1182.253,2579.78,1180.266,2575.158,1178.702z"/>
	<path style="fill:#050505;" d="M405.164,1066.63l-276.529-14.012c-24.301,7.713-27.832,42.691-0.422,48.313l274.298,14.703
		C432.749,1111.979,434.393,1073.539,405.164,1066.63z"/>
	<path style="fill:#050505;" d="M2241.7,946.002c3.867,13.012,18.74,14.213,29.673,13.542
		c79.972-4.909,174.658-42.15,256.382-49.826c17.839-4.229,26.315-28.385,12.952-41.756c-4.301-4.304-17.036-7.712-23.274-6.34
		c-80.885,22.313-177.636,26.436-256.796,49.628C2243.889,916.155,2236.428,928.263,2241.7,946.002z"/>
	<path style="fill:#040404;" d="M2172.808,762.759c59.586-55.057,131.737-103.854,189.651-159.883
		c12.53-12.122,31.231-29.227,13.592-46.894c-13.121-13.141-27.486-4.381-39.387,3.766
		c-64.969,44.477-125.165,115.643-190.957,161.465C2119.838,742.32,2140.515,778.79,2172.808,762.759z"/>
	<path style="fill:#040404;" d="M487.401,848.623c-66.377-47.184-148.526-83.91-216.291-130.421
		c-34.625-3.557-44.531,26.95-16.066,47.91c64.991,47.856,149.329,83.529,216.067,130.554c7.683,4.761,24.307,1.558,30.172-4.326
		C518.362,875.204,501.524,858.662,487.401,848.623z"/>
	<path style="fill:#E8A988;" d="M876.126,1690.376c314.433-109.01,629.207-177.155,965-167.61
		c114.723,3.261,258.317,12.138,368.185,44.9c18.773,5.598,36.66,13.614,54.917,20.189
		c-37.144-84.568-114.382-140.623-167.036-214.272c-237.681-332.452-93.233-964.013-634.641-1017.696
		c-234.456-23.247-509.13,80.998-623.984,294.549c-149.694,278.329-27.722,575.442-145.317,851.285
		c-36.478,85.567-106.662,190.122-116.049,282.592c-1.904,18.753,1.394,40.149,0,59.218
		C661.812,1768.276,770.296,1727.067,876.126,1690.376z M856.62,732.042c27.824-82.307,81.836-155.635,152.975-205.224
		c9.995-6.967,39.06-26.805,49.266-28.82c18.121-3.577,33.734,9.104,23.53,26.517c-4.408,7.522-54.378,35.001-67.433,45.219
		c-58.904,46.107-98.65,106.666-123.675,176.75c-4.628,12.961-9.049,49.928-21.489,53.606
		C826.486,812.895,850.219,750.977,856.62,732.042z"/>
	<path style="fill:#CA8060;" d="M968.5,1872.538c-51.965-2.613-146.77-16.205-187.576-49.297l-27.513-28.817
		c-37.385,17.303-144.252,69.432-152.556,111.938c-5.481,28.055,44.77,50.913,65.99,59.845
		c40.178,16.913,88.561,26.499,131.754,32.902c170.549,25.281,346.994,14.569,518.108,0.384
		c-28.17-42.359-50.068-88.563-60.662-138.629C1161.887,1870.319,1063.308,1877.304,968.5,1872.538z"/>
	<path style="fill:#C97E5F;" d="M2131.321,1603.77c-19.604,53.214-82.825,88.623-131.844,112.251
		c-86.927,41.9-186.647,68.934-281.241,87.069c1.44,52.152-6.411,104.861-25.997,153.073
		c100.759-15.984,200.609-42.394,296.141-77.916c79.065-29.4,171.219-70.985,236.743-124.345
		c18.789-15.3,64.354-54.798,58.058-80.818C2273.349,1632.447,2166.849,1610.788,2131.321,1603.77z"/>
	<path style="fill:#626035;" d="M968.778,1866.767c92.462,0.753,183.946-0.453,276.014-8.658l11.254,2.754
		c-16.865-79.706-9.213-155.507,20.201-231.086c-92.457,19.868-183.502,46.252-273.732,74.327
		c-84.389,26.258-168.875,53.186-249.104,90.319l6.883-1.071C802.994,1848.748,901.502,1866.219,968.778,1866.767z"/>
	<path style="fill:#626035;" d="M968.5,1872.538c94.808,4.766,193.387-2.219,287.545-11.674l-11.254-2.754
		c-92.068,8.204-183.551,9.411-276.014,8.658c-67.276-0.548-165.784-18.019-208.484-73.414l-6.883,1.071l27.513,28.817
		C821.73,1856.332,916.535,1869.925,968.5,1872.538z"/>
	<path style="fill:#E8A989;" d="M1327.219,1817.933l-22.067,14.044c51.359,311.177,393.836,281.663,358.199-60.663
		C1548.402,1753.752,1433.006,1771.121,1327.219,1817.933z M1625.016,1884.635c-3.647,20.822-26.534,93.319-51.917,91.217
		c-37.222-3.083-0.986-48.09,4.984-63.043c3.692-9.246,6.5-19.048,8.82-28.733c2.973-12.412,1.948-44.669,14.897-48.642
		C1635.615,1825.058,1628.426,1865.171,1625.016,1884.635z"/>
	<path style="fill:#635F35;" d="M1947.199,1732.7c64.519-24.5,143.646-62.649,176.285-124.971l7.838-3.959
		c-92.527-18.278-190.221-26.218-284.399-29.025c-63.945-1.906-128.491,0.207-192.222,3.042
		c6.704,17.041,17.092,32.346,24.444,49.188c23.419,53.65,37.476,117.541,39.093,176.115l8.128-5.503
		C1801.366,1780.107,1874.92,1760.146,1947.199,1732.7z"/>
	<path style="fill:#635F35;" d="M2131.321,1603.77l-7.838,3.959c-32.639,62.323-111.766,100.471-176.285,124.971
		c-72.278,27.447-145.832,47.408-220.834,64.887l-8.128,5.503c94.594-18.135,194.314-45.168,281.241-87.069
		C2048.496,1692.393,2111.718,1656.984,2131.321,1603.77z"/>
	<path style="fill:#CA7F60;" d="M1324.607,1812.795c69.655-27.57,129.978-46.597,205.452-52.271
		c27.911-2.098,104.724-5.402,125.959,5.828c2.594,1.372,4.992,3.114,7.333,4.962c-5.413-51.997-19.684-103.839-45.723-149.264
		c-4.21-7.344-20.477-34.273-26.53-37.024c-10.94-4.97-65.92,2.906-81.933,4.658c-43.735,4.785-115.029,11.863-155.702,23.537
		c-11.061,3.175-22.647,27.709-27.676,38.625c-27.347,59.361-31.152,116.407-20.635,180.13
		C1304.164,1823.859,1317.801,1815.489,1324.607,1812.795z"/>
	<path style="fill:#CA7F60;" d="M1663.352,1771.314c-2.342-1.848-4.74-3.59-7.333-4.962c-21.235-11.231-98.048-7.927-125.959-5.828
		c-75.474,5.674-135.797,24.701-205.452,52.271c-6.806,2.694-20.443,11.064-19.454,19.182l22.067-14.044
		C1433.006,1771.121,1548.402,1753.752,1663.352,1771.314z"/>
	<path style="fill:#E8AB89;" d="M1152.055,344.273c-43.911-170.123,204.639-211.14,231.219-43.442l37.417,0.119
		c-9.027-61.19-60.266-127.432-121.344-142.946c-120.238-30.542-218.556,78.979-179.031,194.968L1152.055,344.273z"/>
	<path style="fill:#656334;" d="M869.795,800.091c12.44-3.678,16.861-40.645,21.489-53.606
		c25.024-70.084,64.77-130.643,123.675-176.75c13.055-10.219,63.025-37.697,67.433-45.219c10.204-17.413-5.408-30.094-23.53-26.517
		c-10.206,2.015-39.271,21.852-49.266,28.82c-71.14,49.589-125.151,122.916-152.975,205.224
		C850.219,750.977,826.486,812.895,869.795,800.091z"/>
	<path style="fill:#646234;" d="M1601.8,1835.433c-12.949,3.973-11.924,36.23-14.897,48.642c-2.32,9.685-5.128,19.487-8.82,28.733
		c-5.97,14.953-42.206,59.961-4.984,63.043c25.382,2.102,48.269-70.395,51.917-91.217
		C1628.426,1865.171,1635.615,1825.058,1601.8,1835.433z"/>
</g>
</svg>
