<?xml version="1.0" encoding="iso-8859-1"?>
<!-- Generator: Adobe Illustrator 29.2.1, SVG Export Plug-In . SVG Version: 9.03 Build 55982)  -->
<svg version="1.1" id="Layer_1" xmlns="http://www.w3.org/2000/svg" xmlns:xlink="http://www.w3.org/1999/xlink" x="0px" y="0px"
	 viewBox="0 0 2808.291 2200" style="enable-background:new 0 0 2808.291 2200;" xml:space="preserve">
<g>
	<path style="fill:#B5A6BE;" d="M2203.581,1148.473c1.745-8.964,5.73-17.198-0.527-26.047c-6.728-9.514-22.493-6.06-24.843-7.995
		c-1.012-0.833-1.314-9.415-3.836-13.336c-6.494-10.095-20.482-8.288-30.988-8.19c14.822-14.465,52.09-25.188,31.319-51.644
		c-16.484-20.996-46.935-4.922-68.848-1.53c-3.112-2.979,13.341-18.469,14.844-24.205c7.911-30.186-17.393-39.92-43.008-38.376
		l18.106-27.247l-2.476-29.058c-176.622-39.035-334.875,104.732-306.193,285.855c25.221,159.263,143.463,204.91,211.716,323.332
		c62.95,109.222,15.011,254.029-112.032,282.559c10.592-0.572,5.536,1.553,1.557,6.249c-22.62,26.698-34.219,51.461,10.958,59.49
		c-32.978,29.844-9.547,65.158,31.29,53.193c-16.758,21.258-8.568,35.918,12.502,48.48c-19.582,9.052-39.067,28.213-20.447,48.616
		c15.021,16.46,29.327,3.781,32.735,6.292c0.792,0.584,3.244,12.494,9.355,17.313c5.433,4.284,11.147,3.435,15.918,7.553
		c237.815-82.831,478.121-334.453,284.648-583.461c-55.512-71.446-165.309-143.627-149.353-246.52
		c6.551-42.239,50.018-69.785,89.988-74.281C2194.212,1156.352,2202.726,1152.864,2203.581,1148.473z"/>
	<path style="fill:#7E7A47;" d="M2527.646,565.111c7.369-16.244,26.754-31.245,17.753-50.983c-3.027-6.639-13.124-8.705-13.83-9.717
		c-2.091-2.993,12.471-16.762-0.041-31.911c-9.664-11.7-33.177-1.121-34.568-2.252c20.148-36.748-12.392-53.588-43.779-34.392
		c21.54-63.679-20.529-55.165-65.166-44.796c-138.005,32.059-231.407,166.129-163.833,303.493
		c34.224,69.571,106.32,118.466,142.984,185.554c48.702,89.118-5.823,138.287-97.159,109.675
		c-60.569-18.974-110.523-54.318-176.682-68.939c15.501,11.151,7.699,36.015-2.983,50.231c34.057,1.816,49.995,33.14,28.242,59.358
		c46.58-21.223,100.226,18.284,44.261,56.818c13.088,1.97,17.411,10.753,21.703,21.75c28.948-0.209,34.493,26.359,21.419,46.513
		c106.1-11.933,194.276,58.541,295.563,65.828c155.169,11.164,243.956-99.283,191.754-248.074
		C2649.84,849.442,2465.045,703.112,2527.646,565.111z"/>
	<path style="fill:#7E7A47;" d="M2184.546,1109.002c-4.292-10.997-8.615-19.78-21.703-21.75
		c55.965-38.535,2.319-78.042-44.261-56.818c21.753-26.218,5.815-57.542-28.242-59.358c10.683-14.216,18.484-39.08,2.983-50.231
		l2.476,29.058l-18.106,27.247c25.615-1.544,50.919,8.19,43.008,38.376c-1.503,5.736-17.956,21.227-14.844,24.205
		c21.913-3.392,52.364-19.467,68.848,1.53c20.771,26.457-16.497,37.179-31.319,51.644c10.505-0.098,24.494-1.905,30.988,8.19
		c2.522,3.922,2.825,12.503,3.836,13.336c2.35,1.935,18.115-1.519,24.843,7.995c6.257,8.848,2.272,17.083,0.527,26.047
		c-0.855,4.391-9.37,7.879,2.385,7.042C2219.039,1135.362,2213.495,1108.793,2184.546,1109.002z"/>
	<path style="fill:#7E7A48;" d="M1950.367,2041.865c-42.685,7.019-55.294-39.739-20.605-63.492
		c-12.622-9.777-17.096-22.806-12.379-38.261c-35.122,1.38-51.784-30.518-30.067-58.098c-39.627-4.044-23.031-60.836,0.655-67.239
		c-0.351-0.521-0.736-1.216-1.157-2.184c-184.58,41.451-194.929-195.059-298.74-281.677
		c-87.947-73.38-231.545-64.698-335.696-35.173c-16.121,4.57-68.355,21.17-79.162,30.352c-22.685,19.274,4.707,37.477,3.323,39.274
		c-20.215,1.489-29.929,28.576-15.472,42.112c8.306,7.776,22.679,5.103,27.987,14.207c-35.285,10.751-66.697,62.417-12.524,68.909
		c-4.148,6.667-12.657,7.349-16.364,16.419c-22.45,54.937,61.552,22.892,83.702,21.146c189.256-14.91,183.6,160.695,276.954,270.509
		c114.001,134.099,309.454,113.494,459.859,61.108C1963.764,2061.806,1957.46,2056.972,1950.367,2041.865z"/>
	<path style="fill:#7E7A48;" d="M1955.409,2034.91c-3.408-2.511-17.713,10.168-32.735-6.292
		c-18.619-20.403,0.865-39.564,20.447-48.616c-21.07-12.563-29.26-27.223-12.502-48.48c-40.837,11.965-64.268-23.349-31.29-53.193
		c-45.178-8.029-33.579-32.791-10.958-59.49c3.979-4.696,9.035-6.821-1.557-6.249c0.421,0.968,0.806,1.663,1.157,2.184
		c0.161-0.044,0.32-0.11,0.482-0.149c2.319-0.557,1.6,3.241-0.482,0.149c-23.686,6.403-40.283,63.194-0.655,67.239
		c-21.717,27.58-5.055,59.478,30.067,58.098c-4.717,15.456-0.244,28.484,12.379,38.261c-34.689,23.753-22.079,70.511,20.605,63.492
		c7.094,15.107,13.397,19.941,30.316,17.912c-4.771-4.118-10.485-3.269-15.918-7.553
		C1958.653,2047.405,1956.201,2035.494,1955.409,2034.91z"/>
	<path style="fill:#7E7A48;" d="M1888.454,1814.626c-0.162,0.039-0.321,0.105-0.482,0.149
		C1890.054,1817.867,1890.773,1814.069,1888.454,1814.626z"/>
	<path style="fill:#070C0C;" d="M1194.748,1090.8c186.281-261.458,113.177-643.261-218.468-731.583
		c-480.215-127.888-820.025,344.476-523.739,749.022c45.866,62.625,97.524,98.374,125.583,174.795
		c12.619,34.367,15.724,74.863,41.375,102.456c-45.796,37.245-40.819,107.161,12.553,134.546
		c-0.001,3.813-38.894,14.873-29.762,48.586c4.922,18.173,30.948,29.178,32.306,36.316c1.679,8.827-12.129,24.633-15.621,33.37
		c-21.469,53.719,43.036,84,87.814,80.83c29.432,123.26,209.432,134.69,265.78,28.712c4.548-8.554,14.928-42.226,17.006-44.024
		c3.625-3.138,35.918-5.635,46.176-8.565c37.966-10.846,76.881-46.875,57.905-89.203c-5.757-12.842-27.772-24.79-26.788-35.803
		c1.033-11.564,32.872-16.299,37.023-44.762c4.183-28.685-22.284-35.335-21.184-52.171c0.564-8.628,14.79-21.396,18.552-34.833
		c11.139-39.782,1.634-77.755-36.982-96.747c15.376-44.692,18.996-90.113,41.813-133.091
		C1128.22,1166.967,1167.05,1129.676,1194.748,1090.8z M738.505,1718.76l218.987-15.68
		C934.597,1807.752,774.431,1822.15,738.505,1718.76z M1067.018,1624.871c-0.077,34.399-42.995,43.229-70.417,46.886
		c-71.804,9.576-167.58,13.748-240.767,15.806c-34.775,0.978-83.553,7.546-108.062-20.483
		C787.928,1656.52,928.154,1646.832,1067.018,1624.871z M657.175,1637.369l6.258-31.286c49.382,6.318,104.547,1.36,154.835-3.147
		c72.635-6.511,145.899-17.9,217.442-31.29c-0.073,9.554,4.151,17.505,9.415,25.011c-62.732,9.457-126.079,19.104-189.308,25.056
		C789.718,1627.934,722.717,1627.443,657.175,1637.369z M1020.742,1545.709c-57.971,12.464-133.419,20.302-193.085,25.94
		c-44.093,4.166-127.608,13.756-168.255,5.578c-4.92-0.99-26.341-12.327-27.258-16.587l39.054-35.937
		c103.425-1.959,209.986-10.707,312.399-25.526c18.677-2.703,40.2-9.657,57.792-11.333c11.083-1.056,23.885,16.48,28.891,25.865
		C1081.006,1533.819,1034.998,1542.643,1020.742,1545.709z M1076.389,1407.379c0.193,38.702-20.887,45.771-52.574,53.792
		c-84.766,21.457-241.59,34.14-330.54,35.547c-14.745,0.233-40.951-2.131-53.955-8.922c-25.902-13.526-25.539-54.175-7.19-74.105
		c14.441-15.685,15.95-6.292,29.965-4.96c50.611,4.809,102.374-0.859,153.091-2.87c56.599-2.244,155.975,0.581,206.625-18.658
		c8.763-3.329,21.148-14.324,25.653-15.263C1065.412,1368.197,1076.315,1392.557,1076.389,1407.379z M716.947,1007.493
		c1.163-4.53,13.951-11.752,18.648-16.083c3.243-2.991,5.84-10.279,6.555-10.702c3.186-1.885,13.77,3.13,19.799,2.976
		c7.412-0.19,19.321-2.845,26.668-4.893c13.161-3.669,32.956-18.849,39.754-19.933c4.156-0.662,36.759,11.181,49.25,12.163
		c22.181,1.744,43.06-0.463,64.239-6.354c-37.272,132.94-52.408,268.408-40.828,406.589l-98.041,6.593
		c-6.81-1.89-4.331-38.048-5.076-45.52c-7.189-72.125-22.046-144.413-42.942-213.631
		C750.256,1103.068,715.486,1013.185,716.947,1007.493z M705.643,977.104c-2.553,0.033-13.17-29.834-14.93-35.071
		c-6.091-18.115-25.175-74.952,3.171-80.147C738.069,853.788,745.148,959.039,705.643,977.104z M827.681,848.729
		c18.628-0.019,15.971,55.424-1.537,62.721C819.58,900.956,809.122,848.749,827.681,848.729z M946.573,842.297
		c33.285,0.044,10.795,72.935,4.649,91.063C914.317,930.69,914.84,842.255,946.573,842.297z M1040.41,1318.191
		c-17.837,58.166-58.8,42.758-107.89,53.219l-6.417-85.916c1.023-57.326,4.731-114.722,13.553-171.312
		c2.627-16.851,27.029-137.553,33.31-141.91c2.739-1.9,25.507-2.19,36.762-7.043c21.359-9.21,64.293-55.636,44.856-77.291
		c-20.192-22.495-29.032,23.892-35.979,32.976c-9.042,11.823-24.685,19.207-39.166,21.817c11.801-34.783,31.32-98.391-6.43-123.421
		c-35.028-23.225-66.717,4.237-76.56,38.899c-8.793,30.967-2.969,53.511,10.992,81.392c-18.425-1.465-40.993,5.054-56.245-7.802
		c31.62-29.159,23.657-120.836-28.945-113.597c-37.103,5.106-40.119,55.276-32.267,84.003c2.24,8.195,15.491,29.186,12.879,34.266
		c-4.767,9.273-35.022,18.025-45.595,15.63c19.584-50.738-8.716-129.687-73.377-118.694c-13.992,2.379-26.32,15.658-30.856,28.576
		c-14.303,40.733,9.625,82.419,19.737,121.421c-4.143,3.913-31.326-10.874-35.974-15.622c-9.229-9.427-10.634-29.568-17.15-32.919
		c-11.386-5.856-24.288,2.93-24.211,15.097c0.144,22.764,28.612,49.522,48.324,57.793c10.64,4.464,40.612,7.382,43.195,9.997
		c3.742,3.789,26.005,68.76,29.695,79.817c30.116,90.239,49.191,184.936,53.143,280.107
		c-56.529,0.605-119.085,23.473-144.073-42.118c-27.677-72.647-27.55-104.957-81.304-169.01
		C425.937,1025.363,353.629,928.13,379.115,728.862c61.296-479.269,854.131-494.735,885.012,37.131
		c10.051,173.118-56.829,250.201-151.4,377.33C1061.093,1212.732,1064.114,1240.891,1040.41,1318.191z"/>
	<path style="fill:#0A0F10;" d="M249.616,683.788c-6.019-6.038-117.967-25.971-132.25-26.062
		c-21.434-0.136-21.705,26.136-8.022,30.166l127.433,23.189C250.072,711.82,259.293,693.497,249.616,683.788z"/>
	<path style="fill:#090D0D;" d="M532.766,294.249c16.883,9.88,32.115,1.625,26.65-18.75c-21.014-25.59-35.015-79.157-54.149-102.346
		c-14.359-17.402-31.847-7.338-29.057,13.245L532.766,294.249z"/>
	<path style="fill:#0A0E0F;" d="M349.605,430.474c-4.099-4.942-31.193-21.144-39.448-27.792
		c-10.186-8.204-43.444-39.294-51.18-42.668c-19.906-8.683-30.555,6.688-21.32,24.453c19.698,10.438,85.125,74.348,101.849,75.091
		C356.051,460.293,357.967,440.558,349.605,430.474z"/>
	<path style="fill:#0A0E0F;" d="M781.559,241.116c8.817-8.815,1.143-28.492,0.776-38.393c-0.966-26.054,0.437-62.559-3.374-87.366
		c-3.242-21.105-29.335-19.717-31.207-0.37c5.134,37.03,1.129,79.47,6.598,115.719C756.635,245.846,772.118,250.554,781.559,241.116
		z"/>
	<path style="fill:#080B0D;" d="M1281.545,414.111l79.805-79.784c4.674-4.63,3.186-15.567-0.965-19.724
		c-2.583-2.587-9.418-4.142-13.101-3.818c-17.478,1.542-71.224,69.958-89.54,82.655
		C1247.223,411.287,1264.402,424.068,1281.545,414.111z"/>
	<path style="fill:#090E0F;" d="M1360.954,612.441c-7.786,12.634,3.218,25.081,16.561,23.147
		c19.089-13.272,99.645-28.95,111.091-40.946c10.426-10.927-0.895-30.244-15.528-26.844
		C1453.974,579.303,1369.829,598.043,1360.954,612.441z"/>
	<path style="fill:#0A0E0F;" d="M1394.695,854.448c29.076-1.445,89.07,16.952,114.444,9.442c15.172-4.49,8.25-28.474-6.97-29.304
		l-107.461-10.145C1379.048,832.565,1379.227,846.662,1394.695,854.448z"/>
	<path style="fill:#090F0F;" d="M221.527,940.486c-16.338,1.707-73.163,15.557-86.983,22.53
		c-20.022,10.102-11.418,30.641,7.753,29.985c26.418-12.485,70.401-13.383,94.725-24.506
		C256.816,959.443,251.189,937.386,221.527,940.486z"/>
	<path style="fill:#080C0D;" d="M320.716,1141.097c-7.536,0.383-77.845,60.079-83.004,68.996
		c-6.588,11.386-3.812,26.577,11.127,26.528c11.48-0.037,29.589-24.597,39.047-32.653c10.204-8.692,47.688-34.717,49.634-44.505
		C339.586,1149.066,330.935,1140.577,320.716,1141.097z"/>
	<path style="fill:#080C0D;" d="M1052.54,260.351c10.948-7.383,30.616-85.682,42.114-102.248
		c3.079-14.177-10.356-19.485-22.317-15.79c-4.787,1.479-5.451,4.462-7.668,8.013c-6.264,10.033-32.962,79.529-34.548,90.792
		C1027.999,256.198,1040.006,268.803,1052.54,260.351z"/>
	<path style="fill:#090C0D;" d="M1332.984,1066.086c-4.934-1.268-11.246-1.091-14.87,2.596c-8.037,8.175-4.621,20.327,4.422,26.891
		c22.884,16.611,57.749,27,81.567,43.748c19.849,4.295,30.448-16.067,11.336-30.271
		C1408.296,1103.741,1340.24,1067.951,1332.984,1066.086z"/>
	<path style="fill:#FAF3E7;" d="M1264.127,765.992c-30.881-531.866-823.716-516.4-885.012-37.131
		c-25.486,199.269,46.822,296.501,165.305,437.686c53.754,64.054,53.627,96.364,81.304,169.01
		c24.988,65.59,87.544,42.723,144.073,42.118c-3.952-95.171-23.027-189.869-53.143-280.107
		c-3.69-11.057-25.953-76.028-29.695-79.817c-2.582-2.615-32.555-5.533-43.195-9.997c-19.712-8.271-48.18-35.029-48.324-57.793
		c-0.077-12.167,12.825-20.953,24.211-15.097c6.516,3.351,7.921,23.492,17.15,32.919c4.648,4.748,31.831,19.535,35.974,15.622
		c-10.112-39.001-34.04-80.687-19.737-121.421c4.536-12.917,16.864-26.197,30.856-28.576
		c64.661-10.993,92.961,67.956,73.377,118.694c10.573,2.394,40.828-6.357,45.595-15.63c2.612-5.08-10.64-26.071-12.879-34.266
		c-7.852-28.727-4.836-78.897,32.267-84.003c52.602-7.24,60.565,84.438,28.945,113.597c15.251,12.856,37.819,6.337,56.245,7.802
		c-13.962-27.881-19.786-50.425-10.992-81.392c9.842-34.662,41.532-62.125,76.56-38.899c37.75,25.03,18.231,88.638,6.43,123.421
		c14.48-2.61,30.123-9.994,39.166-21.817c6.947-9.084,15.787-55.471,35.979-32.976c19.438,21.655-23.497,68.081-44.856,77.291
		c-11.255,4.853-34.023,5.143-36.762,7.043c-6.282,4.357-30.683,125.059-33.31,141.91c-8.822,56.59-12.53,113.986-13.553,171.312
		l6.417,85.916c49.09-10.461,90.053,4.947,107.89-53.219c23.704-77.3,20.684-105.459,72.317-174.868
		C1207.298,1016.193,1274.178,939.11,1264.127,765.992z"/>
	<path style="fill:#F5B894;" d="M797.916,1332.329c0.745,7.472-1.734,43.63,5.076,45.52l98.041-6.593
		c-11.58-138.18,3.556-273.649,40.828-406.589c-21.179,5.891-42.059,8.098-64.239,6.354c-12.492-0.982-45.094-12.825-49.25-12.163
		c-6.798,1.083-26.593,16.264-39.754,19.933c-7.347,2.048-19.257,4.704-26.668,4.893c-6.029,0.154-16.613-4.861-19.799-2.976
		c-0.715,0.423-3.312,7.711-6.555,10.702c-4.697,4.331-17.485,11.554-18.648,16.083c-1.461,5.692,33.309,95.575,38.027,111.205
		C775.87,1187.916,790.727,1260.204,797.916,1332.329z"/>
	<path style="fill:#B6A8BF;" d="M1047.465,1371.94c-4.505,0.939-16.89,11.934-25.653,15.263
		c-50.65,19.239-150.026,16.414-206.625,18.658c-50.718,2.011-102.481,7.679-153.091,2.87c-14.016-1.332-15.524-10.724-29.965,4.96
		c-18.35,19.93-18.713,60.579,7.19,74.105c13.004,6.791,39.21,9.156,53.955,8.922c88.95-1.408,245.774-14.091,330.54-35.547
		c31.687-8.021,52.767-15.091,52.574-53.792C1076.315,1392.557,1065.412,1368.197,1047.465,1371.94z"/>
	<path style="fill:#978CA4;" d="M1041.389,1487.844c-17.592,1.676-39.115,8.631-57.792,11.333
		c-102.413,14.819-208.974,23.567-312.399,25.526l-39.054,35.937c0.917,4.26,22.338,15.597,27.258,16.587
		c40.646,8.178,124.162-1.412,168.255-5.578c59.666-5.638,135.114-13.476,193.085-25.94c14.257-3.065,60.264-11.889,49.538-31.999
		C1065.274,1504.324,1052.472,1486.788,1041.389,1487.844z"/>
	<path style="fill:#B4A7BE;" d="M957.491,1703.08l-218.987,15.68C774.431,1822.15,934.597,1807.752,957.491,1703.08z"/>
	<path style="fill:#B9ADC3;" d="M755.834,1687.562c73.187-2.058,168.962-6.23,240.767-15.806
		c27.422-3.657,70.34-12.486,70.417-46.886c-138.864,21.961-279.09,31.649-419.245,42.209
		C672.281,1695.109,721.059,1688.541,755.834,1687.562z"/>
	<path style="fill:#978CA5;" d="M1035.709,1571.645c-71.543,13.39-144.807,24.779-217.442,31.29
		c-50.288,4.508-105.453,9.465-154.835,3.147l-6.258,31.286c65.542-9.926,132.543-9.435,198.642-15.657
		c63.229-5.952,126.575-15.599,189.308-25.056C1039.86,1589.151,1035.636,1581.199,1035.709,1571.645z"/>
	<path style="fill:#F9F3E5;" d="M693.883,861.886c-28.346,5.195-9.262,62.032-3.171,80.147c1.761,5.237,12.378,35.104,14.93,35.071
		C745.148,959.039,738.069,853.788,693.883,861.886z"/>
	<path style="fill:#F9F4E8;" d="M946.573,842.297c-31.733-0.042-32.256,88.393,4.649,91.063
		C957.368,915.231,979.858,842.34,946.573,842.297z"/>
	<path style="fill:#F2EDDF;" d="M827.681,848.729c-18.56,0.019-8.101,52.227-1.537,62.721
		C843.652,904.153,846.309,848.71,827.681,848.729z"/>
</g>
</svg>
