<?xml version="1.0" encoding="iso-8859-1"?>
<!-- Generator: Adobe Illustrator 29.2.1, SVG Export Plug-In . SVG Version: 9.03 Build 55982)  -->
<svg version="1.1" id="Layer_1" xmlns="http://www.w3.org/2000/svg" xmlns:xlink="http://www.w3.org/1999/xlink" x="0px" y="0px"
	 viewBox="0 0 2388.216 2200" style="enable-background:new 0 0 2388.216 2200;" xml:space="preserve">
<g>
	<path style="fill:#F2B18F;" d="M693.042,1537.31c-35-33.948-72.43-65.417-111.728-94.336
		c-74.4-54.749-226.934-132.217-269.324-208.033c-91.215-163.139,57.161-375.407,217.353-426.154
		c101.441-32.135,171.531-14.609,256.546,44.169c106.059,73.327,194.128,181.047,261.452,290.002
		c79.09-148.829,175.927-287.438,280.327-419.402c104.15-131.649,222.113-262.769,346.775-375.191
		C1569.374,83.232,1238.327,48.741,1029.649,217.99c-113.472,92.032-151.672,232.222-267.012,325.979
		C615.042,663.944,435.998,663.724,290.115,777.106c-294.569,228.943-239.348,711.341,113.791,846.24
		c105.412,40.268,205.311,41.596,298.031,118.545C683.793,1675.528,670.723,1604.585,693.042,1537.31z"/>
	<path style="fill:#B8ABC7;" d="M1140.729,1802.652c-216.019,61.179-317.458-139.027-447.687-265.342l2.818,11.023
		c-16.825,60.292-6.464,123.428,9.316,182.759l-3.239,10.799c72.191,59.912,89.856,140.272,144.053,210.259
		c128.479,165.908,346.357,198.571,512.595,65.394c142.543-114.195,141.078-286.278,354.94-329.964
		c105.42-21.534,190.512,20.854,291.461,12.755c201.53-16.167,255.486-251.813,152.195-401.156
		c-72.486-104.805-190.925-130.016-279.719-212.463c-38.053-35.333-75.736-84.483-93.318-133.501
		c-172.596,221.536-323.627,445.422-462.022,689.863C1279.658,1718.081,1227.064,1778.2,1140.729,1802.652z"/>
	<path style="fill:#B8ABC7;" d="M695.86,1548.333l-2.818-11.023c-22.319,67.276-9.249,138.219,8.895,204.582l3.239-10.799
		C689.396,1671.761,679.034,1608.625,695.86,1548.333z"/>
	<path style="fill:#040403;" d="M2152.524,103.03c-156.259-28.098-367.852,145.925-478.083,245.334
		c-4.995,8.446-10.286,16.853-17.279,23.807c-91.559,91.052-177.556,176.96-260.858,276.41
		C1269.839,799.56,1153.897,960.192,1059,1133.081c-8.116,19.948-13.684,14.431-25.564-1.145
		c-76.857-117.017-177.641-242.367-304.196-306.171c-181.828-91.671-402.402,73.119-435.205,257.113
		c-21.596,121.137,42.269,195.105,139.8,256.259c91.756,53.196,176.549,115.881,254.378,188.057l4.828,10.116l10.617,2.118
		c55.458,62.229,112.095,123.272,169.912,183.131c134.274,139.239,346.656,100.315,435.706-69.192
		c133.544-229.843,277.257-461.435,443.781-669.661c9.094-11.371,20.058-21.052,31.087-30.491
		c92.418-118.624,179.834-227.619,289.005-332.153c68.975-66.045,159.267-130.036,195.715-222.344
		C2312.024,289.414,2287.067,127.223,2152.524,103.03z M2018.334,595.896c-70.908,67.711-136.966,144.777-198.61,220.93
		c-3.231,3.992-7.052,6.608-8.895,8.895c-122.701,152.245-235.234,311.92-343.935,474.392c-3.701,5.532-9.137,10.739-11.86,14.825
		c-5.103,7.66-9.706,15.978-14.825,23.72c-4.116,6.226-9.558,11.321-11.86,14.825c-39.214,59.693-79.408,124.005-115.035,185.908
		c-41.785,72.605-64.373,148.303-143.89,191.15c-203.109,109.442-326.101-129.427-449.699-246.6
		c-0.543-0.387-0.973-0.811-1.345-1.254c-91.558-86.349-199.488-142.342-299.048-215.738c-10.004-7.375-19.63-14.655-28.717-23.17
		c-2.18-2.043-3.878-3.789-5.93-5.93c-152.781-159.371,111.934-467.202,317.88-369.766
		c119.537,56.555,246.585,212.602,311.24,326.225c7.988,14.038,7.246,31.192,26.064,36.21c14.486,3.863,25.849-1.185,34.033-13.559
		c16.268-24.6,32.695-68.383,48.546-96.737c63.152-112.965,138.249-218.749,216.953-321.186c3.866-5.032,7.988-9.844,11.86-14.825
		c6.904-8.882,13.763-17.865,20.755-26.685c3.931-4.958,7.905-9.892,11.86-14.825c148.855-185.651,349.146-404.974,555.419-525.307
		c85.14-49.668,248.959-119.8,287.071,22.304C2270.736,405.143,2120.241,498.583,2018.334,595.896z"/>
	<path style="fill:#040403;" d="M1327.667,723.555c-104.4,131.964-201.236,270.574-280.327,419.402
		c-67.323-108.954-155.392-216.675-261.452-290.002c-85.015-58.778-155.105-76.304-256.546-44.169
		c-160.192,50.747-308.569,263.015-217.353,426.154c42.391,75.816,194.925,153.284,269.324,208.033
		c39.299,28.919,76.729,60.388,111.728,94.336l-4.828-10.116c-77.829-72.176-162.621-134.862-254.378-188.057
		c-97.531-61.154-161.397-135.122-139.8-256.259c32.803-183.993,253.377-348.784,435.205-257.113
		c126.555,63.804,227.338,189.155,304.196,306.171c11.88,15.576,17.448,21.094,25.564,1.145
		c94.897-172.889,210.838-333.521,337.304-484.501c83.303-99.449,169.299-185.357,260.858-276.41
		c6.993-6.954,12.284-15.361,17.279-23.807C1549.78,460.786,1431.816,591.906,1327.667,723.555z"/>
	<path style="fill:#040403;" d="M1753.058,983.705c-166.524,208.227-310.237,439.818-443.781,669.661
		c-89.05,169.507-301.432,208.431-435.706,69.192c-57.817-59.858-114.454-120.902-169.912-183.131l-10.617-2.118
		c130.229,126.315,231.667,326.521,447.687,265.342c86.336-24.451,138.929-84.571,181.394-159.575
		c138.394-244.44,289.426-468.327,462.022-689.863C1773.116,962.653,1762.151,972.334,1753.058,983.705z"/>
	<path style="fill:#B8ABC6;" d="M584.793,505.477c224.702-10.173,194.101-288.283-16.932-263.023
		C364.365,266.813,382.483,514.637,584.793,505.477z"/>
	<path style="fill:#F3B290;" d="M1786.497,1769.446c-232.622,23.727-208.734,303.123,33.868,238.45
		C2013.346,1956.451,1965.428,1751.196,1786.497,1769.446z"/>
	<path style="fill:#B8ABC7;" d="M2008.94,838.362c-137.263,8.051-104.969,209.92,9.34,237.993
		c98.77,24.257,132.284-60.326,110.63-143.244C2114.425,877.646,2068.292,834.881,2008.94,838.362z"/>
	<path style="fill:#F2B391;" d="M576.864,1757.406c-17.349,1.236-38.392,11.537-47.509,26.862
		c-43.849,73.708,100.246,176.854,145.415,103.905C709.959,1831.342,637.039,1753.12,576.864,1757.406z"/>
	<path style="fill:#7E7B45;" d="M1939.295,217.396c-206.273,120.333-406.564,339.655-555.419,525.307l28.17,35.527l106.52-130.604
		c10.481-7.84,21.012,0.116,14.968,11.961l-109.686,133.562c-2.702,7.749,40.498,44.169,35.839,53.297
		c-12.177,23.857-39.403-32.305-47.685-35.523c-4.646-1.805-15.034,19.259-18.845,22.772c4.296,9.816,40.846,52.334,36.882,60.195
		c-11.869,23.538-36.781-30.981-44.837-38.362c-2.553-2.339-3.445-5.507-7.353-1.744c-70.874,93.224-136.32,190.434-201.56,287.666
		c-8.073,11.925-25.618,10.593-18.404-6.515c6.786-16.093,32.628-49.035,43.898-65.833
		c53.331-79.489,110.037-156.78,165.853-234.519c1.423-3.943-22.162-32.241-28.236-35.545
		c-78.704,102.437-153.8,208.221-216.953,321.186c-15.851,28.354-32.277,72.137-48.546,96.737
		c-8.184,12.375-19.547,17.423-34.033,13.559c-18.818-5.019-18.076-22.173-26.064-36.21
		c-64.654-113.623-191.703-269.671-311.24-326.225c-205.946-97.435-470.66,210.395-317.88,369.766
		c1.576-10.3,25.072-25.667,26.23-31.559c1.529-7.782-37.216-43.214-18.732-48.479c11.01-3.136,23.535,24.552,32.529,29.544
		c13.417-7.104,34.913-53.1,44.976-55.811c11.42-3.076,10.764,8.346,7.566,16.533c-6.217,15.914-28.417,38.698-38.998,53.104
		c-0.56,3.162,23.018,27.178,25.211,27.668c4.307,0.962,4.71-2.574,6.769-4.781c8.991-9.636,32.006-53.079,40.507-54.553
		c11.007-1.908,16.204,3.185,10.414,13.57c-4.846,8.69-42.084,54.742-41.384,58.802c4.624,6.514,29.92,29.484,36.464,28.186
		c4.839-0.96,29.704-42.965,41.75-50.157c11.01-6.574,17.03,1.282,11.998,11.973c-4.805,10.208-33.833,35.984-36.704,46.6
		c-3.509,12.978,39.005,21.749,17.369,32.052c-8.798,4.19-16.092-2.108-23.395-6.23c-20.46-11.547-39.429-31.34-58.208-45.597
		c-5.894-1.931-3.88,3.761-7.209,7.219c-5.116,5.314-12.181,15.041-20.929,9.088c-10.95-7.453,12.729-23.701,11.76-29.347
		c-0.304-1.77-23.632-25.089-25.401-25.397c-13.533,7.63-19.76,20.912-36.655,23.504c9.087,8.515,18.713,15.795,28.717,23.17
		c99.56,73.395,207.49,129.389,299.048,215.738c-7.247-8.62,16.54-27.235,15.467-35.211c-1.685-12.514-10.255-17.019-21.631-16.544
		c-4.961-12.885-48.063-44.968-45.55-54.62c6.978-26.802,42.599,28.655,51.403,33.677c6.005,3.425,12.022,1.836,16.418,4.337
		c3.355,1.909,6.58,12.42,10.483,13.266c9.48,2.054,15.277-34.097,29.561-32.804c23.368,2.115-14.339,41.057-12.857,48.694
		c1.942,10.007,54.431,40.692,49.934,56.613c-1.623,5.744-9.903,5.369-14.763,3.108c-6.159-2.865-42.842-42.917-45.988-42.93
		c-5.685,5.675-20.904,30.953-31.133,23.668c123.598,117.172,246.59,356.042,449.699,246.6
		c79.518-42.847,102.106-118.545,143.89-191.15c35.626-61.903,75.821-126.215,115.035-185.908
		c-8.811-0.851-16.613-17.408-23.787-13.546l-73.984,109.962c-6.749,9.655-21.396,1.065-15.635-9.483l77.542-118.548
		c0.841-5.74-8.295-7.583-11.703-11.249c-4.937-5.313-33.009-34.958-34.065-37.251c-2.817-6.115,0.659-12.937,6.613-14.452
		c11.569-2.942,38.714,40.008,49.817,47.075c4.366-5.695,17.727-17.929,16.005-24.555c-2.166-8.332-42.383-41.507-36.931-52.43
		c13.177-26.4,39.263,41.371,52.124,34.257l118.34-169.401c29.362-12.53,8.175,19.534,1.426,31.069
		c-30.803,52.648-73.963,102.321-107.616,153.508c-2.319,8.512,14.851,15.591,20.4,21.674
		c108.701-162.473,221.233-322.147,343.935-474.392c-12.391,2.934-19.912-15.924-29.684-10.541l-63.762,87.563
		c-10.23,8.474-20.63-0.004-14.696-11.679l63.426-88.012c1.923-10.852-54.254-38.613-42.927-54.588
		c10.575-14.916,43.323,33.845,56.14,35.573c28.348-18.685-40.175-30.171-26.45-50.365c9.099-13.387,39.451,27.408,48.989,22.569
		c23.212-24.292,43.625-51.511,66.739-75.845c9.202-9.688,38.802-42.433,47.346-47.575c6.764-4.07,14.59-2.3,15.991,5.049
		c1.681,8.815-45.722,50.766-54.442,60.316c-27.396,30.003-53.014,61.806-79.276,92.805c-6.126,10.001,15.238,18.115,21.501,25.834
		c61.644-76.154,127.703-153.219,198.61-220.93c101.906-97.312,252.401-190.753,208.031-356.196
		C2188.254,97.596,2024.434,167.728,1939.295,217.396z M536.862,926.01c-8.869,4.297-43.446,25.992-47.103,33.169
		c-3.971,7.795,38.118,41.469,17.89,47.39c-10.666,3.122-27.532-26.696-35.497-32.534c-3.855-0.002-43.156,52.747-42.954,60.784
		c0.251,9.994,42.87,37.756,28.337,49.052c-14.583,11.335-28.877-27.182-35.791-26.828c-2.28,0.117-3.459,7.369-4.939,8.242
		c-4.083,2.409-12.288,0.959-14.015-4.288c-4.903-14.886,18.141-51.224,26.919-64.242c4.321-6.408,28.489-34.23,28.897-36.523
		c1.06-5.952-24.87-20.184-11.823-29.432c11.967-8.483,24.606,16.432,28.334,16.436c1.047,0.001,11.557-11.516,15.332-14.269
		c13.559-9.887,85.739-52.413,97.482-36.229C591.676,914.286,552.624,918.373,536.862,926.01z M644.54,909.216
		c6.069-1.133,25.525,13.334,27.263,19.395C681.461,962.298,613.938,914.926,644.54,909.216z M806.592,1006.271
		c-6.565,1.685-30.639-20.753-38.463-25.853c-7.479-4.875-29.899-13.19-33.652-16.737c-4.74-4.481-4.452-14.113,1.981-16.144
		c12.934-4.084,66.988,33.403,75.359,45.612C815.934,999.153,812.757,1004.689,806.592,1006.271z M1115.499,1700.331
		c-59.789,5.203-115.074-14.517-159.971-53.406c-6.87-5.951-22.202-18.198-19.126-27.717c5.492-16.997,25.496,8.466,30.98,12.898
		c32.411,26.198,69.753,47.52,112.483,50.593c21.832,1.57,42.278-3.682,63.86-3.079
		C1149.346,1698.099,1130.571,1699.02,1115.499,1700.331z M1791.575,404.711c-2.306,3.755-51.586,38.009-60.843,45.9
		c-26.074,22.226-49.804,47.113-74.115,71.191c-12.852,5.22-18.961-3.175-11.975-14.979c4.589-7.754,38.436-38.864,47.549-47.315
		c12.326-11.432,77.106-66.837,88.165-69.156C1791.123,388.092,1797.219,395.521,1791.575,404.711z M1944.431,293.695
		c-4.208,6.27-47.602,37.744-47.721,14.626c-0.028-5.301,29.259-26.02,34.925-27.509
		C1942.5,277.957,1952.037,282.364,1944.431,293.695z M2173.104,397.835c-6.439,12.341-43.385,64.694-53.846,67.957
		c-6.631,2.069-15.838-2.27-14.671-8.807c0.595-3.333,35.925-41.82,42.528-52.524c5.38-8.721,23.477-51.532,27.352-52.783
		C2200.829,343.165,2177.611,389.197,2173.104,397.835z M2168.038,253.323c-1.695,2.933,10.618,41.124,1.282,47.315
		c-15.897,10.541-20.67-25.192-17.536-35.281c-1.674-1.704-45.115,22.076-31.174-5.98c5.177-10.42,41.363-10.794-1.619-39.795
		c-6.224-4.199-36.758-12.876-20.721-24.08c20.359-14.224,56.687,38.697,61.237,39.804c7.024,1.71,38.168-21.981,42.668-6.925
		C2206.656,243.367,2172.326,245.904,2168.038,253.323z"/>
	<path style="fill:#605E2C;" d="M1372.801,836.221l-195.431,277.574c-6.056,7.305-26.978,42.526-5.865,24.163
		c65.3-97.454,130.929-194.782,202.023-288.158c4.807-4.26,10.296-4.15,14.812,0.451c6.03,9.475,47.239,67.762,30.917,31.598
		l-30.332-43.548c-2.538-11.028,18.086-42.858,30.676-28.73c55.31,70.506,30.677,24.182-0.544-10.706l-0.585-7.133l110.073-135.265
		c2.642-6.169-0.98-7.776-6.214-4.346c-34.96,45.332-71.446,88.789-109.458,130.371c-6.486,0.386-35.159-31.457-28.996-39.792
		c-3.955,4.933-7.929,9.866-11.86,14.825c3.349,6.733,25.649,30.616,26.342,34.537c0.25,1.413-13.359,23.923-14.537,24.743
		c-3.08,2.144-5.256-1.212-7.172-3.132c-8.141-8.16-16.829-20.904-25.388-29.463c-3.872,4.981-7.994,9.793-11.86,14.825
		C1347.954,788.689,1376.45,830.69,1372.801,836.221z"/>
	<path style="fill:#605E2C;" d="M1367.638,834.582c-55.816,77.739-112.522,155.03-165.853,234.519
		c-11.27,16.798-37.112,49.74-43.898,65.833c-7.214,17.108,10.33,18.44,18.404,6.515c65.239-97.232,130.685-194.442,201.56-287.666
		c3.908-3.762,4.801-0.595,7.353,1.744c8.056,7.381,32.968,61.9,44.837,38.362c3.964-7.862-32.586-50.379-36.882-60.195
		c3.81-3.512,14.198-24.577,18.845-22.772c8.282,3.218,35.508,59.381,47.685,35.523c4.659-9.128-38.541-45.548-35.839-53.297
		l109.686-133.562c6.044-11.845-4.487-19.801-14.968-11.961l-106.52,130.604l-28.17-35.527c-6.163,8.335,22.51,40.178,28.996,39.792
		c38.012-41.582,74.498-85.039,109.458-130.371c5.235-3.431,8.857-1.823,6.214,4.346l-110.073,135.265l0.585,7.133
		c31.22,34.888,55.853,81.211,0.544,10.706c-12.591-14.128-33.214,17.702-30.676,28.73l30.332,43.548
		c16.322,36.163-24.887-22.123-30.917-31.598c-4.516-4.602-10.004-4.711-14.812-0.451
		c-71.095,93.376-136.723,190.704-202.023,288.158c-21.113,18.362-0.191-16.859,5.865-24.163l195.431-277.574
		c3.649-5.532-24.847-47.533-33.4-37.185C1345.476,802.341,1369.06,830.639,1367.638,834.582z"/>
	<path style="fill:#615E2C;" d="M1441.148,1276.369c45.697-58.261,85.49-117.938,119.38-179.03l-3.942,1.276l-118.999,169.197
		c-5.239,2.826-10.171,1.672-14.593-2.024c-50.235-64.502-41.161-30.713-3.366,5.579c14.696,13.02-8.045,44.24-23.393,36.692
		c-58.424-72.326-58.947-40.549,0.023,6.94l1.746,7.703l-77.884,120.561c-2.299,4.379,3.422,7.014,5.822,2.961l75.096-110.648
		c10.364-5.573,26.607,7.716,27.311,17.906c2.302-3.504,7.744-8.599,11.86-14.825c-5.279-1.148-24.102-16-22.387-20.71
		c0.585-1.606,13.828-20.493,15.075-20.798l22.136,17.789c2.723-4.086,8.158-9.293,11.86-14.825
		C1457.721,1306.544,1436.225,1285.752,1441.148,1276.369z"/>
	<path style="fill:#615E2C;" d="M1446.495,1278.44c33.653-51.187,76.813-100.86,107.616-153.508
		c6.749-11.535,27.936-43.599-1.426-31.069l-118.34,169.401c-12.861,7.114-38.947-60.657-52.124-34.257
		c-5.452,10.924,34.765,44.099,36.931,52.43c1.722,6.625-11.639,18.86-16.005,24.555c-11.103-7.067-38.248-50.017-49.817-47.075
		c-5.954,1.514-9.43,8.337-6.613,14.452c1.056,2.292,29.128,31.937,34.065,37.251c3.407,3.667,12.543,5.509,11.703,11.249
		l-77.542,118.548c-5.76,10.547,8.886,19.138,15.635,9.483l73.984-109.962c7.174-3.861,14.977,12.696,23.787,13.546
		c-0.704-10.191-16.947-23.48-27.311-17.906l-75.096,110.648c-2.4,4.052-8.121,1.417-5.822-2.961l77.884-120.561l-1.746-7.703
		c-58.97-47.489-58.447-79.266-0.023-6.94c15.348,7.549,38.089-23.672,23.393-36.692c-37.794-36.292-46.869-70.081,3.366-5.579
		c4.422,3.696,9.353,4.849,14.593,2.024l118.999-169.197l3.942-1.276c-33.89,61.092-73.683,120.769-119.38,179.03
		c-4.923,9.383,16.573,30.175,25.747,23.744C1461.346,1294.031,1444.176,1286.952,1446.495,1278.44z"/>
	<path style="fill:#5F5D2C;" d="M402.053,1232.802c24.906-27.806,37.258-15.431,55.974,11.883
		c-13.355,23.412-23.219,42.696,4.757,9.454l8.419-0.698c3.029,3.773,81.283,67.46,78.698,50.333
		c-22.669-11.542-27.676-24.628-15.022-39.257c60.908-67.577,18.078-40.358-9.608,5.151c-13.801,17.494-52.324-18.082-49.698-33.247
		c41.987-56.376,51.225-73.31,27.716-50.802l-30.686,45.217c-13.664,11.292-44.826-22.37-36.847-36.173
		c38.162-39.038,61.928-101.703,4.954-15.058c-5.705,7.669-13.073,17.146-22.773,10.003c-36.73-45.889-28.77-25.641-3.677,8.398
		c7.716,14.622-17.956,34.932-29.572,39.843c2.052,2.141,3.749,3.887,5.93,5.93C391.381,1238.8,395.193,1235.141,402.053,1232.802z"
		/>
	<path style="fill:#5F5D2C;" d="M452.672,1245.672c0.969,5.645-22.71,21.894-11.76,29.347c8.747,5.954,15.812-3.773,20.929-9.088
		c3.329-3.458,1.315-9.149,7.209-7.219c18.779,14.258,37.748,34.051,58.208,45.597c7.303,4.122,14.597,10.419,23.395,6.23
		c21.636-10.303-20.878-19.073-17.369-32.052c2.87-10.616,31.898-36.392,36.704-46.6c5.032-10.691-0.988-18.547-11.998-11.973
		c-12.046,7.192-36.911,49.197-41.75,50.157c-6.545,1.299-31.84-21.672-36.464-28.186c-0.7-4.06,36.538-50.112,41.384-58.802
		c5.79-10.384,0.592-15.478-10.414-13.57c-8.501,1.474-31.516,44.917-40.507,54.553c-2.059,2.207-2.462,5.742-6.769,4.781
		c-2.192-0.49-25.771-24.506-25.211-27.668c10.581-14.407,32.781-37.19,38.998-53.104c3.198-8.187,3.854-19.609-7.566-16.533
		c-10.062,2.71-31.559,48.707-44.976,55.811c-8.994-4.992-21.519-32.68-32.529-29.544c-18.485,5.265,20.261,40.696,18.732,48.479
		c-1.158,5.892-24.654,21.259-26.23,31.559c11.615-4.911,37.288-25.221,29.572-39.843c-25.092-34.039-33.053-54.287,3.677-8.398
		c9.7,7.143,17.068-2.335,22.773-10.003c56.974-86.645,33.208-23.981-4.954,15.058c-7.979,13.804,23.182,47.466,36.847,36.173
		l30.686-45.217c23.509-22.508,14.271-5.574-27.716,50.802c-2.626,15.165,35.897,50.741,49.698,33.247
		c27.687-45.509,70.516-72.728,9.608-5.151c-12.654,14.629-7.646,27.715,15.022,39.257c2.585,17.127-75.668-46.56-78.698-50.333
		l-8.419,0.698c-27.977,33.242-18.112,13.958-4.757-9.454c-18.716-27.315-31.068-39.689-55.974-11.883
		c-6.86,2.339-10.672,5.998-11.436,10.978c16.895-2.592,23.122-15.875,36.655-23.504
		C429.041,1220.584,452.369,1243.902,452.672,1245.672z"/>
	<path style="fill:#5E5B2A;" d="M1793.286,787.856c37.657-49.752,81.253-95.042,124.285-138.165
		c21.343-26.384-8.788-6.463-16.696,5.101c-32.318,34.611-64.402,70.04-96.251,106.289l-7.77,0.96
		c-26.897-20.5-69.457-42.495-14.573-2.412c17.106,10.979,9.45,34.559-10.497,27.606c-55.446-53.398-60.716-40.813-4.511,5.219
		c2.993,3.197,4.92,7.114,4.272,11.677l-63.745,89.876c-2.63,5.878,0.367,8.257,5.558,4.472l64.364-87.883
		c11.288-6.385,26.49,6.484,33.107,15.125c1.843-2.287,5.664-4.903,8.895-8.895C1808.83,821.87,1784.56,799.384,1793.286,787.856z"
		/>
	<path style="fill:#5E5B2A;" d="M1798.223,790.992c26.262-30.999,51.88-62.802,79.276-92.805c8.72-9.55,56.123-51.501,54.442-60.316
		c-1.401-7.349-9.227-9.118-15.991-5.049c-8.544,5.141-38.144,37.887-47.346,47.575c-23.114,24.334-43.527,51.553-66.739,75.845
		c-9.538,4.839-39.89-35.956-48.989-22.569c-13.725,20.194,54.797,31.68,26.45,50.365c-12.817-1.729-45.564-50.489-56.14-35.573
		c-11.326,15.975,44.85,43.736,42.927,54.588l-63.426,88.012c-5.934,11.674,4.466,20.153,14.696,11.679l63.762-87.563
		c9.772-5.383,17.293,13.475,29.684,10.541c-6.617-8.641-21.818-21.51-33.107-15.125l-64.364,87.883
		c-5.191,3.784-8.188,1.406-5.558-4.472l63.745-89.876c0.648-4.564-1.279-8.481-4.272-11.677
		c-56.205-46.032-50.935-58.618,4.511-5.219c19.946,6.953,27.603-16.627,10.497-27.606c-54.884-40.083-12.324-18.088,14.573,2.412
		l7.77-0.96c31.849-36.249,63.932-71.678,96.251-106.289c7.908-11.564,38.039-31.485,16.696-5.101
		c-43.032,43.123-86.628,88.413-124.285,138.165c-8.726,11.528,15.544,34.014,26.438,28.971
		C1813.461,809.107,1792.097,800.993,1798.223,790.992z"/>
	<path style="fill:#848047;" d="M1381.526,809.76l10.209-17.484l-22.434-27.989l2.715-6.76
		c-6.992,8.819-13.851,17.802-20.755,26.685l7.6-0.601L1381.526,809.76z"/>
	<path style="fill:#848047;" d="M1383.821,816.807c1.178-0.82,14.786-23.33,14.537-24.743c-0.693-3.921-22.993-27.804-26.342-34.537
		l-2.715,6.76l22.434,27.989l-10.209,17.484l-22.665-26.15l-7.6,0.601c8.559,8.56,17.247,21.304,25.388,29.463
		C1378.566,815.596,1380.741,818.951,1383.821,816.807z"/>
	<path style="fill:#87834B;" d="M1439.414,1331.844l0.796,6.813c5.119-7.742,9.721-16.059,14.825-23.72l-5.691,3.034
		C1430.049,1294.59,1412.944,1320.018,1439.414,1331.844z"/>
	<path style="fill:#87834B;" d="M1417.823,1317.948c-1.716,4.71,17.108,19.563,22.387,20.71l-0.796-6.813
		c-26.47-11.826-9.364-37.255,9.93-13.872l5.691-3.034l-22.136-17.789C1431.651,1297.455,1418.409,1316.341,1417.823,1317.948z"/>
	<path style="fill:#5E5B2C;" d="M490.45,932.967c-3.775,2.753-14.285,14.27-15.332,14.269c-3.728-0.004-16.367-24.918-28.334-16.436
		c-13.047,9.248,12.884,23.479,11.823,29.432c-0.408,2.293-24.576,30.115-28.897,36.523c-8.778,13.018-31.822,49.356-26.919,64.242
		c1.728,5.246,9.932,6.697,14.015,4.288c1.48-0.873,2.659-8.125,4.939-8.242c6.914-0.354,21.208,38.163,35.791,26.828
		c14.533-11.296-28.086-39.058-28.337-49.052c-0.202-8.037,39.099-60.786,42.954-60.784c7.965,5.838,24.83,35.656,35.497,32.534
		c20.228-5.921-21.861-39.594-17.89-47.39c3.656-7.177,38.233-28.872,47.103-33.169c15.762-7.636,54.814-11.724,51.07-29.271
		C576.189,880.553,504.009,923.079,490.45,932.967z"/>
	<path style="fill:#5C592B;" d="M719.727,1483.941c-0.446-0.423-0.898-0.833-1.345-1.254
		C718.754,1483.129,719.183,1483.553,719.727,1483.941z"/>
	<path style="fill:#5C592B;" d="M745.33,1457.616c4.708-3.371,9.92-2.713,13.796,1.441l39.642,38.379
		c24.521,18.586-29.901-45.875-36.946-43.555c-5.219-4.869-7.625-10.705-4.309-17.347c24.556-34.784,25.668-58.464-3.628-6.87
		c-11.299,8.926-17.468-1.024-22.78-10.596c-6.215-0.23-12.015-1.87-17.398-4.918c-69.265-74.53-36.707-26.516,1.637,10.182
		c29.393,7.291,30.853,27.16,4.381,59.607C729.182,1476.44,737.717,1467.665,745.33,1457.616z"/>
	<path style="fill:#5C592B;" d="M750.859,1460.273c3.146,0.013,39.829,40.065,45.988,42.93c4.861,2.261,13.141,2.636,14.763-3.108
		c4.497-15.921-47.992-46.606-49.934-56.613c-1.482-7.637,36.225-46.579,12.857-48.694c-14.284-1.293-20.081,34.858-29.561,32.804
		c-3.903-0.846-7.128-11.357-10.483-13.266c-4.396-2.501-10.413-0.912-16.418-4.337c-8.805-5.022-44.425-60.48-51.403-33.677
		c-2.513,9.652,40.589,41.735,45.55,54.62c11.375-0.475,19.946,4.03,21.631,16.544c1.074,7.975-22.714,26.591-15.467,35.211
		c0.446,0.421,0.899,0.831,1.345,1.254c26.472-32.447,25.011-52.316-4.381-59.607c-38.344-36.698-70.901-84.712-1.637-10.182
		c5.383,3.048,11.182,4.687,17.398,4.918c5.312,9.572,11.48,19.522,22.78,10.596c29.295-51.594,28.183-27.914,3.628,6.87
		c-3.316,6.641-0.909,12.477,4.309,17.347c7.044-2.32,61.467,62.141,36.946,43.555l-39.642-38.379
		c-3.876-4.154-9.088-4.812-13.796-1.441c-7.613,10.049-16.148,18.823-25.603,26.324
		C729.955,1491.226,745.174,1465.947,750.859,1460.273z"/>
	<path style="fill:#615D2E;" d="M1079.864,1682.699c-42.729-3.073-80.072-24.395-112.483-50.593
		c-5.484-4.432-25.488-29.896-30.98-12.898c-3.076,9.519,12.256,21.766,19.126,27.717c44.897,38.888,100.182,58.609,159.971,53.406
		c15.073-1.312,33.847-2.232,28.225-20.711C1122.142,1679.017,1101.696,1684.269,1079.864,1682.699z"/>
	<path style="fill:#5D5B2A;" d="M2159.507,235.306c-4.551-1.108-40.878-54.028-61.237-39.804
		c-16.037,11.204,14.497,19.881,20.721,24.08c42.982,29.001,6.797,29.375,1.619,39.795c-13.941,28.057,29.499,4.276,31.174,5.98
		c-3.135,10.089,1.639,45.822,17.536,35.281c9.336-6.191-2.977-44.382-1.282-47.315c4.288-7.419,38.618-9.956,34.138-24.942
		C2197.675,213.325,2166.531,237.015,2159.507,235.306z"/>
	<path style="fill:#5F5D2D;" d="M1780.354,390.351c-11.059,2.32-75.839,57.725-88.165,69.156
		c-9.113,8.451-42.96,39.562-47.549,47.315c-6.986,11.804-0.877,20.199,11.975,14.979c24.311-24.078,48.042-48.965,74.115-71.191
		c9.257-7.891,58.537-42.144,60.843-45.9C1797.219,395.521,1791.123,388.092,1780.354,390.351z"/>
	<path style="fill:#615E2C;" d="M2174.467,351.678c-3.875,1.251-21.972,44.062-27.352,52.783
		c-6.603,10.704-41.933,49.191-42.528,52.524c-1.167,6.536,8.04,10.875,14.671,8.807c10.46-3.263,47.407-55.615,53.846-67.957
		C2177.611,389.197,2200.829,343.165,2174.467,351.678z"/>
	<path style="fill:#5F5D2D;" d="M736.458,947.537c-6.433,2.031-6.721,11.663-1.981,16.144c3.753,3.547,26.173,11.863,33.652,16.737
		c7.824,5.1,31.898,27.538,38.463,25.853c6.165-1.582,9.342-7.118,5.225-13.123C803.445,980.939,749.392,943.453,736.458,947.537z"
		/>
	<path style="fill:#615E2D;" d="M1931.634,280.813c-5.666,1.489-34.952,22.208-34.925,27.509
		c0.119,23.118,43.513-8.356,47.721-14.626C1952.037,282.364,1942.5,277.957,1931.634,280.813z"/>
	<path style="fill:#5E5C2D;" d="M644.54,909.216c-30.603,5.71,36.921,53.082,27.263,19.395
		C670.065,922.55,650.609,908.083,644.54,909.216z"/>
</g>
</svg>
