<?xml version="1.0" encoding="iso-8859-1"?>
<!-- Generator: Adobe Illustrator 29.2.1, SVG Export Plug-In . SVG Version: 9.03 Build 55982)  -->
<svg version="1.1" id="Layer_1" xmlns="http://www.w3.org/2000/svg" xmlns:xlink="http://www.w3.org/1999/xlink" x="0px" y="0px"
	 viewBox="0 0 2200 2276.694" style="enable-background:new 0 0 2200 2276.694;" xml:space="preserve">
<g>
	<path style="fill:#030303;" d="M1611.844,1281.331c-51.546-3.453-102.714-2.944-154.117,1.629
		c-36.75-96.105-52.048-200.989-51.843-304.152c149.882-12.81,343.233-77.7,440.689-197.4
		c104.041-127.788,107.161-328.06,73.568-482.472c-9.502-43.675-36.995-141.92-74.899-167.063
		c-13.111-8.696-18.056-0.902-25.445-3.153c-7.716-2.35-16.784-31.772-43.446-28.461c-17.449,2.167-14.002,17.769-16.422,19.783
		c-1.245,1.036-12.052,0.032-17.151,1.588c-37.398,11.415,11.302,95.944,14.561,119.701c-3.286,3.308-31.848-25.748-45.745-1.101
		c-14.117,25.037,28.775,73.044,38.506,99.113c15.181,40.668-4.407,97.54-21.965,136.377
		c-74.73,165.296-286.281,201.439-450.548,192.099c-9.463-0.538-41.817-2.844-45.85-8.885c-4.026-6.029-5.84-28.662-4.443-35.908
		c1.511-7.837,24.391-16.53,32.578-22.134c108.794-74.468,139.399-229.087,86.033-347.082
		c-78.822-174.278-380.01-158.77-457.001,10.683c-48.41,106.55-26.349,257.318,72.405,327.821
		c6.826,4.873,38.678,21.52,39.88,23.497c5.38,8.846-0.57,37.755-1.603,48.869c-87.095,5.797-171.611,35.504-244.495,82.483
		c-176.473,113.75-312.755,376.27-388.425,567.988c-10.548,26.723-32.044,104.974-43.799,122.543
		c-3.377,5.047-21.557,16.353-27.577,22.138c-39.482,37.945-87.744,95.804-96.118,151.621c-1.077,7.176,1.438,22.381-0.937,26.465
		c-0.846,1.454-20.264,16.535-25.223,22.281c-79.336,91.931-59.115,200.269,28.689,276.516
		c116.224,100.926,378.077,146.38,529.567,173.338c85.89,15.285,270.603,53.035,350.236,43.809
		c91.037-10.548,13.175-92.305-10.41-127.247c-24.947-36.96-61.699-106.752-88.675-136.024
		c-23.72-25.74-52.684-16.221-83.628-20.079l-89.187-53.353c86.822-18.994,172.408-52.719,259.216-70.646
		c52.926-10.93,108.496-13.751,162.315-22.054c129.223-19.936,258.02-52.865,385.045-83.05c-0.889,28.442-6.372,56.693-8.598,84.998
		c-5.712,72.633-5.556,146.579-14.455,218.887c-5.206,42.303-22.638,95.034-22.817,135.852
		c-0.132,30.091,12.181,42.904,38.564,52.98c38.951,14.876,207.15,48.026,243.71,41.797c26.019-4.433,36.361-19.252,30.854-45.583
		c-4.895-23.401-56.251-62.024-76.209-76.458c-4.879-3.529-21.23-10.329-20.719-15.85
		c64.486-139.649,138.912-289.436,165.828-442.195C2000.012,1325.262,1829.064,1311.404,1611.844,1281.331z M1120.704,157.806
		h44.652c18.022,0,69.144,19.73,85.863,29.367c92.566,53.353,108.773,181.518,79.78,275.994
		c-3.267,10.645-7.432,16.777-11.523,25.927c-37.013,82.78-103.338,118.235-192.453,126.14c-3.268,0.29-5.592,1.307-7.887-2.133
		L1120.704,157.806z M893.459,423.941c-19.831-140.143,55.595-247.994,197.131-265.387l1.293,454.417
		C984.459,601.075,908.736,531.901,893.459,423.941z M1089.016,1013.391c-0.007,193.039-2.153,386.027-2.881,579.033
		c-0.155,41.15,0.366,82.445-0.294,123.587c-103.933,21.939-204.522,56.568-307.233,83.292
		c-62.427-28.176-123.82-63.334-189.35-85.942c-33.856-11.681-68.809-22.954-105.202-20.111
		c-10.829,6.272-11.88,18.389,0.754,23.738c9.908,4.195,20.951,1.143,31.572,2.992c13.187,2.297,24.309,7.153,36.813,10.72
		c118.88,33.913,228.496,103.921,334.936,164.876c23.9,7.783,56.539-7.026,75.398,13.907c4.224,4.688,5.112,11.063,7.376,14.228
		c42.773,59.792,79.991,123.605,124.501,182.277c6.424,18.682,2.173,16.243-12.151,19.376
		c-50.255,10.992-198.723-17.182-257.348-26.407c-162.022-25.496-466.152-73.78-593.797-172.485
		c-76.013-58.779-111.707-144.76-52.879-231.246c6.875-10.106,32.265-45.078,45.774-35.307c3.326,2.405,3.821,38.67,26.339,36.541
		c0.723-0.112,1.466-0.222,2.252-0.329c1.518-1.004,24.729-9.369,25.83-8.57c0.57,0.414,1.387,8.393,5.992,12.754
		c14.064,13.317,32.44,4.148,43.152-8.568c2.22-2.635,2.564-6.904,2.869-7.138c1.353-1.04,14.969,11.788,32.706,2.512
		c18.254-9.546,29.336-56.438,36.983-75.493c1.476-3.678,4.509-6.145,5.149-7.68c4.819-11.569,8.697-25.709,14.44-37.428
		l5.725,28.786c6.776,20.852,22.079,39.235,44.224,22.618c15.648-11.742,20.504-52.686,22.034-71.591
		c0.708-8.748,2.352-19.116,2.608-27.057c0.233-7.233-8.087-18.463,2.012-24.51c71.254-30.88,144.681-56.242,217.199-83.83
		c29.413-11.189,40.847-11.918,66.257-31.688c23.942-61.382,45.476-124.307,56.708-189.597
		c8.895-51.706,14.507-115.825,6.669-167.617c-1.483-9.799-0.74-29.391-15.385-28.139c-14.936,1.276-10.078,20.35-10.542,31.02
		c5.464,5.811,3.955,18.461,0.155,24.644c-74.336,71.241-141.661,150.35-204.689,231.744
		c-20.617,26.624-144.693,191.792-146.618,209.139c-2.117,19.079,1.301,43.341-0.346,63.047c-1.146,13.712-5.558,28.403-8.632,41.81
		c-5.526-1.001-4.764-6.009-5.869-9.934c-8.343-29.642-14.241-90.099-52.277-32.395c-12.738,19.324-40.297,104.416-48.391,110.078
		c-3.812,2.667-4.823-3.202-5.617-5.967c-5.632-19.606-1.311-34.731,3.543-53.75c2.616-10.25,22.52-47.073-1.637-45.004
		c-9.789,0.838-18.172,27.642-20.807,36.964c-3.773,13.343-5.271,26.7-7.186,40.346c-2.286,16.282,1.319,36.329-20.151,43.198
		c-0.778-13.428-3.762-25.429-3.093-39.232c0.223-4.604,2.185-7.448,2.855-9.024c0.073-0.25,0.145-0.521,0.224-0.703
		c1.115-9.052,1.686-17.519,3.737-26.518c2.128-9.343,11.396-27.913,10.695-35.329c-0.943-9.989-13.381-14.055-20.359-5.996
		c-7.311,8.443-17.627,54.477-20,67.842c-1.289,7.259,1.421,13.544-2.177,22.322c-1.208,2.948-15.328,17.924-16.548,17.951
		c-13.399,0.289,2.695-46.435,4.321-51.796c1.144-3.772,1.135-8.348,2.72-13.027c3.864-11.408,19.114-29.553,10.384-38.907
		c-19.711-21.116-36.03,45.184-41.735,56.431c-1.153,2.273-5.288,10.978-8.804,7.01c-1.927-2.173,7.276-32.708,9.319-38.184
		c16.752-44.897,48.721-80.695,82.81-113.082c7.803-7.413,26.232-18.191,31.366-26.25c9.877-15.505,21.859-64.294,29.901-85.33
		c101.318-265.049,266.791-608.467,572.48-669.127c16.156-3.206,55.993-4.964,67.137-10.643
		c14.041-7.156,12.687-31.854,13.585-45.47c0.314-4.757-0.249-9.637,0.015-14.395c21.027,3.874,41.728,11.798,63.376,11.505
		c0.12,9.575-0.192,19.241-0.015,28.817c0.141,7.665-0.047,15.378,0,23.046c0.621,102.158,1.12,204.665,0.05,306.842
		C1091.896,1002.454,1093.788,1010.393,1089.016,1013.391z M518.64,1455.603c96.096-126.787,186.794-260.201,302.436-370.192
		c0.198,97.533-28.965,191.935-64.038,281.603L518.64,1455.603z M1912.094,1653.541c-35.085,134.446-97.848,261.16-154.715,387.116
		c-0.511,3.454,0.096,6.702,1.188,9.969c2.358,7.056,47.222,34.484,57.754,43.138c7.933,6.519,52.038,44.225,41.865,54.634
		c-40.888,1.813-81.402-5.404-121.532-12.417c-19.663-3.436-129.183-24.678-136.331-36.514
		c-10.849-17.966,14.867-119.119,18.394-145.866c2.908-22.052,4.241-47.698,6.121-70.219c5.861-70.216,5.645-141.425,14.771-211.368
		c4.699-36.01,10.856-77.959,31.321-108.396c0.665-6.579-0.234-15.499,0-17.285c-21.004-17.123-33.504,24.647-39.643,39.578
		c-3.89,9.46-2.564,23.046-13.402,26.929c-111.569,30.416-224.944,54.439-338.739,74.65c-11.202,1.99-22.557,5.938-33.967,7.803
		c-44.183,7.224-88.802,11.843-133.089,18.122l5.733-1039.953l-0.018-31.703c27.74-1.203,56-4.737,82.166-14.345
		c2.985,1.818,1.01,8.093,1.394,11.479c5.554,48.968,21.038,52.069,67.578,54.854c128.563,7.695,311.902-16.263,410.669-105.227
		c52.356-47.159,100.513-142.544,103.628-213.255c1.947-44.197-29.093-80.06-48.933-116.605
		c4.494-4.349,47.519,49.443,57.639,15.651L1754.5,149.164c5.486,2.241,8.965,7.636,12.059,12.398
		c8.466,13.029,30.095,69.256,35.417,74.037c4.884,4.388,13.222,4.846,15.443-1.89c3.255-9.875-2.339-21.906-5.294-31.29
		c-8.209-26.073-30.128-49.994-27.42-76.287c12.092,14.067,23.208,29.543,31.762,46.018c4.828,9.299,22.114,58.379,24.901,60.05
		c2.097,1.257,11.516,1.296,13.502,0.075c11.405-7.013-11.886-57.708-15.488-68.653c-0.928-2.82-3.934-9.269,1.476-8.676
		c12.899,31.583,27.831,60.122,38.254,92.836c46.165,144.905,52.637,353.913-31.258,485.933
		c-27.3,42.96-88.883,102.679-136.593,121.235c-31.398,21.912-69.196,38.47-105.097,51.904
		c-63.392,23.72-129.871,39.498-197.378,46.052c-4.109-14.836,9.286-43.833-4.706-50.537c-3.241-0.417-6.476-0.859-9.702-1.327
		c-9.676,6.007-13.59,52.593-14.404,66.258c-2.935,49.278,2.046,107.544,9.119,156.525c7.866,54.474,22.425,109.505,39.943,161.567
		c-0.296,3.269-23.609,6.257-28.897,7.435c-10.377,2.31-55.5,7.997-51.551,23.936c1.899,4.295,5.266,7.066,9.954,7.79
		c12.766,1.969,67.483-12.225,86.283-14.406c111.607-12.951,335.272,1.062,429.868,65.553
		C1963.479,1436.229,1935.171,1565.108,1912.094,1653.541z"/>
	<path style="fill:#030303;" d="M123.961,1069.566c0-3.508,7.741-24.186,11.53-26.116c6.187-3.152,35.679,15.833,53.062-4.357
		c11.826-13.736,11.024-40.57,16.108-57.392c33.512,19.337,58.134,16.491,71.192-22.392c4.804-14.305,17.949-82.614-10.013-70.778
		c-12.046,5.099-1.513,61.682-20.696,77.531c-14.336,11.845-29.155-17.743-53.158-4.188c-18.107,10.225-12.484,55.502-21.811,61.742
		c-12.031,8.05-39.051-21.271-58.326,10.792c-3.204,5.33-10.174,23.749-10.933,29.397c-2.058,15.301,0,38.314,0,54.734
		c0,8.783,23.046,8.786,23.046,0V1069.566z"/>
	<path style="fill:#030303;" d="M537.529,310.529c13.049,1.931,76.636-15.39,81.922-11.537
		c-10.198,23.545-41.814,57.224-47.74,80.604c-4.238,16.719,4.862,20.839,19.915,19.95c18.561-1.097,85.299-13.044,102.28-18.927
		c17.764-6.154,14.546-24.886-6.604-24.125c-12.305,0.443-77.673,17.895-82.254,14.459c-3.484-2.613,42.259-66.486,44.774-74.725
		c7.812-25.59-5.509-24.566-26.012-23.134c-10.759,0.752-93.402,13.546-96.191,17.561
		C523.596,296.445,528.757,309.231,537.529,310.529z"/>
	<path style="fill:#020202;" d="M1937.747,800.336c-23.279,1.661-39.156,47.737-55.046,66.172
		c-7.143,8.287-19.678,20.499-29.365,25.37c-9.366,4.71-40.256,8.587-29.342,26.079c5.251,8.415,34.217-1.076,41.903-4.876
		c12.201-6.032,31.005-24.409,39.573-35.327c6.336-8.075,28.585-50.082,32.378-51.333c14.718-4.857,30.213,35.399,55.856,27.282
		c25.952-8.215,21.788-67.275,19.99-89.452c-0.979-12.075-3.592-46.278-20.954-41.41c-15.264,4.28-2.619,37.774-1.935,49.896
		c0.474,8.398,0.887,53.39-3.022,56.273C1969.698,821.278,1960.771,798.693,1937.747,800.336z"/>
	<path style="fill:#030303;" d="M334.258,771.379c2.816-18.169,32.57-89.685-5.846-79.296c-9.284,2.51-54.016,29.561-61.427,36.532
		c-12.135,11.415-7.998,24.959,7.984,22.663c7.461-1.072,41.211-30.003,44.869-25.949c0.55,19.849-32.13,89.618,9.473,80.077
		c5.898-1.353,69.99-42.806,75.518-48.388c11.865-11.979,5.728-26.75-10.802-22.443C384.968,736.937,339.474,775.5,334.258,771.379z
		"/>
	<path style="fill:#030303;" d="M428.539,620.857c7.732,15.791,40.983-4.714,55.503-2.114c5.201,4.749-57.624,73.898-4.651,68.86
		c6.704-0.638,61.057-14.485,63.916-16.807c7.067-5.739,5.053-17.243-3.698-19.852c-12.99-3.873-33.025,8.214-46.896,8.099
		c-4.849-4.596,48.665-67.769,10.672-68.23c-10.412-0.126-49.047,8.086-60.263,11.467
		C433.166,605.283,422.142,607.792,428.539,620.857z"/>
	<path style="fill:#F1BB93;" d="M1705.208,1072.737c-6.279-8.155-1.513-45.01-15.507-45.044
		c-12.073-0.029-7.78,37.729-15.904,44.741c-7.476,6.453-46.614,4.521-48.96,14.466c-3.471,14.711,44.772,15.052,48.449,19.212
		c5.829,6.594-0.69,47.228,13.497,48.633c18.693,1.851,12.177-42.152,18.683-47.761c6.666-5.747,47.527-5.506,51.617-10.295
		c1.607-1.881,0.828-13.352-2.492-15.723C1744.7,1073.904,1711.478,1080.88,1705.208,1072.737z"/>
	<path style="fill:#040504;" d="M1989.171,1261.219c-9.203-8.402-38.815-28.923-51.137-25.589
		c-7.247,1.961-9.648,10.548-6.48,16.881c1.912,3.823,32.237,18.906,40.321,26.003c18.622,16.351,34.014,44.259,41.962,67.507
		c5.242,15.333,9.49,53.495,14.843,62.926c7.019,12.367,21.667,5.779,22.261-4.988c0.412-7.473-4.907-30.296-6.924-39.145
		C2036.001,1329.638,2016.123,1285.823,1989.171,1261.219z"/>
	<path style="fill:#EFB78F;" d="M281.802,558.864c6.258,8.782-0.93,50.888,13.858,53.965c15.356,3.195,11.249-47.124,16.149-53.968
		c5.523-7.714,49.161,1.632,42.364-19.063c-2.951-8.986-38.463-1.293-44.581-10.196c-3.993-5.81,0.52-52.614-14.187-49.142
		c-9.204,2.173-7.284,44.698-13.674,51.171c-6.258,6.339-44.744,0.712-39.594,16.45C245.32,557.813,277.707,553.118,281.802,558.864
		z"/>
	<path style="fill:#030303;" d="M725.217,165.926c10.227,3.022,24.164-5.13,35.391-2.33c3.042,2.239-52.137,53.298,1.447,52.054
		c8.94-0.208,28.516-1.976,37.264-3.291c8.023-1.206,13.31-3.904,13.085-12.472c-0.483-18.408-23.835-7.783-37.391-10.422
		c4.926-12.037,29.639-32.361,16.579-45.377c-6.649-6.627-69.481-2.9-72.948,1.988C714.502,151.915,717.746,163.719,725.217,165.926
		z"/>
	<path style="fill:#E28658;" d="M1547.032,464.495c8.256,3.628,27.672,5.129,31.753,8.715c7.519,6.607,0.663,39.161,15.843,39.088
		c13.181-0.064,8.596-36.245,13.336-40.079c5.179-4.189,38.442,1.346,40.075-13.409c1.667-15.062-30.659-11.416-40.362-13.064
		c-1.093-7.077-5.622-43.212-9.142-45.565c-1.479-0.988-9.712-0.986-10.858-0.073c-2.729,2.175-4.772,41.676-9.542,45.2
		c-8.149,6.021-34.518-2.617-36.926,13.537C1540.31,464.881,1543.304,462.857,1547.032,464.495z"/>
	<path style="fill:#040404;" d="M1665.15,329.294c12.078,6.035,19.012-4.895,16.729-16.636
		c-2.978-15.317-29.44-70.056-38.253-85.779c-5.453-9.73-15.16-31.805-29.879-22.549c-10.922,6.868,12.157,40.804,16.444,50.388
		C1635.654,266.931,1657.876,325.659,1665.15,329.294z"/>
	<path style="fill:#030403;" d="M1618.103,361.857c2.914,1.027,12.688,1.478,14.946,0.056c1.07-0.674,3.07-7.854,3.108-9.869
		c0.186-9.709-32.295-75.839-39.574-86.766c-5.436-8.16-10.989-16.841-21.629-9.72c-13.152,8.801,12.629,42.974,17.785,53.897
		C1596.867,318.202,1612.808,359.992,1618.103,361.857z"/>
	<path style="fill:#060606;" d="M2075.211,1290.401c-6.353-2.21-18.01-1.72-18.361,6.814c5.558,27.173,16.056,54.316,23.845,81.327
		c18.334,7.863,20.714-3.86,18.721-20.166C2098.175,1348.212,2082.221,1292.84,2075.211,1290.401z"/>
	<path style="fill:#F2B991;" d="M1926.52,947.692c-27.965,6.191-19.763,52.137,13.108,44.967
		C1966.23,986.857,1960.164,940.244,1926.52,947.692z"/>
	<path style="fill:#F3BA91;" d="M1486.739,237.184c23.062-7.55,9.239-48.865-15.336-44.368
		C1442.182,198.163,1446.661,250.304,1486.739,237.184z"/>
	<path style="fill:#B4AEDC;" d="M1477.132,512.704c-20.317,4.416-21.612,37.327-5.866,42.076
		C1515.708,568.185,1516.216,504.208,1477.132,512.704z"/>
	<path style="fill:#B3ABDA;" d="M2022.532,1193.561c19.731-6.137,17.03-45.688-15.379-38.389
		C1983.655,1160.463,1988.201,1204.24,2022.532,1193.561z"/>
	<path style="fill:#F0B38A;" d="M437.231,391.906c-16.272-15.277-45.981,8.76-31.157,29.707
		C421.697,443.69,459.491,412.803,437.231,391.906z"/>
	<path style="fill:#EFAE81;" d="M2031.718,576.21c-15.204,15.204,10.522,36.472,22.619,21.193
		C2067.045,581.353,2044.691,563.237,2031.718,576.21z"/>
	<path style="fill:#EFB283;" d="M1814.203,1186.608c-20.501,2.951-16.184,31.746,2.275,31.257
		C1834.246,1217.393,1832.698,1183.945,1814.203,1186.608z"/>
	<path style="fill:#EBA276;" d="M157.312,673.401c15.506,0.858,21.069-16.097,12.046-25.158
		C152.037,630.848,128.68,671.815,157.312,673.401z"/>
	<path style="fill:#B9B0D9;" d="M299.463,1630.577c0.113-0.266,0.2-0.507,0.224-0.703
		C299.608,1630.056,299.537,1630.327,299.463,1630.577z"/>
	<path style="fill:#B9B0D9;" d="M1088.965,706.549c0.06-4.874-1.846-12.808,2.931-15.803c-0.047-7.668,0.141-15.381,0-23.046
		l-63.377-25.927c-0.898,13.617,0.455,38.314-13.585,45.47c-11.144,5.679-50.982,7.437-67.137,10.643
		c-305.69,60.66-471.162,404.078-572.48,669.127c-8.041,21.036-20.024,69.825-29.901,85.33c-5.133,8.059-23.562,18.837-31.366,26.25
		c-34.09,32.386-66.058,68.184-82.81,113.082c-2.043,5.476-11.246,36.01-9.319,38.184c3.517,3.968,7.651-4.738,8.804-7.01
		c5.704-11.247,22.024-77.547,41.735-56.431c8.731,9.353-6.52,27.499-10.384,38.907c-1.585,4.679-1.577,9.255-2.72,13.027
		c-1.402,7.167,8.521,9.563,14.404,11.523c2.373-13.365,12.689-59.4,20-67.842c6.978-8.059,19.415-3.993,20.359,5.996
		c0.701,7.416-8.567,25.986-10.695,35.329c-2.05,8.999-2.621,17.466-3.737,26.518l0.029,28.793l20.136-23.031
		c1.916-13.646,3.414-27.003,7.186-40.346c2.636-9.322,11.019-36.126,20.807-36.964c24.157-2.069,4.253,34.754,1.637,45.004
		c-4.854,19.019-9.175,34.144-3.543,53.75c0.794,2.766,1.806,8.634,5.617,5.967c8.094-5.662,35.654-90.754,48.391-110.078
		c38.036-57.704,43.934,2.754,52.277,32.395c1.105,3.925,0.343,8.934,5.869,9.934c3.074-13.406,7.486-28.098,8.632-41.81
		c1.647-19.706-1.771-43.969,0.346-63.047c1.925-17.347,126.002-182.516,146.618-209.139c8.794-24.517,24.829-52.331,39.134-74.656
		c33.052-51.583,80.087-105.183,129.923-140.869c5.821-4.168,33.051-18.942,34.073-20.652c2.958-4.949,1.142-14.19,1.404-20.211
		c0.464-10.67-4.394-29.744,10.542-31.02c14.645-1.251,13.902,18.34,15.385,28.139c6.398,10.059,10.365,22.506,13.582,33.95
		c29.426,104.65,13.548,252.846-76.959,323.264c-25.41,19.77-36.844,20.499-66.257,31.688c-1.777,4.923-5.604,6.555-9.565,9.147
		c-59.144,38.698-120.989,62.439-178.564,98.003c-12.166,7.515-27.401,15.479-33.69,28.246c-1.53,18.905-6.385,59.849-22.034,71.591
		c-22.145,16.617-37.448-1.766-44.224-22.618c-4.952,8.379-10.592,10.027-20.165,8.642c-0.639,1.535-3.673,4.002-5.149,7.68
		c-7.647,19.055-18.729,65.947-36.983,75.493c-17.737,9.276-31.354-3.552-32.706-2.512c-0.305,0.235-0.649,4.503-2.869,7.138
		c-10.712,12.717-29.088,21.886-43.152,8.568c-4.605-4.361-5.422-12.34-5.992-12.754c-1.101-0.799-24.312,7.566-25.83,8.57
		c-18.675,12.35-32.783,43.061-46.092,57.615c17.661,2.427,10.02,22.891,11.774,35.759c1.597,11.717,11.49,29.407,18.724,38.891
		c4.787,6.276,38.029,33.503,14.083,37.792c-26.642,4.772-56.554-53.246-58.984-74.992c-7.606,48.791,25.273,86.45,63.625,110.774
		c2.909,1.845,7.365,0.943,8.394,1.576c-6.329-10.782,1.357-25.762,13.529-20.937c13.977,5.541,20.782,29.374,0.875,29.579
		c193.733,110.938,464.067,135.476,682.779,185.77c30.506,7.015,65.78,21.334,94.258,26.723c8.829,1.67,17.834,0.334,26.695,0.684
		c14.324-3.133,18.575-0.694,12.151-19.376c-44.51-58.672-81.728-122.485-124.501-182.277c-22.549,1.219-44.773-5.625-65.336-13.885
		c-103.081-41.404-200.979-109.103-302.371-155.67c-16.526-7.59-36.313-11.422-50.003-23.457
		c-12.504-3.567-23.626-8.423-36.813-10.72c-10.621-1.85-21.664,1.203-31.572-2.992c-12.634-5.349-11.582-17.466-0.754-23.738
		c5.426-3.142,27.495-5.376,35.89-5.881c102.818-6.187,206.116,11.784,308.242,17.523c50.789,2.854,102.3,0.353,152.68-0.238
		c34.115-0.4,68.313,0.531,102.401,0.134l2.866-112.365c0.728-193.005,2.873-385.994,2.881-579.033
		C1089.02,911.201,1087.7,808.753,1088.965,706.549z M516.489,1130.781c-15.283-15.594,19.933-30.905,19.702-9.34
		C536.074,1132.278,523.194,1137.623,516.489,1130.781z M714.191,884.732c-55.149,62.099-106.47,127.432-151.121,197.577
		c-4.028,5.295-12.725,7.436-17.792,2.376c-7.031-7.021,1.089-17.259,4.555-24.254c20.696-41.768,65.24-98.333,95.619-134.83
		c8.49-10.2,47.558-57.883,56.249-59.206C713.563,864.591,720.433,874.984,714.191,884.732z M734.708,844.86
		c-15.116-7.198,9.455-34.243,22.049-35.329C786.014,807.008,756.712,855.339,734.708,844.86z"/>
	<path style="fill:#B9B0D9;" d="M251.343,1696.46c0.727-0.069,1.478-0.177,2.252-0.329
		C252.809,1696.238,252.066,1696.348,251.343,1696.46z"/>
	<path style="fill:#F0B991;" d="M1874.692,1375.698c-94.596-64.491-318.26-78.504-429.868-65.553
		c-18.801,2.182-73.517,16.376-86.283,14.406c-4.688-0.723-8.055-3.495-9.954-7.79c-3.95-15.939,41.174-21.626,51.551-23.936
		c4.815-5.616-0.287-6.527-2.843-10.019c-14.661-20.037-24.697-35.702-32.544-59.742c-26.421-80.943-19.098-178.397,15.221-255.765
		c0.814-13.664,4.728-60.251,14.404-66.258c13.104-8.135,76.851,1.901,96.991,1.794c60.377-0.322,162.946-25.737,219.893-47.886
		c47.71-18.556,109.293-78.274,136.593-121.235c83.896-132.02,77.423-341.028,31.258-485.933
		c-10.422-32.714-25.355-61.252-38.254-92.836c-5.409-0.593-2.404,5.856-1.476,8.676c3.603,10.945,26.893,61.639,15.488,68.653
		c-1.986,1.222-11.405,1.183-13.502-0.075c-2.787-1.672-20.073-50.751-24.901-60.05c-8.554-16.476-19.67-31.951-31.762-46.018
		c-2.708,26.294,19.211,50.214,27.42,76.287c2.954,9.384,8.549,21.415,5.294,31.29c-2.221,6.736-10.558,6.278-15.443,1.89
		c-5.322-4.782-26.951-61.009-35.417-74.037c-3.094-4.762-6.573-10.156-12.059-12.398l37.446,125.148
		c-10.12,33.792-53.145-20-57.639-15.651c19.84,36.545,50.88,72.408,48.933,116.605c-3.115,70.711-51.272,166.096-103.628,213.255
		c-98.768,88.964-282.107,112.922-410.669,105.227c-46.54-2.785-62.024-5.886-67.578-54.854
		c-23.536,16.584-54.303,31.889-83.542,34.569l-5.733,1039.953c44.287-6.279,88.906-10.898,133.089-18.122
		c11.41-1.865,22.765-5.814,33.967-7.803c1.843-5.496,7.014-5.661,11.438-7.288c81.913-30.115,167.033-56.627,247.739-89.309
		c33.548-13.585,88.519-46.25,118.724-54.105c5.335-1.387,11.642-3.892,16.84-0.62c8.62,5.425-2.781,8.812-2.958,10.165
		c-0.234,1.786,0.665,10.706,0,17.285c-8.86,87.65-14.047,175.489-30.18,262.218c-3.459,18.598-6.34,41.468-15.913,57.547
		c-1.88,22.521-3.213,48.167-6.121,70.219c-3.527,26.747-29.243,127.9-18.394,145.866c7.148,11.837,116.668,33.078,136.331,36.514
		c40.13,7.013,80.644,14.23,121.532,12.417c10.173-10.409-33.932-48.115-41.865-54.634c-10.532-8.654-55.396-36.083-57.754-43.138
		c-1.092-3.267-1.7-6.514-1.188-9.969c56.867-125.956,119.631-252.67,154.715-387.116
		C1935.171,1565.108,1963.479,1436.229,1874.692,1375.698z M1806.743,715.91c1.262-6.27,23.387-34.307,28.884-46.276
		c5.919-12.888,20.563-70.487,23.229-73.254c5.608-5.82,16.427-3.965,18.89,4.207c8.046,26.694-27.458,110.474-51.407,125.994
		C1814.709,734.118,1803.934,729.87,1806.743,715.91z M1411.968,721.372c2.548-7.458,32.747-6.643,41.093-7.951
		c42.92-6.722,88.467-15.68,128.464-32.858c8.966-3.851,27.764-17.334,33.935-18.204c11.604-1.636,15.55,11.654,9.564,21.394
		c-16.253,26.444-145.152,53.843-177.389,55.927C1433.957,740.565,1404.48,743.286,1411.968,721.372z M1617.657,1367.749
		c-4.88,9.842-50.505,9.943-50.517-7.226c0.806-4.82,6.377-11.084,10.77-12.359
		C1591.653,1344.176,1628.686,1345.505,1617.657,1367.749z M1834.637,1426.158c-5.503,18.338-30.559-3.745-39.868-7.987
		c-48.964-22.312-97.677-32.747-149.831-43.159c-6.081-6.096-3.233-18.651,4.956-21.094c20.754-6.191,99.451,17.245,122.574,26.057
		C1788.589,1386.119,1840.988,1404.994,1834.637,1426.158z M1873.867,1491.744c-16.967,1.645-20.096-24.283-5.019-28.581
		C1887.671,1457.797,1894.107,1489.781,1873.867,1491.744z"/>
	<path style="fill:#F0B991;" d="M1394.376,901.042c3.226,0.468,6.461,0.909,9.702,1.327
		C1401.701,901.229,1398.557,900.714,1394.376,901.042z"/>
	<path style="fill:#F0B991;" d="M1127.024,615.233c89.115-7.905,155.44-43.359,192.453-126.14
		c-15.489,14.597-72.724,16.34-82.115-2.861c-16.549-33.835,53.499-47.74,78.422-35.228c8.243,4.139,6.987,12.276,15.217,12.162
		c28.992-94.475,12.786-222.64-79.78-275.994c-16.719-9.637-67.841-29.367-85.863-29.367h-44.652l-1.568,455.294
		C1121.432,616.54,1123.756,615.523,1127.024,615.233z M1181.162,372.371c14.12-8.602,20.106,8.951,27.847,15.453
		c15.165,12.74,43.556,13.634,57.647-0.522c6.911-6.942,10.6-25.655,24.84-21.682c21.156,5.902-3.126,37.861-13.805,45.679
		c-22.451,16.437-57.964,16.272-80.636,0.001C1188.074,404.854,1166.171,381.503,1181.162,372.371z"/>
	<path style="fill:#BAB0DA;" d="M1090.59,158.554c-141.536,17.393-216.963,125.245-197.131,265.387
		c15.277,107.96,91,177.134,198.424,189.029L1090.59,158.554z M966.698,500.733c-57.81,3.929-78.865-47.696-25.262-54.126
		C998.057,439.814,1031.423,496.334,966.698,500.733z M1052.134,393.155c-19.232,33.505-62.431,41.527-94.747,21.592
		c-9.667-5.964-33.662-27.456-19.872-38.261c14.951-11.715,25.578,12.141,37.137,18.117c20.864,10.786,40.513,4.889,55.208-12.252
		c2.556-2.981,3.731-10.181,4.862-10.897C1046.191,364.19,1062.598,374.924,1052.134,393.155z"/>
	<path style="fill:#8C81BC;" d="M971.966,2106.333c-107.752-23.094-216.037-44.766-324.856-65.013
		c-116.789-25.238-251.255-56.044-355.272-115.696c-2.495-1.431-4.595-3.576-6.672-5.842c-2.12-2.312-3.927-4.912-5.644-7.593
		c-5.045-2.889-9.496-5.625-14.404-8.642c-2.078,7.005-5.103,5.924-10.95,3.544c-22.583-9.193-53.472-45.935-61.867-68.865
		c-4.79-13.083-11.947-38.771,0.798-47.028c-0.963-8.619,0.718-29.097,7.045-34.838c2.283-2.072,6.855-2.061,7.359-2.612
		l-1.95-6.561l27.244-38.73c5.456-8.631,9.844-10.643,18.546-11.995c-22.518,2.129-23.013-34.136-26.339-36.541
		c-13.509-9.771-38.899,25.201-45.774,35.307c-58.829,86.486-23.134,172.467,52.879,231.246
		c127.645,98.706,431.774,146.99,593.797,172.485c58.625,9.225,207.093,37.399,257.348,26.407
		C1046.128,2127.576,1009.031,2121.232,971.966,2106.333z"/>
	<path style="fill:#8C81BC;" d="M232.797,1708.456l-27.244,38.73l1.95,6.561c13.309-14.554,27.417-45.265,46.092-57.615
		c-0.774,0.151-1.525,0.26-2.252,0.329C242.641,1697.813,238.253,1699.825,232.797,1708.456z"/>
	<path style="fill:#8C81BC;" d="M192.301,1838.224c8.396,22.931,39.284,59.672,61.867,68.865c5.847,2.38,8.872,3.461,10.95-3.544
		c-1.029-0.633-5.485,0.269-8.394-1.576c-38.352-24.324-71.231-61.982-63.625-110.774
		C180.354,1799.454,187.511,1825.141,192.301,1838.224z"/>
	<path style="fill:#8C81BC;" d="M1056.559,2124.681c-28.478-5.388-63.753-19.708-94.258-26.723
		c-218.712-50.295-489.046-74.832-682.779-185.77c1.717,2.681,3.524,5.281,5.644,7.593c2.077,2.266,4.176,4.411,6.672,5.842
		c104.017,59.652,238.483,90.458,355.272,115.696c108.819,20.248,217.104,41.919,324.856,65.013
		c37.066,14.899,74.162,21.242,111.289,19.032C1074.394,2125.015,1065.388,2126.352,1056.559,2124.681z"/>
	<path style="fill:#8B7FBD;" d="M1072.244,1710.608c-153.609,4.544-305.804-1.327-458.249-17.427
		c-43.146-2.788-88.408-3.994-129.939,0.07c36.393-2.843,71.346,8.43,105.202,20.111c65.529,22.608,126.923,57.766,189.35,85.942
		c102.711-26.724,203.3-61.354,307.233-83.292c0.66-41.142,0.139-82.437,0.294-123.587l-1.538,114.63L1072.244,1710.608z"/>
	<path style="fill:#8B7FBD;" d="M980.868,1704.655c-50.38,0.59-101.891,3.092-152.68,0.238
		c-102.126-5.739-205.424-23.71-308.242-17.523c-8.395,0.505-30.464,2.739-35.89,5.881c41.531-4.064,86.793-2.858,129.939-0.07
		c152.445,16.1,304.64,21.971,458.249,17.427l12.354-3.554l1.538-114.63l-2.866,112.365
		C1049.182,1705.186,1014.984,1704.255,980.868,1704.655z"/>
	<path style="fill:#E18253;" d="M1655.753,1540.317c-116.539,62.942-248.289,107.182-376.607,147.173
		c113.795-20.211,227.17-44.234,338.739-74.65c10.838-3.884,9.512-17.469,13.402-26.929c6.139-14.931,18.639-56.701,39.643-39.578
		C1670.488,1537.55,1663.566,1537.343,1655.753,1540.317z"/>
	<path style="fill:#E18253;" d="M1673.887,1536.167c-5.197-3.271-11.505-0.767-16.84,0.62
		c-30.205,7.856-85.176,40.521-118.724,54.105c-80.707,32.681-165.826,59.194-247.739,89.309c-4.424,1.626-9.595,1.792-11.438,7.288
		c128.318-39.991,260.068-84.23,376.607-147.173c7.813-2.974,14.735-2.766,15.176,6.015
		C1671.106,1544.98,1682.506,1541.592,1673.887,1536.167z"/>
	<path style="fill:#E08354;" d="M1407.261,1286.956c-0.613,3.035-2.988,4.991-7.123,5.87c5.287-1.177,28.601-4.166,28.897-7.435
		c-17.518-52.062-32.077-107.093-39.943-161.567c-7.073-48.98-12.054-107.247-9.119-156.525
		C1350.017,1072.902,1334.081,1196.952,1407.261,1286.956z"/>
	<path style="fill:#E08354;" d="M1364.751,1223.064c7.847,24.04,17.883,39.706,32.544,59.742c2.555,3.492,7.658,4.403,2.843,10.019
		c4.136-0.878,6.51-2.834,7.123-5.87c-73.18-90.004-57.244-214.054-27.289-319.656
		C1345.653,1044.667,1338.33,1142.121,1364.751,1223.064z"/>
	<path style="fill:#8B7FBC;" d="M844.151,1022.034c7.838,51.792,2.226,115.911-6.669,167.617
		c-11.232,65.29-32.766,128.214-56.708,189.597c28.761-36.013,52.912-66.744,67.74-111.367
		C875.323,1187.208,867.178,1101.657,844.151,1022.034z"/>
	<path style="fill:#8B7FBC;" d="M857.733,1055.984c-3.218-11.444-7.184-23.891-13.582-33.95
		c23.027,79.624,31.172,165.174,4.364,245.848c-14.828,44.623-38.98,75.354-67.74,111.367
		C871.281,1308.83,887.159,1160.634,857.733,1055.984z"/>
	<path style="fill:#E18355;" d="M1404.078,902.368c13.992,6.705,0.597,35.701,4.706,50.537
		c67.507-6.554,133.986-22.332,197.378-46.052c35.902-13.434,73.699-29.992,105.097-51.904
		C1616.04,903.372,1506.412,915.545,1404.078,902.368z"/>
	<path style="fill:#E18355;" d="M1394.376,901.042c4.181-0.328,7.324,0.188,9.702,1.327
		c102.334,13.177,211.962,1.003,307.182-47.419c-56.947,22.148-159.516,47.564-219.893,47.886
		C1471.227,902.943,1407.48,892.907,1394.376,901.042z"/>
	<path style="fill:#8A7DBC;" d="M714.517,1410.936c-72.517,27.587-145.945,52.949-217.199,83.83
		c-10.099,6.047-1.778,17.277-2.012,24.51c-0.257,7.941-1.9,18.308-2.608,27.057l5.702-15.752
		C568.111,1487.545,640.15,1447.664,714.517,1410.936z"/>
	<path style="fill:#8A7DBC;" d="M526.388,1518.086c57.575-35.564,119.42-59.305,178.564-98.003c3.961-2.592,7.788-4.224,9.565-9.147
		c-74.367,36.728-146.406,76.609-216.117,119.644l-5.702,15.752C498.987,1533.565,514.222,1525.601,526.388,1518.086z"/>
	<path style="fill:#DF8356;" d="M1670.929,1563.617c-20.464,30.438-26.622,72.387-31.321,108.396
		c-9.126,69.943-8.91,141.152-14.771,211.368c19.143-91.716,28.864-191.237,37.177-287.426L1670.929,1563.617z"/>
	<path style="fill:#DF8356;" d="M1670.929,1563.617l-8.916,32.339c-8.312,96.188-18.034,195.71-37.177,287.426
		c9.573-16.079,12.453-38.949,15.913-57.547C1656.882,1739.105,1662.069,1651.267,1670.929,1563.617z"/>
	<path style="fill:#9083C1;" d="M949.387,1916.796c9.419-0.613,16.592,1.692,21.518,6.916c-2.264-3.165-3.152-9.54-7.376-14.228
		c-18.86-20.933-51.499-6.124-75.398-13.907c-106.44-60.955-216.056-130.963-334.936-164.876
		c82.567,31.004,164.539,74.556,242.859,119.96C845.977,1878.413,894.332,1905.248,949.387,1916.796z"/>
	<path style="fill:#9083C1;" d="M905.568,1909.827c20.564,8.26,42.787,15.104,65.336,13.885c-4.926-5.224-12.098-7.529-21.518-6.916
		c-55.055-11.548-103.41-38.383-153.333-66.135c-78.32-45.405-160.292-88.956-242.859-119.96
		c13.689,12.035,33.476,15.866,50.003,23.457C704.589,1800.724,802.487,1868.423,905.568,1909.827z"/>
	<path style="fill:#8C80BB;" d="M817.177,1047.608c-89.136,57.948-152.152,141.574-203.487,233.694
		c63.028-81.393,130.353-160.503,204.689-231.744c3.8-6.183,5.309-18.833-0.155-24.644
		C820.527,1031.971,821.637,1041.021,817.177,1047.608z"/>
	<path style="fill:#8C80BB;" d="M816.82,1045.125c-1.022,1.71-28.253,16.484-34.073,20.652
		c-49.836,35.686-96.87,89.286-129.923,140.869c-14.305,22.326-30.34,50.139-39.134,74.656
		c51.335-92.12,114.351-175.746,203.487-233.694c4.459-6.587,3.349-15.637,1.047-22.694
		C817.962,1030.936,819.778,1040.177,816.82,1045.125z"/>
	<path style="fill:#E28355;" d="M1311.336,455.307c-90.13-17.784-95.266,63.846,0.965,31.961l7.176,1.826
		c4.091-9.15,8.256-15.281,11.523-25.927C1327.307,468.513,1320.753,465.893,1311.336,455.307z"/>
	<path style="fill:#E28355;" d="M1315.783,451.004c-24.922-12.512-94.971,1.393-78.422,35.228
		c9.392,19.201,66.627,17.458,82.115,2.861l-7.176-1.826c-96.231,31.885-91.095-49.745-0.965-31.961
		c9.416,10.586,15.971,13.206,19.663,7.859C1322.77,463.28,1324.026,455.143,1315.783,451.004z"/>
	<path style="fill:#E18153;" d="M1193.02,637.628l8.345,1.265c-0.384-3.386,1.591-9.661-1.394-11.479
		c-26.166,9.608-54.426,13.142-82.166,14.345l0.018,31.703l5.432-6.46C1148.474,662.924,1171.837,651.608,1193.02,637.628z"/>
	<path style="fill:#E18153;" d="M1193.02,637.628c-21.183,13.98-44.546,25.296-69.765,29.374l-5.432,6.46
		c29.239-2.68,60.006-17.985,83.542-34.569L1193.02,637.628z"/>
	<path style="fill:#8A80B8;" d="M1088.468,660.073l3.428,7.627c-0.177-9.576,0.135-19.242,0.015-28.817
		c-21.648,0.293-42.349-7.631-63.376-11.505c-0.264,4.759,0.299,9.639-0.015,14.395l5.261-4.073
		C1052.002,645.155,1070.231,652.612,1088.468,660.073z"/>
	<path style="fill:#8A80B8;" d="M1088.468,660.073c-18.237-7.461-36.466-14.918-54.688-22.372l-5.261,4.073l63.377,25.927
		L1088.468,660.073z"/>
	<path style="fill:#8A80B8;" d="M1091.896,690.746c-1.105,105.387-2.065,212.935-2.881,322.645
		c4.772-2.998,2.88-10.937,2.931-15.803C1093.016,895.411,1092.517,792.904,1091.896,690.746z"/>
	<path style="fill:#8A80B8;" d="M1088.965,706.549c-1.265,102.204,0.054,204.652,0.05,306.842
		c0.816-109.71,1.776-217.258,2.881-322.645C1087.119,693.741,1089.026,701.675,1088.965,706.549z"/>
	<path style="fill:#A193CB;" d="M259.357,1618.351c-1.626,5.361-17.72,52.085-4.321,51.796c1.22-0.026,15.34-15.003,16.548-17.951
		c3.597-8.778,0.888-15.063,2.177-22.322C266.057,1639.288,254.993,1629.976,259.357,1618.351z"/>
	<path style="fill:#A193CB;" d="M259.357,1618.351c-4.363,11.625,6.7,20.937,14.404,11.523
		C267.878,1627.914,257.954,1625.518,259.357,1618.351z"/>
	<path style="fill:#9587BF;" d="M299.399,1661.847c-1.873-1.088-1.675-25.342,0.064-31.27c-0.67,1.576-2.631,4.421-2.855,9.024
		c-0.669,13.803,2.315,25.804,3.093,39.232c21.47-6.868,17.865-26.916,20.151-43.198
		C318.535,1642.287,307.057,1666.297,299.399,1661.847z"/>
	<path style="fill:#9587BF;" d="M299.687,1629.874c-0.024,0.196-0.11,0.437-0.224,0.703c-1.739,5.928-1.937,30.182-0.064,31.27
		c7.658,4.45,19.135-19.56,20.453-26.212l-20.136,23.031L299.687,1629.874z"/>
	<path style="fill:#998DBF;" d="M426.441,1595.305l-5.725-28.786c-5.743,11.72-9.621,25.859-14.44,37.428
		C410.101,1598.149,419.401,1595.562,426.441,1595.305z"/>
	<path style="fill:#998DBF;" d="M426.441,1595.305c-7.04,0.257-16.339,2.844-20.165,8.642
		C415.849,1605.332,421.489,1603.684,426.441,1595.305z"/>
	<path style="fill:#FBFBF9;" d="M1868.848,1463.163c-15.077,4.298-11.948,30.226,5.019,28.581
		C1894.107,1489.781,1887.671,1457.797,1868.848,1463.163z"/>
	<path style="fill:#030302;" d="M1197.056,411.3c22.672,16.271,58.185,16.435,80.636-0.001c10.679-7.818,34.96-39.777,13.805-45.679
		c-14.24-3.972-17.929,14.74-24.84,21.682c-14.091,14.156-42.482,13.262-57.647,0.522c-7.741-6.503-13.726-24.055-27.847-15.453
		C1166.171,381.503,1188.074,404.854,1197.056,411.3z"/>
	<path style="fill:#E48556;" d="M941.436,446.607c-53.603,6.431-32.548,58.056,25.262,54.126
		C1031.423,496.334,998.057,439.814,941.436,446.607z"/>
	<path style="fill:#030303;" d="M1034.722,371.455c-1.131,0.716-2.306,7.916-4.862,10.897
		c-14.695,17.14-34.344,23.038-55.208,12.252c-11.56-5.976-22.186-29.832-37.137-18.117c-13.79,10.805,10.205,32.297,19.872,38.261
		c32.316,19.935,75.515,11.912,94.747-21.592C1062.598,374.924,1046.191,364.19,1034.722,371.455z"/>
</g>
</svg>
