<?xml version="1.0" encoding="iso-8859-1"?>
<!-- Generator: Adobe Illustrator 29.2.1, SVG Export Plug-In . SVG Version: 9.03 Build 55982)  -->
<svg version="1.1" id="Layer_1" xmlns="http://www.w3.org/2000/svg" xmlns:xlink="http://www.w3.org/1999/xlink" x="0px" y="0px"
	 viewBox="0 0 2856.61 2200" style="enable-background:new 0 0 2856.61 2200;" xml:space="preserve">
<g>
	<path style="fill:#020202;" d="M2522.527,1335.371c-87.895,66.683-100.949,230.557-250.012,181.797
		c-16.063-5.254-94.546-47.8-100.32-59.642c-1.551-3.181-5.682-57.248-3.962-59.695c139.255-46.313,209.095-168.104,183.309-313.093
		c-2.434-13.685-21.25-60.493-20.61-63.782c0.321-1.653,17.119-27.174,18.495-28.143c2.829-1.991,29.043,9.935,36.691,7.129
		c-0.285-5.329,2.389-28.654,3.72-33.48c-5.761,0.483-20.773,1.315-22.123-5.844c-0.645-3.415,16.569-53.362,17.951-67.149
		c14.592-145.534-93.492-281.614-241.337-287.875c1.006-6.881,3.673-13.096,3.904-20.241c0.384-11.871-4.128-42.426-3.042-48.126
		c1.4-7.351,26.224-24.963,33.792-29.003c76.354-40.763,184.504-25.194,244.336,37.875c2.028-3.431,19.793-24.198,22.32-26.04
		c-82.545-78.254-216.212-90.252-308.723-22.324c-13.088-70.101-58.061-124.99-114.677-165.488
		c14.788-28.61,40.094-49.713,67.437-65.835c6.598-3.89,21.682-7.516,24.879-10.476c5.977-5.534-1.477-30.483-11.16-29.76
		c-28.162,2.1-72.69,42.274-91.184,63.198c-6.578,7.442-13.622,25.46-22.328,26.302c-39.249-14.108-79.857-24.345-122.094-23.155
		c-52.271-89.115-154.759-119.06-253.52-110.927c-54.9,4.521-124.326,32.82-147.051,85.495
		c-5.157,3.681-15.547-10.931-20.518-14.764c-105.311-81.207-272.004-47.602-344.097,61.171c-4.253,6.417-13.88,30.19-15.349,31.112
		c-2.891,1.814-55.607-4.026-68.191-3.057c-133.74,10.301-248.707,140.764-196.948,275.374
		c-89.148,32.023-142.161,119.589-135.989,213.695c0.561,8.556,7.824,28.584,6.723,33.22c-1.005,4.235-19.846,13.958-25.432,18.879
		c-7.745,6.823-36.8,41.606-39.586,42.416c-13.617,3.961-59.112-22.773-70.081-33.104c-58.073-54.692-39.707-149.015-24.211-219.451
		c4.082-26.783-6.735-17.376-27.675-18.747c-0.967,0.168-5.344,16.304-5.806,18.747c-4.641,24.576-6.86,53.073-11.197,78.121
		c-66.768-55.506-163.511-35.782-226.885,14.88c1.322,0.963,21.354,21.001,22.32,22.32c43.295-29.408,116.138-54.579,165.003-25.502
		c4.265,2.538,30.414,27.415,32.371,30.869c5.86,10.34,7.624,47.047,15.561,66.28c19.154,46.413,64.693,86.919,114.423,95.794
		c-52.522,115.448-5.286,302.228,100.784,373.486c8.066,5.419,46.615,23.196,47.425,26.725c0.881,3.838-5.609,23.595-8.804,27.45
		c-5.643,6.808-26.99,13.329-36.138,15.944c-157.643,45.065-186.852-85.772-302.817-141.79c-11.244-5.431-25.78-7.602-34.807-11.692
		c-14.32-4.143-9.873,28.422-11.16,29.76c90.489,19.918,134.893,118.182,215.829,150.595
		c53.604,21.467,113.398,16.181,167.312-1.778c-1.112,39.183,3.879,80.397,22.34,115.255
		c-84.999,19.476-144.746,89.893-189.718,160.011c2.126,1.473,13.079,14.788,16.801,18.719c2.763,2.918,8.946,3.201,9.24,3.601
		c31.85-53.504,82.891-118.556,142.565-142.021c7.562-2.974,29.873-10.866,36.202-8.472c2.942,1.113,33.596,38.462,42.685,46.221
		c49.919,42.619,135.955,75.779,201.251,81.471c18.634,1.624,58.954-4.617,69.333-2.504c2.899,0.59,47.759,30.178,49.327,32.686
		c13.945,22.316-48.7,117.474-76.359,126.539c0.788,0.68,6.099,13.541,9.624,18.466c2.618,3.658,8.554,6.83,8.976,7.575
		c48.057-30.331,80.235-86.671,93.045-141.391c105.742,30.583,210.415-36.624,229.54-144.25l23.336-101.22
		c7.183,41.765,17.007,82.939,31.726,122.674c3.517,9.494,14.916,24.812,16.066,32.576c1.145,7.734-9.945,27.789-12.435,38.144
		c-30.397,126.385,50.552,220.556,158.127,271.588c1.51-3.838,26.185-18.087,14.88-29.76c-9.875-1.046-65.605-39.545-76.15-48.471
		c-55.148-46.678-92.997-123.225-59.613-193.315c130.271,172.715,374.236,100.131,522.599-7.451
		c20.597,49.981,68.704,86.931,115.368,111.595c0.385-1.619,13.938-28.389,14.88-29.76
		c-25.271-6.028-107.949-78.828-103.558-101.773c0.95-4.966,28.741-28.702,34.79-35.816c32.339-38.028,61.279-80.835,72.533-130.246
		c71.402,52.777,156.448,91.725,239.265,36.56c73.37-48.872,80.808-156.338,169.893-189.09c-1.538-2.004-14.055-27.03-14.88-29.76
		C2547.675,1318.879,2534.31,1326.432,2522.527,1335.371z M1378.954,249.39c14.462,5.59,58.284,30.923,64.194,43.864
		c3.883,8.502-15.243,69.113-16.74,87.36c-6.944,84.7,9.809,164.332,43.841,241.258c-37.291,40.386-50.286,94.735-66.057,145.878
		c-117.15-23.437-199.708-167.046-111.687-268.076c8.669-9.95,36.208-23.613,28.027-39.08
		c-21.051-39.797-66.422,45.434-73.843,50.913c-10.583,7.813-62.231,5.954-76.349,2.298c-34.936-9.047-59.558-51.393-63.515-85.29
		C1090.998,292.932,1264.916,205.308,1378.954,249.39z M1418.831,1396.08c-1.798,30.346-14.505,63.773-14.837,94.905
		c-21.417-21.093-41.56-36.002-69.623-47.523c-24.978-10.255-39.646,1.042-38.352-36.025c0.487-13.956,20.561-47.727-2.465-53.62
		c-30.018-7.682-28.21,64.419-27.647,80.876c-40.418,6.966-67.674,25.977-97.555,52.265
		c-49.231-43.433-105.716-80.597-173.761-83.157c-7.591-25.658-23.295-66.781-44.404-83.937c-0.811-0.659-17.387-9.289-18.524-9.668
		c-17.229-5.758-24.266,15.746-14.957,28.269c2.131,2.867,10.971,5.697,14.483,9.661c15.198,17.154,28.373,39.317,30.42,62.606
		c-17.425,3.179-72.81,36.269-56.406,56.414c15.466,18.992,36.292-12.771,51.241-20.123
		c67.084-32.991,187.638,36.832,212.383,102.466c3.683,9.768,10.225,51.139,12.514,52.575c8.946,5.614,26.682-0.203,28.494-13.286
		c4.889-35.301-36.019-61.52-3.038-92.281c48.306-45.055,130.074-35.089,171.095,15.049c8.043,9.831,15.433,20.047,15.135,33.191
		c-0.525,23.113-26.939,96.333-41.083,115.505c-45.248,61.335-149.221,71.143-209.536,27.267
		c-8.983-6.535-21.589-24.053-30.61-25.478c-12.288-1.941-37.602,6.559-51.879,6.763c-94.144,1.346-228.012-60.048-264.049-151.832
		c-11.323-28.839-23.174-130.671-3.861-152.531c4.677-5.294,38.779-1.983,22.422-29.737c-3.097-5.256-44.211-12.694-56.492-17.884
		c-136.698-57.773-194.671-333.848-55.139-420.967c17.723,22.76,35.081,46.648,57.975,64.727
		c10.593,8.366,39.271,31.006,49.967,13.375c12.474-20.562-23.633-33.293-37.149-44.793
		c-96.397-82.022-59.208-231.058,52.516-278.348c12.791-5.414,43.031-9.184,47.906-19.139c9.595-19.594-12.617-19.186-20.159-28.298
		c-22.463-27.144-9.688-91.901,3.859-121.839c23.779-52.552,93.471-99.497,150.532-106.15c9.686-1.129,59.761-2.059,64.873,1.294
		c6.367,4.175-0.915,23.616-0.468,33.704c4.028,90.849,63.287,150.584,156.519,139.462
		c-28.035,115.784,57.8,229.285,171.157,249.243c-24.754,164.154-2.978,330.302,7.404,494.751
		c-85.94-7.469-147.412-67.615-189.705-137.649c-1.661,5.688-14.787,29.177-18.6,33.48
		c51.07,73.658,122.376,132.644,215.733,137.674C1413.035,1350.984,1420.233,1372.418,1418.831,1396.08z M2151.775,1362.792
		c-3.225-1.595-33.391-48.607-42.648-57.958c-17.604-17.783-53.822-42.818-76.467-53.734c-23.617-11.385-75.32-19.914-89.463-29.578
		c-19.715-13.471-40.673-47.619-44.089-71.232c-1.857-12.839,4.834-63.041-26.414-44.386c-23.217,13.86,5.531,96.184,22.38,113.483
		c-18.499,3.457-73.284,8.295-85.642,20.387c-8.753,8.565-3.253,26.866,9.503,28.053c10.141,0.944,51.595-13.981,70.416-15.066
		c133.056-7.671,289.154,106.333,241.129,252.288c-51.353,156.069-306.652,282.638-463.158,249.031
		c-192.95-41.433-197.677-270.214-222.383-426.758c90.509-9.008,168.57-76.556,205.25-157.482
		c5.853-12.913,24.444-47.802,4.167-53.912c-24.207-7.294-26.489,28.784-35.016,45.383
		c-35.174,68.471-98.524,126.739-178.109,132.538l-18.778-236.069c-1.237-102.687-11.157-384.187,99.762-436.278
		c39.482-18.542,61.674,3.666,80.024-1.614c10.505-3.023,14.38-19.672,6.473-27.398c-16.347-15.973-90.29-12.037-109.889,5.332
		c-65.433-115.738-70.793-360.249,101.463-381.854c84.679-10.621,182.062,6.95,231.461,82.772
		c-13.309,8.381-28.201,13.525-41.959,21.169c-9.135,5.076-27.453,24.152-35.972,19.911c-5.334-2.655-12.188-13.988-18.938-18.548
		c-12.424-8.393-51.776-29.806-58.611-6.921c-7.109,23.801,21.527,21.225,37.786,31.465c37.457,23.59,11.424,40.001,4.132,73.611
		c-3.486,16.07-13.871,68.692,11.522,71.053c23.835,2.215,14.702-32.184,16.625-46.626
		c20.727-155.666,212.641-139.086,301.373-48.526c44.486,45.402,79.829,141.111,66.027,203.885
		c-3.612,16.43-35.062,19.373-51.201,26.919c-74.714,34.929-92.504,108.056-189.039,81.05
		c-49.304-13.793-87.677-49.609-102.138-98.743c-4.892-16.62-3.194-53.133-23.024-51.341c-35.674,3.223,3.453,87.064,8.008,103.534
		c7.5,27.118,1.293,55.008-10.522,80.309c-6.586,14.103-34.561,44.435-36.099,49.617c-4.08,13.752,4.866,26.769,19.012,22.852
		c21.516-5.958,65.95-89.007,62.223-114.789c43.285,35.298,100.704,53.828,156.202,44.676c-5.784,15.399-6.216,36.43,0.002,52.044
		c3.113-1.663,24.62-10.917,26.04-11.16c-7.134-60.14,79.783-125.125,130.3-139.402c131.229-37.088,260.602,103.952,252.789,230.499
		c-2.61,42.277-21.708,80.645-40.914,117.204c-3.7,2.56-34.107-25.916-42.002-30.45c-45.253-25.991-96.802-29.298-147.521-21.75
		c-0.761-22.487-15.116-43.327-33.611-55.66c-0.171,14.895-1.175,27.105-7.44,40.92c33.465,42.003,2.073,108.88-29.673,143.309
		c-11.632,12.615-36.082,23.347-33.677,40.596c5.71,40.957,61.117-22.111,70.154-33.879c21.437-27.916,37.97-66.006,38.221-101.295
		c97.348-21.411,182.255,25.122,192.605,128.423c7.994,79.784-10.124,159.549-72.198,213.341
		C2234.871,1329.343,2169.504,1371.559,2151.775,1362.792z"/>
	<path style="fill:#020202;" d="M1648.776,1929.935c-0.896-0.071-1.854-0.088-2.944,0.015
		C1646.813,1930.053,1647.794,1930.022,1648.776,1929.935z"/>
	<path style="fill:#020202;" d="M535.956,661.843c-0.975,4.203-2.029,8.987-2.414,10.735
		C534.853,668.47,535.624,664.922,535.956,661.843z"/>
	<path style="fill:#020202;" d="M377.3,1245.463c-1.62-2.02-3.206-3.255-4.735-3.914
		C373.737,1243.175,375.247,1244.533,377.3,1245.463z"/>
	<path style="fill:#6B6941;" d="M261.979,765.579c-1.984-1.445-41.953-13.869-46.908-14.462
		c-77.992-9.334-136.648,63.295-107.438,137.188c40.878,103.412,212.705,67.779,190.662-60.457
		c-0.587-3.414-12.744-38.241-13.995-39.949C274.853,794.328,256.646,775.314,261.979,765.579z"/>
	<path style="fill:#6B6941;" d="M261.979,765.579c-5.333,9.735,12.873,28.749,22.32,22.32
		C283.333,786.58,263.302,766.542,261.979,765.579z"/>
	<path style="fill:#EBAC8B;" d="M499.457,651.414c20.152-8.846,38.739-10.347,36.498,10.429c0.851-3.668,1.642-6.896,1.874-7.26
		c1.044-1.64,27.248-8.593,36.292-13.965c95.859-56.938,30.352-219.864-90.932-176.493
		c-76.299,27.285-85.379,139.032-14.084,178.028c16.726,9.149,35.98,3.601,30.956,30.425
		C501.577,665.542,503.12,658.257,499.457,651.414z"/>
	<path style="fill:#EBAC8B;" d="M505.867,653.831c20.94,1.371,31.756-8.036,27.675,18.747c0.385-1.748,1.439-6.532,2.414-10.735
		c2.24-20.776-16.347-19.275-36.498-10.429c3.663,6.843,2.119,14.128,0.604,21.164C500.523,670.135,504.901,653.999,505.867,653.831
		z"/>
	<path style="fill:#6E6C40;" d="M2560.961,1312.424c10.644-3.423,23.224,22.744,14.88,29.76
		c61.452,80.035,209.192,18.365,175.961-92.26C2714.176,1124.669,2520.951,1179.94,2560.961,1312.424z"/>
	<path style="fill:#6E6C40;" d="M2560.961,1312.424c0.825,2.731,13.342,27.757,14.88,29.76
		C2584.185,1335.168,2571.605,1309.001,2560.961,1312.424z"/>
	<path style="fill:#EBAB8B;" d="M2423.32,546.097c-63.701,107.745,87.109,210.273,163.58,117.08
		c76.64-93.399-46.226-212.43-141.26-143.12C2452.212,529.048,2433.266,550.561,2423.32,546.097z"/>
	<path style="fill:#EBAB8B;" d="M2423.32,546.097c9.946,4.464,28.892-17.049,22.32-26.04
		C2443.113,521.899,2425.348,542.666,2423.32,546.097z"/>
	<path style="fill:#EBAA8B;" d="M581.902,1699.308c-84.291-58.408-200.928,39.318-145.852,132.832
		c53.993,91.675,202.31,46.765,185.796-66.766c-0.672-4.617-12.546-41.895-13.903-43.746
		C601.866,1737.653,575.26,1710.218,581.902,1699.308z"/>
	<path style="fill:#EBAA8B;" d="M581.902,1699.308c-6.642,10.911,19.964,38.346,26.04,22.32c-0.293-0.4-6.477-0.683-9.24-3.601
		C594.981,1714.096,584.029,1700.781,581.902,1699.308z"/>
	<path style="fill:#EBAB8A;" d="M2386.119,999.941c6.155,115.221,185.409,124.075,200.559,8.988
		c16.645-126.445-165.041-157.789-196.839-42.468C2399.999,970.855,2396.891,997.694,2386.119,999.941z"/>
	<path style="fill:#EBAB8A;" d="M2386.119,999.941c10.771-2.247,13.88-29.086,3.72-33.48
		C2388.508,971.287,2385.834,994.612,2386.119,999.941z"/>
	<path style="fill:#6E6C41;" d="M1072.947,1855.549c-0.284-0.245-4.365,3.055-7.387,1.287c-24.27-14.197-38.53-22.209-68.829-19.843
		c-19.336,1.511-56.998,18.292-68.865,33.436c-2.33,2.974-13.269,25.169-14.88,29.76c-17.144,48.863,2.242,105.107,51.053,125.648
		c93.617,39.396,177.43-56.185,127.508-144.248C1082.591,1894.432,1062.17,1864.095,1072.947,1855.549z"/>
	<path style="fill:#6E6C41;" d="M1082.571,1874.015c-3.525-4.925-8.836-17.785-9.624-18.466c-10.777,8.546,9.644,38.883,18.6,26.04
		C1091.125,1880.845,1085.19,1877.672,1082.571,1874.015z"/>
	<path style="fill:#EBAB8B;" d="M2148.037,1792.308c-13.465,56.528,24.674,120.049,83.677,126.504
		c142.729,15.615,150.882-184.355,25.665-196.782c-30.746-3.051-76.802,14.81-94.461,40.517
		C2172.847,1768.499,2158.71,1794.32,2148.037,1792.308z"/>
	<path style="fill:#EBAB8B;" d="M2162.917,1762.548c-0.942,1.371-14.495,28.142-14.88,29.76
		C2158.71,1794.32,2172.847,1768.499,2162.917,1762.548z"/>
	<path style="fill:#6E6C40;" d="M2114.557,255.934c17.173,3.122,26.657,21.425,42.642,29.898
		c50.964,27.016,120.448,7.323,141.444-48.554c38.206-101.678-83.418-181.496-161.845-109.765
		c-32.056,29.319-27.66,59.44-33.401,98.66C2116.97,209.488,2135.403,256.501,2114.557,255.934z"/>
	<path style="fill:#6E6C40;" d="M2114.557,255.934c20.847,0.567,2.413-46.446-11.16-29.76
		C2113.079,225.452,2120.533,250.4,2114.557,255.934z"/>
	<path style="fill:#6E6C40;" d="M1630.952,1959.71c-3.29,8.361-4.84,47.547-3.724,57.678
		c8.504,77.192,111.974,109.998,167.519,55.897c79.871-77.796-8.351-208.931-113.097-161.457
		c-10.654,4.829-21.799,17.121-32.875,18.107C1667.165,1931.4,1645.941,1967.598,1630.952,1959.71z"/>
	<path style="fill:#6E6C40;" d="M1630.952,1959.71c14.989,7.888,36.213-28.31,17.824-29.775c-0.982,0.087-1.963,0.119-2.944,0.015
		C1657.137,1941.623,1632.463,1955.872,1630.952,1959.71z"/>
	<path style="fill:#6C6B40;" d="M372.566,1241.549c-6.208-8.618-1.693-25.708-3.607-37.966
		c-14.474-92.676-158.044-105.887-190.572-10.092c-32.864,96.789,82.402,171.078,157.661,109.301
		c7.184-5.897,24.879-22.152,30.092-27.569C351.775,1271.649,360.083,1236.161,372.566,1241.549z"/>
	<path style="fill:#6C6B40;" d="M377.3,1245.463c-2.053-0.93-3.564-2.288-4.735-3.914c-12.483-5.388-20.791,30.1-6.425,33.674
		C367.428,1273.886,362.981,1241.32,377.3,1245.463z"/>
	<path style="fill:#050605;" d="M927.866,1870.429c-21.891-9.894-42.706-21.958-61.27-37.311
		c-10.051-8.312-43.503-48.624-46.568-50.164c-18.102-9.1-32.192,6.148-21.87,25.629c18.971,35.804,78.558,74.485,114.828,91.606
		C901.765,1895.744,916.592,1866.317,927.866,1870.429z"/>
	<path style="fill:#050605;" d="M912.985,1900.189c1.611-4.591,12.55-26.787,14.88-29.76
		C916.592,1866.317,901.765,1895.744,912.985,1900.189z"/>
	<path style="fill:#B9A9C5;" d="M2322.427,1102.694c-10.35-103.301-95.257-149.834-192.605-128.423
		c-0.251,35.289-16.784,73.379-38.221,101.295c-9.037,11.768-64.444,74.836-70.154,33.879
		c-2.405-17.249,22.045-27.981,33.677-40.596c31.746-34.428,63.138-101.306,29.673-143.309
		c-30.803,67.929-136.156,69.946-174.842,7.44c-48.987,7.991-99.761,32.581-129.561,73.181
		c-8.048,10.965-27.483,57.238-30.312,58.966c-15.285,9.339-27.756-2.975-24.575-20.647
		c11.938-66.333,106.31-138.101,173.288-141.26c-9.648-44.165,7.963-86.304,48.36-107.881c-6.218-15.613-5.786-36.645-0.002-52.044
		c-55.499,9.152-112.917-9.378-156.202-44.676c3.727,25.782-40.706,108.831-62.223,114.789
		c-14.146,3.917-23.093-9.099-19.012-22.852c1.538-5.182,29.513-35.515,36.099-49.617c11.815-25.302,18.023-53.191,10.522-80.309
		c-4.556-16.47-43.682-100.311-8.008-103.534c19.83-1.792,18.133,34.721,23.024,51.341c14.461,49.135,52.834,84.951,102.138,98.743
		c96.535,27.006,114.325-46.121,189.039-81.05c16.14-7.546,47.589-10.489,51.201-26.919
		c13.802-62.774-21.542-158.483-66.027-203.885c-88.732-90.56-280.647-107.139-301.373,48.526
		c-1.923,14.442,7.21,48.841-16.625,46.626c-25.393-2.361-15.008-54.983-11.522-71.053c7.292-33.611,33.326-50.021-4.132-73.611
		c-16.259-10.24-44.895-7.663-37.786-31.465c6.835-22.885,46.188-1.473,58.611,6.921c6.751,4.56,13.604,15.893,18.938,18.548
		c8.519,4.241,26.837-14.835,35.972-19.911c13.758-7.644,28.65-12.788,41.959-21.169c-49.399-75.822-146.782-93.393-231.461-82.772
		c-172.256,21.605-166.896,266.116-101.463,381.854c19.599-17.369,93.542-21.305,109.889-5.332
		c7.907,7.726,4.032,24.375-6.473,27.398c-18.35,5.28-40.542-16.928-80.024,1.614c-110.919,52.09-100.999,333.59-99.762,436.278
		l18.778,236.069c79.585-5.799,142.935-64.067,178.109-132.538c8.527-16.6,10.809-52.678,35.016-45.383
		c20.276,6.11,1.686,40.999-4.167,53.912c-36.68,80.927-114.741,148.474-205.25,157.482
		c24.706,156.544,29.433,385.325,222.383,426.758c156.506,33.607,411.805-92.962,463.158-249.031
		c48.025-145.955-108.073-259.958-241.129-252.288c-18.821,1.085-60.274,16.01-70.416,15.066
		c-12.756-1.187-18.256-19.489-9.503-28.053c12.359-12.093,67.143-16.93,85.642-20.387c-16.848-17.299-45.597-99.623-22.38-113.483
		c31.249-18.655,24.557,31.547,26.414,44.386c3.416,23.613,24.374,57.761,44.089,71.232c14.143,9.664,65.846,18.193,89.463,29.578
		c22.645,10.916,58.862,35.952,76.467,53.734c9.257,9.351,39.423,56.363,42.648,57.958c17.729,8.767,83.096-33.448,98.454-46.757
		C2312.302,1262.242,2330.421,1182.478,2322.427,1102.694z M1857.893,1498.408c32.235-14.471,65.931-19.048,101.311-13.891
		c14.061,2.049,43.19,10.736,43.226,26.931c0.064,28.496-28.382,9.779-40.313,7.353c-28.641-5.824-44.085-7.698-72.817,1.752
		c-49.292,16.212-41.11,38.952-68.708,72.653c-17.571,21.457-41.256,38.796-67.696,47.625c-17.754,5.929-89.169,20.028-97.866,2.695
		c-14.558-29.016,57.565-24.649,77.984-30.017c88.396-23.237,130.712-144.049,44.218-199.984
		c-14.492-9.372-58.524-21.39-59.892-36.578c-2.517-27.927,37.348-11.074,50.057-5.667
		C1818.559,1393.047,1858.667,1441.168,1857.893,1498.408z"/>
	<path style="fill:#B9A9C5;" d="M1415.161,1327.337c-93.357-5.03-164.663-64.016-215.733-137.674
		c-60.172,67.899-189.54,6.787-158.16-93.058c33.732-107.33,211.82-60.509,176.76,59.578
		c42.292,70.033,103.765,130.179,189.705,137.649c-10.381-164.448-32.157-330.597-7.404-494.751
		c-113.357-19.958-199.193-133.459-171.157-249.243c-93.232,11.122-152.491-48.613-156.519-139.462
		c-0.447-10.088,6.834-29.529,0.468-33.704c-5.112-3.353-55.187-2.423-64.873-1.294c-57.061,6.652-126.754,53.598-150.532,106.15
		c-13.547,29.938-26.322,94.695-3.859,121.839c7.542,9.113,29.754,8.704,20.159,28.298c-4.875,9.955-35.115,13.725-47.906,19.139
		c-111.723,47.29-148.912,196.325-52.516,278.348c13.516,11.5,49.623,24.231,37.149,44.793
		c-10.696,17.631-39.374-5.009-49.967-13.375c-22.893-18.079-40.252-41.968-57.975-64.727
		c-139.532,87.119-81.559,363.195,55.139,420.967c12.28,5.19,53.394,12.628,56.492,17.884
		c16.358,27.755-17.744,24.443-22.422,29.737c-19.313,21.86-7.462,123.692,3.861,152.531
		c36.037,91.784,169.905,153.178,264.049,151.832c14.277-0.204,39.591-8.704,51.879-6.763c9.021,1.425,21.627,18.943,30.61,25.478
		c60.315,43.877,164.288,34.068,209.536-27.267c14.143-19.172,40.558-92.392,41.083-115.505c0.298-13.145-7.092-23.36-15.135-33.191
		c-41.021-50.138-122.789-60.104-171.095-15.049c-32.981,30.762,7.927,56.981,3.038,92.281
		c-1.812,13.083-19.548,18.901-28.494,13.286c-2.289-1.436-8.832-42.807-12.514-52.575
		c-24.745-65.634-145.299-135.457-212.383-102.466c-14.948,7.352-35.775,39.115-51.241,20.123
		c-16.405-20.146,38.981-53.235,56.406-56.414c-2.047-23.289-15.222-45.452-30.42-62.606c-3.512-3.964-12.352-6.795-14.483-9.661
		c-18.101,18.113-50.529,11.794-71.708,2.887c-97.099-40.838-60.716-189.772,54.642-173.682
		c68.016,9.486,101.219,104.847,50.546,152.195c21.109,17.156,36.813,58.279,44.404,83.937
		c68.045,2.56,124.53,39.724,173.761,83.157c29.881-26.289,57.137-45.3,97.555-52.265c-0.563-16.457-2.371-88.558,27.647-80.876
		c23.026,5.893,2.952,39.665,2.465,53.62c-1.294,37.067,13.374,25.77,38.352,36.025c28.063,11.521,48.207,26.43,69.623,47.523
		c0.332-31.132,13.04-64.559,14.837-94.905C1420.233,1372.418,1413.035,1350.984,1415.161,1327.337z M986.926,952.984
		c-3.551,44.389-36.95,88.62-78.821,103.458c-14.992,5.312-59.191,16.854-61.218-6.875c-1.754-20.538,34.381-17.991,49.584-23.359
		c70.49-24.889,72.003-107.283,27.759-158.413c-13.3-15.37-54.914-34.18-42.924-53.898c17.465-28.719,71.466,39.567,83.708,52.116
		c18.726-35.486,70.103-46.806,107.956-48.356c0.961-60.948-32.559-114.861-86.764-142.039c-14.329-7.185-50.943-13.191-54.773-15.9
		c-6.568-4.646-7.258-25.595,5.711-28.051c59.54-11.277,139.451,64.2,157.056,118.239c9.205,28.254,3.535,56.296,9.301,76.259
		c1.501,5.195,14.245,18.082,18.432,26.209c4.594,8.917,32.854,63.901,32.785,67.66c-0.24,13.113-20.739,16.605-29.749,11.117
		c-13.259-8.078-25.459-72.781-47.2-79.224c-20.44-6.058-58.913,6.575-75.582,19.595
		C964.327,901.094,989.993,914.651,986.926,952.984z"/>
	<path style="fill:#B9A9C5;" d="M1170.341,513.804c14.118,3.656,65.767,5.515,76.349-2.298c7.421-5.479,52.792-90.71,73.843-50.913
		c8.181,15.467-19.358,29.13-28.027,39.08c-88.021,101.03-5.463,244.639,111.687,268.076
		c15.771-51.143,28.765-105.491,66.057-145.878c-34.031-76.926-50.785-156.558-43.841-241.258
		c1.496-18.247,20.622-78.858,16.74-87.36c-5.91-12.941-49.732-38.274-64.194-43.864
		c-114.039-44.081-287.956,43.543-272.129,179.125C1110.783,462.41,1135.405,504.756,1170.341,513.804z"/>
	<path style="fill:#BAAAC6;" d="M2092.236,884.62c18.495,12.333,32.85,33.173,33.611,55.66
		c50.719-7.548,102.269-4.241,147.521,21.75c7.894,4.534,38.301,33.01,42.002,30.45c19.206-36.559,38.304-74.927,40.914-117.204
		c7.813-126.547-121.561-267.587-252.789-230.499c-50.517,14.277-137.434,79.262-130.3,139.402
		C2037.53,773.159,2092.984,819.55,2092.236,884.62z"/>
	<path style="fill:#EBAA8A;" d="M1904.847,895.13l-6.053,8.09c2.225,10.187,5.668,20.886,11.16,29.76l9.824,1.285
		c38.137,50.139,122.781,49.501,155.41-6.151l9.608-2.575c6.265-13.815,7.269-26.026,7.44-40.92l-7.556-6.413
		c-2.366-54.675-49.825-93.952-103.93-87.585l-7.555-6.443c-1.421,0.243-22.927,9.497-26.04,11.16l-2.253,9.885
		C1913.811,824.31,1899.037,859.407,1904.847,895.13z"/>
	<path style="fill:#EBAA8A;" d="M1898.795,903.22l6.053-8.09c-5.81-35.723,8.964-70.82,40.055-89.905l2.253-9.885
		C1906.757,816.916,1889.147,859.055,1898.795,903.22z"/>
	<path style="fill:#EBAA8A;" d="M1919.778,934.266l-9.824-1.285c38.686,62.506,144.038,60.488,174.842-7.44l-9.608,2.575
		C2042.56,983.767,1957.915,984.405,1919.778,934.266z"/>
	<path style="fill:#EBAA8A;" d="M2084.681,878.207l7.556,6.413c0.748-65.07-54.707-111.461-119.041-100.441l7.555,6.443
		C2034.856,784.255,2082.315,823.532,2084.681,878.207z"/>
	<path style="fill:#EAAB8B;" d="M1044.891,1113.651c-12.702,78.519,89.121,128.489,145.289,74.969l9.248,1.043
		c3.813-4.303,16.94-27.793,18.6-33.48l-5.446-8.576C1238.082,1037.71,1063.541,998.367,1044.891,1113.651z"/>
	<path style="fill:#EAAB8B;" d="M1041.268,1096.605c-31.38,99.845,97.988,160.957,158.16,93.058l-9.248-1.043
		c-56.167,53.52-157.991,3.55-145.289-74.969c18.65-115.283,193.191-75.94,167.692,33.956l5.446,8.576
		C1253.088,1036.096,1075,989.274,1041.268,1096.605z"/>
	<path style="fill:#EBAB8B;" d="M827.309,1192.655c-74.211,59.31-3.905,177.937,81.493,142.894l7.903,2.916
		c-9.31-12.522-2.272-34.026,14.957-28.269c1.136,0.38,17.713,9.01,18.524,9.668l-1.336-9.205
		C1010.191,1231.741,907.585,1128.497,827.309,1192.655z"/>
	<path style="fill:#EBAB8B;" d="M899.64,1167.669c-115.358-16.09-151.742,132.844-54.642,173.682
		c21.179,8.908,53.607,15.227,71.708-2.887l-7.903-2.916c-85.398,35.043-155.704-83.584-81.493-142.894
		c80.276-64.158,182.882,39.087,121.54,118.005l1.336,9.205C1000.858,1272.516,967.655,1177.155,899.64,1167.669z"/>
	<path style="fill:#030303;" d="M1717.341,1376.947c1.369,15.188,45.4,27.206,59.892,36.578
		c86.494,55.935,44.178,176.747-44.218,199.984c-20.419,5.368-92.542,1.001-77.984,30.017c8.696,17.333,80.111,3.234,97.866-2.695
		c26.44-8.829,50.125-26.168,67.696-47.625c27.597-33.701,19.416-56.441,68.708-72.653c28.732-9.45,44.176-7.576,72.817-1.752
		c11.931,2.426,40.377,21.143,40.313-7.353c-0.036-16.195-29.165-24.881-43.226-26.931c-35.38-5.157-69.076-0.579-101.311,13.891
		c0.774-57.24-39.335-105.362-90.496-127.128C1754.689,1365.873,1714.824,1349.02,1717.341,1376.947z"/>
	<path style="fill:#040404;" d="M1732.645,1046.846c-1.601,9.491,3.336,17.414,12.954,12.59
		c20.36-52.345,45.959-88.364,99.597-114.09c14.846-7.121,38.58-18.426,55.592-15.696c-5.265-4.789-8.105-13.679-6.166-20.328
		l-1.211,1.771C1830.436,919.257,1743.525,982.334,1732.645,1046.846z"/>
	<path style="fill:#040404;" d="M1845.197,945.345c-53.638,25.727-79.237,61.745-99.597,114.09
		c-9.618,4.824-14.555-3.099-12.954-12.59c10.88-64.512,97.791-127.589,160.767-135.754l1.211-1.771
		c0.713-2.444,2.047-4.592,4.172-6.101c-66.978,3.159-161.35,74.928-173.288,141.26c-3.18,17.672,9.29,29.985,24.575,20.647
		c2.829-1.728,22.264-48.001,30.312-58.966c29.799-40.6,80.574-65.19,129.561-73.181c-3.454,0.391-6.59-0.989-9.166-3.332
		C1883.776,926.92,1860.043,938.224,1845.197,945.345z"/>
	<path style="fill:#040404;" d="M1894.623,909.321c-1.939,6.649,0.901,15.539,6.166,20.328c3.347,0.537,6.461,1.564,9.166,3.332
		c-5.492-8.874-8.935-19.573-11.16-29.76L1894.623,909.321z"/>
	<path style="fill:#040404;" d="M1894.623,909.321l4.172-6.101C1896.669,904.729,1895.336,906.877,1894.623,909.321z"/>
	<path style="fill:#040404;" d="M1909.955,932.981c-2.706-1.768-5.819-2.795-9.166-3.332
		C1903.364,931.992,1906.501,933.371,1909.955,932.981z"/>
	<path style="fill:#020202;" d="M1077.77,851.926c21.74,6.443,33.941,71.146,47.2,79.224c9.01,5.488,29.508,1.996,29.749-11.117
		c0.069-3.759-28.192-58.743-32.785-67.66c-4.187-8.127-16.931-21.014-18.432-26.209c-5.766-19.963-0.096-48.005-9.301-76.259
		c-17.605-54.038-97.516-129.516-157.056-118.239c-12.97,2.456-12.279,23.406-5.711,28.051c3.83,2.709,40.444,8.715,54.773,15.9
		c54.204,27.178,87.724,81.091,86.764,142.039c-37.853,1.55-89.23,12.87-107.956,48.356c-12.242-12.549-66.242-80.835-83.708-52.116
		c-11.991,19.717,29.624,38.528,42.924,53.898c44.244,51.13,42.731,133.524-27.759,158.413
		c-15.203,5.368-51.338,2.821-49.584,23.359c2.027,23.729,46.226,12.188,61.218,6.875c41.871-14.838,75.27-59.069,78.821-103.458
		c3.067-38.333-22.599-51.89,15.262-81.463C1018.857,858.501,1057.33,845.868,1077.77,851.926z"/>
</g>
</svg>
