<?xml version="1.0" encoding="iso-8859-1"?>
<!-- Generator: Adobe Illustrator 29.2.1, SVG Export Plug-In . SVG Version: 9.03 Build 55982)  -->
<svg version="1.1" id="Layer_1" xmlns="http://www.w3.org/2000/svg" xmlns:xlink="http://www.w3.org/1999/xlink" x="0px" y="0px"
	 viewBox="0 0 2589.563 2200" style="enable-background:new 0 0 2589.563 2200;" xml:space="preserve">
<g>
	<path style="fill:#69652E;" d="M2156.722,888.558c-64.317,37.378-139.64,144.702-189.692,24.149
		c-37.812-91.074-32.395-229.827-45.452-329.727c-32.121-245.756-154.878-519.428-450.191-478.978
		c-273.322,37.438-392.831,329.511-471.235,558.181c-1.66,4.84-2.285,9.825-2.143,14.911l-53.691-34.645
		c-149.055-54.531-230.302,122.473-243.984,242.404c-128.197-99.824-344.006-219.922-491.339-89.835
		c-194.836,172.029-87.113,604.743,5.009,810.293c21.392,47.732,47.919,98.26,77.074,141.521
		c-17.912-172.815,169.864-317.121,312.332-374.461c27.105-10.909,88.431-23.888,107.456-35.174
		c7.96-4.722,16.12-21.485,23.523-29.188c31.59-32.869,69.617-63.346,108.615-86.79c-10.501-15.595-22.962-28.373-26.513-47.861
		c-9.718-53.347,14.927-121.333,77.662-121.332c89.214,0,84.317,144.265,17.11,175.446c28.84,21.243,36.292,54.036,54.699,81.675
		c176.185-4.114,357.908,14.951,531.914-15.912c61.339-10.88,220.274-52.207,124.838-135.434
		c-65.845-57.421-252.323-114.682-340.138-143.563c-67.305-22.135-148.119-52.48-217.919-58.039
		c-28.43-2.264-61.649,0.115-90.032-2.987c-15.544-1.699-13.359-12.722-0.002-12.693c5.011,0.011,10.381,3.035,15.683,3.227
		c49.138,1.779,98.1,3.281,147.234,6.202c4.356-16.419-23.326-25.145-24.428-29.752c-1.111-4.644,9.815-21.409,5.209-36.281
		c-0.498-1.608-17.524-20.102-3.988-17.716c25.984,4.579,11.861,37.964,14.358,47.412c1.665,6.299,15.615,13.631,18.929,21.63
		c2.486,6,1.717,17.173,2.352,17.808c2.542,2.542,61.739,3.986,71.296,9.292c-53.302-45.216-85.817-126.666-77.17-196.518
		c6.258-50.548,60.386-71.206,67.106-97.214c8.231-31.854-19.538-51.196,0.212-92.824c9.753-20.557,27.388-25.565,37.261-40.255
		c7.726-11.496,9.66-27.72,15.452-40.359c31.209-68.101,90.393-65.035,110.592,8.336c5.201,18.892,4.954,52.147,11.592,65.924
		c9.854,20.452,39.507,32.465,50.363,64.362c14.01,41.165-10.375,62.381-7.609,91.092c1.337,13.884,27.544,42.843,33.136,63.219
		c19.207,69.995-22.297,182.708-104.501,189.801c3.853,6.567,10.822,9.581,1.12,15.224c-53.609-6.529-110.32-20.678-163.938-24.523
		c-3.689-0.264-16.965-2.596-17.004,3.034c80.999,22.036,161.51,48.558,240.342,77.49c60.497,22.203,196.042,69.369,232.294,121.179
		c45.471,64.985-39.545,105.772-89.973,120.48c-151.593,44.214-324.374,29.249-480.203,28.008
		c-35.897-0.286-71.349,1.838-107.105,3.265c8.561,32.734,75.342,61.87,77.47,94.789c0.612,9.468-7.855,23.142-17.681,25.447
		c-37.246,8.737-69.192-28.459-100.113-42.736v75.966c0,12.162-9.193,28.035-14.098,38.978
		c16.703,50.262,37.03,99.572,48.444,151.468c11.879,1.985,41.51,1.273,45.692,14.811c8.224,26.622-33.321,36.826-49.107,48.921
		c-6.029,4.62-88.158,84.32-83.641,88.413l193.827-113.835c5.58,3.095,10.777,8.197,4.798,13.234
		c-48.36,38.482-98.325,76.285-139.713,122.306c56.093-25.483,104.629-64.941,159.148-93.523
		c14.075-7.379,62.948-32.365,75.585-33.103c8.374-0.489,8.258,7.297,4.161,13.631c-9.86,15.241-60.404,46.304-77.705,61.821
		c-6.616,5.934-13.451,12.874-18.559,20.167c31.744-11.293,59.618-33.049,89.851-48.096c8.959-4.458,56.267-28.837,62.065-23.171
		c0.069,2.409,0.342,4.897-0.455,7.261c-6.164,18.297-99.07,70.333-114.253,91.913c19.38-3.434,151.931-87.065,158.116-80.57
		c1.746,1.833-0.208,10.91-5.056,11.966c-26.676,10.344-176.029,102.851-191.606,99.505c-5.503-1.182-6.581-10.263-1.914-13.97
		l102.471-81.982c-10.613,2.513-21.348,8.818-31.071,13.857c-23.756,12.311-67.408,43.467-89.771,49.829
		c-8.234,2.343-18.081,1.795-15.133-8.937c4.854-17.674,81.558-67.5,95.667-85.755c-63.417,23.052-115.956,68.035-174.654,99.721
		c-8.164,4.407-54.707,31.789-57.887,16.466c-2.747-13.232,96.218-90.783,108.516-106.885
		c-27.66,6.006-143.026,97.573-159.719,95.995c-2.118-0.2-4.629-5.038-4.827-7.705c-0.958-12.943,33.445-41.521,40.52-54.183
		l-73.279,52.263c-12.221,7.732-19.797,2.964-8.927-8.925l128.701-94.545c-8.309,1.121-21.176-7.781-26.362-7.636
		c-6.196,0.172-72.173,45.653-83.125,53.182c-18.453,12.685-87.311,69.234-100.542,73.1c-10.932,3.193-13.802-0.699-7.199-10.307
		c7.501-10.915,65.05-50.418,80.859-64.87c11.824-10.81,22.328-23.221,34.049-34.165c0.484-2.344-2.971-1.978-4.573-1.488
		c-28.426,8.685-96.345,61.798-127.784,79.974c-9.307,5.38-36.248,22.328-44.229,24.085c-4.202,0.925-6.857-3.308-8.706-6.397
		c21.121-29.368,55.288-51.088,81.508-75.934c2.508-2.376,8.724-7.153-0.02-6.237c-47.174,29.685-98.514,60.247-149.319,83.245
		c-11.063,5.008-40.523,19.666-49.889,21.588c-5.992,1.23-9.479,1.202-13.247-4.165c-2.159-11.466,28.877-27.366,35.883-35.373
		c4.102-4.688,4.723-11.534,8.948-15.857c21.241-21.736,47.457-38.42,66.8-61.845l-122.638,68.201l-7.585-4.722
		c-3.362-12.098,29.104-28.004,34.103-38.674c-35.218,16.545-62.035,25.818-24.804-18.604c-7.455,0.787-21.378,1.136-18.574-10.851
		c2.044-8.734,11.906,1.454,17.023,1.352c7.013-0.141,14.893-10.318,23.308-4.535c9.642,6.439-12.741,19.775-15.54,24.872
		c-0.484,2.344,2.972,1.978,4.573,1.488c14.514-4.436,76.742-51.006,83.713-49.573c2.812,0.578,6.341,6.865,4.298,10.399
		l-70.88,59.39c-0.492,2.307,3.18,2.089,4.585,1.501c18.581-7.78,48.102-32.528,67.731-43.909
		c8.599-4.985,50.075-28.841,56.04-27.242c19.229,5.154-24.416,37.824-29.135,44.845c-0.492,2.309,3.167,2.083,4.585,1.5
		c14.564-5.995,34.344-28.797,51.192-34.13c4.352-6.091-30.124-23.804-19.336-48.757c5.937-13.733,56.872-48.283,70.483-62.842
		c10.281-10.997,32.061-76.954,32.511-91.874c0.263-8.711-7.269-11.792-10.81-19.677c-14.235-31.693,5.401-86.766,7.773-120.948
		c-7.356-0.7-11.993,9.249-14.937,14.488c-13.32,23.7-32.77,99.131-68.778,89.569c-4.338-1.152-12.646-5.968-15.171-9.818
		c-19.322-29.467,21.145-91.042,27.572-122.142c-138.609,32.299-297.238,123.214-368.359,250.188
		c-32.518,58.055-29.483,87.634-31.61,151.469c-0.199,5.962,3.161,12.443-6.202,10.712
		c144.173,204.858,264.416,281.493,516.643,312.78c214.856,26.651,592.987,48.144,784.609-57.996
		c175.923-97.444,107.273-200.832-22.81-294.517c-28.211-20.317-109.789-61.722-115.526-95.3
		c-2.336-13.669-0.615-26.676,6.028-38.602c-16.17,0.097,1.53-21.045,4.628-24.828c43.127-52.662,233.631-104.001,305.338-134.954
		c139.341-60.147,306.095-171.886,95.203-287.245c-98.824-54.057-214.56-84.338-321.359-118.933
		c-10.324-7.989,4.045-9.038,7.005-10.766c10.436-6.092-8.384-13.356-9.729-17.517c-1.773-5.485,0.728-12.529-0.632-17.972
		c-2.449-9.805-8.187-28.122-16.201-33.394c-22.746-14.964-22.968,4.344-32.286,6.425c-5.173,1.155-10.533-4.268-16.422-1.307
		c-7.215,3.628-9.109,18.549-14.081,23.377c-3.383,3.285-9.01,3.077-12.303,6.331c-3.211,3.173-2.893,8.408-4.413,10.459
		c-6.724,9.073-13.999-1.104-6.105-14.809c3.862-6.705,11.212-7.848,15.23-12.673c4.43-5.32,5.546-15.911,13.697-20.411
		c7.377-4.072,13.242-1.569,18.078-3.629c8.859-3.774,10.83-11.759,24.711-10.961c38.685,2.224,33.227,36.753,43.477,62.016
		c1.902,4.689,6.305,8.018,9.21,12.618c1.843,2.918,1.229,8.804,3.09,10.737c4.787,4.975,114.61,16.681,130.825,25.152l4.857-18.22
		c-7.512,0.865-1.828,15.588-12.354,12.372c-1.911-2.383,2.008-27.769-0.519-35.138c-1.849-5.393-33.663-21.619,3.581-14.466
		l6.154-113.094c-4.46-10.56-48.232-54.331-40.222-63.618c21.14,6.21,25.19,33.298,43.361,43.393
		c0.204-10.88,5.203-72.995,9.303-75.996c7.798-5.707,9.584,5.697,9.109,11.975c-2.232,29.523-7.371,59.212-9.062,88.812
		c3.893,4.395,21.365-18.842,26.967-21.062c3.391-1.344,11.937-3.173,10.197,3.981c-2.982,7.947-37.181,31.625-37.181,34.149v85.268
		c59.177,6.378,107.58-32.031,98.95-94.299c-4.363-31.482-36.132-44.036-39.586-56.773c-2.197-8.104,12.629-43.043,14.252-55.912
		c5.256-41.683-22.204-113.214-74.478-102.366c-17.19,3.568-39.447,26.784-39.447,44.245v46.51c0,13.872-26.869-6.664-30.19-7.283
		c-17.927-3.343-28.393,17.968-31.497,32.604c-8.202,38.673,30.079,63.401,27.78,76.721c-0.475,2.752-15.354,5.672-19.902,8.493
		c-36.32,22.526,3.906,75.471,29.002,91.038c-6.089,21.829-34.156-15.2-40.382-24.762c-19.983-30.691-23.993-65.772,15.584-79.173
		c-10.847-22.805-26.596-38.076-24.966-66.727c1.747-30.72,31.138-67.653,62.137-41.764c4.539-30.337-0.848-62.318,28.147-81.957
		c62.204-42.133,114.565,41.267,111.397,95.828c-0.773,13.316-16.266,56.841-15.079,61.512c1.276,5.026,13.402,10.691,18.184,16.099
		c59.875,67.716-7.174,161.927-89.922,150.352l0.322,52.429c24.1,0.969,69.641,22.193,90.844,21.064
		c9.219-0.491,19.435-24.53,32.697-28.667c12.661-3.95,21.151,1.879,29.141,0.76c11.73-1.642,14.482-12.266,36.372-7.019
		c29.132,6.984,29.678,44.092,34.283,47.874c2.58,2.118,18.611-1.193,29.242,9.514c7.219,7.27,9.284,22.23,11.366,24.284
		c1.822,1.798,30.486,7.946,34.324,7.058c3.729-0.863,7.66-19.861,21.829-15.337c10.388,3.317,6.153,21.259,9.776,27.625
		c4.195,7.371,22.158,5.109,27.687,8.979c2.689,1.882,2.574,8.799,1.819,9.57c-2.276,2.325-33.018-3.355-36.537-6.868
		c-3.842-3.836-5.524-20.98-6.918-27.205c-6.525,0.804-6.628,17.89-11.273,18.833c-9.258,1.879-24.282-8.954-33.883-9.376
		c-4.888-0.215-14.484,4.436-16.728,2.885c-4.399-3.041,1.27-38.86-23.459-37.388c-7.87,0.468-14.366,10.406-18.595,3.423
		c-5.218-8.618,1.147-45.204-22.238-52.156c-23.762-7.064-29.986,10.294-37.003,11.537c-6.032,1.069-6.432-10.495-19.817-7.927
		c-20.442,3.921-21.281,33.876-44.869,30.097l-175.17-37.43l124.775,44.163c75.756,32.76,254.581,91.041,224.092,200.813
		c-38.871,139.952-325.47,195.43-441.866,252.682c-17.557,8.636-28.941,17.353-43.445,29.421
		c36.294-16.384,76.79-21.758,116.305-24.774c254.336-19.412,609.255,53.366,798.293-172.209
		C2584.613,1157.033,2461.297,711.557,2156.722,888.558z M198.074,996.456c-2.298,2.444-59.415,6.823-66.748,6.475
		c-5.526-0.263-10.279,0.309-13.853-4.951c-1.604-6.388,13.529-6.806,17.402-7.329c8.604-1.162,61.022-5.758,63.201-3.463
		C197.684,989.699,198.685,995.806,198.074,996.456z M430.593,1191.801c-10.928,2.546-20.64-7.864-29.912-8.375
		c-19.156-1.057-23.209,21.608-31.112,23.622c-8.375,2.134-18.059-13.812-28.964-10.892c-18.597,4.98-12.065,25.727-18.277,34.663
		c-3.822,5.497-19.994,11.527-21.931,2.812c-1.702-7.657,10.453-6.57,11.85-8.218c1.074-1.267,1.205-15.451,4.339-22.052
		c11.398-24.005,32.631-20.376,51.925-8.479c2.057-25.935,52.901-26.568,61.399-11.765
		C431.43,1185.765,430.392,1188.966,430.593,1191.801z M570.745,1162.96c-7.998,5.326-10.971,11.686-19.195,13.339
		c-7.974-13.835,18.029-31.187,24.773-24.774C580.166,1155.18,574.869,1160.214,570.745,1162.96z M626.019,954.684
		c-18.557,12.733-43.545-15.041-59.806-13.395c-15.215,1.54-28.285,22.457-40.999,21.244c-10.931-1.043-13.145-27.781-24.811-26.909
		c-17.827,1.332-15.733,31.587-28.567,35.417c-12.653-0.503-96.645,13.524-100.155,9.919c-4.986-5.122,2.371-10.497,8.482-11.531
		c28.023-4.741,57.278-6.078,85.686-7.475c8.56-2.95,9.497-42.995,40.036-36.161c15.273,3.418,17.787,23.114,22.452,24.19
		c2.103,0.485,24.384-17.898,37.19-18.817c20.315-1.457,30.856,13.07,44.159,15.203c5.757,0.923,18.091-3.914,19.346-2.589
		C630.489,945.318,629.177,952.517,626.019,954.684z M859.346,873.169c-18.562-3.861-32.183-1.31-44.278,13.211
		c-3.809,4.573-5.73,13.473-6.335,13.942c-1.864,1.444-29.002-13.936-38.112,16.029c-1.718,5.651-1.332,27.552-6.692,27.352
		c-15.709-0.584-3.523-39.289,4.584-48.064c11.268-12.198,23.283-7.697,34.107-12.403c5.831-2.535,11.556-13.993,21.749-18.562
		c18.748-8.405,60.221-6.636,58.918,20.164C874.237,883.845,868.617,875.097,859.346,873.169z M945.411,951.612
		c-7.993,5.143-23.877-0.542-32.644-1.038c-9.157-0.518-21.3,9.542-20.163-9.909h51.161
		C945.903,940.665,951.5,947.694,945.411,951.612z M938.239,817.302c-15.713,4.037-10.614,14.413-15.413,20.255
		c-1.788,2.177-9.315,3.451-13.261,6.882c-11.216,9.752-11.403,23.326-10.771,37.333c-20.448,3.451-10.813-31.265-2.692-41.48
		c5.102-6.418,11.296-6.052,15.023-9.782c1.558-1.559,19.435-21.823,20.21-23.199c5.929-10.527-2.314-37.926,23.267-34.063
		c-1.679,10.566-10.398,10.382-9.642,23.267c0.674,11.473,7.444,9.148,8.863,11.446C961.3,820.064,945.68,815.39,938.239,817.302z
		 M1258.579,1174.675c4.83,5.637,5.748,16.215,6.425,16.807c4.276,3.74,31.917-7.265,27.57,12.722
		c-8.175-3.352-27.167,4.278-32.086,2.816c-5.431-1.615-5.012-11.978-12.731-12.172c-6.338-0.159-12.615,9.168-19.655,5.362
		c-1.935-1.046,2.348-7.692-13.013-2.206C1213.721,1178.484,1244.096,1157.772,1258.579,1174.675z M1125.137,1182.5
		c-9.143,0.971-13.286-7.663-23.05-6.333c-11.154,1.52-9.388,15.907-20.326,15.636
		C1076.24,1162.828,1121.71,1151.125,1125.137,1182.5z M1104.953,863.133c-8.768,1.761-9.672-22.542-13.832-29.513
		c-3.472-5.818-18.307-14.26-18.74-16.061c-2.522-10.49,3.206-20.042-3.451-33.063c-7.609-14.883-21.978-9.005-26.041-14.268
		c-1.888-2.446-2.474-11.76-4.871-16.835c-12.283-25.997-21.99-10.544-39.356-2.783c-4.194,1.875-10.485,0.895-15.406,3.198
		c-8.124,3.802-8.7,16.724-19.318,16.307c-0.938-9.568,1.941-17.166,9.423-23.102c3.879-3.078,43.789-20.009,48.235-20.167
		c24.407-0.868,23.699,26.025,29.829,33.279c4.634,5.484,21.874,3.67,30.012,24.265c4.71,11.92,1.341,18.231,3.337,26.981
		c0.355,1.556,15.709,10.427,20.276,23.819C1106.452,839.3,1111.798,861.758,1104.953,863.133z M1267.781,1801.063
		c-5.536,3.402-20.694,18.229-26.289,17.094c-15.489-3.143,12.819-23.897,18.992-24.456
		C1264.641,1793.325,1268.74,1797.218,1267.781,1801.063z M1770.072,909.675c5.419,4.853-22.311,23.937-27.876,18.571
		C1734.101,920.439,1762.814,905.931,1770.072,909.675z M1756.088,717.434c16.619,3.432-21.168,29.469-20.764,36.493
		C1702.014,762.463,1751.35,716.456,1756.088,717.434z M1641.413,894.14c-2.346-5.117-0.641-12.555,3.099-12.328
		c2.518,0.153,35.436,30.459,37.264,34.002c2.173,4.212,0.175,8.638-3.204,9.332C1676.201,925.633,1642.623,896.778,1641.413,894.14
		z M2109.583,1238.317c8.686-14.777,36.53,0.501,29.464,18.599c-8.48,2.221-9.75-11.393-14.121-12.362
		C2123.441,1244.225,2096.335,1260.855,2109.583,1238.317z M2150.707,1324.544c-2.341,0.037-23.209-1.656-24.064-2.511
		c-0.773-0.773-0.805-7.606,1.832-9.552C2145.311,1300.052,2169.821,1324.244,2150.707,1324.544z M2210.363,1306.525
		c-6.474,0.38-11.615,1.181-15.425-4.635c3.81-5.816,8.951-5.015,15.425-4.635V1306.525z M2253.776,1196.419
		c-2.111,10.796-19.064-6.398-22.645-8.299c-5.73-3.043-13.125-7.536-19.387-8.51c-27.562-4.284-54.501,25.301-57.194-21.904
		c-1.87-2.008-45.006,26.82-49.578,4.61c-2.878-13.982,14.615-1.897,16.485-2.024c8.463-0.574,22.751-17.371,34.065-14.542
		c11.334,2.835,9.928,22.724,14.382,26.2c3.019,2.356,32.841-6.921,46.908-3.594
		C2224.474,1170.17,2255.411,1188.052,2253.776,1196.419z M2446.013,1275.518c-7.07,7.017-163.279-65.967-187.279-67.927
		c-7.094-12.615,3.395-10.67,13.698-8.057l168.278,64.265C2446.092,1264.392,2447.69,1273.854,2446.013,1275.518z"/>
	<path style="fill:#030404;" d="M335.851,1591.506c33.44-57.47,84.786-106.041,142.445-145.255
		C419.704,1485.254,368.786,1533.516,335.851,1591.506z"/>
	<path style="fill:#030404;" d="M291.079,1746.833c0.656,6.324,2.435,13.253,6.201,18.604c-0.968-9.33-1.451-18.515-1.519-27.566
		L291.079,1746.833z"/>
	<path style="fill:#030404;" d="M1044.165,1414.552c-14.693-24.105-34.692-45.511-59.998-64.221
		c-18.295-20.187-27.088-36.287,13.624-35.508l-33.894-0.462c-17.105-30.598-36.077-59.575-56.914-86.932
		c21.025-18.962,35.867-33.103,43.803-61.803c13.553-49.017-3.104-113.672-64.804-106.97c-68,7.386-85.327,111.847-40.57,155.142
		l2.018,9.265c-49.839,34.892-96.573,71.682-133.144,119.287c-11.261,3.022-22.7,6.338-34.251,9.943
		c11.44-2.951,20.399-4.211,25.035-2.824c1.505,0.45,3.987,7.554,3.088,10.352l-24.005,61.721
		c-25.926,62.837,24.359,81.534,48.622,19.736l20.283-46.307c8.526-22.253,31.912-29.765,26.085,1.634
		c-9.385,33.554-12.046,66.546-7.983,98.974c13.982,19.499,13.518,23.362,9.061,45.774c-11.659,58.622-37.01,89.185-85.577,122.324
		c-21.479,14.823-19.9,33.361,4.735,55.613c0.442,1.438,0.741,2.854,0.536,4.193c-0.604,3.948-50.548,41.573-54.94,41.536
		c-8.399-0.071-12.532-1.375-11.121-10.959c11.58-10.929,22.229-22.522,31.948-34.78c-20.013,7.848-38.7,18.597-57.057,29.98
		c10.168-5.926,29.754-15.472,25.724,1.178c-20.786,20.522-42.3,40.299-64.541,59.33c-10.886,16.77-25.228,31.829-43.024,45.179
		c-1.09,11.455,195.918-93.627,204.025-104.432c9.635-1.289,14.224,5.515,9.273,13.585c-94.419,78.626-104.928,94.2-31.528,46.721
		l91.581-61.124c9.943-5.808,51.302-29.844,38.035-0.518c-35.887,34.138-72.796,66.245-110.729,96.319
		c54.21-40.309,109.305-79.19,165.284-116.644c12.424-15.28,52.362-7.899,47.609,10.707l-125.877,92.382l71.454-50.804
		c8.026-2.079,12.821,2.325,8.56,9.588c20.044-22.619,41.246-44.07,63.604-64.353c35.274-19.162,87.446-48.163,8.737-55.089
		l-3.808-1.874c-15.505-51.922-32.23-103.493-50.175-154.711c-0.558-2.231,14.318-39.853,19.961-39.173
		c-2.418-0.654-6.019-1.685-6.201-3.577c-0.702-7.293-1.609-64.926,0-67.916c1.291-2.398,3.706-3.669,6.201-4.473l6.718-3.609
		C953.845,1409.022,1050.702,1469.772,1044.165,1414.552z M852.297,1746.803c2.482-8.322,39.557-31.964,22.876-36.953
		c-7.933-2.372-40.829,16.027-49.763,20.949c-40.413,22.262-76.575,52.857-118.843,71.815
		c36.554-36.775,79.002-68.247,122.724-96.082c1.78-2.815-0.404-14.539-5.911-11.971c-89.591,45.319-172.187,104.662-265.644,142.16
		c20.865-18.742,44.35-35.911,67.238-52.106c9.707-6.869,75.246-52.572,80.023-52.301c2.849,0.162,8.373,7.488,15.799,8.322
		c23.295,2.614,19.018-17.609,28.983-29.658c15.488-18.729,56.897-34.995,76.192-57.136c13.828-15.867,16.886-35.346,27.891-52.726
		l51.085,110.148C904.824,1719.039,862.367,1743.732,852.297,1746.803z M914.309,1362.353c-3.786,35.797,5.103,81.791,0,116.274
		c-2.26,15.273-16.414,20.248-15.43,33.71l54.163,163.207c0.767,17.196,42.015,3.614,41.822,13.928
		c-0.087,4.637-58.234,29.713-66.708,23.564c-17.597-12.77-49.013-117.966-66.9-141.033c-4.826-7.659-12.938-7.085-17.972-0.054
		c-11.889,16.603-13.753,51.463-31.315,70.993c-18.435,20.501-66.127,40.024-82.401,60.227c-5.688,7.061-2.342,21.596-9.007,18.832
		c-5.662-6.046-30.406-28.029-29.172-35.189c1.433-8.318,57.728-50.907,67.952-62.389c14.34-16.104,36.709-84.392,37.301-105.673
		c0.432-15.53-10.893-15.303-14.279-26.002c-2.792-8.821-1.948-25.978-1.342-35.785c1.536-24.863,18.989-83.315,15.519-102.285
		c-3.516-19.223-34.936,9.133-41.983,16.909c-18.88,20.831-34.907,84.804-54.122,94.754c-7.409,3.836-11.98-6.816-12.341-12.683
		c-1.249-20.28,37.541-103.937,51.298-122.042c17.755-23.365,58.071-58.294,82.181-75.952c13.471-9.867,32.857-13.172,39.087-29.023
		c8.859-22.54-2.742-17.258-14.09-30.646c-25.909-30.568-15.319-107.4,26.596-121.29c70.116-23.235,82.724,59.461,60.302,106.814
		c-11.281,23.826-41.504,28.277-43.625,33.918c-4.053,10.78,4.461,9.679,5.685,12.757c1.281,3.223-0.479,8.67,1.678,13.255
		c1.613,3.429,16.956,12.285,22.786,20.654c18.255,26.206,26.992,65.018,48.848,90.681c12.671,14.878,61.409,48.465,62.776,64.407
		c0.363,4.232-4.17,8.875-7.869,9.809c-11.616,2.931-61.395-29.779-71.969-38.551
		C939.081,1377.917,930.001,1356.159,914.309,1362.353z"/>
	<path style="fill:#030404;" d="M335.851,1591.506c32.935-57.991,83.853-106.253,142.445-145.255
		c20.615-14.02,42.032-26.849,63.727-38.457c20.296-10.859,96.006-44.666,138.012-55.501c11.551-3.605,22.99-6.921,34.251-9.943
		c36.571-47.605,83.305-84.396,133.144-119.287l-2.018-9.265c-44.757-43.295-27.43-147.756,40.57-155.142
		c61.7-6.702,78.357,57.953,64.804,106.97c-7.935,28.7-22.778,42.841-43.803,61.803c20.837,27.357,39.809,56.334,56.914,86.932
		l33.894,0.462c-40.712-0.779-31.919,15.321-13.624,35.508c25.306,18.709,45.306,40.116,59.998,64.221
		c6.538,55.219-90.32-5.531-104.534-18.601l-6.718,3.609c30.922,14.277,62.867,51.474,100.113,42.736
		c9.825-2.305,18.293-15.979,17.681-25.447c-2.128-32.919-68.909-62.054-77.47-94.789c35.756-1.427,71.208-3.551,107.105-3.265
		c155.828,1.241,328.61,16.207,480.203-28.008c50.428-14.708,135.444-55.495,89.973-120.48
		c-36.253-51.81-171.798-98.977-232.294-121.179c-78.833-28.932-159.343-55.454-240.342-77.49
		c0.038-5.631,13.315-3.299,17.004-3.034c53.618,3.844,110.329,17.994,163.938,24.523c9.702-5.643,2.733-8.657-1.12-15.224
		c82.204-7.094,123.709-119.807,104.501-189.801c-5.592-20.376-31.798-49.335-33.136-63.219
		c-2.766-28.711,21.62-49.926,7.609-91.092c-10.855-31.896-40.508-43.91-50.363-64.362c-6.638-13.777-6.392-47.032-11.592-65.924
		c-20.199-73.371-79.383-76.436-110.592-8.336c-5.792,12.64-7.726,28.863-15.452,40.359c-9.873,14.69-27.508,19.698-37.261,40.255
		c-19.75,41.628,8.02,60.97-0.212,92.824c-6.72,26.007-60.848,46.666-67.106,97.214c-8.647,69.852,23.868,151.302,77.17,196.518
		c-9.557-5.306-68.754-6.75-71.296-9.292c-0.635-0.635,0.134-11.808-2.352-17.808c-3.314-7.999-17.264-15.331-18.929-21.63
		c-2.497-9.448,11.626-42.833-14.358-47.412c-13.536-2.386,3.489,16.108,3.988,17.716c4.606,14.872-6.32,31.636-5.209,36.281
		c1.102,4.607,28.784,13.333,24.428,29.752c-49.135-2.921-98.097-4.423-147.234-6.202c-5.302-0.192-10.672-3.216-15.683-3.227
		c-13.357-0.029-15.542,10.994,0.002,12.693c28.383,3.102,61.602,0.724,90.032,2.987c69.8,5.559,150.614,35.904,217.919,58.039
		c87.814,28.881,274.292,86.142,340.138,143.563c95.437,83.227-63.498,124.554-124.838,135.434
		c-174.006,30.864-355.729,11.798-531.914,15.912c-18.407-27.639-25.859-60.432-54.699-81.675
		c67.207-31.181,72.105-175.445-17.11-175.446c-62.735,0-87.38,67.985-77.662,121.332c3.55,19.488,16.011,32.266,26.513,47.861
		c-38.998,23.444-77.025,53.921-108.615,86.79c-7.403,7.703-15.564,24.466-23.523,29.188
		c-19.025,11.286-80.351,24.265-107.456,35.174c-142.468,57.34-330.244,201.645-312.332,374.461l4.683-8.962
		C295.359,1684.069,310.419,1635.214,335.851,1591.506z M1199.66,923.52c-33.589-40.638-60.186-135.016-34.843-183.491
		c12.625-24.15,50.696-46.495,57.456-69.645c9.122-31.24-19.626-52.644,0.393-89.552c8.471-15.617,26.425-25.073,35.313-39.102
		c15.286-24.128,14.157-58.104,41.772-76.055c37.97-24.682,59.388,16.97,66.395,49.509c3.83,17.786,2.063,43.503,9.499,58.715
		c7.589,15.525,34.252,31.944,44.707,51.413c24.379,45.394-6.884,69.459-3.687,102.673c1.866,19.389,33.748,44.675,37.12,77.839
		c9.389,92.339-45.288,171.539-142.607,168.963l6.202-303.894l-9.268,0.002c-6.135,99.772-8.311,200.553-9.337,300.782
		C1257.069,971.258,1225.913,955.283,1199.66,923.52z"/>
	<path style="fill:#030404;" d="M303.483,1754.725c2.126-63.834-0.908-93.413,31.61-151.469
		c71.121-126.974,229.75-217.888,368.359-250.188c-6.428,31.1-46.894,92.675-27.572,122.142c2.525,3.851,10.833,8.666,15.171,9.818
		c36.008,9.562,55.458-65.868,68.778-89.569c2.944-5.239,7.581-15.187,14.937-14.488c-2.373,34.182-22.008,89.255-7.773,120.948
		c3.541,7.885,11.073,10.966,10.81,19.677c-0.45,14.92-22.23,80.877-32.511,91.874c-13.611,14.558-64.546,49.109-70.483,62.842
		c-10.788,24.953,23.688,42.666,19.336,48.757c-16.849,5.332-36.628,28.135-51.192,34.13c-1.417,0.583-5.076,0.809-4.585-1.5
		c4.719-7.021,48.364-39.691,29.135-44.845c-5.965-1.599-47.441,22.256-56.04,27.242c-19.629,11.38-49.149,36.128-67.731,43.909
		c-1.406,0.589-5.078,0.807-4.585-1.501l70.88-59.39c2.043-3.535-1.486-9.822-4.298-10.399c-6.971-1.433-69.2,45.138-83.713,49.573
		c-1.601,0.49-5.057,0.856-4.573-1.488c2.8-5.097,25.183-18.433,15.54-24.872c-8.415-5.783-16.295,4.395-23.308,4.535
		c-5.117,0.103-14.979-10.085-17.023-1.352c-2.805,11.986,11.119,11.638,18.574,10.851c-37.231,44.422-10.414,35.149,24.804,18.604
		c-4.999,10.67-37.465,26.576-34.103,38.674l7.585,4.722l122.638-68.201c-19.343,23.424-45.56,40.109-66.8,61.845
		c-4.225,4.323-4.846,11.169-8.948,15.857c-7.006,8.006-38.042,23.907-35.883,35.373c3.768,5.367,7.255,5.395,13.247,4.165
		c9.365-1.922,38.825-16.58,49.889-21.588c50.805-22.998,102.145-53.559,149.319-83.245c8.744-0.916,2.528,3.86,0.02,6.237
		c-26.219,24.846-60.386,46.566-81.508,75.934c1.849,3.089,4.504,7.322,8.706,6.397c7.981-1.757,34.922-18.705,44.229-24.085
		c31.44-18.176,99.359-71.289,127.784-79.974c1.602-0.489,5.057-0.856,4.573,1.488c-11.721,10.944-22.224,23.356-34.049,34.165
		c-15.809,14.453-73.358,53.955-80.859,64.87c-6.602,9.607-3.733,13.5,7.199,10.307c13.231-3.865,82.089-60.415,100.542-73.1
		c10.952-7.529,76.929-53.01,83.125-53.182c5.186-0.144,18.053,8.758,26.362,7.636l-128.701,94.545
		c-10.87,11.889-3.294,16.657,8.927,8.925l73.279-52.263c-7.075,12.662-41.478,41.24-40.52,54.183
		c0.198,2.667,2.709,7.505,4.827,7.705c16.694,1.578,132.06-89.99,159.719-95.995c-12.298,16.102-111.262,93.654-108.516,106.885
		c3.18,15.323,49.723-12.059,57.887-16.466c58.698-31.686,111.237-76.669,174.654-99.721
		c-14.109,18.254-90.813,68.081-95.667,85.755c-2.947,10.732,6.899,11.28,15.133,8.937c22.364-6.362,66.016-37.517,89.771-49.829
		c9.723-5.039,20.458-11.344,31.071-13.857l-102.471,81.982c-4.667,3.707-3.589,12.788,1.914,13.97
		c15.577,3.347,164.93-89.161,191.606-99.505c4.848-1.056,6.802-10.133,5.056-11.966c-6.185-6.495-138.735,77.136-158.116,80.57
		c15.183-21.58,108.089-73.615,114.253-91.913c0.796-2.364,0.524-4.852,0.455-7.261c-5.797-5.666-53.106,18.713-62.065,23.171
		c-30.234,15.047-58.107,36.803-89.851,48.096c5.108-7.293,11.943-14.233,18.559-20.167c17.301-15.517,67.845-46.58,77.705-61.821
		c4.098-6.334,4.213-14.119-4.161-13.631c-12.637,0.738-61.51,25.723-75.585,33.103c-54.519,28.582-103.055,68.04-159.148,93.523
		c41.388-46.021,91.353-83.824,139.713-122.306c5.979-5.037,0.781-10.139-4.798-13.234l-193.827,113.835
		c-4.516-4.093,77.612-83.793,83.641-88.413c15.786-12.095,57.33-22.299,49.107-48.921c-4.182-13.538-33.813-12.825-45.692-14.811
		c-11.414-51.896-31.741-101.207-48.444-151.468c4.905-10.943,14.098-26.815,14.098-38.978
		c-5.643-0.679-20.518,36.943-19.961,39.173c17.945,51.218,34.67,102.789,50.175,154.711l3.808,1.874
		c78.709,6.925,26.537,35.927-8.737,55.089c-22.358,20.284-43.56,41.735-63.604,64.353c4.261-7.262-0.534-11.667-8.56-9.588
		l-71.454,50.804l125.877-92.382c4.753-18.606-35.185-25.987-47.609-10.707c-55.979,37.454-111.073,76.335-165.284,116.644
		c37.932-30.074,74.842-62.181,110.729-96.319c13.267-29.327-28.092-5.29-38.035,0.518l-91.581,61.124
		c-73.4,47.478-62.89,31.905,31.528-46.721c4.95-8.07,0.362-14.873-9.273-13.585c-8.107,10.805-205.115,115.887-204.025,104.432
		c17.796-13.349,32.138-28.409,43.024-45.179c22.241-19.031,43.754-38.808,64.541-59.33c4.03-16.651-15.556-7.104-25.724-1.178
		c-1.92,1.191-3.84,2.382-5.754,3.585c-0.481,0.302,2-1.396,5.754-3.585c18.356-11.383,37.044-22.132,57.057-29.98
		c-9.719,12.258-20.368,23.851-31.948,34.78c-1.412,9.584,2.722,10.889,11.121,10.959c4.391,0.037,54.336-37.588,54.94-41.536
		c0.205-1.339-0.094-2.755-0.536-4.193c-24.635-22.252-26.214-40.79-4.735-55.613c48.567-33.139,73.919-63.702,85.577-122.324
		c4.457-22.411,4.922-26.275-9.061-45.774c-4.063-32.428-1.402-65.419,7.983-98.974c5.827-31.399-17.559-23.887-26.085-1.634
		l-20.283,46.307c-24.264,61.799-74.549,43.101-48.622-19.736l24.005-61.721c0.899-2.798-1.583-9.902-3.088-10.352
		c-4.636-1.387-13.596-0.126-25.035,2.824c-67.591,21.094-139.048,52.227-201.74,93.958
		c-57.659,39.213-109.005,87.785-142.445,145.255c-24.39,42.947-38.929,91.219-39.389,145.024l-0.7,1.34
		c0.068,9.051,0.551,18.236,1.519,27.566C306.644,1767.168,303.284,1760.687,303.483,1754.725z"/>
	<path style="fill:#030404;" d="M295.762,1737.871l0.7-1.34c0.46-53.805,14.999-102.078,39.389-145.024
		C310.419,1635.214,295.359,1684.069,295.762,1737.871z"/>
	<path style="fill:#030404;" d="M602.992,1752.844c1.914-1.202,3.834-2.394,5.754-3.585
		C604.992,1751.447,602.511,1753.146,602.992,1752.844z"/>
	<path style="fill:#030404;" d="M926.712,1404.034c-1.609,2.99-0.702,60.623,0,67.916c0.182,1.892,3.783,2.923,6.201,3.577v-75.966
		C930.417,1400.365,928.002,1401.636,926.712,1404.034z"/>
	<path style="fill:#030404;" d="M478.296,1446.252c62.692-41.731,134.149-72.864,201.74-93.958
		c-42.007,10.835-117.716,44.642-138.012,55.501C520.328,1419.402,498.911,1432.232,478.296,1446.252z"/>
	<path style="fill:#050706;" d="M1648.456,1034.604l91.688,19.199c-9.305-2.123-24.838-6.286-27.916-10.905
		c-0.389-0.584-0.835-3.847-1.162-8.54c-1.181,3.255-2.979,6.4-5.12,8.923C1687.023,1040.509,1667.765,1037.661,1648.456,1034.604z"
		/>
	<path style="fill:#050706;" d="M1557.949,1021.379c73.381,22.839,145.792,45.522,216.411,73.757
		c-47.379-19.302-95.41-36.605-144.108-51.867c-2.089-4.603,0.115-7.821,3.683-11.008c-20.961-3.45-41.905-7.196-62.473-11.476
		C1567.761,1014.876,1563.256,1015.074,1557.949,1021.379z"/>
	<path style="fill:#050706;" d="M1822.817,910.728c0.013-0.081,0.032-0.16,0.045-0.241c3.931-24.645-2.51-42.478-14.508-58.485
		C1820.268,870.008,1825.278,890.837,1822.817,910.728z"/>
	<path style="fill:#050706;" d="M1734.586,662.061c-7.913-1.317-15.792-0.709-23.173,1.59c0.19-0.051,0.384-0.115,0.571-0.162
		C1720.051,661.496,1727.592,661.107,1734.586,662.061z"/>
	<path style="fill:#050706;" d="M1782.75,825.615c1.256,0.897,2.455,1.837,3.655,2.775c-1.007-0.945-2.005-1.888-3.035-2.839
		c1.825-6.559,3.613-13.059,5.26-19.502c-1.165,2.655-2.454,5.196-3.874,7.6L1782.75,825.615z"/>
	<path style="fill:#050706;" d="M1706.728,665.337c-7.906,3.34-15.061,8.703-20.815,15.787
		C1692.01,674.275,1699.725,668.451,1706.728,665.337z"/>
	<path style="fill:#050706;" d="M1674.975,701.81c-0.923,2.963-1.68,6.052-2.223,9.281c0.234,3.38,0.286,6.653,0.216,9.853
		c1.131-3.766,2.541-6.734,4.1-8.176C1675.034,709.444,1674.466,705.705,1674.975,701.81z"/>
	<path style="fill:#050706;" d="M1778.495,693.589c11.23,18.062,17.48,41.503,18.243,64.242
		C1797.629,735.618,1793.189,714.194,1778.495,693.589z"/>
	<path style="fill:#050706;" d="M1734.673,662.074c0.322,0.044,0.635,0.109,0.955,0.159
		C1735.309,662.173,1734.991,662.127,1734.673,662.074z"/>
	<path style="fill:#050706;" d="M1670.236,740.989c-1.043,3.916-2.345,7.678-3.981,11.244c-26.386-8.604,2.333,5.87,10.813,7.044
		C1672.216,757.902,1670.285,749.979,1670.236,740.989z"/>
	<path style="fill:#050706;" d="M1520.498,1537.319c0.517-0.222,0.98-0.464,1.512-0.681c26.212-11.526,52.626-22.646,79.199-33.444
		c-22.025,8.667-44,17.479-65.914,26.474C1531.065,1531.755,1525.974,1534.334,1520.498,1537.319z"/>
	<path style="fill:#050706;" d="M1833.194,1120.283c1.804,0.825,3.615,1.625,5.415,2.459
		C1836.803,1121.926,1835.002,1121.094,1833.194,1120.283z"/>
	<path style="fill:#050706;" d="M1863.068,1133.972c-7.55-3.543-15.13-6.992-22.714-10.429
		c12.403,5.774,24.737,11.796,37.003,18.075C1872.752,1139.068,1868.034,1136.518,1863.068,1133.972z"/>
	<path style="fill:#050706;" d="M1937.683,1338.573c26.521-26.954,41.927-56.027,39.245-86.134
		C1978.444,1282.424,1962.866,1311.801,1937.683,1338.573z"/>
	<path style="fill:#050706;" d="M1719.481,881.993c-8.005-4.793-10.21-13.981-6.615-27.565c-15.698-4.974-17.334-1.813-4.909,9.481
		c3.09,17.352,1.115,114.869-6.134,123.84l-6.503,1.837c6.595,6.434,8.821,15.098,6.679,25.992c4.238,0.505,6.971,2.212,8.603,4.57
		c0-16.483,1.866-35.786,8.846-35.425c5.372,0.496,10.725,0.555,16.014,0.241c-7.554-0.092-14.167-2.022-18.085-7.092
		c-2.42-0.645-6.044-1.687-6.201-3.557c-0.721-8.578-1.83-73.857,0-77.259c1.288-2.395,3.708-3.656,6.201-4.451
		C1712.454,887.881,1714.567,885.265,1719.481,881.993z"/>
	<path style="fill:#050706;" d="M1505.899,1545.823c-20.008,12.51-39.768,29.007-39.675,45.978
		c6.951-12.478,17.644-19.367,27.906-27.906C1495.608,1556.961,1499.568,1550.95,1505.899,1545.823z"/>
	<path style="fill:#050706;" d="M1774.36,1095.135c19.724,8.036,39.338,16.412,58.834,25.148
		C1813.735,1111.383,1794.119,1103.036,1774.36,1095.135z"/>
	<path style="fill:#050706;" d="M1838.609,1122.743c0.583,0.263,1.162,0.537,1.745,0.801
		C1839.773,1123.273,1839.19,1123.012,1838.609,1122.743z"/>
	<path style="fill:#050706;" d="M1747.145,1055.269l-7-1.466C1744.693,1054.841,1747.762,1055.394,1747.145,1055.269z"/>
	<path style="fill:#050706;" d="M1670.236,740.989c1.661-6.239,2.576-12.917,2.732-20.045
		C1671.264,726.62,1670.199,734.113,1670.236,740.989z"/>
	<path style="fill:#050706;" d="M1601.21,1503.195c56.901-22.39,114.169-43.705,171.814-63.91
		c58.716-21.231,124.1-57.593,164.66-100.712c-38.461,39.088-100.299,73.719-164.316,100.57
		C1715.156,1458.83,1657.784,1480.208,1601.21,1503.195z"/>
	<path style="fill:#050706;" d="M1520.498,1537.319c-5.799,2.487-10.67,5.32-14.599,8.503
		C1510.849,1542.727,1515.814,1539.873,1520.498,1537.319z"/>
	<path style="fill:#050706;" d="M1796.738,757.831c-0.629,15.684-3.9,31.759-8.108,48.219
		C1794.699,792.214,1797.322,775.231,1796.738,757.831z"/>
	<path style="fill:#050706;" d="M1734.586,662.061c0.029,0.005,0.058,0.008,0.087,0.013
		C1734.644,662.07,1734.615,662.065,1734.586,662.061z"/>
	<path style="fill:#050706;" d="M1670.236,740.989c0.049,8.99,1.98,16.913,6.832,18.288v-46.51c-1.559,1.443-2.969,4.411-4.1,8.176
		C1672.812,728.072,1671.897,734.75,1670.236,740.989z"/>
	<path style="fill:#050706;" d="M1976.929,1252.439c-1.871-37.036-29.818-74.995-98.15-110.108c-0.473-0.243-0.95-0.47-1.423-0.713
		C1944.477,1178.795,1973.716,1216.358,1976.929,1252.439z"/>
	<path style="fill:#050706;" d="M1674.975,701.81c2.472-7.936,6.229-14.891,10.938-20.686
		C1680.167,687.577,1675.873,694.936,1674.975,701.81z"/>
	<path style="fill:#050706;" d="M1706.728,665.337c1.532-0.647,3.101-1.192,4.685-1.685
		C1709.906,664.061,1708.339,664.62,1706.728,665.337z"/>
	<path style="fill:#050706;" d="M1808.354,852.001c-5.739-8.674-13.08-16.679-21.949-23.611
		C1794.745,836.217,1802.266,843.88,1808.354,852.001z"/>
	<path style="fill:#050706;" d="M1505.899,1545.823c3.929-3.183,8.8-6.016,14.599-8.503c5.476-2.985,10.567-5.564,14.798-7.651
		c21.913-8.994,43.889-17.807,65.914-26.474c56.574-22.988,113.947-44.365,172.157-64.052
		c64.017-26.851,125.856-61.482,164.316-100.57c25.183-26.773,40.76-56.149,39.245-86.134
		c-3.213-36.081-32.452-73.644-99.572-110.821c-12.266-6.279-24.6-12.301-37.003-18.075c-0.582-0.264-1.162-0.538-1.745-0.801
		c-1.801-0.835-3.612-1.634-5.415-2.459c-19.496-8.736-39.109-17.112-58.834-25.148c-70.62-28.234-143.03-50.918-216.411-73.757
		c5.308-6.305,9.812-6.502,13.513-0.594c20.568,4.279,41.512,8.026,62.473,11.476c0.211-0.188,0.409-0.377,0.629-0.565l13.892,2.909
		c19.308,3.057,38.567,5.905,57.49,8.677c2.141-2.523,3.939-5.668,5.12-8.923c-0.276-3.959-0.466-8.936-0.466-14.208
		c-1.632-2.358-4.364-4.065-8.603-4.57c2.143-10.894-0.083-19.558-6.679-25.992l6.503-1.837c7.249-8.971,9.224-106.488,6.134-123.84
		c-12.425-11.295-10.789-14.455,4.909-9.481c-3.594,13.583-1.389,22.772,6.615,27.565c-4.913,3.272-7.027,5.888-2.104,10.612
		c0-2.524,34.199-26.202,37.181-34.149c1.74-7.155-6.806-5.326-10.197-3.981c-5.602,2.221-23.074,25.458-26.967,21.062
		c1.691-29.6,6.829-59.289,9.062-88.812c0.475-6.278-1.311-17.682-9.109-11.975c-4.1,3.001-9.099,65.116-9.303,75.996
		c-18.171-10.095-22.221-37.183-43.361-43.393c-8.01,9.287,35.762,53.058,40.222,63.618l-6.154,113.094
		c-37.244-7.153-5.43,9.073-3.581,14.466c2.527,7.369-1.392,32.755,0.519,35.138c10.526,3.216,4.842-11.506,12.354-12.372
		l-4.857,18.22c-16.215-8.471-126.037-20.177-130.825-25.152c-1.86-1.933-1.247-7.819-3.09-10.737
		c-2.905-4.6-7.308-7.929-9.21-12.618c-10.25-25.263-4.793-59.792-43.477-62.016c-13.881-0.798-15.853,7.187-24.711,10.961
		c-4.835,2.06-10.7-0.444-18.078,3.629c-8.151,4.499-9.267,15.09-13.697,20.411c-4.018,4.825-11.368,5.968-15.23,12.673
		c-7.894,13.704-0.619,23.882,6.105,14.809c1.52-2.051,1.202-7.286,4.413-10.459c3.293-3.254,8.92-3.046,12.303-6.331
		c4.972-4.828,6.866-19.749,14.081-23.377c5.889-2.961,11.249,2.462,16.422,1.307c9.318-2.081,9.54-21.388,32.286-6.425
		c8.013,5.272,13.751,23.588,16.201,33.394c1.36,5.443-1.141,12.487,0.632,17.972c1.345,4.161,20.165,11.425,9.729,17.517
		c-2.96,1.728-17.329,2.777-7.005,10.766c106.799,34.595,222.535,64.876,321.359,118.933
		c210.892,115.359,44.138,227.098-95.203,287.245c-71.707,30.953-262.211,82.292-305.338,134.954
		c-3.098,3.783-20.798,24.925-4.628,24.828C1466.131,1574.829,1485.891,1558.333,1505.899,1545.823z"/>
	<path style="fill:#050706;" d="M1735.461,984.965c13.82,0.168,30.837-5.915,40.597-10.854
		c28.484-14.413,43.634-38.132,46.759-63.384C1815.68,954.696,1777.718,982.458,1735.461,984.965z"/>
	<path style="fill:#050706;" d="M1979.441,1281.793c30.489-109.772-148.335-168.054-224.092-200.813l-124.775-44.163l175.17,37.43
		c23.589,3.779,24.427-26.176,44.869-30.097c13.385-2.568,13.785,8.996,19.817,7.927c7.017-1.243,13.241-18.602,37.003-11.537
		c23.384,6.952,17.019,43.538,22.238,52.156c4.228,6.983,10.725-2.954,18.595-3.423c24.729-1.472,19.06,34.347,23.459,37.388
		c2.244,1.551,11.84-3.1,16.728-2.885c9.6,0.422,24.625,11.255,33.883,9.376c4.645-0.943,4.747-18.028,11.273-18.833
		c1.394,6.224,3.076,23.369,6.918,27.205c3.518,3.513,34.261,9.193,36.537,6.868c0.755-0.771,0.87-7.688-1.819-9.57
		c-5.529-3.87-23.491-1.608-27.687-8.979c-3.623-6.366,0.612-24.308-9.776-27.625c-14.168-4.524-18.099,14.475-21.829,15.337
		c-3.839,0.888-32.503-5.26-34.324-7.058c-2.081-2.055-4.147-17.014-11.366-24.284c-10.63-10.707-26.662-7.395-29.242-9.514
		c-4.606-3.782-5.151-40.89-34.283-47.874c-21.89-5.247-24.642,5.377-36.372,7.019c-7.99,1.118-16.479-4.71-29.141-0.76
		c-13.262,4.137-23.478,28.176-32.697,28.667c-21.203,1.13-66.745-20.094-90.844-21.064l-0.322-52.429
		c82.748,11.575,149.797-82.636,89.922-150.352c-4.782-5.408-16.908-11.073-18.184-16.099c-1.186-4.671,14.306-48.196,15.079-61.512
		c3.169-54.561-49.193-137.961-111.397-95.828c-28.995,19.639-23.608,51.62-28.147,81.957
		c-30.999-25.889-60.39,11.044-62.137,41.764c-1.629,28.652,14.12,43.922,24.966,66.727c-39.578,13.401-35.567,48.482-15.584,79.173
		c6.226,9.562,34.292,46.591,40.382,24.762c-25.097-15.567-65.322-68.513-29.002-91.038c4.549-2.821,19.427-5.741,19.902-8.493
		c2.299-13.32-35.981-38.048-27.78-76.721c3.104-14.637,13.569-35.948,31.497-32.604c3.321,0.619,30.19,21.156,30.19,7.283
		c-8.481-1.174-37.199-15.648-10.813-7.044c1.636-3.566,2.938-7.328,3.981-11.244c-0.037-6.876,1.027-14.37,2.732-20.045
		c0.07-3.201,0.018-6.473-0.216-9.853c0.542-3.23,1.3-6.318,2.223-9.281c0.898-6.874,5.193-14.233,10.938-20.686
		c5.755-7.083,12.91-12.447,20.815-15.787c1.611-0.716,3.178-1.276,4.685-1.685c7.381-2.299,15.26-2.907,23.173-1.59
		c0.029,0.004,0.058,0.009,0.087,0.013c0.318,0.054,0.636,0.099,0.955,0.159c18.189,2.854,32.606,14.852,42.867,31.356
		c14.694,20.605,19.134,42.03,18.243,64.242c0.584,17.401-2.038,34.384-8.108,48.219c-1.647,6.442-3.434,12.943-5.26,19.502
		c1.03,0.951,2.028,1.894,3.035,2.839c8.87,6.932,16.21,14.937,21.949,23.611c11.998,16.007,18.439,33.84,14.508,58.485
		c-0.013,0.082-0.032,0.16-0.045,0.241c-3.125,25.252-18.275,48.971-46.759,63.384c-9.759,4.938-26.776,11.021-40.597,10.854
		c-5.289,0.314-10.642,0.255-16.014-0.241c-6.98-0.361-8.846,18.942-8.846,35.425c2.573,3.719,2.322,9.089,0.466,14.208
		c0.327,4.694,0.773,7.957,1.162,8.54c3.079,4.619,18.611,8.782,27.916,10.905l7,1.466c0.616,0.125-2.452-0.428-7-1.466
		l-91.688-19.199c-4.84-0.766-9.679-1.547-14.521-2.344c-3.568,3.186-5.772,6.404-3.683,11.008
		c48.697,15.262,96.729,32.565,144.108,51.867c19.759,7.9,39.375,16.247,58.834,25.148c1.808,0.81,3.609,1.643,5.415,2.459
		c0.581,0.269,1.164,0.531,1.745,0.801c7.584,3.437,15.165,6.886,22.714,10.429c4.966,2.546,9.684,5.095,14.289,7.646
		c0.473,0.242,0.95,0.47,1.423,0.713c68.332,35.113,96.278,73.071,98.15,110.108c2.681,30.108-12.724,59.18-39.245,86.134
		c-40.56,43.12-105.944,79.481-164.66,100.712c-57.645,20.205-114.912,41.52-171.814,63.91
		c-26.573,10.797-52.987,21.918-79.199,33.444c-0.532,0.216-0.995,0.459-1.512,0.681c-4.684,2.553-9.649,5.408-14.599,8.503
		c-6.331,5.128-10.291,11.138-11.769,18.072c14.504-12.067,25.888-20.785,43.445-29.421
		C1653.971,1477.223,1940.569,1421.744,1979.441,1281.793z"/>
	<path style="fill:#050706;" d="M1711.175,897.057c-1.83,3.402-0.721,68.682,0,77.259c0.157,1.87,3.781,2.912,6.201,3.557v-85.268
		C1714.884,893.401,1712.463,894.662,1711.175,897.057z"/>
	<path style="fill:#050706;" d="M1711.066,1034.358c1.857-5.119,2.108-10.49-0.466-14.208
		C1710.601,1025.422,1710.791,1030.399,1711.066,1034.358z"/>
	<path style="fill:#050706;" d="M1778.495,693.589c-10.261-16.505-24.678-28.502-42.867-31.356
		c11.051,2.075,22.108,7.9,31.858,18.097C1771.675,684.71,1775.315,689.131,1778.495,693.589z"/>
	<path style="fill:#050706;" d="M1633.936,1032.261c4.842,0.797,9.681,1.577,14.521,2.344l-13.892-2.909
		C1634.344,1031.884,1634.146,1032.073,1633.936,1032.261z"/>
	<path style="fill:#050706;" d="M1735.461,984.965c42.257-2.508,80.219-30.269,87.356-74.237
		c2.462-19.891-2.548-40.72-14.463-58.726c-6.088-8.122-13.609-15.785-21.949-23.611c-1.2-0.938-2.399-1.878-3.655-2.775
		l2.007-11.966c1.42-2.404,2.709-4.945,3.874-7.6c4.208-16.46,7.479-32.535,8.108-48.219c-0.763-22.739-7.013-46.18-18.243-64.242
		c-3.179-4.458-6.82-8.878-11.009-13.259c-9.751-10.197-20.808-16.022-31.858-18.097c-0.319-0.05-0.633-0.114-0.955-0.159
		c-0.029-0.005-0.058-0.008-0.087-0.013c-6.994-0.954-14.535-0.565-22.602,1.428c-0.187,0.046-0.382,0.11-0.571,0.162
		c-1.584,0.493-3.152,1.038-4.685,1.685c-7.003,3.114-14.718,8.938-20.815,15.787c-4.708,5.795-8.466,12.751-10.938,20.686
		c-0.509,3.895,0.059,7.634,2.093,10.958c0-17.461,22.256-40.677,39.447-44.245c52.274-10.848,79.734,60.683,74.478,102.366
		c-1.623,12.869-16.449,47.808-14.252,55.912c3.453,12.737,35.223,25.291,39.586,56.773c8.63,62.268-39.774,100.678-98.95,94.299
		C1721.294,982.943,1727.907,984.873,1735.461,984.965z"/>
	<path style="fill:#050805;" d="M609.686,946.37c-13.303-2.133-23.845-16.66-44.159-15.203
		c-12.805,0.919-35.087,19.302-37.19,18.817c-4.665-1.077-7.179-20.773-22.452-24.19c-30.539-6.834-31.476,33.211-40.036,36.161
		c-28.408,1.397-57.663,2.734-85.686,7.475c-6.112,1.034-13.468,6.409-8.482,11.531c3.51,3.606,87.502-10.422,100.155-9.919
		c12.834-3.829,10.74-34.085,28.567-35.417c11.666-0.872,13.881,25.866,24.811,26.909c12.714,1.214,25.784-19.704,40.999-21.244
		c16.26-1.646,41.248,26.128,59.806,13.395c3.158-2.167,4.47-9.367,3.014-10.904C627.777,942.456,615.443,947.293,609.686,946.37z"
		/>
	<path style="fill:#060706;" d="M1084.774,811.371c-1.997-8.75,1.373-15.06-3.337-26.981c-8.138-20.594-25.378-18.781-30.012-24.265
		c-6.13-7.254-5.423-34.147-29.829-33.279c-4.447,0.158-44.356,17.089-48.235,20.167c-7.482,5.935-10.361,13.534-9.423,23.102
		c10.619,0.417,11.194-12.505,19.318-16.307c4.922-2.303,11.212-1.323,15.406-3.198c17.366-7.76,27.073-23.214,39.356,2.783
		c2.398,5.075,2.983,14.388,4.871,16.835c4.062,5.264,18.432-0.615,26.041,14.268c6.657,13.021,0.929,22.573,3.451,33.063
		c0.433,1.801,15.269,10.244,18.74,16.061c4.16,6.971,5.064,31.273,13.832,29.513c6.845-1.375,1.5-23.833,0.098-27.943
		C1100.483,821.798,1085.129,812.927,1084.774,811.371z"/>
	<path style="fill:#060907;" d="M2258.734,1207.592c24,1.96,180.209,74.944,187.279,67.927c1.677-1.665,0.079-11.126-5.302-11.719
		l-168.278-64.265C2262.129,1196.921,2251.641,1194.977,2258.734,1207.592z"/>
	<path style="fill:#070805;" d="M2216.812,1168.357c-14.067-3.327-43.889,5.95-46.908,3.594c-4.453-3.476-3.047-23.365-14.382-26.2
		c-11.313-2.83-25.602,13.968-34.065,14.542c-1.871,0.127-19.364-11.959-16.485,2.024c4.572,22.209,47.708-6.618,49.578-4.61
		c2.693,47.205,29.632,17.62,57.194,21.904c6.261,0.973,13.657,5.467,19.387,8.51c3.581,1.901,20.534,19.095,22.645,8.299
		C2255.411,1188.052,2224.474,1170.17,2216.812,1168.357z"/>
	<path style="fill:#080A07;" d="M824.368,864.674c-10.193,4.569-15.918,16.027-21.749,18.562
		c-10.824,4.706-22.838,0.205-34.107,12.403c-8.107,8.775-20.293,47.48-4.584,48.064c5.36,0.199,4.974-21.701,6.692-27.352
		c9.111-29.965,36.249-14.586,38.112-16.029c0.605-0.469,2.527-9.369,6.335-13.942c12.096-14.521,25.716-17.072,44.278-13.211
		c9.271,1.928,14.891,10.677,23.94,11.67C884.589,858.038,843.115,856.269,824.368,864.674z"/>
	<path style="fill:#070906;" d="M429.909,1183.116c-8.498-14.803-59.341-14.171-61.399,11.765
		c-19.293-11.897-40.527-15.525-51.925,8.479c-3.134,6.6-3.264,20.785-4.339,22.052c-1.397,1.648-13.552,0.561-11.85,8.218
		c1.937,8.715,18.11,2.685,21.931-2.812c6.212-8.936-0.32-29.683,18.277-34.663c10.905-2.92,20.589,13.026,28.964,10.892
		c7.903-2.014,11.955-24.679,31.112-23.622c9.272,0.511,18.984,10.922,29.912,8.375
		C430.392,1188.966,431.43,1185.765,429.909,1183.116z"/>
	<path style="fill:#090B08;" d="M944.961,796.514c-0.757-12.885,7.963-12.701,9.642-23.267
		c-25.581-3.862-17.339,23.536-23.267,34.063c-0.775,1.375-18.652,21.64-20.21,23.199c-3.728,3.729-9.921,3.364-15.023,9.782
		c-8.121,10.215-17.755,44.931,2.692,41.48c-0.632-14.007-0.445-27.581,10.771-37.333c3.946-3.431,11.473-4.705,13.261-6.882
		c4.799-5.841-0.3-16.217,15.413-20.255c7.441-1.912,23.06,2.762,15.585-9.343C952.405,805.662,945.634,807.986,944.961,796.514z"/>
	<path style="fill:#070807;" d="M1228.102,1200.211c7.04,3.806,13.317-5.521,19.655-5.362c7.719,0.194,7.3,10.557,12.731,12.172
		c4.919,1.462,23.911-6.168,32.086-2.816c4.347-19.987-23.294-8.982-27.57-12.722c-0.677-0.592-1.595-11.17-6.425-16.807
		c-14.483-16.903-44.858,3.809-43.49,23.33C1230.45,1192.519,1226.166,1199.164,1228.102,1200.211z"/>
	<path style="fill:#090B05;" d="M198.077,987.188c-2.179-2.295-54.597,2.301-63.201,3.463c-3.873,0.523-19.006,0.941-17.402,7.329
		c3.574,5.26,8.327,4.688,13.853,4.951c7.333,0.348,64.449-4.031,66.748-6.475C198.685,995.806,197.684,989.699,198.077,987.188z"/>
	<path style="fill:#0E1009;" d="M943.765,940.665h-51.161c-1.137,19.451,11.005,9.391,20.163,9.909
		c8.767,0.496,24.651,6.18,32.644,1.038C951.5,947.694,945.903,940.665,943.765,940.665z"/>
	<path style="fill:#070906;" d="M1681.776,915.814c-1.828-3.543-34.746-33.849-37.264-34.002c-3.74-0.227-5.444,7.211-3.099,12.328
		c1.209,2.638,34.788,31.494,37.158,31.007C1681.951,924.452,1683.949,920.027,1681.776,915.814z"/>
	<path style="fill:#070906;" d="M1102.087,1176.167c9.764-1.331,13.907,7.303,23.05,6.333c-3.427-31.375-48.897-19.671-43.376,9.303
		C1092.699,1192.074,1090.933,1177.687,1102.087,1176.167z"/>
	<path style="fill:#070A05;" d="M1735.324,753.927c-0.404-7.024,37.383-33.06,20.764-36.493
		C1751.35,716.456,1702.014,762.463,1735.324,753.927z"/>
	<path style="fill:#080A06;" d="M2139.047,1256.916c7.066-18.098-20.779-33.376-29.464-18.599
		c-13.248,22.539,13.858,5.908,15.343,6.237C2129.297,1245.523,2130.567,1259.137,2139.047,1256.916z"/>
	<path style="fill:#060904;" d="M1260.484,1793.701c-6.173,0.558-34.481,21.313-18.992,24.456
		c5.595,1.135,20.753-13.692,26.289-17.094C1268.74,1797.218,1264.641,1793.325,1260.484,1793.701z"/>
	<path style="fill:#070A05;" d="M551.55,1176.299c8.224-1.654,11.197-8.014,19.195-13.339c4.124-2.746,9.421-7.78,5.578-11.434
		C569.579,1145.113,543.577,1162.464,551.55,1176.299z"/>
	<path style="fill:#080A05;" d="M2128.475,1312.481c-2.637,1.947-2.605,8.779-1.832,9.552c0.855,0.856,21.724,2.548,24.064,2.511
		C2169.821,1324.244,2145.311,1300.052,2128.475,1312.481z"/>
	<path style="fill:#050603;" d="M1742.197,928.246c5.565,5.366,33.295-13.718,27.876-18.571
		C1762.814,905.931,1734.101,920.439,1742.197,928.246z"/>
	<path style="fill:#010201;" d="M2194.938,1301.89c3.81,5.816,8.951,5.015,15.425,4.635v-9.27
		C2203.889,1296.875,2198.748,1296.075,2194.938,1301.89z"/>
	<path style="fill:#69642F;" d="M1308.112,670.894l9.268-0.002l-6.202,303.894c97.319,2.576,151.996-76.624,142.607-168.963
		c-3.372-33.164-35.253-58.449-37.12-77.839c-3.197-33.214,28.066-57.279,3.687-102.673c-10.456-19.469-37.118-35.888-44.707-51.413
		c-7.437-15.212-5.669-40.929-9.499-58.715c-7.006-32.538-28.425-74.19-66.395-49.509c-27.615,17.951-26.486,51.927-41.772,76.055
		c-8.888,14.029-26.842,23.484-35.313,39.102c-20.019,36.908,8.729,58.312-0.393,89.552c-6.759,23.15-44.83,45.495-57.456,69.645
		c-25.342,48.475,1.255,142.853,34.843,183.491c26.253,31.763,57.409,47.738,99.115,48.156
		C1299.8,871.448,1301.977,770.666,1308.112,670.894z M1413.451,784.083c-0.094,2.04-33.519,20.552-35.525,20.167
		c-15.745-3.028,11.713-22.554,19.183-24.217C1401.624,779.028,1413.683,779.039,1413.451,784.083z M1391.793,661.623
		c3.083,16.324-4.36,10.351-12.852,16.516c-9.237,6.705-21.279,25.038-30.526,12.877
		C1346.853,683.676,1380.962,655.974,1391.793,661.623z M1224.36,787.135c-3.286,15.947-23.363-15.445-27.876-10.788
		c-3.68,3.796,22.921,25.482,7.709,24.839c-10.81-0.457-22.364-19.15-19.681-28.819
		C1190.344,751.345,1225.952,779.41,1224.36,787.135z M1275.825,872.159c-2.096-2.2-30.5-33.5-15.812-33.739
		c3.469-0.056,24.973,24.144,27.106,28.669C1292.539,878.587,1285.21,882.012,1275.825,872.159z"/>
	<path style="fill:#F7EDD5;" d="M951.777,1388.449c10.574,8.772,60.353,41.481,71.969,38.551c3.699-0.933,8.232-5.577,7.869-9.809
		c-1.367-15.942-50.106-49.529-62.776-64.407c-21.856-25.663-30.593-64.475-48.848-90.681c-5.83-8.369-21.172-17.225-22.786-20.654
		c-2.157-4.584-0.396-10.031-1.678-13.255c-1.224-3.078-9.738-1.978-5.685-12.757c2.121-5.64,32.343-10.092,43.625-33.918
		c22.422-47.354,9.814-130.049-60.302-106.814c-41.915,13.89-52.505,90.722-26.596,121.29c11.348,13.388,22.949,8.107,14.09,30.646
		c-6.23,15.85-25.616,19.156-39.087,29.023c-24.11,17.659-64.426,52.588-82.181,75.952
		c-13.757,18.104-52.547,101.762-51.298,122.042c0.361,5.867,4.932,16.519,12.341,12.683c19.216-9.949,35.242-73.922,54.122-94.754
		c7.048-7.776,38.468-36.132,41.983-16.909c3.469,18.97-13.984,77.421-15.519,102.285c-0.606,9.807-1.45,26.964,1.342,35.785
		c3.386,10.698,14.711,10.472,14.279,26.002c-0.592,21.281-22.961,89.569-37.301,105.673
		c-10.224,11.483-66.519,54.071-67.952,62.389c-1.234,7.16,23.51,29.144,29.172,35.189c6.665,2.765,3.319-11.77,9.007-18.832
		c16.274-20.203,63.965-39.726,82.401-60.227c17.562-19.53,19.426-54.39,31.315-70.993c5.034-7.031,13.146-7.605,17.972,0.054
		c17.887,23.067,49.303,128.263,66.9,141.033c8.474,6.149,66.622-18.927,66.708-23.564c0.193-10.315-41.056,3.268-41.822-13.928
		l-54.163-163.207c-0.984-13.462,13.17-18.437,15.43-33.71c5.103-34.484-3.786-80.477,0-116.274
		C930.001,1356.159,939.081,1377.917,951.777,1388.449z"/>
	<path style="fill:#686430;" d="M825.97,1653.843c-19.295,22.14-60.704,38.406-76.192,57.136
		c-9.964,12.049-5.688,32.272-28.983,29.658c-7.425-0.833-12.949-8.16-15.799-8.322c-4.777-0.272-70.316,45.432-80.023,52.301
		c-22.888,16.195-46.373,33.364-67.238,52.106c93.457-37.498,176.053-96.841,265.644-142.16c5.507-2.568,7.691,9.156,5.911,11.971
		c-43.722,27.835-86.17,59.307-122.724,96.082c42.268-18.958,78.43-49.553,118.843-71.815c8.935-4.922,41.831-23.321,49.763-20.949
		c16.681,4.988-20.393,28.63-22.876,36.953c10.07-3.071,52.527-27.764,52.649-35.537l-51.085-110.148
		C842.856,1618.497,839.798,1637.976,825.97,1653.843z"/>
	<path style="fill:#080806;" d="M1184.512,772.366c-2.683,9.669,8.871,28.362,19.681,28.819
		c15.212,0.643-11.389-21.042-7.709-24.839c4.514-4.657,24.59,26.735,27.876,10.788
		C1225.952,779.41,1190.344,751.345,1184.512,772.366z"/>
	<path style="fill:#060805;" d="M1378.941,678.139c8.493-6.165,15.935-0.192,12.852-16.516
		c-10.831-5.649-44.94,22.052-43.379,29.393C1357.662,703.177,1369.704,684.844,1378.941,678.139z"/>
	<path style="fill:#0A0B07;" d="M1260.012,838.42c-14.688,0.239,13.717,31.538,15.812,33.739c9.385,9.853,16.714,6.428,11.294-5.07
		C1284.985,862.564,1263.482,838.364,1260.012,838.42z"/>
	<path style="fill:#090B08;" d="M1377.926,804.249c2.006,0.386,35.431-18.126,35.525-20.167c0.232-5.044-11.827-5.055-16.341-4.05
		C1389.639,781.695,1362.181,801.221,1377.926,804.249z"/>
</g>
</svg>
