<?xml version="1.0" encoding="iso-8859-1"?>
<!-- Generator: Adobe Illustrator 29.2.1, SVG Export Plug-In . SVG Version: 9.03 Build 55982)  -->
<svg version="1.1" id="Layer_1" xmlns="http://www.w3.org/2000/svg" xmlns:xlink="http://www.w3.org/1999/xlink" x="0px" y="0px"
	 viewBox="0 0 2386.727 2200" style="enable-background:new 0 0 2386.727 2200;" xml:space="preserve">
<g>
	<path style="fill:#030303;" d="M1722.886,1572.161c59.753-34.163,73.655-35.527,82.234-109.392
		c6.271-53.994,7.377-117.269,9.906-171.976c2.942-63.66,0.275-127.962,6.785-191.336c28.87-15.821,58.98-28.139,86.365-46.799
		c60.604-41.295,105.326-102.559,130.879-171.175c3.448-9.26,11.787-47.892,13.495-49.827c1.452-1.645,17.043-3.177,22.147-5.485
		c39.035-17.651,42.332-64.151,7.626-88.746c-3.919-2.778-16.174-6.515-16.807-7.555c-2.416-3.972-2.949-34.356-4.624-42.481
		c-17.537-85.081-83.211-153.17-174.183-148.288c-7.842,24.911,12.611,16.762,26.911,19.49
		c66.218,12.628,110.119,59.266,125.814,124.273c2.352,9.742,8.252,37.116,6.191,45.36c-0.702,2.808-15.345,7.414-19.447,10.484
		c-22.357,16.731-25.475,48.303-9.457,70.803c5.605,7.873,18.261,11.401,18.325,19.244c0.095,11.642-20.539,63.967-26.814,77.122
		c-36.27,76.032-106.583,141.839-186.828,168.782c-1.067-63.03,7.674-126.703,3.197-189.952
		c-6.526-92.173-62.912-112.612-134.195-154.867c-113.895-67.514-239.812-136.831-357.267-198.122
		c-30.176-15.747-60.867-37.972-96.388-35.151c1.309-174.725,145.84-287.718,313.042-207.486
		c4.975,2.387,31.048,16.715,33.072,18.895c12.905,13.894,1.236,47.7,39.521,54.646c71.164,12.91,69.787-98.368-3.262-82.923
		c-9.241,1.954-17.842,13.04-25.967,11.83c-5.828-0.868-43.293-24.089-55.885-28.903
		c-169.288-64.719-296.954,37.929-319.953,206.356c-1.108,8.112,3.05,24.044-3.234,29.245
		c-49.698,17.124-96.856,40.889-144.125,63.74c-121.569,58.769-263.586,124.944-378.899,192.729
		c-53.392,31.386-55.722,54.112-61.624,113.762c-16.683,168.633-20.672,362.612-22.894,532.494
		c-0.363,27.79-1.159,56.061,6.654,82.922c-103.538,27.877-227.736-38.352-267.921-136.432c-3.882-9.474-12.71-50.126-14.941-51.624
		c-7.748-5.2-15.359,1.721-16.246,11.046c-2.507,26.354,27.708,81.211,44.397,102.069
		c54.463,68.066,139.474,106.525,227.026,100.905c7.268-0.466,33.83-7.784,36.852-6.013c0.66,0.387,4.454,9.06,8.492,12.728
		c50.781,46.14,183.024,117.073,247.665,155.086c64.155,37.727,256.457,155.32,321.246,156.186
		c14.481,0.193,35.274-6.734,48.954-12.044c66.959-25.994,149.89-72.603,215.466-106.075
		C1549.789,1666.014,1639.608,1619.775,1722.886,1572.161z M2044.531,750.571c42.459-12.641,57.528,45.898,23.875,56.308
		C2022.352,821.126,2013.932,759.681,2044.531,750.571z M1622.325,299.126c31.578-9.32,47.189,33.928,17.327,43.372
		C1605.588,353.271,1600.971,305.429,1622.325,299.126z M1793.594,840.89c7.25,1.642,11.139,41.523,11.69,50.143
		c4.098,64.129-5.231,128.843-3.836,192.932c-68.429,20.012-129.876,47.581-164.348,113.399c-1.824,3.482-3.242,12.396-4.512,13.303
		c-3.106,2.22-25.139-2.213-41.576,8.763c-30.78,20.554-30.657,67.226,0.733,86.512c42.673,26.217,93.389-13.267,77.147-60.913
		c-3.457-10.14-19.464-23.438-19.608-28.992c-0.121-4.663,17.194-31.797,21.36-37.148c29.914-38.425,84.119-64.228,131.256-71.703
		c-1.536,3.828-3.015,6.883-3.337,11.24c-8.43,113.894,4.89,255.985-17.036,366.22c-3.465,17.421-7.919,34.32-24.007,44.199
		l-212.17,114.21l13.491-684.787L1793.594,840.89z M1615.455,1295.443c-35.506-4.175-37.521-56.981-6.127-64.171
		C1665.856,1218.325,1663.685,1301.113,1615.455,1295.443z M1214,519.286l6.22,72.521c-29.581,14.458-48.957,49.266-25.759,78.588
		c38.426,48.571,112.679-9.076,75.644-59.405c-9.856-13.394-25.058-13.61-29.334-17.758c-7.217-7.001-2.194-62.898-7.265-77.192
		c26.081-3.643,48.298,10.845,70.401,22.174c124.038,63.574,260.398,139.481,380.004,211.112
		c35.305,21.144,71.899,41.629,101.693,70.388c0.033,3.072-24.425,16.923-29.105,19.559c-50.678,28.55-117.798,61.604-171.044,85.54
		c-12.472,5.606-25.345,10.921-38.021,16.024c-131.412-77.259-263.885-153.133-398.291-225.123
		c-55.194-29.563-113.684-54.432-165.704-89.208L1214,519.286z M1251.859,661.046c-27.09,27.146-68.508-18.062-37.63-42.506
		C1242.849,595.884,1276.663,636.192,1251.859,661.046z M713.788,764.432c77.121-43.819,163.551-79.141,241.414-122.535l9.594-1.895
		c189.926,97.457,375.964,201.882,561.009,308.067l-4.155,7.21c-86.083,37.716-173.054,92.23-259.936,126.479
		c-44.68,17.613-62.061,7.34-101.832-13.019c-88.594-45.352-177.9-104.309-265.208-153.769
		c-73.57-41.678-147.623-82.995-223.023-121.221C683.553,781.19,698.985,772.842,713.788,764.432z M900.601,1659.349
		l-258.132-160.825c46.169-19.097,85.049-41.968,118.522-79.534c5.102-5.725,13.195-22.253,17.789-24.434
		c6.635-3.15,19.138-1.326,28.686-3.793c48.699-12.584,54.38-80.929,10.521-103.553c-50.059-25.822-100.261,27.357-73.441,76.692
		c3.408,6.269,17.741,19.196,16.559,22.515c-21.328,32.289-54.055,59.944-88.79,77.061c-39.142,19.289-42.929,23.233-46.121-23.448
		c-4.462-65.264,1.073-179.729,6.327-246.935c0.371-4.745,1.059-22.856,8.05-20.813l277.374,152.993L900.601,1659.349z
		 M756.756,1327.079c2.556-11.178,19.609-26.016,31.038-27.668c28.785-4.16,53.364,30.449,36.496,56.222
		C800.171,1392.486,747.503,1367.548,756.756,1327.079z M636.439,1152.107l5.997-195.947c6.76-49.199,3.948-99.477,16.235-147.815
		l278.603,153.313l-15.57,343.601L636.439,1152.107z M1178.288,1802.191c-11.174,11.848-229.754-112.962-254.92-129.925
		l16.199-334.434l251.197,140.099L1178.288,1802.191z M938.49,1317.753l15.706-335.648l4.859-8.037
		c65.858,35.266,131.08,81.11,197.581,114.157c16.166,8.033,39.689,20.515,57.397,22.177c22.041,2.068,37.738-4.485,57.398-12.431
		l270.621-130.46l-6.349,338.836l-324.885,158.073l3.082-180.39c-0.169-39.364,10.971-95.375,6.805-133.19
		c-0.811-7.355-1.123-11.259-9.919-11.207c-9.237,22.562-5.024,26.584-6.529,50.309c-3.808,60.028-7.99,121.67-9.844,181.781
		c-0.884,28.656,0.942,57.547,0.116,86.187L938.49,1317.753z M1242.225,1796.292c-15.118,6.078-31.233,10.498-47.696,9.173
		l13.428-321.127l42.964-13.883l283.049-142.424l-8.882,327.261L1242.225,1796.292z"/>
	<path style="fill:#040404;" d="M2249.441,1106.06c-27.199-6.365-36.296,13.281-46.21,13.87c-6.137,0.365-17.613-5.621-26.231-6.246
		c-95.193-6.9-165.859,74.207-173.406,164.346c-0.389,4.645,4.001,10.892,1.607,14.357c-1.421,2.056-18.653,8.362-24.778,14.401
		c-23.428,23.097-19.677,65.167,8.207,82.955c8.527,5.44,18.809,4.585,24.274,8.205c12.862,8.52,17.546,104.833,16.484,123.447
		c-6.212,108.861-72.143,222.568-190.188,232.037c-104.622,8.392-213.152-78.872-306.916,1.634
		c-65.265,56.037-35.422,147.06-117.142,194.657c-31.877,18.566-19.724,10.149-42.935-2.017
		c-45.227-23.707-94.579,22.435-71.133,67.88c15.967,30.949,60.556,37.223,83.564,10.812c16.636-19.097,6.867-35.722,12.854-45.608
		c1.586-2.619,36.933-19.378,45.438-26.015c67.55-52.713,44.333-138.581,107.337-188.221c76.949-60.628,166.661,1.242,249.876,6.551
		c169.591,10.819,257.416-140.413,248.732-294.203c-0.757-13.403-13.897-76.651-12.765-80.57
		c0.849-2.937,22.332-17.184,27.12-24.975c11.731-19.091,9.332-46.088-4.707-63.25c-8.515-10.41-30.43-16.498-32.581-20.262
		c-3.296-5.766-0.691-27.398,0.473-34.524c11.682-71.481,90.505-138.787,165.06-118.777c-4.722,39.013,15.236,69.5,57.085,64.871
		C2296.475,1196.114,2302.027,1118.365,2249.441,1106.06z M1334.023,2021.591c-27.043-8.401-25.44-53.27,2.5-59.566
		c7.922-1.785,15.298-1.29,22.844,1.79C1392.485,1977.334,1377.319,2035.042,1334.023,2021.591z M2038.791,1371.65
		c-44.648,34.203-80.147-47.822-29.958-59.205C2044.422,1304.373,2068.391,1348.975,2038.791,1371.65z M2251.067,1181.167
		c-47.517,14.074-53.303-53.336-14.808-57.093C2269.66,1120.813,2280.16,1172.55,2251.067,1181.167z"/>
	<path style="fill:#050605;" d="M333.471,1181.415c1.092-0.671,7.652-18.409,10.775-23.273
		c24.243-37.754,38.719-38.441,69.111-64.05c143.993-121.328-123.627-329.025,8.26-482.168c21.186-24.6,16.979-5.538,40.529-5.55
		c14.302-0.007,33.75-10.548,42-22.352c10.025-14.343,5.062-29.005,29.085-28.696c46.537,0.6,70.929,42.115,106.186,62.757
		c76.884,45.014,159.678,14.925,210.301-52.253c12.334-16.368,49.418-85.153,62.362-90.561c6.01-2.51,21.132,8.66,33.54,8.094
		c39.711-1.813,60.936-48.203,39.21-80.778c-26.42-39.612-87.703-22.1-92.187,24.525c-1.203,12.504,7.484,24.579,5.841,31.403
		c-1.234,5.125-17.424,20.804-21.685,27.216c-36.997,55.67-57.237,111.052-130.44,129.391
		c-107.633,26.965-123.513-73.42-209.872-79.27c-7.986-0.541-15.997,6.249-23.981,1.329c-4.008-2.469-10.029-17.309-16.11-22.914
		c-31.544-29.071-87.196-4.157-87.235,39.119c-0.009,10.208,10.283,25.724,8.702,31.772c-1.108,4.239-21.257,27.387-26.094,35.889
		c-81.058,142.471,35.277,236.929,45.968,357.869c9.979,112.882-89.486,103.581-117.014,181.664
		C316.215,1173.362,319.209,1190.181,333.471,1181.415z M937.172,399.724c45.136-7.801,49.751,61.51,8.713,64.233
		C908.535,466.434,898.453,406.417,937.172,399.724z M456.474,519.896c41.28-7.866,55.325,62.527,8.138,66.922
		C424.628,590.542,414.349,527.923,456.474,519.896z"/>
	<path style="fill:#060606;" d="M1196.311,2058.96c-8.021-0.359-53.507,15.976-69.246,18.414
		c-174.135,26.974-215.892-99.025-296.885-211.238c-5.772-7.997-32.466-35.425-33.346-37.786
		c-4.883-13.102,11.037-30.399-11.38-53.899c-46.57-48.819-117.096,22.391-70.495,68.872c6.997,6.979,26.461,14.173,36.291,14.114
		c14.325-0.087,24.081-11.68,29.787-12.601c17.624-2.844,79.112,109.443,91.877,127.97
		c72.749,105.589,163.929,148.881,292.415,116.848c8.212-2.047,39.996-9.795,42.01-16.666
		C1209.237,2066.514,1202.614,2059.243,1196.311,2058.96z M763.458,1833.913c-42.29,21.176-62.534-51.243-18.001-57.076
		C777.494,1772.64,793.26,1818.99,763.458,1833.913z"/>
	<path style="fill:#787B4C;" d="M1749.934,580.995c0.988,0.167,3.586,2.837,7.86,3.379c6.081,0.771,29.44-1.535,30.977,0.015
		c2.973,2.999,0.774,27.005,23.841,39.487c63.82,34.536,97.532-76.885,25.695-84.402c-29.185-3.054-32.508,17.603-45.19,21.37
		c-11.647,3.46-30.438-1.052-43.182,0.664c14.694,2.878,27.025,3.263,42.27,4.914C1793.618,590.852,1766.337,578.2,1749.934,580.995
		z"/>
	<path style="fill:#73754A;" d="M1794.512,1854.927c-43.41,9.031-43.561,81.422,6.12,86.724
		C1869.151,1948.964,1865.84,1840.088,1794.512,1854.927z"/>
	<path style="fill:#727549;" d="M550.689,1741.244c-65.842,3.636-36.081,107.504,21.395,73.457
		C607.922,1793.471,588.7,1739.145,550.689,1741.244z"/>
	<path style="fill:#74764A;" d="M1023.291,1944.343c43.881-9.05,31.707-83.803-21.226-73.205
		C960.369,1879.486,964.079,1956.554,1023.291,1944.343z"/>
	<path style="fill:#040504;" d="M1654.437,422.106c-13.186,4.575-7.078,53.045-4.286,65.423
		c11.357,50.356,49.468,84.944,99.783,93.466c-0.309-2.902,0.57-5.221,2.879-6.839c35.903,2.607,47.728-1.418,2.266-5.143
		l-5.145-7.506c-45.938-8.997-80.512-49.259-84.041-96.209C1664.845,451.352,1676.549,414.435,1654.437,422.106z"/>
	<path style="fill:#040504;" d="M1752.813,574.157c-2.309,1.618-3.188,3.937-2.879,6.839c16.403-2.795,43.684,9.856,42.27-14.573
		c-15.245-1.651-27.576-2.036-42.27-4.914l5.145,7.506C1800.541,572.739,1788.715,576.764,1752.813,574.157z"/>
	<path style="fill:#767849;" d="M773.629,483.477c45.836-5.378,40.181-79.665-11.897-70.616
		C718.694,420.339,728.161,488.812,773.629,483.477z"/>
	<path style="fill:#747549;" d="M121.792,1023.408c-33.183,7.566-27.993,67.547,12.318,67.547
		C181.241,1090.955,182.434,1009.582,121.792,1023.408z"/>
	<path style="fill:#76774A;" d="M2082.758,1039.032c31.312,27.318,78.292-19.033,46.057-50.933
		C2097.307,956.918,2047.789,1008.525,2082.758,1039.032z"/>
	<path style="fill:#76784B;" d="M862.222,286.462c-18.679-20.456-57.24-1.735-49.443,28.261
		C824.359,359.266,895.777,323.21,862.222,286.462z"/>
	<path style="fill:#757848;" d="M1854.787,482.874c29.367-6.609,25.153-59.542-14.67-53.892
		C1804.932,433.974,1811.425,492.633,1854.787,482.874z"/>
	<path style="fill:#777A4B;" d="M1565.659,154.973c32.691-6.61,25.307-63.161-14.779-53.965
		C1520.624,107.949,1527.094,162.77,1565.659,154.973z"/>
	<path style="fill:#75774A;" d="M248.521,1104.546c-30.028,6.551-24.125,61.882,14.735,54.025
		C296.441,1151.861,287.906,1095.953,248.521,1104.546z"/>
	<path style="fill:#74784A;" d="M196.557,1296.168c-22.432,4.877-26.142,43.227-5.811,49.883
		C241.461,1362.652,240.982,1286.51,196.557,1296.168z"/>
	<path style="fill:#76794A;" d="M2151.807,1227.887c-32.549,6.737-26.083,64.354,17.311,49.964
		C2195.85,1268.986,2183.994,1221.225,2151.807,1227.887z"/>
	<path style="fill:#707345;" d="M393.603,411.966c36.959-1.258,30.211-58.64-5.401-51.268
		C359.359,366.668,364.321,412.962,393.603,411.966z"/>
	<path style="fill:#737647;" d="M1160.367,165.195c11.044-26.072-21.574-46.233-39.619-28.247
		C1092.91,164.695,1146.153,198.751,1160.367,165.195z"/>
	<path style="fill:#727446;" d="M1679.386,1952.51c-22.111,22.093,14.174,53.489,33.085,31.467
		C1731.327,1962.019,1699.699,1932.215,1679.386,1952.51z"/>
	<path style="fill:#BEAED1;" d="M1159.882,1068.739c39.771,20.359,57.152,30.632,101.832,13.019
		c86.882-34.249,173.854-88.762,259.936-126.479l4.155-7.21c-185.045-106.185-371.083-210.61-561.009-308.067l-9.594,1.895
		c-77.864,43.394-164.293,78.716-241.414,122.535c-14.803,8.411-30.234,16.759-42.137,29.317
		c75.399,38.226,149.453,79.543,223.023,121.221C981.982,964.43,1071.288,1023.386,1159.882,1068.739z"/>
	<path style="fill:#F0AA8B;" d="M1545.349,1643.054l212.17-114.21c16.089-9.879,20.542-26.777,24.007-44.199
		c21.925-110.235,8.606-252.326,17.036-366.22c0.323-4.357,1.801-7.412,3.337-11.24c-47.137,7.475-101.342,33.279-131.256,71.703
		c-4.166,5.351-21.481,32.484-21.36,37.148c0.144,5.554,16.152,18.852,19.608,28.992c16.242,47.646-34.474,87.13-77.147,60.913
		c-31.39-19.285-31.513-65.958-0.733-86.512c16.437-10.976,38.47-6.543,41.576-8.763c1.27-0.908,2.689-9.822,4.512-13.303
		c34.472-65.817,95.919-93.386,164.348-113.399c-1.395-64.09,7.933-128.803,3.836-192.932c-0.551-8.62-4.44-48.501-11.69-50.143
		L1558.84,958.267L1545.349,1643.054z"/>
	<path style="fill:#F8EEE2;" d="M1547.435,940.837c12.677-5.103,25.549-10.418,38.021-16.024
		c53.245-23.935,120.365-56.99,171.044-85.54c4.679-2.636,29.137-16.487,29.105-19.559c-29.794-28.759-66.387-49.244-101.693-70.388
		c-119.606-71.631-255.966-147.538-380.004-211.112c-22.103-11.328-44.32-25.817-70.401-22.174
		c5.072,14.294,0.049,70.191,7.265,77.192c4.276,4.148,19.478,4.364,29.334,17.758c37.034,50.33-37.218,107.976-75.644,59.405
		c-23.198-29.322-3.822-64.13,25.759-78.588l-6.22-72.521L983.44,626.505c52.019,34.776,110.51,59.646,165.704,89.208
		C1283.549,787.704,1416.023,863.578,1547.435,940.837z"/>
	<path style="fill:#BEADD1;" d="M1210.784,1139.632c8.795-0.052,9.108,3.852,9.919,11.207c4.166,37.815-6.974,93.826-6.805,133.19
		l-3.082,180.39l324.885-158.073l6.349-338.836l-270.621,130.46c-19.661,7.946-35.357,14.499-57.398,12.431
		C1214.459,1121.22,1215.036,1129.248,1210.784,1139.632z"/>
	<path style="fill:#BFAFD2;" d="M1533.97,1328.031l-283.049,142.424l-42.964,13.883l-13.428,321.127
		c16.463,1.324,32.578-3.096,47.696-9.173l282.863-141L1533.97,1328.031z"/>
	<path style="fill:#BEAED1;" d="M658.672,808.344c-12.287,48.339-9.474,98.617-16.235,147.815l-5.997,195.947l285.266,153.151
		l15.57-343.601L658.672,808.344z"/>
	<path style="fill:#F0AD8E;" d="M1194.411,1371.722c1.855-60.111,6.036-121.753,9.844-181.781
		c1.505-23.725-2.708-27.747,6.529-50.309c-6.419-4.806-5.199-27.032,3.248-29.231c-17.708-1.661-41.23-14.143-57.397-22.177
		c-66.501-33.047-131.723-78.891-197.581-114.157l-4.859,8.037l-15.706,335.648l256.037,140.156
		C1195.353,1429.27,1193.527,1400.379,1194.411,1371.722z"/>
	<path style="fill:#F0AD8E;" d="M1210.784,1139.632c4.252-10.385,3.675-18.412,3.248-29.231
		C1205.585,1112.6,1204.365,1134.826,1210.784,1139.632z"/>
	<path style="fill:#F0AC8E;" d="M923.368,1672.265c25.167,16.963,243.747,141.773,254.92,129.925l12.476-324.26l-251.197-140.099
		L923.368,1672.265z"/>
	<path style="fill:#F8EFE2;" d="M632.522,1193.095c-5.254,67.206-10.789,181.671-6.327,246.935
		c3.191,46.681,6.979,42.737,46.121,23.448c34.735-17.118,67.462-44.772,88.79-77.061c1.183-3.318-13.15-16.245-16.559-22.515
		c-26.821-49.334,23.382-102.514,73.441-76.692c43.859,22.624,38.178,90.969-10.521,103.553c-9.548,2.467-22.052,0.642-28.686,3.793
		c-4.594,2.181-12.687,18.708-17.789,24.434c-33.473,37.566-72.353,60.436-118.522,79.534l258.132,160.825l17.346-334.073
		l-277.374-152.993C633.581,1170.238,632.893,1188.35,632.522,1193.095z"/>
	<path style="fill:#717149;" d="M824.29,1355.633c16.868-25.773-7.711-60.382-36.496-56.222
		c-11.43,1.652-28.483,16.49-31.038,27.668C747.503,1367.548,800.171,1392.486,824.29,1355.633z"/>
	<path style="fill:#727248;" d="M1609.328,1231.271c-31.394,7.19-29.379,59.997,6.127,64.171
		C1663.685,1301.113,1665.856,1218.325,1609.328,1231.271z"/>
	<path style="fill:#767649;" d="M2068.406,806.879c33.653-10.41,18.584-68.949-23.875-56.308
		C2013.932,759.681,2022.352,821.126,2068.406,806.879z"/>
	<path style="fill:#75754A;" d="M1251.859,661.046c24.804-24.854-9.01-65.162-37.63-42.506
		C1183.351,642.984,1224.769,688.192,1251.859,661.046z"/>
	<path style="fill:#787A4B;" d="M1639.652,342.498c29.861-9.444,14.251-52.692-17.327-43.372
		C1600.971,305.429,1605.588,353.271,1639.652,342.498z"/>
	<path style="fill:#747648;" d="M2008.833,1312.445c-50.19,11.383-14.69,93.407,29.958,59.205
		C2068.391,1348.975,2044.422,1304.373,2008.833,1312.445z"/>
	<path style="fill:#6F7245;" d="M1359.366,1963.815c-7.545-3.08-14.922-3.575-22.844-1.79c-27.941,6.296-29.544,51.165-2.5,59.566
		C1377.319,2035.042,1392.485,1977.334,1359.366,1963.815z"/>
	<path style="fill:#747448;" d="M2236.259,1124.074c-38.495,3.758-32.709,71.168,14.808,57.093
		C2280.16,1172.55,2269.66,1120.813,2236.259,1124.074z"/>
	<path style="fill:#717247;" d="M464.612,586.818c47.187-4.395,33.142-74.788-8.138-66.922
		C414.349,527.923,424.628,590.542,464.612,586.818z"/>
	<path style="fill:#737449;" d="M945.885,463.957c41.038-2.722,36.422-72.034-8.713-64.233
		C898.453,406.417,908.535,466.434,945.885,463.957z"/>
	<path style="fill:#75774A;" d="M745.456,1776.837c-44.533,5.833-24.289,78.252,18.001,57.076
		C793.26,1818.99,777.494,1772.64,745.456,1776.837z"/>
</g>
</svg>
