<?xml version="1.0" encoding="iso-8859-1"?>
<!-- Generator: Adobe Illustrator 29.2.1, SVG Export Plug-In . SVG Version: 9.03 Build 55982)  -->
<svg version="1.1" id="Layer_1" xmlns="http://www.w3.org/2000/svg" xmlns:xlink="http://www.w3.org/1999/xlink" x="0px" y="0px"
	 viewBox="0 0 3049.738 2200" style="enable-background:new 0 0 3049.738 2200;" xml:space="preserve">
<g>
	<path d="M2507.904,1114.27c30.408-111.086,35.21-233.954-17.882-339.066c48.275-64.276,108.172-119.371,159.624-180.995
		c11.115-13.313,52.156-60.456,57.281-71.859c9.533-21.207,0.641-66.52-9.538-87.207c-38.358-77.956-105.536-57.064-172.44-33.786
		c-98.959,34.43-187.618,99.462-274.394,156.258c-79.54-27.459-159.712-25.995-240.832-6.931
		c-78.004-188.449-212.42-326.24-404.912-396.849C1315.582,47.741,977.973,93.114,775.379,337.757
		C651.016,487.932,588.287,681.739,599.326,877.359c-190.692,25.771-370.581,154.879-448.828,331.367
		c-120.778,272.417-21.332,655.886,260.059,785.052c254.885,117,703.89,109.478,983.37,103.247
		c350.127-7.806,725.996-29.787,1072.2-82.869c309.083-47.391,544.115-259.635,469.775-594.301
		C2890.805,1216.835,2704.827,1116.897,2507.904,1114.27z M2503.022,465.522c26.271-11.404,88.317-35.48,115.014-35.333
		c26.021,0.143,49.398,52.665,34.968,77.701c-26.16,45.385-95.797,108.931-132.607,150.778
		c-321.548,365.549-630.423,743.584-917.432,1136.225c-56.957,28.897-115.867,42.355-180.135,36.773
		c-43.172-3.75-51.182-17.511-77.073-48.478c-65.043-77.796-123.39-172.857-186.792-254.43
		c-55.006-70.771-140.611-155.435-185.707-226.808c-3.482-5.511-11.334-13.936-10.724-20.296
		c1.305-13.602,54.478-67.941,67.393-79.53c32.989-29.601,77.268-59.751,116.02-81.275c14.434-8.017,78.057-41.451,89.49-38.337
		c4.342,1.182,51.06,49.081,58.248,56.837c73.294,79.087,137.861,170.423,202.486,256.674c7.714,10.698,20.612,11.268,32.39,6.967
		c78.046-108.942,155.565-218.578,242.116-321.038C1950.181,869.451,2247.252,576.554,2503.022,465.522z M2061.272,2007.478
		c-397.218,37.768-840.836,66.347-1237.128,24.697c-303.263-31.873-556.364-79.929-649.7-408.516
		c-87.961-309.663,78.476-625.758,399.837-690.647c19.006-3.838,40.945-2.885,57.763-6.806
		c34.539-8.054,17.954-51.034,17.521-75.403c-8.79-495.124,409.615-804.68,885.357-666.539
		c201.151,58.408,326.678,175.755,416.451,361.965c7.805,16.19,17.356,54.364,31.458,61.784
		c18.946,9.969,47.603-7.896,68.763-12.796c45.262-10.48,101.168-14.207,144.142,4.315
		c-265.509,204.113-488.672,459.425-679.696,733.505c-63.596-77.496-121.818-163.316-190.072-236.733
		c-37.313-40.136-65.466-81.131-124.792-60.125c-81.997,29.034-203.633,115.027-259.129,182.095
		c-31.479,38.042-42.117,63.14-14.759,108.114c44.985,73.953,133.978,161.006,190.203,233.083
		c72.572,93.032,138.524,190.676,211.76,283.264c4.729,5.979,9.081,19.825,13.824,23.815c8.316,6.996,49.323,13.198,62.273,14.883
		c52.229,6.795,104.286,2.981,154.755-12.819c75.505-23.639,89.231-49.873,134.922-109.005
		c243.014-314.501,477.523-642.338,748.399-934.161c2.361-2.544,5.377-16.514,10.642-6.545c2.168,4.105,6.346,17.818,8.22,23.533
		c27.391,83.531,19.861,169.771-3.677,253.063c-5.811,20.562-25.493,44.187-8.268,62.788c10.747,11.605,59.507,4.675,77.43,6.073
		c209.836,16.365,368.824,138.771,371.253,360.847C2903.919,1972.608,2382.943,1976.893,2061.272,2007.478z"/>
	<path style="fill:#C2AED3;" d="M2527.771,1164.359c-17.923-1.398-66.683,5.532-77.43-6.073
		c-17.225-18.602,2.457-42.226,8.268-62.788c23.539-83.292,31.068-169.532,3.677-253.063c-1.874-5.715-6.052-19.428-8.22-23.533
		c-5.266-9.969-8.281,4-10.642,6.545c-270.876,291.824-505.385,619.66-748.399,934.161
		c-45.691,59.132-59.417,85.367-134.922,109.005c-50.469,15.8-102.526,19.614-154.755,12.819
		c-12.95-1.685-53.956-7.887-62.273-14.883c-4.743-3.99-9.095-17.836-13.824-23.815c-73.236-92.588-139.188-190.232-211.76-283.264
		c-56.225-72.077-145.218-159.13-190.203-233.083c-27.358-44.974-16.719-70.072,14.759-108.114
		c55.496-67.068,177.132-153.061,259.129-182.095c59.326-21.006,87.479,19.989,124.792,60.125
		c68.254,73.418,126.476,159.237,190.072,236.733c191.024-274.08,414.187-529.392,679.696-733.505
		c-42.974-18.522-98.88-14.795-144.142-4.315c-21.16,4.899-49.818,22.764-68.763,12.796c-14.101-7.42-23.652-45.594-31.458-61.784
		c-89.773-186.21-215.3-303.557-416.451-361.965C1059.18,46.123,640.776,355.679,649.566,850.803
		c0.433,24.369,17.018,67.349-17.521,75.403c-16.818,3.922-38.757,2.969-57.763,6.806
		c-321.361,64.889-487.798,380.984-399.837,690.647c93.336,328.587,346.437,376.643,649.7,408.516
		c396.292,41.65,839.91,13.071,1237.128-24.697c321.671-30.585,842.647-34.87,837.752-482.272
		C2896.595,1303.13,2737.607,1180.724,2527.771,1164.359z M301.167,1230.258c-8.074,14.625-32.907,81.326-37.005,84.937
		c-11.807,10.402-23.711,4.037-23.663-12.554c0.072-24.794,40.206-97.955,55.43-120.667
		c16.978-25.331,80.427-97.232,108.937-103.029c13.911-2.829,23.289,8.958,17.201,21.03c-2.308,4.577-40.423,30.228-48.593,37.579
		C346.027,1162.251,319.052,1197.863,301.167,1230.258z M488.399,1137.457c-1.8,11.355-68.851,58.145-68.631,21.66
		c0.066-11,39.582-34.756,49.599-36.988C482.962,1119.1,490.718,1122.83,488.399,1137.457z M547.7,1039.177
		c-6.305,5.49-65.486,27.394-72.182,17.961c-15.356-21.636,40.464-41.041,55.02-42.645
		C548.027,1012.565,562.142,1026.603,547.7,1039.177z M789.572,588.704c-10.492,28.433-16.695,58.922-28.542,86.292
		c-37.565,10.147-14.359-53.27-8.284-72.897c4.686-15.141,34.726-90.178,46.585-93.571c8.929-2.555,18.268,3.083,19.091,12.236
		C819.067,527.924,794.447,575.495,789.572,588.704z M1078.197,282.035c12.377,2.001,16.683,15.443,8.197,24.215
		c-2.4,2.481-59.103,28.226-62.676,28.941c-8.066,1.615-19.681,0.586-22.067-8.982
		C997.31,308.805,1062.686,279.528,1078.197,282.035z M1028.998,361.607c14.865-3.179,29.196,7.809,20.837,20.983
		c-1.687,2.658-35.466,20.807-42.558,25.643c-11.418,7.786-17.561,23.138-32.673,21.014
		C929.638,422.927,1012.892,365.051,1028.998,361.607z M838.719,478.783c-10.358-0.861-14.07-9.31-13.174-18.8
		c1.796-19.015,74.316-100.107,92.211-105.418c16.034-4.759,30.367,5.284,21.761,20.056c-0.779,1.338-7.228,3.198-10.002,5.907
		c-16.781,16.39-36.812,34.801-52.036,52.156C869.513,441.764,847.882,479.545,838.719,478.783z M873.207,554.219
		c-47.896,13.856,15.713-91.429,37.439-95.814c9.739-1.966,17.314,2.735,18.097,12.58c0.793,9.964-15.553,21.795-21.561,30.861
		C900.501,511.928,880.447,552.124,873.207,554.219z M2540.042,1812.226c-14.096-3.648-14.023-16.37-3.31-25.211
		c3.042-2.51,62.79-29.079,67.099-29.941c14.167-2.834,27.827,4.197,19.056,19.2
		C2616.46,1787.268,2552.128,1815.354,2540.042,1812.226z M2710.442,1792.137c-21.92,20.808-100.119,66.666-128.992,61.106
		c-12.274-2.364-11.116-17.722-4.536-24.26c2.966-2.947,62.563-24.157,76.874-32.516c14.097-8.235,48.912-41.464,62.146-34.794
		C2732.738,1770.142,2718.765,1784.236,2710.442,1792.137z M2695.353,1726.795c-5.584-5.712-4.877-12.619-1.199-18.959
		c1.373-2.366,33.903-34.787,36.216-35.856c10.677-4.935,18.255,4.539,18.224,14.475
		C2748.558,1697.981,2709.01,1740.764,2695.353,1726.795z M2784.029,1715.162c-12.178,5.674-24.546-3.318-20.014-16.241
		c11.514-10.111,26.435-57.117,36.938-60.281C2842.764,1626.047,2802.863,1706.387,2784.029,1715.162z"/>
	<path style="fill:#7D7D41;" d="M1770.676,1081.952c-86.551,102.46-164.07,212.096-242.116,321.038
		c-11.778,4.301-24.676,3.732-32.39-6.967c-64.625-86.251-129.193-177.587-202.486-256.674
		c-7.188-7.756-53.906-55.655-58.248-56.837c-11.433-3.114-75.056,30.32-89.49,38.337c-38.752,21.524-83.03,51.673-116.02,81.275
		c-12.915,11.589-66.088,65.928-67.393,79.53c-0.61,6.36,7.242,14.785,10.724,20.296c45.096,71.373,130.701,156.037,185.707,226.808
		c63.402,81.573,121.749,176.634,186.792,254.43c25.891,30.967,33.901,44.728,77.073,48.478
		c64.268,5.582,123.178-7.876,180.135-36.773c287.008-392.641,595.884-770.676,917.432-1136.225
		c36.81-41.847,106.447-105.393,132.607-150.778c14.43-25.036-8.947-77.557-34.968-77.701
		c-26.697-0.147-88.743,23.929-115.014,35.333C2247.252,576.554,1950.181,869.451,1770.676,1081.952z M1082.292,1344.103
		c-18.143,13.266-36.796-15.342-46.614-29.253c-7.893-11.182-30.915-44.141-19.133-56.182c17.173-17.551,37.92,30.657,46.326,43.337
		C1069.032,1311.299,1096.803,1333.493,1082.292,1344.103z M1089.86,1276.077c13.241-3.304,41.224,34.365,15.525,41.219
		C1084.458,1322.878,1069.297,1281.209,1089.86,1276.077z M1128.42,1426.55c-11.733-6.79-56.404-60.927-27.799-67.968
		c9.652-2.376,49.887,46.168,51.307,55.491C1154.504,1430.992,1141.997,1434.407,1128.42,1426.55z M1168.082,1189.619
		c-2.023,3.316-24.287,15.856-30.187,20.033c-8.388,5.938-29.354,33.202-41.831,16.071c-12.789-17.557,44.765-58.776,58.548-60.691
		C1167.472,1163.245,1174.543,1179.03,1168.082,1189.619z M2152.468,847.344c-13.937-17.865,30.033-49.759,42.412-37.066
		C2211.829,827.659,2163.903,862,2152.468,847.344z M2334.488,623.669c39.434-3.595-5.889,54.004-27.505,40.568
		C2285.948,651.163,2320.063,624.984,2334.488,623.669z M2023.541,864.901c21.068-26.552,63.167-63.344,89.709-86.065
		c13.071-11.189,69.973-58.738,81.635-61.878c12.816-3.45,26.365-1.186,21.856,14.566c-41.351,39.622-90.233,72.358-132.186,111.883
		c-10.942,10.308-46.834,54.932-55.725,55.825C2005.385,901.588,2013.344,877.752,2023.541,864.901z"/>
	<path style="fill:#5E4B7E;" d="M422.066,1099.975c6.088-12.072-3.29-23.859-17.201-21.03
		c-28.51,5.797-91.958,77.697-108.937,103.029c-15.223,22.712-55.358,95.873-55.43,120.667
		c-0.048,16.591,11.856,22.956,23.663,12.554c4.098-3.61,28.931-70.311,37.005-84.937c17.884-32.395,44.86-68.007,72.306-92.704
		C381.643,1130.203,419.759,1104.552,422.066,1099.975z"/>
	<path style="fill:#614D80;" d="M799.332,508.528c-11.859,3.393-41.899,78.43-46.585,93.571
		c-6.075,19.627-29.281,83.045,8.284,72.897c11.846-27.37,18.049-57.859,28.542-86.292c4.874-13.21,29.494-60.781,28.85-67.94
		C817.6,511.611,808.261,505.973,799.332,508.528z"/>
	<path style="fill:#614981;" d="M2715.933,1761.672c-13.233-6.67-48.048,26.56-62.146,34.794
		c-14.31,8.359-73.908,29.569-76.874,32.516c-6.58,6.538-7.737,21.896,4.536,24.26c28.874,5.56,107.072-40.298,128.992-61.106
		C2718.765,1784.236,2732.738,1770.142,2715.933,1761.672z"/>
	<path style="fill:#604C7F;" d="M929.516,380.528c2.773-2.709,9.222-4.569,10.002-5.907c8.607-14.772-5.727-24.814-21.761-20.056
		c-17.895,5.311-90.416,86.404-92.211,105.418c-0.896,9.49,2.816,17.939,13.174,18.8c9.163,0.762,30.794-37.019,38.76-46.1
		C892.704,415.328,912.734,396.918,929.516,380.528z"/>
	<path style="fill:#5F4A7D;" d="M910.646,458.404c-21.726,4.385-85.335,109.67-37.439,95.814
		c7.24-2.094,27.294-42.291,33.975-52.373c6.008-9.066,22.354-20.897,21.561-30.861C927.96,461.14,920.385,456.439,910.646,458.404z
		"/>
	<path style="fill:#5F4A80;" d="M2622.887,1776.274c8.771-15.003-4.889-22.034-19.056-19.2
		c-4.309,0.862-64.057,27.431-67.099,29.941c-10.713,8.841-10.785,21.563,3.31,25.211
		C2552.128,1815.354,2616.46,1787.268,2622.887,1776.274z"/>
	<path style="fill:#5F4B7D;" d="M974.604,429.247c15.112,2.124,21.254-13.228,32.673-21.014
		c7.092-4.836,40.871-22.985,42.558-25.643c8.359-13.174-5.972-24.161-20.837-20.983
		C1012.892,365.051,929.638,422.927,974.604,429.247z"/>
	<path style="fill:#614C80;" d="M1023.717,335.191c3.573-0.716,60.276-26.461,62.676-28.941c8.487-8.771,4.181-22.214-8.197-24.215
		c-15.512-2.507-80.887,26.77-76.547,44.174C1004.037,335.777,1015.652,336.806,1023.717,335.191z"/>
	<path style="fill:#614A80;" d="M2764.015,1698.921c-4.532,12.923,7.835,21.915,20.014,16.241
		c18.834-8.775,58.736-89.116,16.924-76.522C2790.45,1641.804,2775.529,1688.81,2764.015,1698.921z"/>
	<path style="fill:#604C80;" d="M530.539,1014.492c-14.557,1.605-70.377,21.009-55.02,42.645
		c6.695,9.433,65.877-12.471,72.182-17.961C562.142,1026.603,548.027,1012.565,530.539,1014.492z"/>
	<path style="fill:#614D81;" d="M469.367,1122.129c-10.017,2.232-49.533,25.987-49.599,36.988
		c-0.22,36.484,66.831-10.305,68.631-21.66C490.718,1122.83,482.962,1119.1,469.367,1122.129z"/>
	<path style="fill:#624B80;" d="M2730.37,1671.98c-2.313,1.069-34.844,33.49-36.216,35.856c-3.678,6.34-4.385,13.246,1.199,18.959
		c13.656,13.969,53.205-28.814,53.241-40.34C2748.625,1676.52,2741.047,1667.046,2730.37,1671.98z"/>
	<path style="fill:#494716;" d="M2028.831,899.232c8.891-0.893,44.783-45.517,55.725-55.825
		c41.953-39.525,90.835-72.26,132.186-111.883c4.508-15.753-9.04-18.016-21.856-14.566c-11.661,3.139-68.563,50.689-81.635,61.878
		c-26.542,22.72-68.642,59.513-89.709,86.065C2013.344,877.752,2005.385,901.588,2028.831,899.232z"/>
	<path style="fill:#4B4816;" d="M1016.544,1258.668c-11.781,12.041,11.24,45,19.133,56.182
		c9.819,13.911,28.471,42.519,46.614,29.253c14.511-10.61-13.26-32.804-19.421-42.097
		C1054.464,1289.326,1033.717,1241.117,1016.544,1258.668z"/>
	<path style="fill:#4B4816;" d="M1154.611,1165.032c-13.782,1.915-71.337,43.134-58.548,60.691
		c12.478,17.13,33.443-10.134,41.831-16.071c5.9-4.177,28.164-16.717,30.187-20.033
		C1174.543,1179.03,1167.472,1163.245,1154.611,1165.032z"/>
	<path style="fill:#4D4917;" d="M1100.622,1358.582c-28.605,7.041,16.065,61.178,27.799,67.968
		c13.576,7.857,26.083,4.442,23.508-12.477C1150.509,1404.75,1110.274,1356.206,1100.622,1358.582z"/>
	<path style="fill:#4C4A16;" d="M2152.468,847.344c11.434,14.657,59.36-19.685,42.412-37.066
		C2182.501,797.584,2138.531,829.479,2152.468,847.344z"/>
	<path style="fill:#4D4B18;" d="M2306.983,664.237c21.615,13.435,66.939-44.163,27.505-40.568
		C2320.063,624.984,2285.948,651.163,2306.983,664.237z"/>
	<path style="fill:#494717;" d="M1105.385,1317.296c25.698-6.854-2.284-44.523-15.525-41.219
		C1069.297,1281.209,1084.458,1322.878,1105.385,1317.296z"/>
</g>
</svg>
