<?xml version="1.0" encoding="iso-8859-1"?>
<!-- Generator: Adobe Illustrator 29.2.1, SVG Export Plug-In . SVG Version: 9.03 Build 55982)  -->
<svg version="1.1" id="Layer_1" xmlns="http://www.w3.org/2000/svg" xmlns:xlink="http://www.w3.org/1999/xlink" x="0px" y="0px"
	 viewBox="0 0 2200 2200" style="enable-background:new 0 0 2200 2200;" xml:space="preserve">
<g>
	<path style="fill:#78774A;" d="M2072.656,1014.062c4.902,2.654,12.912,18.708,13.548,24.626
		c2.966,27.612-43.057,76.989-72.218,56.506c-2.803-1.969-12.969-14.028-13.595-16.678c-0.792,1.821-1.651,3.596-2.744,5.213
		c-1.07,1.583-2.141,3.089-3.552,4.099c-88.994,63.699-199.58,78.937-305.871,83.29c-71.74,3.578-134.243,29.905-188.446,76.581
		c-105.234,90.62-142.594,218.569-179.483,348.595c-5.346,17.102-38.159,114.599-47.443,115.757
		c-14.333,1.787-59.692-65.397-67.159-81.297l-38.911-73.914c-19.552-34.13-47.117-65.664-87.667-72.672l-10.365-5.261
		c30.917,28.087,61.698,64.677,85.578,98.992c35.461,50.958,62.574,107.429,94.141,160.773c4.886-5.146,12.67-5.795,11.158,2.54
		c-0.338,1.862-3.153,3.653-3.315,6.236c-0.305,4.867,31.263,44.561,36.995,50.847c115.813,127.005,236.502,52.76,293.934-81.169
		c39.271-91.579,58.054-184.26,110.789-272.023c74.908-124.664,204.094-198.625,352.143-184.924
		c16.667,1.542,33.277,5.482,49.826,7.791V975c-4.718,13.967-12.229,26.968-22.533,39.003L2072.656,1014.062z"/>
	<path style="fill:#78774A;" d="M1166.782,1556.839l38.911,73.914c7.468,15.9,52.826,83.084,67.159,81.297
		c9.284-1.157,42.097-98.655,47.443-115.757c36.889-130.026,74.249-257.975,179.483-348.595
		c54.203-46.676,116.705-73.002,188.446-76.581c106.291-4.353,216.877-19.591,305.871-83.29c1.411-1.01,2.481-2.516,3.552-4.099
		c1.093-1.617,1.952-3.393,2.744-5.213c-60.602,44.7-132.052,69.002-206.334,79.799c-59.37,8.629-122.375,4.798-179.924,21.247
		c-100.519,28.732-179.545,115.696-224.834,206.807c-51.235,103.073-65.32,220.379-117.447,323.001
		c-21.497-17.537-38.06-40.063-52.752-63.431c-39.468-62.776-62.855-159.717-150.349-167.034l10.365,5.261
		C1119.665,1491.175,1147.23,1522.708,1166.782,1556.839z"/>
	<path style="fill:#78774A;" d="M2077.467,1014.003c10.304-12.034,17.816-25.035,22.533-39.003l-27.344,39.062L2077.467,1014.003z"
		/>
	<path style="fill:#78774A;" d="M937.201,249.597c76.434,22.772,155.422,37.656,234.014,47.758
		c100.843,9.462,165.565,85.029,220.457,159.859l-2.609,4.114c3.769,0.211,6.184-1.849,8.385,2.422
		c6.329,12.285,8.423,20.427,17.006,32.734c10.373,14.874,23.329,30.078,35.163,43.934c1.37,1.604,6.656,5.086,1.946,6.847
		c130.718,134.6,291.449,63.694,371.094-82.031c-103.435-40.986-150.542-147.496-213.247-231.089
		c-39.701-52.925-84.575-97.941-140.268-134.146H855.859c-9.924,16.974-36.982,20.244-44.922,0h-48.828l4.59,5.414
		C779.639,185.096,866.899,228.652,937.201,249.597z"/>
	<path style="fill:#78774A;" d="M957.001,259.601c41.731,11.757,88.168,21.706,130.919,29.237
		c84.165,14.828,145.698,10.617,214.281,70.875c12.668,11.131,85.499,91.219,86.862,101.615l2.609-4.114
		c-54.892-74.83-119.614-150.396-220.457-159.859c-78.593-10.102-157.58-24.987-234.014-47.758
		c-70.301-20.945-157.562-64.501-170.501-144.183l-4.59-5.414C771.109,192.695,878.802,237.571,957.001,259.601z"/>
	<path style="fill:#78774A;" d="M376.566,1163.407c64.773-146.633,141.09-308.213,278.264-398.284l3.764,2.846
		c-107.343-139.334-322.166-230.164-430.022-38.42c-2.773,4.93-13.741,30.721-15.23,31.653c-4.005,2.509-6.298-2.469-7.873-4.951
		l1.503,5.22c-31.141,61.83-63.406,123.565-96.795,185.205c-2.827,3.578-6.225,6.502-10.177,8.793v185.547
		c6.633,8.572,7.937,23.247,0,31.25v128.906c10.037-0.722,20.56,3.268,30.298,3.881c76.316,4.809,147.122-38.102,200.175-88.846
		c3.392-2.401,7.905-0.447,7.878,3.923c-0.038,6.114-50.728,44.637-59.195,50.237c-53.405,35.321-115.053,52.823-179.156,40.57
		v93.75l8.158-6.338C225.65,1362.531,326.392,1275.661,376.566,1163.407z M185.586,1059.609
		c-10.431,20.468-35.303,30.491-53.443,13.131c-20.121-19.255-18.15-82.714,12.214-89.518
		C189.071,973.203,201.77,1027.852,185.586,1059.609z"/>
	<path style="fill:#78774A;" d="M110.177,946.675c33.388-61.641,65.653-123.376,96.795-185.205l-1.503-5.22
		c-3.142,5.898-7.693,11.53-10.784,17.536C163.442,834.486,137.22,897.992,100,955.469
		C103.952,953.178,107.351,950.253,110.177,946.675z"/>
	<path style="fill:#78774A;" d="M335.185,1242.411c37.49-50.027,55.13-103.325,81.497-158.737
		c52-109.278,122.396-229.39,220.594-302.844c6.198-4.636,13.862-10.737,21.318-12.862l-3.764-2.846
		c-137.174,90.071-213.491,251.651-278.264,398.284c-50.175,112.254-150.916,199.124-268.408,234.943l-8.158,6.338
		C192.848,1379.993,277.902,1318.85,335.185,1242.411z"/>
	<path style="fill:#AA98B7;" d="M730.611,1787.419c50.652-115.73,44.15-210.564-68.096-286.045l-1.968-6.843
		c-148.61,37.662-226.579,202.553-312.582,313.394c-64.478,83.1-146.852,165.224-247.965,200.277V2100h433.594l4.064-8.704
		C612.555,1997.797,682.991,1896.221,730.611,1787.419z"/>
	<path style="fill:#AA98B7;" d="M708.423,1533.57c-14.521-14.944-32.46-25.292-47.876-39.038l1.968,6.843
		c112.246,75.48,118.748,170.315,68.096,286.045c-47.62,108.802-118.056,210.378-192.953,303.878l-4.064,8.704
		c62.747-72.281,117.908-151.754,163.128-236.286C755.413,1753.996,811.38,1639.524,708.423,1533.57z"/>
	<path style="fill:#78774A;" d="M2031.641,115.625c-31.831-4.151-77.047,23.588-95.626,49.734c-0.681,0.998-1.337,2.01-2.031,3.001
		c-6.548,10.325-14.064,38.223-18.099,51.237c-28.675,92.493-44.062,187.045-96.324,270.863
		c-67.941,108.964-188.134,178.122-313.311,111.493c53.857,42.872,108.068,70.313,176.612,80.307
		c141.735,20.666,333.94-15.811,410.088-149.382l7.05-3.19V266.016c-20.533-44.906-27.54-95.153-55.842-136.541
		C2040.24,123.745,2035.312,120.083,2031.641,115.625z"/>
	<path style="fill:#78774A;" d="M1682.862,682.26c-68.545-9.994-122.755-37.435-176.612-80.307
		c34.696,35.237,80.503,60.595,128.087,74.062c127.55,36.097,333.32,9.315,426.653-92.564c15.067-16.447,26.009-35.811,39.01-53.763
		l-7.05,3.19C2016.802,666.449,1824.598,702.926,1682.862,682.26z"/>
	<path style="fill:#AB98B8;" d="M164.453,320.703l4.022-4.482c71.075-12.023,140.823-34.634,205.305-70.887
		c70.154-39.441,117.171-84.195,174.167-139.115c3.074-2.962,7.13-4.642,11.037-6.219H100v224.609
		c19.344-1.333,38.571-3.76,57.836-5.99C161.633,318.18,164.109,320.746,164.453,320.703z"/>
	<path style="fill:#AB98B8;" d="M373.781,245.334c-64.482,36.252-134.231,58.864-205.305,70.887l-4.022,4.482
		c25.238-3.108,63.284-12.93,88.312-20.087C372.028,266.516,476.513,190.845,558.984,100c-3.907,1.577-7.963,3.257-11.037,6.219
		C490.951,161.139,443.935,205.893,373.781,245.334z"/>
	<path style="fill:#78784A;" d="M1057.531,1965.401c-110.271-39.691-260.688,8.488-290.742,129.555l-4.679,5.044h46.875
		c-12.7-27.773,20.08-69.536,47.866-48.844c16.776,12.493,11.925,34.072,0.962,48.844h597.656
		c-28.861-12.212-58.379-24.077-88.554-35.595C1263.411,2031.126,1160.283,1998.125,1057.531,1965.401z M932.609,2064.431
		c-27.65,8.174-31.423-28.111-8.871-32.417C944.997,2027.955,950.216,2059.227,932.609,2064.431z"/>
	<path style="fill:#78784A;" d="M1239.129,2020.442c-76.743-24.704-205.709-78.029-282.663-72.765
		c-80.915,5.535-183.794,65.317-194.356,152.323l4.679-5.044c30.055-121.067,180.472-169.247,290.742-129.555
		c102.752,32.724,205.88,65.725,309.384,99.004c30.175,11.518,59.693,23.383,88.554,35.595
		c-11.972-9.571-28.74-16.358-43.031-22.398C1356.237,2053.848,1297.048,2039.087,1239.129,2020.442z"/>
	<path style="fill:#78774A;" d="M1821.625,1326.508c-86.002,56.43-137.772,151.074-170.844,246.148
		c40.213-98.438,145.965-132.664,243.927-138.326c67.122-4.28,134.12-9.74,200.19-23.536l5.102,1.705v-134.766
		c-16.619-2.103-33.114-6.169-49.821-7.796C1972.021,1262.328,1887.058,1283.574,1821.625,1326.508z"/>
	<path style="fill:#78774A;" d="M1894.708,1434.33c-97.962,5.662-203.714,39.888-243.927,138.326
		c83.828-149.042,222.157-127.53,366.187-144.555c28.022-3.312,55.359-10.611,83.031-15.601l-5.102-1.705
		C2028.828,1424.59,1961.83,1430.051,1894.708,1434.33z"/>
	<path style="fill:#AA98B8;" d="M292.41,1859.793c107.551-117.609,189.668-319.075,350.559-371.121
		c-55.865-29.22-124.388-20.437-175.237,15.193l-23.982,18.011c-4.337,6.458-12.069,13.356-13.672,15.625l-2.161,10.085
		c-28.679,49.333-53.164,100.859-73.457,154.579c-37.351,86.766-94.789,171.053-187.564,202.744
		c-20.152,6.884-46.804,15.229-66.896,9.545v83.984C174.003,1970.972,239.598,1917.545,292.41,1859.793z"/>
	<path style="fill:#AA98B8;" d="M166.896,1904.908c92.775-31.691,150.213-115.978,187.564-202.744
		c20.293-53.72,44.778-105.246,73.457-154.579l2.161-10.085c-45.208,64.022-66.328,146.395-105.134,216.155
		c-49.592,89.15-118.444,152.82-224.944,160.798C120.093,1920.137,146.745,1911.792,166.896,1904.908z"/>
	<path style="fill:#161816;" d="M376.193,1762.795c37.982-58.641,79.44-114.644,124.371-168.007
		c36.19-39.455,96.974-91.346,150.556-101.741c3.189-0.619,6.432,0.426,9.426,1.484c14.843-11.624,42.82-10.445,61.86-8.261
		c59.969,6.877,105.103,46.19,146.03,87.243c23.979,24.052,47.172,50.874,67.042,77.966l-1.495,5.162
		c66.743,72.968,147.031,259.843,268.607,154.349c17.547-15.226,32.885-34.266,46.823-52.752
		c36.594,50.448,81.683,102.479,147.024,112.707c32.705,5.12,69.502-2.16,98.093-18.991l3.757-6.913
		c51.652-34.572,81.249-91.973,103.432-148.307c2.913-8.937,5.86-17.864,8.836-26.78c-31.2,84.694-79.681,177.313-167.364,195.155
		c-82.499,16.787-154.686-52.302-190.677-117.478c5.828-9.099,4.068-11.251-5.281-6.455c-22.57-36.079-43.985-72.992-64.244-110.74
		c-30.428-52.632-67.024-101.164-110.744-142.961l-3.497-8.567l-9.322-3.08c-179.916-162.638-502.943-190.794-623.236,48.919
		c2.149-2.084,4.73-3.331,7.558-2.87c35.536-52.914,61.934-90.713,118.123-125.041c147.099-89.87,361.477-25.631,485.393,78.166
		c90.099,75.471,137.757,170.806,194.976,271.026c1.639,6.53-13.318,24.147-18.191,29.783
		c-92.847,107.392-153.844,45.435-220.519-43.208c-29.019-38.58-53.213-74.143-85.172-111.117
		c-72.967-84.414-150.854-173.098-275.391-132.812l-7.067,6.549c-94.934,35.236-158.898,118.864-215.684,198.822
		c-69.665,102.899-139.205,205.394-247.112,272.391c-18.091,11.232-42.424,25.787-62.437,32.059
		c-3.459,1.084-7.163,0.582-10.668-0.055v9.766l8.185-7.13C222.405,1956.105,307.005,1860.541,376.193,1762.795z"/>
	<path style="fill:#161816;" d="M1775.847,1355.76c-74.37,67.641-112.448,157.697-144.143,251.419
		c-1.295,4.097-2.627,8.287-3.995,12.546c3.73-10.697,7.491-21.384,11.312-32.051c2.016-7.813,5.936-12.819,11.76-15.018
		c-0.429-1.795-0.782-3.593-0.863-5.404c-0.081-1.798-0.155-3.515,0.396-4.974c31.3-82.994,71.53-161.374,141.414-218.617
		c69.19-56.675,160.87-83.651,249.672-78.37c18.761,1.116,42.911,3.441,58.6,12.443v-9.766l-3.951,2.054
		C1979.319,1247.656,1864.889,1274.774,1775.847,1355.76z"/>
	<path style="fill:#161816;" d="M1059.428,1475.826l9.322,3.08c-174.943-158.928-480.167-205.644-623.088,20.467
		c-6.25,9.889-20.099,27.11-15.584,38.127c0.458-4.171,2.752-9.496,6.114-12.755
		C556.485,1285.032,879.513,1313.188,1059.428,1475.826z"/>
	<path style="fill:#161816;" d="M868.437,1573.513c-40.927-41.052-86.061-80.365-146.03-87.243
		c-19.04-2.184-47.017-3.363-61.86,8.261c104.525-26.49,176.197,47.548,239.285,119.113c10.775,12.223,26.492,29.215,34.152,42.996
		l1.495-5.162C915.609,1624.387,892.416,1597.565,868.437,1573.513z"/>
	<path style="fill:#161816;" d="M1498.288,1845.04l-3.757,6.913c54.653-32.174,88.605-96.521,110.833-153.815
		c14.82-38.199,26.118-91.169,45.417-125.482c-5.824,2.198-9.744,7.205-11.76,15.018c-3.822,10.667-7.583,21.354-11.312,32.051
		c-5.12,15.942-10.775,32.917-17.152,50.228c-2.976,8.917-5.923,17.843-8.836,26.78
		C1579.537,1753.067,1549.939,1810.468,1498.288,1845.04z"/>
	<path style="fill:#161816;" d="M1698.031,1445.102c-52.735,87.763-71.518,180.444-110.789,272.023
		c-57.432,133.929-178.121,208.174-293.934,81.169c-5.732-6.286-37.3-45.98-36.995-50.847c0.162-2.583,2.977-4.374,3.315-6.236
		c1.512-8.335-6.273-7.686-11.158-2.54c-31.567-53.344-58.68-109.816-94.141-160.773c-23.88-34.315-54.661-70.905-85.578-98.992
		l3.497,8.567c43.721,41.797,80.316,90.329,110.744,142.961c20.259,37.748,41.673,74.661,64.244,110.74
		c9.349-4.796,11.109-2.644,5.281,6.455c35.991,65.176,108.177,134.265,190.677,117.478
		c87.683-17.842,136.163-110.461,167.364-195.155c5.601-16.78,11.327-33.52,17.152-50.228c1.368-4.259,2.7-8.449,3.995-12.546
		c31.695-93.722,69.773-183.778,144.143-251.419c89.042-80.986,203.473-108.104,320.202-85.737l3.951-2.054
		c-16.549-2.31-33.159-6.249-49.826-7.791C1902.126,1246.477,1772.939,1320.438,1698.031,1445.102z"/>
	<path style="fill:#161816;" d="M1610.556,1669.952c6.377-17.31,12.032-34.286,17.152-50.228
		C1621.883,1636.432,1616.157,1653.172,1610.556,1669.952z"/>
	<path style="fill:#161816;" d="M347.965,1807.926c86.003-110.841,163.972-275.732,312.582-313.394
		c-2.994-1.058-6.237-2.103-9.426-1.484c-53.583,10.395-114.367,62.286-150.556,101.741
		c-44.932,53.364-86.389,109.366-124.371,168.007c-69.188,97.746-153.788,193.31-268.008,238.278l-8.185,7.13
		C201.113,1973.15,283.487,1891.025,347.965,1807.926z"/>
	<path style="fill:#161816;" d="M1791.728,1343.661c-69.884,57.243-110.114,135.623-141.414,218.617
		c-0.55,1.459-0.477,3.176-0.396,4.974c0.081,1.811,0.434,3.609,0.863,5.404c33.072-95.075,84.842-189.719,170.844-246.148
		c65.433-42.934,150.396-64.18,228.554-56.569c16.707,1.627,33.203,5.693,49.821,7.796c-15.689-9.002-39.839-11.327-58.6-12.443
		C1952.598,1260.01,1860.918,1286.986,1791.728,1343.661z"/>
	<path style="fill:#161816;" d="M110.668,1998.493c20.013-6.272,44.346-20.827,62.437-32.059
		c107.907-66.997,177.446-169.493,247.112-272.391c56.786-79.958,120.75-163.585,215.684-198.822l7.067-6.549
		c-160.89,52.046-243.008,253.512-350.559,371.121c-52.812,57.752-118.408,111.18-192.41,138.645
		C103.505,1999.074,107.209,1999.577,110.668,1998.493z"/>
	<path style="fill:#161816;" d="M436.192,1524.745c-2.096,4.176-4.143,8.416-6.114,12.755c1.602-2.269,9.335-9.167,13.672-15.625
		C440.922,1521.414,438.341,1522.661,436.192,1524.745z"/>
	<path style="fill:#161816;" d="M430.078,1537.5c1.971-4.339,4.018-8.579,6.114-12.755
		C432.831,1528.004,430.536,1533.329,430.078,1537.5z"/>
	<path style="fill:#79784B;" d="M1986.28,2042.988c-27.074-58.831-90.786-152.143-167.53-126.582l-0.469,4.372
		c-47.862,36.177-86.086,114.575-57.258,172.941l-0.867,6.281h150.391c26.278-14.817,53.199-28.948,76.172-48.828
		C1986.575,2050.788,1988.382,2047.557,1986.28,2042.988z"/>
	<path style="fill:#79784B;" d="M1818.281,1920.778l0.469-4.372c-18.945,6.31-46.039,47.694-54.407,65.71
		c-17.365,37.38-27.254,80.577-4.186,117.884l0.867-6.281C1732.196,2035.353,1770.419,1956.955,1818.281,1920.778z"/>
	<path style="fill:#AA98B7;" d="M1985.146,1882.637c-58.037-11.182-110.465,7.429-162.106,31.738
		c51.282-22.414,101.49,26.115,130.445,64.976c7.511,10.081,40.712,60.612,37.552,70.227l-4.319,1.593
		c0.172,0.459,5.192,4.09,5.859,5.859c7.833-7.242,23.724-18.496,32.946-24.671c22.141-14.825,48.568-27.595,74.475-33.923v-56.641
		l-7.525-0.764C2059.618,1915.477,2026.932,1890.688,1985.146,1882.637z"/>
	<path style="fill:#AA98B7;" d="M1818.75,1916.406c1.431-0.737,2.861-1.406,4.29-2.031c51.641-24.309,104.069-42.92,162.106-31.738
		c41.786,8.051,74.472,32.84,107.329,58.396l7.525,0.764c-31.161-23.241-59.869-47.752-98.116-59.11
		C1942.144,1864.946,1869.15,1881.636,1818.75,1916.406z"/>
	<path style="fill:#AA98B7;" d="M1986.28,2042.988c2.103,4.569,0.295,7.8,0.439,8.184l4.319-1.593
		c3.16-9.615-30.041-60.146-37.552-70.227c-28.956-38.862-79.164-87.39-130.445-64.976c-1.431,0.673-2.861,1.349-4.29,2.031
		C1895.493,1890.845,1959.206,1984.157,1986.28,2042.988z"/>
	<path style="fill:#AA98B7;" d="M1818.75,1916.406c1.429-0.682,2.86-1.357,4.29-2.031
		C1821.611,1915,1820.181,1915.669,1818.75,1916.406z"/>
	<path style="fill:#171816;" d="M1872.072,359.62c16.472-65.464,35.478-128.821,57.005-190.084
		c-22.75,58.056-41.315,117.674-55.693,178.854c-11.334,37.309-24.128,74.478-42.22,109.136c-0.819,1.569-2.2,2.862-3.65,4.176
		c-1.475,1.336-3.14,2.464-4.858,3.532c0.28,1.54,0.484,3.078,0.428,4.607c-0.465,12.674-37.937,58.042-48.82,69.805
		c-69.152,74.743-168.922,110.603-262.998,58.792c-13.712-7.552-53.882-33.764-58.536-46.274c-0.581-1.561-0.91-3.216-1.168-4.898
		c-13.913-14.327-28.91-32.512-37.109-50.781l-5.214-0.747c-4.332-9.875-9.09-18.639-14.263-26.319
		c16.88,53.819,63.215,97.506,109.667,127.19l1.607,5.344l8.805,0.123C1688.439,685.663,1833.156,516.33,1872.072,359.62z"/>
	<path style="fill:#171816;" d="M1929.59,168.247l4.394,0.112L1967.188,100h-9.766c-1.551,10.35-5.547,20.262-11.989,29.739
		C1939.943,142.497,1934.666,155.334,1929.59,168.247z"/>
	<path style="fill:#171816;" d="M1394.976,469.419c-1.915-2.843-3.883-5.548-5.913-8.091
		c6.56,50.025,72.939,117.073,117.188,140.625l-1.607-5.344C1458.191,566.924,1411.856,523.238,1394.976,469.419z"/>
	<path style="fill:#171816;" d="M1394.976,469.419c5.174,7.68,9.932,16.444,14.263,26.319l5.214,0.747
		c-8.583-12.307-10.676-20.449-17.006-32.734c-2.2-4.271-4.616-2.211-8.385-2.422l4.478,3.258
		C1393.99,466.206,1394.473,467.816,1394.976,469.419z"/>
	<path style="fill:#171816;" d="M1511.266,598.438c94.076,51.81,193.846,15.951,262.998-58.792
		c10.883-11.763,48.355-57.131,48.82-69.805c0.056-1.528-0.149-3.066-0.428-4.607c-79.645,145.725-240.376,216.631-371.094,82.031
		c0.257,1.682,0.587,3.337,1.168,4.898C1457.385,564.674,1497.554,590.887,1511.266,598.438z"/>
	<path style="fill:#171816;" d="M1393.54,464.586l-4.478-3.258c2.031,2.542,3.998,5.248,5.913,8.091
		C1394.473,467.816,1393.99,466.206,1393.54,464.586z"/>
	<path style="fill:#171816;" d="M1936.015,165.359c-0.713,1.003-1.399,2.004-2.031,3.001
		C1934.678,167.369,1935.334,166.357,1936.015,165.359z"/>
	<path style="fill:#171816;" d="M1929.077,169.536c-21.528,61.262-40.534,124.62-57.005,190.084
		c-38.916,156.71-183.633,326.044-357.016,242.456l-8.805-0.123c125.177,66.628,245.37-2.529,313.311-111.493
		c52.262-83.818,67.65-178.371,96.324-270.863c4.035-13.015,11.55-40.913,18.099-51.237l-4.394-0.112
		C1929.421,168.677,1929.246,169.105,1929.077,169.536z"/>
	<path style="fill:#171816;" d="M1827.515,461.703c1.45-1.314,2.831-2.606,3.65-4.176c18.092-34.658,30.886-71.828,42.22-109.136
		c14.378-61.181,32.942-120.799,55.693-178.854c0.151-0.429,0.295-0.862,0.446-1.291l0.067,0.002
		c5.076-12.913,10.352-25.75,15.843-38.508c6.442-9.476,10.438-19.389,11.989-29.739
		c-68.731,113.337-71.032,248.623-134.766,365.234C1824.375,464.167,1826.039,463.039,1827.515,461.703z"/>
	<path style="fill:#171816;" d="M1929.523,168.245c-0.151,0.428-0.295,0.862-0.446,1.291c0.169-0.43,0.344-0.859,0.513-1.289
		L1929.523,168.245z"/>
	<path style="fill:#AB97B8;" d="M2012.109,2100H2100v-91.797c-38.651,11.529-74.517,32.699-103.516,60.547L2012.109,2100z"/>
	<path style="fill:#AA97B8;" d="M2019.922,100c4.916,4.131,8.537,11.76,11.719,15.625c9.242-1.603,19.024,15.732,23.277,23.672
		c20.881,38.979,34.155,84.084,45.082,126.719V100H2019.922z"/>
	<path style="fill:#AA97B8;" d="M2031.641,115.625c3.671,4.458,8.6,8.12,12.517,13.849c28.302,41.389,35.309,91.635,55.842,136.541
		c-10.927-42.635-24.201-87.739-45.082-126.719C2050.665,131.357,2040.882,114.022,2031.641,115.625z"/>
	<path style="fill:#79794D;" d="M159.1,323.575c-17.399,1.234-35.087,2.303-53.082,3.197L100,324.609v132.812
		c8.977-44.456,30.077-93.078,55.683-130.751C156.512,325.451,157.76,324.501,159.1,323.575z"/>
	<path style="fill:#79794D;" d="M161.404,323.416c-0.765,0.055-1.538,0.105-2.304,0.159c-1.34,0.926-2.588,1.875-3.417,3.095
		c-25.606,37.673-46.706,86.296-55.683,130.751c16.971-47.531,35.324-95.192,64.453-136.719L161.404,323.416z"/>
	<path style="fill:#79794D;" d="M159.1,323.575c0.135-0.093,0.265-0.188,0.402-0.281c1.53-1.041,3.218-1.849,4.951-2.591
		c-0.344,0.043-2.82-2.523-6.617-2.083c-19.264,2.23-38.491,4.657-57.836,5.99l6.018,2.163
		C124.013,325.878,141.701,324.809,159.1,323.575z"/>
	<path style="fill:#79794D;" d="M159.1,323.575c0.766-0.054,1.539-0.104,2.304-0.159l3.049-2.713
		c-1.733,0.742-3.421,1.551-4.951,2.591C159.365,323.388,159.235,323.482,159.1,323.575z"/>
	<path style="fill:#E1A27F;" d="M811.763,2096.495l-2.778,3.505h48.828l-1.75-4.287
		C888.223,2032.635,799.213,2037.27,811.763,2096.495z"/>
	<path style="fill:#E1A27F;" d="M856.851,2051.156c-27.786-20.692-60.566,21.071-47.866,48.844l2.778-3.505
		c-12.549-59.225,76.46-63.86,44.3-0.782l1.75,4.287C868.776,2085.228,873.626,2063.649,856.851,2051.156z"/>
	<path style="fill:#161815;" d="M334.601,1219.695c0.175-0.18-0.854-1.212-1.847-0.364c-65.618,55.994-114.117,90.846-204.28,89.495
		c-7.368-0.11-24.058-2.811-28.474-7.653v9.766l8.432-2.508C193.758,1322.373,277.876,1278.014,334.601,1219.695z"/>
	<path style="fill:#161815;" d="M279.156,1270.367c8.467-5.6,59.157-44.123,59.195-50.237c0.027-4.37-4.486-6.324-7.878-3.923
		c-53.052,50.744-123.859,93.655-200.175,88.846c-9.738-0.614-20.261-4.604-30.298-3.881c4.415,4.843,21.105,7.543,28.474,7.653
		c90.163,1.351,138.661-33.501,204.28-89.495c0.994-0.848,2.023,0.184,1.847,0.364c-56.725,58.319-140.843,102.678-226.169,88.735
		l-8.432,2.508C164.103,1323.19,225.751,1305.688,279.156,1270.367z"/>
	<path style="fill:#171818;" d="M1996.944,2058.364l-4.366-1.332c-12.633,11.68-24.766,29.16-35.156,42.969h11.719
		c7.883-11.589,17.348-21.651,27.344-31.25c0.224-1.581,0.52-3.134,1.068-4.593c5.547-14.779,82.295-59.722,97.913-57.285
		c1.543,0.241,3.045,0.748,4.535,1.331v-9.766l-5.165,5.399C2058.295,2014.28,2025.571,2034.853,1996.944,2058.364z"/>
	<path style="fill:#171818;" d="M1992.578,2057.031l4.366,1.332c28.628-23.51,61.351-44.084,97.891-54.527l5.165-5.399
		c-25.907,6.328-52.335,19.098-74.475,33.923C2016.302,2038.536,2000.411,2049.79,1992.578,2057.031z"/>
	<path style="fill:#171818;" d="M1997.552,2064.157c-0.548,1.459-0.844,3.013-1.068,4.593
		c28.998-27.848,64.865-49.018,103.516-60.547c-1.49-0.583-2.992-1.09-4.535-1.331
		C2079.847,2004.435,2003.099,2049.378,1997.552,2064.157z"/>
	<path style="fill:#E2A682;" d="M855.859,100h-44.922c6.044,5.067,12.758,8.426,20.142,10.076
		C839.863,108.497,848.123,105.139,855.859,100z"/>
	<path style="fill:#E2A682;" d="M855.859,100c-7.736,5.139-15.996,8.497-24.78,10.076c-7.383-1.65-14.097-5.009-20.142-10.076
		C818.878,120.244,845.935,116.974,855.859,100z"/>
	<path style="fill:#DDA87F;" d="M100,1141.016v31.25C103.944,1162.177,103.25,1151.198,100,1141.016z"/>
	<path style="fill:#DDA87F;" d="M100,1141.016c3.25,10.182,3.944,21.162,0,31.25C107.937,1164.262,106.633,1149.587,100,1141.016z"
		/>
	<path style="fill:#AA98B7;" d="M959.878,659.063c1.225,3.839,4.983,11.841,1.451,15.155c11.11,39.089,6.893,107.711-7.208,146.106
		c-1.325,3.608-1.556,6.458-6.464,6.237c0.875,2.446-2.604,42.796-2.035,51.84c1.871,29.761,14.656,76.815,29.379,102.457
		l3.892-2.036c97.192,147.419,306.938,138.367,439.468,45.004c-101.677,59.454-183.346-18.592-204.168-117.121
		c-7.432-35.166-12.295-96.737,1.043-128.973l-3.154-2.859c9.088-57.991,14.396-123.076-11.487-178.978
		c-36.182-78.145-159.864-165.335-246.432-171.252c-67.501-4.613-167.669,27.383-113.895,108.537l-1.984,4.317
		c30.673,18.396,58.557,41.39,83.984,66.406C941.833,623.158,951.075,631.478,959.878,659.063z"/>
	<path style="fill:#AA98B7;" d="M978.892,978.824L975,980.859c0.281,0.489,3.407,1.854,4.724,3.973
		c88.812,142.925,318.814,139.245,438.635,38.995C1285.83,1117.191,1076.083,1126.243,978.892,978.824z"/>
	<path style="fill:#AA98B7;" d="M954.161,424.646c86.568,5.916,210.25,93.107,246.432,171.252
		c25.883,55.902,20.575,120.986,11.487,178.978l3.154,2.859c3.678-8.889,7.227-56.764,7.792-69.356
		c4.295-95.582-27.127-151.076-99.792-208.762c-69.922-55.509-145.348-96.842-237.613-72.003
		c-42.172,11.353-78.026,40.733-60.047,88.413l12.707,21.473l1.984-4.317C786.492,452.028,886.66,420.033,954.161,424.646z"/>
	<path style="fill:#AA98B8;" d="M1412.344,1014.883c4.969-2.904,23.163-17.579,24.959-18.095c4.775-1.372,8.396,0.024,8.401,5.556
		l0.557-5.661c36.894-34.204,75.872-72.509,100.324-117.009c54.187-98.613-66.131-185.381-145.848-111.057l-59.369,51.773
		c-19.296,16.182-94.141,74.445-116.02,70.133c-1.457-0.287-2.863-0.837-4.253-1.461
		C1236.592,985.086,1308.892,1075.338,1412.344,1014.883z"/>
	<path style="fill:#AA98B8;" d="M1341.366,820.391l59.369-51.773c79.717-74.325,200.035,12.444,145.848,111.057
		c-24.452,44.5-63.429,82.805-100.324,117.009l-0.557,5.661c37.308-32.123,105.351-102.63,116.278-150.323
		c14.754-64.393-40.919-121.849-105.295-115.062c-42.725,4.504-86.506,55.141-119.429,81.743
		c-35.042,28.313-72.072,57.874-116.163,70.36c1.391,0.625,2.796,1.174,4.253,1.461
		C1247.225,894.836,1322.07,836.573,1341.366,820.391z"/>
	<path style="fill:#78774A;" d="M897.842,742.725c-10.626-3.408-20.748-9.572-32.231-12.828
		c-64.65-18.329-141.776-0.913-197.216,35.143c15.287,20.442,33.322,43.505,45.222,66.071c2.48,4.703,12.733,18.606,1.618,18.89
		c2.866,0.913,5.317,2.456,7.321,4.678l36.522,67.226c38.583,69.664,144.787,135.682,209.475,60.791l6.448-1.835l-5.495-1.89
		c-23.774-47.276-31.632-98.439-25.613-149.741l3.764-2.666c-5.168-14.443-0.799-13.959,1.953-29.297
		c-1.189,3.645-2.901,5.501-5.136,5.57c-13.526-18.196-26.752-36.53-39.677-55.002l1.844-5.255
		C903.547,745.054,901.061,743.757,897.842,742.725z"/>
	<path style="fill:#78774A;" d="M759.077,921.904l-36.522-67.226c-2.004-2.222-4.455-3.765-7.321-4.678
		c20.117,33.032,33.808,68.674,57.819,99.407c47.596,60.922,145.289,106.106,201.946,31.452l-6.448,1.835
		C903.864,1057.587,797.66,991.568,759.077,921.904z"/>
	<path style="fill:#78774A;" d="M944.474,802.835c2.235-0.068,3.947-1.925,5.136-5.57l-3.925,2.88
		c-4.923-8.431-10.17-17.14-15.967-24.979c-8.19-11.075-17.745-20.099-23.076-32.588l-1.844,5.255
		C917.722,766.305,930.947,784.639,944.474,802.835z"/>
	<path style="fill:#78774A;" d="M947.656,826.562l-3.764,2.666c-6.019,51.302,1.839,102.465,25.613,149.741l5.495,1.89
		c-14.723-25.642-27.507-72.696-29.379-102.457C945.053,869.359,948.531,829.008,947.656,826.562z"/>
	<path style="fill:#78774A;" d="M610.794,699.558c19.054,17.386,35.217,37.44,52.665,56.342
		c63.265-39.492,154.904-58.283,225.604-28.946l-10.459-7.721C731.371,554.251,466.199,505.491,287.5,646.875
		C389.957,574.713,526.395,622.548,610.794,699.558z"/>
	<path style="fill:#78774A;" d="M878.604,719.232l10.459,7.721c-5.785-9.738-14.299-17.608-22.409-25.442
		C793.341,630.69,705.33,578.789,602.651,565.123c-108.321-14.417-234.387,3.079-315.151,81.752
		C466.199,505.491,731.371,554.251,878.604,719.232z"/>
	<path style="fill:#181916;" d="M211.189,757.342c80.788-192.186,269.083-168.35,402.94-43.864
		c9.128,8.489,43.012,41.191,44.389,50.15c0.218,1.417,0.183,2.874,0.076,4.341c1.703,0.58,3.368,1.227,4.897,2.109
		c7.865,4.537,50.2,65.744,51.566,74.653c0.265,1.725,0.26,3.491,0.177,5.269c1.144-2.544,1.321-4.778,0.529-6.704
		c-15.425-26.835-32.219-53.114-50.38-78.837c68.124-49.624,166.778-61.868,241.257-21.881c-4.774-4.001-10.603-7.752-17.488-11.254
		l-0.09-4.371l-7.832,1.13c-73.542-25.808-152.198-5.445-218.362,31.073c-35.327-38.21-67.683-72.956-112.695-99.679
		c-77.282-45.881-174.979-64.909-254.42-13.475l-8.254,0.872l-2.898,6.94c-34.251,24.774-53.999,62.03-72.783,98.796l-6.35,3.639
		C208.005,754.855,209.663,755.534,211.189,757.342z"/>
	<path style="fill:#181916;" d="M715.057,844.731c-1.366-8.909-43.701-70.116-51.566-74.653c-1.529-0.882-3.194-1.529-4.897-2.109
		c19.728,25.607,40.098,54.869,56.641,82.031C715.316,848.222,715.321,846.455,715.057,844.731z"/>
	<path style="fill:#181916;" d="M906.641,742.578c-0.65-1.523,0.896-3.921-1.924-6.81c-1.149-1.177-13.231-7.81-15.654-8.815
		l0.09,4.371C896.037,734.826,901.867,738.577,906.641,742.578z"/>
	<path style="fill:#181916;" d="M284.602,653.815l2.898-6.94c-43.101,30.357-58.548,65.287-82.031,109.375l6.35-3.639
		C230.604,715.845,250.352,678.589,284.602,653.815z"/>
	<path style="fill:#181916;" d="M213.342,761.201c1.488-0.932,12.457-26.723,15.23-31.653
		c107.856-191.744,322.679-100.913,430.022,38.42c0.107-1.467,0.142-2.924-0.076-4.341c-1.377-8.959-35.261-41.661-44.389-50.15
		c-133.858-124.486-322.152-148.322-402.94,43.864c-1.526-1.808-3.184-2.487-5.72-1.092
		C207.044,758.732,209.337,763.71,213.342,761.201z"/>
	<path style="fill:#181916;" d="M665.383,764.459c18.162,25.723,34.955,52.002,50.38,78.837c0.792,1.926,0.615,4.16-0.529,6.704
		c11.115-0.284,0.862-14.187-1.618-18.89c-11.9-22.566-29.935-45.628-45.222-66.071c55.441-36.055,132.566-53.471,197.216-35.143
		c11.483,3.255,21.605,9.42,32.231,12.828c3.219,1.033,5.705,2.33,8.799-0.146C832.161,702.591,733.507,714.835,665.383,764.459z"/>
	<path style="fill:#181916;" d="M550.174,659.478c45.012,26.723,77.368,61.468,112.695,99.679
		c66.163-36.518,144.82-56.881,218.362-31.073l7.832-1.13c-70.701-29.336-162.339-10.545-225.604,28.946
		c-17.448-18.902-33.61-38.955-52.665-56.342c-84.398-77.01-220.836-124.845-323.294-52.683l8.254-0.872
		C375.195,594.569,472.892,613.597,550.174,659.478z"/>
	<path style="fill:#E3A481;" d="M1305.137,1358.731c-6.8-5.895-12.981-7.788-22.044-6.316
		c-33.597,5.456-72.766,80.823-37.272,104.694C1293.251,1489.008,1342.361,1391.002,1305.137,1358.731z"/>
	<path style="fill:#E2A481;" d="M485.648,293.453c-6.6-10.149-18.888-15.194-30.68-13.315
		c-35.658,5.685-67.923,84.849-33.687,106.98C457.626,410.612,506.461,325.46,485.648,293.453z"/>
	<path style="fill:#E2A37F;" d="M1855.874,925.179c-6.764-3.026-12.711-3.628-20.056-2.44c-28.504,4.61-63.15,75.18-39.57,97.224
		C1831.01,1052.46,1907.647,948.342,1855.874,925.179z"/>
	<path style="fill:#E3A482;" d="M1783.06,811.391c-19.934,4.14-34.097,47.372-34.672,65.08c-0.419,12.912,8.611,31.57,22.604,33.965
		C1823.735,919.461,1845.189,798.486,1783.06,811.391z"/>
	<path style="fill:#E1A27E;" d="M2071.742,1018.267l0.915-4.204l-2.672,3.255c-32.852-14.198-67.299,27.706-66.174,58.289
		l-3.42,2.909l4.032-0.541C2031.006,1130.04,2108.704,1052.87,2071.742,1018.267z"/>
	<path style="fill:#E1A27E;" d="M2069.985,1017.318l2.672-3.255c-0.674-0.365-13.443-3.64-14.854-3.794
		c-27.954-3.051-63.784,41.293-57.411,68.247l3.42-2.909C2002.685,1045.023,2037.133,1003.119,2069.985,1017.318z"/>
	<path style="fill:#E1A27E;" d="M2013.986,1095.194c29.161,20.484,75.184-28.893,72.218-56.506
		c-0.635-5.917-8.645-21.972-13.548-24.626l-0.915,4.204c36.962,34.604-40.735,111.773-67.319,59.708l-4.032,0.541
		C2001.017,1081.166,2011.182,1093.225,2013.986,1095.194z"/>
	<path style="fill:#E3A380;" d="M163.926,1623.894c-44.738,8.045-12.31,88.196,19.516,94.796
		C243.407,1731.125,214.916,1614.725,163.926,1623.894z"/>
	<path style="fill:#1A1A1A;" d="M949.242,814.413c0.524,1.936,0.784,3.681,0.81,5.257c14.832-44.241,17.615-93.896,8.694-139.897
		l2.583-5.554c-3.231-11.368-7.732-22.173-13.338-32.561c-7.336-13.594-17.555-24.818-25.725-37.752l-10.022-4.258
		c-20.816-19.79-43.166-37.98-67.375-53.477l-6.586-8.671l-8.633-0.543c-48.044-27.193-100.658-48.807-153.005-60.997
		c-3.074-0.716-31.091-5.33-29.626-4.931c101.044,27.505,193.264,55.686,267.882,134.208
		c51.065,53.737,53.418,116.19,39.776,185.766l-5.066,6.262C953.223,800.415,953.101,806.131,949.242,814.413z"/>
	<path style="fill:#1A1A1A;" d="M914.899,605.238c-74.618-78.522-166.838-106.704-267.882-134.208
		c-1.465-0.399,26.552,4.215,29.626,4.931c52.347,12.189,104.962,33.804,153.005,60.997l8.633,0.543
		c-36.107-21.655-83.274-42.556-123.502-55.209c-9.501-2.988-67.728-19.455-71.82-15.095l0.293,7.521
		c86.346,17.475,182.192,54.635,248.689,113.616c71.464,63.385,73.765,119.226,57.668,208.933l5.066-6.262
		C968.318,721.428,965.964,658.975,914.899,605.238z"/>
	<path style="fill:#1A1A1A;" d="M912.243,599.648l10.022,4.258c-25.427-25.017-53.311-48.01-83.984-66.406l6.586,8.671
		C869.077,561.668,891.427,579.858,912.243,599.648z"/>
	<path style="fill:#1A1A1A;" d="M954.12,820.325c14.1-38.395,18.318-107.017,7.208-146.106l-2.583,5.554
		c8.921,46.001,6.138,95.656-8.694,139.897c0.047,2.907-0.742,5.212-2.395,6.893C952.565,826.783,952.795,823.934,954.12,820.325z"
		/>
	<path style="fill:#1A1A1A;" d="M947.656,826.562c0.84-2.278,1.621-4.584,2.395-6.893c-0.025-1.576-0.285-3.321-0.81-5.257
		c3.859-8.282,3.981-13.998,0.367-17.147C946.857,812.603,942.489,812.12,947.656,826.562z"/>
	<path style="fill:#1A1A1A;" d="M950.052,819.67c-0.774,2.309-1.555,4.615-2.395,6.893
		C949.309,824.882,950.098,822.577,950.052,819.67z"/>
	<path style="fill:#E2A581;" d="M1191.351,1250.772c-47.156,5.676-26.998,91.439,14.859,87.42
		C1254.196,1333.583,1236.393,1245.35,1191.351,1250.772z"/>
	<path style="fill:#E3A480;" d="M548.812,1215.658c-46.052,4.539-33.618,96.529,12.981,89.287
		C598.65,1299.218,593.437,1211.261,548.812,1215.658z"/>
	<path style="fill:#E2A37F;" d="M517.562,401.205c-45.427,4.473-33.927,89.732,10.913,85.423
		C575.814,482.08,560.645,396.963,517.562,401.205z"/>
	<path style="fill:#171717;" d="M1216.1,783.425c-27.873,118.682,43.706,314.88,194.778,240.127l7.481,0.276l0.409-4.846
		l22.066-17.595l4.869,0.956c-2.506-1.549-4.891-2.182-7.155-1.897c-100.549,88.518-202.771,8.673-220.413-105.544l2.958-5.841
		c-6.312-1.035-9.913-21.198-3.906-24.414c-1.526-0.18-3.808-0.671-3.906-1.766c-0.5-5.559-0.932-47.374,0-50.067l3.906-2.855
		l-3.358-3.569C1216.111,798.419,1216.927,791.15,1216.1,783.425z"/>
	<path style="fill:#171717;" d="M1418.769,1018.982l-0.409,4.846c8.684-5.078,19.515-14.744,27.344-21.484l-4.869-0.956
		L1418.769,1018.982z"/>
	<path style="fill:#171717;" d="M1221.094,889.062c-1.002-6.207-3.906-19.265-3.906-24.414
		C1211.181,867.865,1214.781,888.028,1221.094,889.062z"/>
	<path style="fill:#171717;" d="M1216.1,783.425c0.827,7.725,0.01,14.994-2.271,22.968l3.358,3.569
		c1.195-9.091,8.17-27.799-1.953-32.227l1.563,2.732C1216.552,781.443,1216.332,782.438,1216.1,783.425z"/>
	<path style="fill:#171717;" d="M1213.281,862.882c0.099,1.095,2.38,1.586,3.906,1.766v-54.688l-3.906,2.855
		C1212.349,815.508,1212.781,857.323,1213.281,862.882z"/>
	<path style="fill:#171717;" d="M1214.191,906.708c20.822,98.529,102.492,176.575,204.168,117.121l-7.481-0.276
		c-151.072,74.752-222.651-121.445-194.778-240.127c-0.2-1.867-0.467-3.753-0.866-5.69
		C1201.896,809.971,1206.759,871.542,1214.191,906.708z"/>
	<path style="fill:#171717;" d="M1216.798,780.467l-1.563-2.732c0.399,1.938,0.666,3.823,0.866,5.69
		C1216.332,782.438,1216.552,781.443,1216.798,780.467z"/>
	<path style="fill:#171717;" d="M1438.548,1000.447c2.264-0.285,4.649,0.347,7.155,1.897c-0.004-5.532-3.625-6.928-8.401-5.556
		c-1.796,0.516-19.99,15.191-24.959,18.095c-103.451,60.456-175.751-29.796-191.25-125.82l-2.958,5.841
		C1235.778,1009.12,1337.999,1088.965,1438.548,1000.447z"/>
	<path style="fill:#E3A480;" d="M359.198,444.162c-32.958,7.426-27.131,79.364,16.721,71.393
		C413.404,508.741,406.872,433.42,359.198,444.162z"/>
	<path style="fill:#E4A581;" d="M1652.263,885.58c-25.23,3.655-46.937,51.37-22,67.946c27.955,18.582,61.343-25.035,51.167-51.178
		C1676.796,890.445,1664.914,883.748,1652.263,885.58z"/>
	<path style="fill:#E4A581;" d="M689.372,1211.752c-36.848,5.327-33.434,76.061,5.282,73.875
		C733.606,1283.428,732.688,1205.491,689.372,1211.752z"/>
	<path style="fill:#E3A480;" d="M269.512,1553.526c-37.929,3.41-38.021,76.798,5.342,71.905
		C308.591,1621.624,309.098,1549.967,269.512,1553.526z"/>
	<path style="fill:#E3A582;" d="M1947.18,854.326c-39.074,5.752-46.869,73.041-0.966,65.514
		C1985.686,913.368,1988.469,848.248,1947.18,854.326z"/>
	<path style="fill:#E3A481;" d="M1329.982,1229.315c-35.453,5.909-29.552,74.668,14.692,65.545
		C1376.434,1288.31,1367.011,1223.144,1329.982,1229.315z"/>
	<path style="fill:#E3A481;" d="M622.966,1127.767c-31.914,4.663-35.227,61.492-8.211,65.865
		C658.076,1200.643,668.278,1121.147,622.966,1127.767z"/>
	<path style="fill:#E3A582;" d="M190.359,1568.407c19.023-3.904,12.33-36.906-8.884-30.532
		C165.974,1542.534,169.702,1572.647,190.359,1568.407z"/>
	<path style="fill:#78774A;" d="M1249.399,1764.037c-65.667,90.365-132.4,113.002-210.087,33.308
		c60.453,67.605,133.386,122.178,223.985,125.923c85.165,3.521,162.783-20.987,231.235-71.315
		C1403.228,1916.536,1300.712,1845.047,1249.399,1764.037z"/>
	<path style="fill:#78774A;" d="M983.274,1727.41c13.105,17.906,26.876,35.775,41.39,53.034
		C1010.441,1763.075,996.634,1745.404,983.274,1727.41z"/>
	<path style="fill:#78774A;" d="M1263.297,1923.268c-90.599-3.745-163.532-58.318-223.985-125.923
		c-1.784-1.83-3.571-3.694-5.366-5.632c-3.123-3.735-6.199-7.505-9.282-11.269c-14.514-17.26-28.285-35.128-41.39-53.034
		c-17.135-23.079-33.573-46.663-49.289-70.77c57.169,102.844,171.252,246.415,294.475,267.049
		c47.644,7.978,107.907,2.804,154.283-10.673c40.135-11.663,81.415-32.579,111.789-61.063
		C1426.079,1902.281,1348.462,1926.789,1263.297,1923.268z"/>
	<path style="fill:#78774A;" d="M1396.438,1870.944c-65.341-10.228-110.43-62.259-147.024-112.707
		c-13.938,18.487-29.276,37.526-46.823,52.752c-121.576,105.494-201.864-81.381-268.607-154.349
		c15.362,22.723,31.731,46.777,49.289,70.77c13.36,17.994,27.167,35.665,41.39,53.034c4.8,5.708,9.682,11.347,14.648,16.901
		c77.687,79.694,144.421,57.057,210.087-33.308c51.314,81.01,153.829,152.499,245.133,87.916
		C1465.941,1868.784,1429.143,1876.064,1396.438,1870.944z"/>
	<path style="fill:#78774A;" d="M933.984,1656.641c15.716,24.107,32.154,47.691,49.289,70.77
		C965.715,1703.417,949.346,1679.364,933.984,1656.641z"/>
	<path style="fill:#78774A;" d="M1039.312,1797.345c-4.966-5.553-9.848-11.192-14.648-16.901c3.083,3.765,6.159,7.534,9.282,11.269
		C1035.741,1793.651,1037.528,1795.516,1039.312,1797.345z"/>
	<path style="fill:#E2A37F;" d="M837.823,1854.397c-17.477,2.109-44.851,18.662-49.403,36.564
		c-13.129,51.632,50.544,57.529,79.196,24.507C890.559,1889.027,872.327,1850.234,837.823,1854.397z"/>
	<path style="fill:#E3A380;" d="M2067.655,1760.021c35.581-5.591,45.443-100.086-13.105-89.249
		C2018.082,1677.522,2013.549,1768.523,2067.655,1760.021z"/>
	<path style="fill:#E3A481;" d="M1925.716,1686.317c-43.601,6.093-53.967,108.066,2.517,90.545
		c16.222-5.032,28.464-39.773,29.026-55.111C1957.901,1704.208,1945.641,1683.532,1925.716,1686.317z"/>
	<path style="fill:#E3A480;" d="M1874.878,1547.742c-38.528,6.314-41.069,81.716,1.489,81.712
		C1919.693,1629.45,1927.963,1539.042,1874.878,1547.742z"/>
	<path style="fill:#E3A380;" d="M1992.52,1601.035c30.127,26.057,78.039-25.225,54.732-56.685
		c-5.684-7.673-16.016-13.443-25.831-12.342C1993.101,1535.184,1967.327,1579.246,1992.52,1601.035z"/>
	<path style="fill:#E2A480;" d="M716.731,1989.027c-34.623,4-37.01,59.957,0.957,53.87
		C751.84,2037.422,748.708,1985.333,716.731,1989.027z"/>
	<path style="fill:#E2DEDA;" d="M1414.453,496.484c11.736,17.738,24.106,34.665,37.109,50.781
		C1440.525,533.332,1428.155,516.405,1414.453,496.484z"/>
	<path style="fill:#E2DEDA;" d="M1449.616,540.419c-11.834-13.857-24.791-29.061-35.163-43.934
		c13.702,19.921,26.072,36.848,37.109,50.781C1456.273,545.504,1450.987,542.023,1449.616,540.419z"/>
	<path style="fill:#E2DEDA;" d="M1414.453,496.484c8.199,18.269,23.196,36.454,37.109,50.781
		C1438.559,531.15,1426.189,514.223,1414.453,496.484z"/>
	<path style="fill:#DFA280;" d="M144.356,983.222c-30.363,6.804-32.334,70.263-12.214,89.518
		c18.141,17.36,43.012,7.338,53.443-13.131C201.77,1027.852,189.071,973.203,144.356,983.222z"/>
	<path style="fill:#DFA27F;" d="M923.738,2032.015c-22.552,4.306-18.779,40.591,8.871,32.417
		C950.216,2059.227,944.997,2027.955,923.738,2032.015z"/>
	<path style="fill:#78774A;" d="M924.18,1619.375c-0.432,2.839-2.249,3.545-4.646,2.646l4.469,2.043
		c32.201,37.626,62.607,76.778,91.217,117.457c43.131,55.545,97.841,121.537,169.793,66.307c6.514-5,57.546-52.989,53.626-60.572
		c-48.335-93.502-107.066-190.441-185.082-261.709l-6.291-10.546l-4.816,5.145C968.702,1492.886,909.667,1538.789,924.18,1619.375z"
		/>
	<path style="fill:#78774A;" d="M1238.639,1747.255c3.92,7.583-47.113,55.572-53.626,60.572
		c-71.952,55.23-126.661-10.761-169.793-66.307c-28.61-40.679-59.016-79.831-91.217-117.457l-4.469-2.043
		c-0.379-0.142-0.77-0.316-1.174-0.537c31.96,36.974,56.153,72.536,85.172,111.117c66.675,88.643,127.673,150.6,220.519,43.208
		c4.872-5.635,19.829-23.253,18.191-29.783c-57.219-100.22-104.877-195.556-194.976-271.026l6.291,10.546
		C1131.573,1556.815,1190.304,1653.753,1238.639,1747.255z"/>
	<path style="fill:#78774A;" d="M919.762,1611.332c0.323,3.132,2.249,8.115-1.402,10.153l1.174,0.537
		c2.397,0.899,4.214,0.193,4.646-2.646c-14.513-80.586,44.522-126.489,118.27-139.23l4.816-5.145
		c-33.421,7.791-66.006,16.297-92.716,39.12C924.445,1539.846,915.788,1572.777,919.762,1611.332z"/>
	<path style="fill:#78774A;" d="M918.359,1621.484c0.405,0.221,0.795,0.395,1.174,0.537L918.359,1621.484z"/>
	<path style="fill:#F1EEF2;" d="M961.328,674.219c-1.459-15.463-8.055-29.412-16.694-42.247
		C953.199,644.758,959.719,658.667,961.328,674.219z"/>
	<path style="fill:#F1EEF2;" d="M959.878,659.063c-8.803-27.585-18.044-35.905-37.612-55.157
		c7.794,8.837,15.701,18.111,22.368,28.065c8.639,12.835,15.235,26.784,16.694,42.247
		C964.861,670.904,961.103,662.903,959.878,659.063z"/>
	<path style="fill:#F1EEF2;" d="M922.266,603.906c8.17,12.934,18.388,24.157,25.725,37.752
		c5.606,10.387,10.107,21.193,13.338,32.561c-1.609-15.552-8.129-29.461-16.694-42.247
		C937.927,622.007,929.989,612.715,922.266,603.906z"/>
	<path style="fill:#F1EEF2;" d="M922.266,603.906c7.724,8.808,15.662,18.101,22.368,28.065
		C937.966,622.017,930.06,612.744,922.266,603.906z"/>
</g>
</svg>
