<?xml version="1.0" encoding="iso-8859-1"?>
<!-- Generator: Adobe Illustrator 29.2.1, SVG Export Plug-In . SVG Version: 9.03 Build 55982)  -->
<svg version="1.1" id="Layer_1" xmlns="http://www.w3.org/2000/svg" xmlns:xlink="http://www.w3.org/1999/xlink" x="0px" y="0px"
	 viewBox="0 0 2200 2211.435" style="enable-background:new 0 0 2200 2211.435;" xml:space="preserve">
<g>
	<path d="M1727.976,937.76c46.952-100.031,99.82-241.121,53.553-349.045c-33.703-78.615-115.116-117.353-187.164-153.384
		c-2.811-4.418,8.014-31.94,8.978-40.561c9.511-85.115-56.05-109.455-123.762-135.538c-39.396-15.176-122.501-44.354-162.424-38.915
		c-43.097,5.871-61.13,47.874-78.551,82.129c-70.51-23.555-143.166-40.53-217.529-27.411
		c-139.38,24.589-219.88,137.464-275.417,257.272c-86.441,186.475-147.359,381.361-238.97,569.158
		c-90.858,186.253-279.723,477.05-110.105,669.514c90.903,103.147,354.308,213.437,489.368,235.609
		c386.74,63.489,469.739-319.227,595.078-590.796C1556.635,1251.978,1652.23,1099.135,1727.976,937.76z M1324.151,261.104
		c39.871-3.778,139.479,34.073,178.124,52.087c49.753,23.193,82.424,43.725,50.355,103.804c-5.619,1.703-49.198-19.86-61.663-25.157
		c-0.541-0.189-1.099-0.413-1.685-0.693c-69.503-26.946-140.485-50.927-210.443-76.617
		C1289.309,294.927,1298.965,263.49,1324.151,261.104z M750.664,1926.2c-126.238-45.866-330.753-129.883-370.934-269.593
		c-49.153-170.905,92.024-390.592,165.067-540.421c81.46-167.093,139.205-334.058,210.45-504.133
		c90.278-215.511,187.412-351.351,445.597-279.367c126.161,35.174,274.245,92.815,392.377,149.407
		c74.576,35.726,147.379,72.904,162.94,163.17c27.425,159.092-137.857,407.429-211.067,548.759
		c-84.355,162.844-149.394,328.177-226.854,492.926C1190.296,1959.072,1044.052,2032.797,750.664,1926.2z"/>
	<path d="M1899.099,1046.526c-25.826,5.913-0.774,37.588-9.52,52.853c-5.146,8.982-41.645,25.022-52.905,32.831
		c-22.062,15.301-43.002,37.26-27.399,65.385c9.273,16.715,42.444,39.848,47.711,51.105c5.343,11.421-9.447,19.207-17.751,23.79
		c-33.847,18.68-124.07,31.792-121.398,81.306c1.69,31.315,57.394,76.927,51.547,100.747c-4.067,16.567-45.704,34.497-61.156,40.334
		c-14.321,5.41-45.281,5.491-44.081,27.514c1.062,19.487,19.192,19.522,33.542,16.509c34.343-7.212,103.832-37.512,110.58-76.498
		c7.846-45.327-32.21-75.087-51.054-111.168c33.965-26.921,143.831-40.588,142.712-95.966
		c-0.658-32.575-38.174-53.295-54.458-77.715c22.22-27.15,70.127-32.231,83.53-67.351
		C1937.284,1088.494,1929.899,1039.473,1899.099,1046.526z"/>
	<path d="M398.713,923.329c83.957-48.888,97.081-114.515,35.516-190.412c-4.475-5.517-21.635-17.659-17.745-24.413
		c52.573-37.64,139.452-52.279,73.713-130.298c-8.087-9.597-23.694-20.488-30.074-29.773c-7.881-11.471,25.369-22.861,34.048-25.956
		c20.085-7.161,62.83-12.281,77.646-21.097c15.248-9.073,9.931-35.272-9.231-36.632c-11.047-0.784-64.982,14.608-78.36,19.199
		c-30.763,10.558-70.174,27.857-65.285,66.777c3.218,25.621,57.091,63.216,54.06,75.05c-3.911,15.273-100.075,45.572-100.647,83.634
		c-0.445,29.679,56.9,62.5,61.333,104.712c3.706,35.288-33.592,62.722-60.983,78.002c-16.17,9.02-49.46,14.154-44.905,38.116
		C333.61,960.818,384.007,931.893,398.713,923.329z"/>
	<path style="fill:#010101;" d="M1408.884,1959.179c-6.37-4.208-11.269-5.502-19.097-3.188c-8.522,2.52-11.374,13.527-9.61,21.444
		c31.368,39.847,66.043,78.183,96.262,119.465c16.691,13.346,41.273-3.74,24.29-29.483
		C1487.706,2047.678,1425.649,1970.254,1408.884,1959.179z"/>
	<path style="fill:#010101;" d="M2080.834,480.261c-10.98,0.628-45.681,16.851-58.022,22.161
		c-12.853,5.53-77.735,35.017-82.546,42.19c-9.496,14.159,3.651,31.854,19.994,27.944c23.682-10.643,46.747-23.01,70.347-33.755
		c14.676-6.682,52.601-18.136,62.473-25.877C2107.327,501.752,2097.76,479.293,2080.834,480.261z"/>
	<path style="fill:#010101;" d="M204.952,1812.913c-7.272,1.336-42.466,38.228-50.027,46.34
		c-9.995,10.724-39.498,42.748-45.064,53.671c-6.768,13.282,2.313,27.059,16.517,27.057c14.376-0.002,36.4-35.553,46.736-46.949
		c8.716-9.609,52.261-51.051,53.315-58.642C228.058,1822.652,216.936,1810.712,204.952,1812.913z"/>
	<path style="fill:#010101;" d="M777.921,217.724c1.955,4.527,5.432,14.136,9.751,16.22c15.69,7.57,30.606-2.312,28.087-20.104
		c-2.113-14.922-26.64-83.574-33.844-98.853c-4.863-10.314-10.725-17.05-23.489-14.414c-11.604,2.396-13.264,13.944-12.137,23.954
		C747.711,137.148,771.624,203.142,777.921,217.724z"/>
	<path style="fill:#010101;" d="M1512.808,1909.82c-13.405-7.58-70.103-27.672-84.814-29.521
		c-21.603-2.714-35.057,16.511-21.14,30.25c10.681,10.545,77.619,21.392,94.322,34.385
		C1526.83,1948.598,1536.202,1923.049,1512.808,1909.82z"/>
	<path style="fill:#010201;" d="M122.532,1772.545c7.625-1.415,67.796-27.13,75.06-31.732c20.087-12.726,11.379-38.984-13.4-34.27
		c-8.104,1.542-65.051,26.071-73.022,31.001c-10.265,6.349-15.83,20.474-6.149,30.079
		C108.789,1771.362,117.246,1773.526,122.532,1772.545z"/>
	<path style="fill:#010101;" d="M703.184,258.681c9.523,8.12,37.008,36.944,45.65,40.103c19.623,7.171,33.32-11.862,22.985-28.2
		c-2.15-3.4-32.853-29.377-38.657-34.085c-11.993-9.729-33.807-32.048-48.729-16.191c-3.016,3.205-3.883,11.904-3.508,16.27
		C681.972,248.804,695.346,251.998,703.184,258.681z"/>
	<path style="fill:#010101;" d="M1922.782,493.339c6.884-8.534,31.769-57.852,33.752-67.751
		c3.44-17.169-10.647-25.712-26.317-20.935c-3.228,0.984-5.051,3.623-6.575,6.393l-36.359,73.004
		C1889.259,508.36,1907.542,512.233,1922.782,493.339z"/>
	<path style="fill:#010101;" d="M269.915,1833.763c-15.01,3.029-18.073,33.464-23.323,46.998
		c-5.502,14.184-31.926,50.11-2.661,56.025c19.077,3.856,29.501-25.876,35.713-41.162
		C286.411,1878.973,307.662,1826.146,269.915,1833.763z"/>
	<path style="fill:#020202;" d="M1304.047,2015.759c-11.62,2.666-13.297,12.491-11.026,22.831
		c1.083,4.931,23.949,61.487,26.233,64.787c8.4,12.138,28.447,10.449,31.767-4.298c2.591-11.509-19.917-72.764-27.899-80.122
		C1317.668,2013.929,1311.042,2014.154,1304.047,2015.759z"/>
	<path style="fill:#020202;" d="M2000.622,602.302c-8.114-0.082-29.435,0.872-36.968,2.068
		c-22.085,3.506-24.536,33.317-0.201,36.275c7.13,0.867,45.549-1.504,50.737-3.928
		C2028.319,630.115,2025.022,602.549,2000.622,602.302z"/>
	<path style="fill:#F6F1E8;" d="M410.845,1694.353c80.663,90.105,286.464,168.978,404.886,187.568
		c31.182,4.895,97.121,14.474,122.673,3.353c15.005-6.531,68.272-3.219,96.706-11.131c65.252-18.158,85.609-46.61,127.607-93.302
		c3.151-3.504,2.711-6.269,9.551-4.703c0.054-4.675,42.959-66.962,49.819-78.806c51.465-88.863,89.814-185.942,135.041-278.118
		c81.305-165.706,171.625-327.312,251.156-493.701c-0.067-1.704-1.534-2.948-2.069-4.276c-0.794-1.973-5.12-2.815-4.024-7.969
		c2.885-13.556,25.937-49.246,33.057-65.637c12.271-28.246,18.297-53.249,33.33-79.704c3.699-6.51,8.039-32.089,9.574-41.096
		c13.297-78.015,0.117-139.452-48.659-201.754c-11.76-15.021-27.01-27.055-36.271-42.983
		c-118.132-56.591-266.216-114.232-392.377-149.407c-258.185-71.984-355.319,63.857-445.597,279.367
		c-71.245,170.075-128.99,337.04-210.45,504.133c-73.044,149.829-214.22,369.516-165.067,540.421
		C392.671,1666.269,400.085,1682.332,410.845,1694.353z M923.662,417.923c16.941-19.835,74.746-45.243,100.487-51.468
		c28.241-6.83,68.202-12.41,93.538,2.676c-3.836,14.531-14.822,6.468-24.569,6.301c-49.951-0.856-82.724,5.08-126.179,29.957
		c-7.716,4.417-33.089,24.31-37.784,24.758C919.755,431.045,918.237,424.276,923.662,417.923z M837.434,548.725
		c6.074-13.983,42.483-86.71,53.335-89.626c7.481-2.01,9.706,3.552,7.544,10.098c-3.089,9.358-21.649,33.109-27.918,44.929
		c-10.457,19.717-18.704,45.582-30.21,63.333c-1.616,2.492-2.823,6.851-6.933,5.935
		C820.854,580.633,834.218,556.129,837.434,548.725z M702.54,1033.579c28.717,3.566,80.598,23.16,110.53,32.481
		c150.834,46.972,320.223,107.129,465.653,168.377c17.372,7.316,51.968,20.187,65.922,30.221
		c9.251,6.652,10.014,15.962-1.949,15.179c-6.969-0.456-29.884-14.793-38.746-18.657c-119.99-52.327-255.608-99.473-379.788-142.507
		c-76.62-26.552-154.124-50.607-231.957-73.339C685.367,1033.987,691.356,1032.19,702.54,1033.579z M565.413,1310.879
		c4.877-26.572,37.062-93.556,49.563-121.915c14.164-32.134,38.238-104.337,77.804-109.278
		c26.856-3.353,89.502,18.774,118.29,27.352c144.249,42.979,288.171,94.882,426.16,154.601
		c53.135,22.996,108.089,32.836,77.587,107.469c-11.458,28.036-32.09,60.725-46.037,89.084
		c-13.276,26.995-35.09,92.951-59.22,107.083c-22.126,12.958-46.518,2.085-68.473-4.81c-96.015-30.153-191.5-77.299-287.083-111.784
		c-86.31-31.139-174.568-56.752-261.189-87.008C570.954,1350.834,560.821,1335.898,565.413,1310.879z M565.88,1396.903
		c22.383-1.113,84.996,19.985,110.071,27.147c150.411,42.959,302.125,100.212,444.347,164.998
		c26.889,12.248,57.939,20.915,54.017,60.31c-2.639,26.51-43.318,88.576-60.782,110.921
		c-52.887,67.665-108.003,91.989-194.724,86.125c-94.475-6.389-323.233-92.808-390.965-158.614
		c-56.249-54.649-54.931-117.238-35.075-189.684C502.472,1462.706,522.337,1399.069,565.88,1396.903z M444.641,1434.386
		c9.611-32.569,24.546-68.469,37.812-99.907c4.577-10.847,36.469-85.447,40.592-87.99c1.691-1.043,8.053-1.091,9.651-0.101
		c1.199,0.743,2.849,7.795,1.816,10.073c-26.962,55.297-50.827,112.223-71.68,170.133c-3.397,9.435-11.117,43.829-18.071,46.942
		C428.727,1480.711,442.661,1441.094,444.641,1434.386z M430.421,1524.105c15.331-4.547,11.525,45.979-2.594,41.534
		C419.935,1563.154,424.366,1525.901,430.421,1524.105z"/>
	<path style="fill:#DCD4CB;" d="M1756.162,645.263c-15.561-90.266-88.364-127.444-162.94-163.17
		c59.401,46.987,95.575,116.609,94.986,193.552c-0.063,8.299-6.887,84.436-13.436,91.056c-1.502,1.518-3.998,1.467-6.194,1.225
		c3.53,1.886,7.209,3.768,7.227,8.54c0.041,11.354-18.65,56.134-24.2,69.331c-8.24,19.594-20.812,48.958-32.826,65.906
		c-2.875,4.056-5.556,8.113-10.568,9.238c8.976-0.581,4.57,11.822-4.098,25.236c-77.024,152.68-154.776,304.996-233.258,456.948
		c-46.383,101.773-95.449,202.005-146.553,300.549c-10.513,20.272-32.634,52.984-46.306,72.024l-5.728,0.44
		c-0.031,2.724,4.246,4.827,1.284,12.844c-14.955,40.478-90.447,86.683-130.65,98.15c-23.771,6.78-76.728,16.749-99.478,9.905
		c-7.767-2.337-4.908-5.494-5.02-11.762l-1.465,6.115c-104.388,12.871-221.874-22.618-319.339-62.964
		c-87.59-36.258-191.733-86.714-237.87-171.818c40.181,139.71,244.696,223.727,370.934,269.593
		c293.388,106.597,439.632,32.872,567.577-239.252c77.46-164.748,142.499-330.081,226.854-492.926
		C1618.305,1052.693,1783.587,804.355,1756.162,645.263z M953.981,1930.709c-1.563,7.669-37.686,1.953-44.338,0.217
		c-7.417-1.936-19.622-10.503-8.508-14.068C908.107,1914.621,956.114,1920.243,953.981,1930.709z M1024.843,1922.982
		c-1.493-10.192,38.455-15.17,40.881-11.699C1074.153,1923.342,1026.858,1936.742,1024.843,1922.982z M1095.93,1905.852
		c-8.78-2.668-3.348-13.663,5.474-14.971C1116.318,1888.67,1109.507,1909.978,1095.93,1905.852z M1195.721,1837.269
		c-7.413,8.66-49.918,52.287-59.768,45.346c-0.333-0.234-1.812-6.527-1.449-8.014c1.072-4.394,35.684-29.589,43.024-37.336
		c10.711-11.306,20.741-26.529,29.273-39.628c1.714-3.056,11.299-1.943,12.19-0.658
		C1223.485,1803.469,1200.864,1831.261,1195.721,1837.269z M1304.423,1610.767c-3.12,6.551-18.683,45.025-28.202,35.437
		c-0.455-4.522-0.019-8.669,1.215-13.057c5.539-19.693,30.857-70.943,41.179-91.39c2.599-5.149,3.594-11.848,10.83-9.848
		c3.525,2.184,4.14,5.09,4.132,9.01C1333.562,1547.808,1309.435,1600.245,1304.423,1610.767z M1583.289,1027.098
		c0.738-4.197,10.21-22.824,12.899-28.838c20.542-45.957,46.211-91.376,69.721-135.61c1.358-0.612,7.548,1.207,7.792,1.52
		c2.341,2.999-3.105,15.767-4.67,19.843c-18.723,48.768-53.552,98.498-72.672,148.198
		C1591.036,1042.986,1581.165,1039.179,1583.289,1027.098z M1529.591,1118.704c-10.791-3.245,5.441-29.699,8.615-35.51
		c3.06-5.602,15.789-32.318,23.82-24.228c1.711,11.435-5.207,20.639-9.932,30.321
		C1548.862,1095.911,1536.99,1120.929,1529.591,1118.704z"/>
	<path style="fill:#DCD4CB;" d="M617.6,1828.426c97.465,40.345,214.951,75.834,319.339,62.964l1.465-6.115
		c-25.552,11.121-91.491,1.542-122.673-3.353c-118.422-18.59-324.223-97.464-404.886-187.568
		c-10.761-12.02-18.175-28.084-31.115-37.745C425.867,1741.712,530.01,1792.168,617.6,1828.426z"/>
	<path style="fill:#DCD4CB;" d="M1608.283,925.513c-79.531,166.388-169.851,327.995-251.156,493.701
		c-45.227,92.176-83.576,189.256-135.041,278.118c-6.86,11.844-49.766,74.131-49.819,78.806l5.728-0.44
		c13.672-19.039,35.793-51.751,46.306-72.024c51.104-98.544,100.17-198.777,146.553-300.549
		c78.482-151.952,156.234-304.268,233.258-456.948c8.668-13.415,13.074-25.817,4.098-25.236c-0.631,0.142-1.285,0.254-1.995,0.296
		C1606.749,922.565,1608.216,923.809,1608.283,925.513z"/>
	<path style="fill:#DCD4CB;" d="M1678.152,726.83c-1.535,9.007-5.875,34.586-9.574,41.096c2.197,0.242,4.692,0.293,6.194-1.225
		c6.549-6.62,13.373-82.758,13.436-91.056c0.588-76.943-35.585-146.565-94.986-193.552c9.261,15.928,24.51,27.962,36.271,42.983
		C1678.269,587.378,1691.449,648.815,1678.152,726.83z"/>
	<path style="fill:#B9B9BA;" d="M1490.967,391.839c-0.638-0.271-1.219-0.512-1.685-0.693
		C1489.869,391.426,1490.427,391.65,1490.967,391.839z"/>
	<path style="fill:#B9B9BA;" d="M1494.48,382.169c0.808-14.182,3.983-22.911,5.196-35.197c0.145-1.463-0.279-8.403,0-12.992
		c0.387-6.353-1.076-13.404,2.599-20.788c-38.645-18.015-138.253-55.865-178.124-52.087c-25.187,2.386-34.842,33.822-45.311,53.425
		c69.958,25.691,140.939,49.672,210.443,76.617C1497.232,392.59,1494.197,387.152,1494.48,382.169z M1341.242,319.948
		c-8.906,2.457-11.439-5.725-15.664-9.355c-1.365-1.173-6.859-0.619-9.241-5.182c-2.736-5.24,6.94-24.839,11.827-27.309
		c3.731-1.886,12.154-4.351,10.407,3.908c5.48-9.927,20.994-7.014,22.964,4.553C1363.147,296.023,1350.83,317.303,1341.242,319.948z
		"/>
	<path style="fill:#ABA9A9;" d="M1499.677,333.979c26.124-2.323,23.404,28.639,0,12.992l4.707,4.465l-2.518,14.661
		c6.544-3.986,23.465,7.268,18.587,17.24c-6.031,2.307-16.703-2.062-20.011-8.387c0.905,13.779-2.252,19.411-9.473,16.888
		c12.464,5.296,56.043,26.86,61.663,25.157c32.069-60.08-0.601-80.612-50.355-103.804
		C1507.902,317.139,1506.452,331.265,1499.677,333.979z M1537.613,349.685c7.94-2.149,25.931,13.647,16.683,19.445
		C1544.584,375.218,1524.775,353.16,1537.613,349.685z M1537.701,381.302c7.713-1.51,23.081,10.194,14.03,16.442
		C1541.09,405.089,1521.17,384.537,1537.701,381.302z"/>
	<path style="fill:#ABA9A9;" d="M1500.441,374.951c-0.954-1.824-1.328-3.803-0.761-5.841c0.394-1.418,1.169-2.392,2.186-3.012
		l2.518-14.661l-4.707-4.465c-1.214,12.285-4.388,21.015-5.196,35.197c-0.284,4.983,2.752,10.422-5.198,8.977
		c0.465,0.181,1.047,0.422,1.685,0.693C1498.189,394.362,1501.345,388.729,1500.441,374.951z"/>
	<path style="fill:#ABA9A9;" d="M1499.677,333.979c6.776-2.715,8.225-16.84,2.599-20.788
		C1498.601,320.576,1500.063,327.627,1499.677,333.979z"/>
	<path style="fill:#E7A085;" d="M592.814,1361.672c86.62,30.256,174.878,55.869,261.189,87.008
		c95.583,34.485,191.068,81.631,287.083,111.784c10.177-21.336,25.164-40.087,36.823-60.62
		c38.846-68.411,83.133-158.695,59.321-238.206c-137.989-59.719-281.91-111.622-426.16-154.601
		c-28.789-8.578-91.434-30.705-118.29-27.352c-39.566,4.941-63.639,77.144-77.804,109.278
		c-12.501,28.359-44.686,95.344-49.563,121.915C560.821,1335.898,570.954,1350.834,592.814,1361.672z M773.944,1171.227
		c38.354-11.46,33.825,51.391-2.601,40.505C753.109,1206.284,760.129,1175.355,773.944,1171.227z M643.44,1282.399
		c3.818-16.569,49.734-107.521,60.593-123.908c3.822-5.767,11.004-14.708,18.015-15.987c13.208-2.409,26.128,12.91,22.975,25.583
		l-64.299,130.8C665.469,1321.793,637.045,1310.151,643.44,1282.399z"/>
	<path style="fill:#E7A085;" d="M492.769,1498.105c-19.856,72.446-21.174,135.035,35.075,189.684l87.788,30.443
		c99.771,25.064,198.64,46.265,300.476,18.719c85.625-23.16,150.424-79.619,204.19-147.904
		c-142.222-64.785-293.936-122.039-444.347-164.998c-25.075-7.162-87.688-28.26-110.071-27.147
		C522.337,1399.069,502.472,1462.706,492.769,1498.105z M589.528,1451.725c22.672-4.118,31.634,32.563,8.618,40.009
		C568.069,1501.465,563.71,1456.415,589.528,1451.725z"/>
	<path style="fill:#DE8664;" d="M1049.992,1670.659c-101.087,85.004-209.146,96.095-335.645,74.806
		c-63.765-10.732-131.833-26.855-186.503-57.675c67.732,65.806,296.49,152.225,390.965,158.614
		c86.721,5.864,141.837-18.46,194.724-86.125c17.465-22.345,58.143-84.411,60.782-110.921c3.922-39.396-27.129-48.062-54.017-60.31
		c-0.047,2.184-0.192,4.346-0.678,6.427C1116.053,1610.732,1065.225,1657.85,1049.992,1670.659z M857.841,1783.92
		c-7.191,7.121-30.603-13.073-9.085-13.212C857.685,1770.651,860.981,1780.81,857.841,1783.92z M1107.994,1689.54
		c-5.529,14.317-35.463,50.785-47.428,61.946c-16.328,15.23-71.107,50.638-92.279,50.638c-8.984,0-32.549,1.828-38.977,0
		c-2.834-0.806-4.835-5.945-3.855-9.05c2.088-6.614,20.593-3.168,27.204-3.979c49.316-6.052,91.954-37.526,121.95-75.535
		c7.123-9.026,15.024-25.964,21.412-33.001C1103.897,1671.878,1111.972,1679.239,1107.994,1689.54z"/>
	<path style="fill:#DE8664;" d="M916.108,1736.952c-101.836,27.545-200.705,6.344-300.476-18.719l-87.788-30.443
		c54.671,30.82,122.739,46.944,186.503,57.675c126.499,21.29,234.557,10.198,335.645-74.806
		c15.233-12.809,66.061-59.927,69.628-75.184c0.487-2.082,0.631-4.243,0.678-6.427
		C1066.533,1657.333,1001.734,1713.791,916.108,1736.952z"/>
	<path style="fill:#DF8665;" d="M1248.078,1329.992c-7.084,74.844-56.895,164.073-98.849,225.896l-8.143,4.575
		c21.955,6.895,46.347,17.768,68.473,4.81c24.13-14.131,45.944-80.088,59.22-107.083c13.947-28.358,34.579-61.048,46.037-89.084
		c30.502-74.633-24.452-84.474-77.587-107.469C1252.188,1276.639,1250.079,1308.85,1248.078,1329.992z"/>
	<path style="fill:#DF8665;" d="M1177.909,1499.844c-11.659,20.533-26.646,39.284-36.823,60.62l8.143-4.575
		c41.954-61.824,91.765-151.052,98.849-225.896c2.001-21.142,4.11-53.353-10.848-68.354
		C1261.042,1341.149,1216.755,1431.433,1177.909,1499.844z"/>
	<path style="fill:#050605;" d="M924.161,1118.673c124.18,43.033,259.798,90.18,379.788,142.507
		c8.862,3.865,31.777,18.201,38.746,18.657c11.964,0.783,11.2-8.527,1.949-15.179c-13.954-10.034-48.55-22.905-65.922-30.221
		c-145.43-61.248-314.819-121.405-465.653-168.377c-29.932-9.321-81.812-28.915-110.53-32.481
		c-11.184-1.389-17.172,0.408-10.336,11.754C770.038,1068.065,847.541,1092.121,924.161,1118.673z"/>
	<path style="fill:#040503;" d="M1072.705,1866.157c-38.488,17.719-86.712,21.113-128.471,22.7l-0.762-0.468
		c0.104,0.811-0.024,1.783-0.439,2.991c80.681,11.053,168.763-27.946,219.219-91.81c4.16-8.049,7.499-15.859,10.017-23.432
		C1144.733,1810.844,1114.156,1847.073,1072.705,1866.157z"/>
	<path style="fill:#040503;" d="M1162.717,1780.841c-41.998,46.692-62.354,75.144-127.607,93.302
		c-28.434,7.912-81.701,4.6-96.706,11.131c3.2,0.311,4.827,1.233,5.067,3.115l0.762,0.468c41.76-1.588,89.983-4.981,128.471-22.7
		c41.452-19.083,72.028-55.313,99.563-90.019C1165.428,1774.573,1165.868,1777.338,1162.717,1780.841z"/>
	<path style="fill:#040503;" d="M943.032,1891.38c0.415-1.208,0.543-2.179,0.439-2.991l-5.067-3.115
		c0.112,6.269-2.747,9.426,5.02,11.762c22.75,6.844,75.707-3.124,99.478-9.905c40.203-11.467,115.695-57.672,130.65-98.15
		c2.962-8.017-1.315-10.12-1.284-12.844c-2.517,7.573-5.856,15.383-10.017,23.432
		C1111.795,1863.433,1023.713,1902.433,943.032,1891.38z"/>
	<path style="fill:#040503;" d="M938.404,1885.274l5.067,3.115C943.232,1886.507,941.604,1885.585,938.404,1885.274z"/>
	<path style="fill:#030403;" d="M444.761,1473.535c6.955-3.113,14.674-37.507,18.071-46.942
		c20.853-57.91,44.718-114.836,71.68-170.133c1.034-2.277-0.617-9.329-1.816-10.073c-1.597-0.99-7.959-0.942-9.651,0.101
		c-4.124,2.544-36.015,77.143-40.592,87.99c-13.266,31.438-28.201,67.338-37.812,99.907
		C442.661,1441.094,428.727,1480.711,444.761,1473.535z"/>
	<path style="fill:#040404;" d="M929.155,430.147c4.695-0.448,30.068-20.341,37.784-24.758
		c43.455-24.877,76.229-30.812,126.179-29.957c9.746,0.167,20.732,8.23,24.569-6.301c-25.336-15.085-65.297-9.505-93.538-2.676
		c-25.741,6.225-83.546,31.632-100.487,51.468C918.237,424.276,919.755,431.045,929.155,430.147z"/>
	<path style="fill:#030403;" d="M1611.178,904.107c-2.659,5.599-4.314,11.309-4.964,17.13
		c28.238-41.193,47.337-90.291,63.153-137.855c1.09-5.321,0.827-10.473-0.789-15.456l1.03,8.985
		C1653.236,821.15,1633.76,863.549,1611.178,904.107z"/>
	<path style="fill:#030403;" d="M1602.191,913.267c-1.097,5.154,3.229,5.997,4.024,7.969c0.65-5.821,2.305-11.531,4.964-17.13
		c22.581-40.558,42.058-82.957,58.43-127.196l-1.03-8.985c-15.033,26.456-21.059,51.458-33.33,79.704
		C1628.128,864.021,1605.076,899.711,1602.191,913.267z"/>
	<path style="fill:#030403;" d="M1669.368,783.382c-15.817,47.564-34.915,96.661-63.153,137.855c0.728-0.16,1.391-0.257,1.995-0.296
		c5.013-1.125,7.693-5.182,10.568-9.238c12.014-16.948,24.586-46.312,32.826-65.906c5.55-13.196,24.241-57.977,24.2-69.331
		c-0.017-4.773-3.697-6.655-7.227-8.54C1670.195,772.909,1670.458,778.061,1669.368,783.382z"/>
	<path style="fill:#030403;" d="M1606.214,921.237c0.71-0.042,1.364-0.154,1.995-0.296
		C1607.606,920.98,1606.943,921.076,1606.214,921.237z"/>
	<path style="fill:#040504;" d="M833.253,583.395c4.11,0.916,5.317-3.443,6.933-5.935c11.507-17.751,19.753-43.617,30.21-63.333
		c6.269-11.82,24.828-35.571,27.918-44.929c2.161-6.547-0.064-12.108-7.544-10.098c-10.852,2.916-47.261,75.643-53.335,89.626
		C834.218,556.129,820.854,580.633,833.253,583.395z"/>
	<path style="fill:#0D0D0C;" d="M427.828,1565.639c14.118,4.445,17.925-46.08,2.594-41.534
		C424.366,1525.901,419.935,1563.154,427.828,1565.639z"/>
	<path style="fill:#020202;" d="M1596.36,1032.212c19.12-49.7,53.948-99.43,72.672-148.198c1.565-4.076,7.011-16.845,4.67-19.843
		c-0.244-0.313-6.434-2.133-7.792-1.52c-23.51,44.233-49.179,89.653-69.721,135.61c-2.689,6.014-12.161,24.641-12.899,28.838
		C1581.165,1039.179,1591.036,1042.986,1596.36,1032.212z"/>
	<path style="fill:#040403;" d="M1329.444,1531.909c-7.236-2-8.231,4.699-10.83,9.848c-10.322,20.447-35.64,71.697-41.179,91.39
		c-1.234,4.387-1.67,8.535-1.215,13.057c9.519,9.588,25.082-28.886,28.202-35.437c5.012-10.521,29.139-62.958,29.153-69.848
		C1333.584,1536.999,1332.969,1534.092,1329.444,1531.909z"/>
	<path style="fill:#040404;" d="M1206.8,1797.636c-8.532,13.1-18.561,28.322-29.273,39.628c-7.34,7.748-41.952,32.942-43.024,37.336
		c-0.362,1.487,1.117,7.779,1.449,8.014c9.85,6.942,52.355-36.686,59.768-45.346c5.143-6.008,27.764-33.8,23.269-40.29
		C1218.099,1795.693,1208.513,1794.581,1206.8,1797.636z"/>
	<path style="fill:#060606;" d="M1562.027,1058.966c-8.031-8.089-20.76,18.626-23.82,24.228c-3.174,5.811-19.406,32.265-8.615,35.51
		c7.399,2.225,19.271-22.793,22.503-29.417C1556.82,1079.605,1563.737,1070.401,1562.027,1058.966z"/>
	<path style="fill:#070707;" d="M901.135,1916.857c-11.113,3.565,1.091,12.132,8.508,14.068c6.652,1.736,42.775,7.453,44.338-0.217
		C956.114,1920.243,908.107,1914.621,901.135,1916.857z"/>
	<path style="fill:#0C0E0C;" d="M1024.843,1922.982c2.016,13.76,49.311,0.36,40.881-11.699
		C1063.298,1907.812,1023.349,1912.789,1024.843,1922.982z"/>
	<path style="fill:#090908;" d="M1101.404,1890.881c-8.821,1.308-14.254,12.303-5.474,14.971
		C1109.507,1909.978,1116.318,1888.67,1101.404,1890.881z"/>
	<path style="fill:#080808;" d="M1338.571,282.01c1.748-8.26-6.676-5.795-10.407-3.908c-4.886,2.471-14.562,22.069-11.827,27.309
		c2.382,4.563,7.875,4.009,9.241,5.182C1321.391,304.1,1329.857,280.682,1338.571,282.01z"/>
	<path style="fill:#080808;" d="M1325.578,310.593c5.736-8.148,8.562-20.558,12.992-28.583
		C1329.857,280.682,1321.391,304.1,1325.578,310.593z"/>
	<path style="fill:#0C0C0C;" d="M1513.164,345.203c0,0-2.741-2.281-8.154-6.785c0.767,3.28-1.12,7.349-5.333,8.555
		C1503.115,345.33,1507.611,344.74,1513.164,345.203z"/>
	<path style="fill:#0C0C0C;" d="M1505.01,338.417c-1.563-1.301-3.318-2.761-5.333-4.438c-0.279,4.589,0.145,11.529,0,12.992
		C1503.889,345.766,1505.777,341.697,1505.01,338.417z"/>
	<path style="fill:#0C0C0C;" d="M1499.677,333.979c3.089,0.353,4.814,2.216,5.333,4.438c5.413,4.504,8.154,6.785,8.154,6.785
		c-5.553-0.463-10.049,0.127-13.488,1.769C1523.081,362.618,1525.8,331.657,1499.677,333.979z"/>
	<path style="fill:#0C0C0C;" d="M1499.677,333.979c2.015,1.677,3.77,3.137,5.333,4.438
		C1504.491,336.196,1502.766,334.333,1499.677,333.979z"/>
	<path style="fill:#0F100F;" d="M1554.296,369.13c9.248-5.798-8.743-21.594-16.683-19.445
		C1524.775,353.16,1544.584,375.218,1554.296,369.13z"/>
	<path style="fill:#121213;" d="M1551.731,397.744c9.051-6.248-6.317-17.952-14.03-16.442
		C1521.17,384.537,1541.09,405.089,1551.731,397.744z"/>
	<path style="fill:#070707;" d="M1500.441,374.951c3.308,6.324,13.981,10.694,20.011,8.387c4.878-9.972-12.043-21.225-18.587-17.24
		l-1.447,8.427C1500.428,374.672,1500.431,374.805,1500.441,374.951z"/>
	<path style="fill:#070707;" d="M1499.68,369.109c-0.567,2.038-0.193,4.017,0.761,5.841c-0.01-0.146-0.012-0.278-0.023-0.427
		l1.447-8.427C1500.849,366.717,1500.074,367.692,1499.68,369.109z"/>
	<path style="fill:#030202;" d="M1096.02,1680.557c-6.387,7.037-14.288,23.974-21.412,33.001
		c-29.995,38.009-72.633,69.483-121.95,75.535c-6.611,0.811-25.116-2.634-27.204,3.979c-0.98,3.105,1.021,8.244,3.855,9.05
		c6.428,1.828,29.994,0,38.977,0c21.172,0,75.951-35.408,92.279-50.638c11.965-11.16,41.899-47.629,47.428-61.946
		C1111.972,1679.239,1103.897,1671.878,1096.02,1680.557z"/>
	<path style="fill:#0E0806;" d="M848.756,1770.708c-21.518,0.139,1.893,20.333,9.085,13.212
		C860.981,1780.81,857.685,1770.651,848.756,1770.708z"/>
</g>
</svg>
