<?xml version="1.0" encoding="iso-8859-1"?>
<!-- Generator: Adobe Illustrator 29.2.1, SVG Export Plug-In . SVG Version: 9.03 Build 55982)  -->
<svg version="1.1" id="Layer_1" xmlns="http://www.w3.org/2000/svg" xmlns:xlink="http://www.w3.org/1999/xlink" x="0px" y="0px"
	 viewBox="0 0 2251.254 2200" style="enable-background:new 0 0 2251.254 2200;" xml:space="preserve">
<g>
	<path style="fill:#B0A4C2;" d="M676.969,596.478c-49.127-62.473-104.745-119.966-154.685-181.674
		c-7.412-9.158-25.493-28.895-29.198-38.338l-21.188-5.297c-198.792,166.391-305.891,374.425-331.033,634.325
		c-0.802,8.292,0.815,16.921-0.027,25.145c24.641,20.532,57.503,24.847,88.614,26.594c51.809,2.909,122.043-2.128,174.882-5.434
		c11.873-0.743,28.484-1.383,39.519-2.857c40.072-5.35,35.716-49.332,42.58-79.25c21.339-93.019,58.43-175.815,116.838-251.3
		c24.029-31.054,53.299-57.165,77.856-87.673C684.571,618.193,684.582,607.609,676.969,596.478z"/>
	<path style="fill:#E9AA84;" d="M1769.652,363.223c-1.535,3.461-6.974,1.964-7.946,2.648c-2.218,1.562-7.938,17.705-11.024,22.08
		c-48.124,68.219-120.051,131.952-171.647,199.141c-9.308,12.121-14.646,16.351-13.316,33.033c0.471,5.905,0.875,7.983,4.089,13.113
		c8.426,13.449,35.345,34.087,47.593,47.765c61.413,68.582,111.558,158.462,137.059,246.97c8.475,29.415,11.46,67.424,20.321,93.564
		c4.378,12.916,17.621,24.756,31.261,27.006c28.742,4.74,60.67,1.712,89.522,3.175c59.861,3.035,120.809,11.68,179.786-2.74
		l35.956-15.69C2099.654,768.139,1974.159,528.46,1769.652,363.223z"/>
	<path style="fill:#E9AA84;" d="M1565.719,620.126c-0.738-2.777-1.571-4.576-2.501-5.781
		C1563.879,616.113,1564.717,618.012,1565.719,620.126z"/>
	<path style="fill:#D0B686;" d="M1568.79,591.598c59.982-68.147,119.221-137.12,177.716-206.917c3.338-12.01,8.405-18.28,15.2-18.81
		l-2.649-10.594c-168.406-132.156-382.336-212.975-598.556-214.527c-14.092-0.101-28.27,0.05-42.362,0.027
		c-0.815,4.416,6.572,2.601,7.307,6.391c1.783,9.202-9.553,38.985,3.274,46.551c10.55,1.971,12.514,10.586,13.364,19.742
		c6.626,71.358-5.236,152.833-0.073,225.292c-1.403,11.745-4.042,12.171-13.291,17.166c-1.284,0.693-2.432,2.435-4.39,2.655
		c131.304-0.186,263.053,43.54,371.791,115.94c14.738,9.813,38.097,32.446,52.999,37.08c6.358,1.977,10.854-1.451,14.098,2.75
		C1560.167,606.185,1561.053,600.939,1568.79,591.598z"/>
	<path style="fill:#D0B686;" d="M1579.035,587.093c51.596-67.188,123.524-130.922,171.647-199.141
		c3.087-4.376,8.807-20.518,11.024-22.08c-6.795,0.53-11.861,6.8-15.2,18.81c-58.496,69.797-117.734,138.769-177.716,206.917
		c-7.737,9.341-8.623,14.587-5.573,22.746c0.931,1.205,1.764,3.005,2.501,5.781C1564.388,603.445,1569.726,599.214,1579.035,587.093
		z"/>
	<path style="fill:#8A8C55;" d="M1124.33,458.575c-0.302,0-0.605-0.008-0.907-0.007
		C1123.745,458.609,1124.046,458.607,1124.33,458.575z"/>
	<path style="fill:#8A8C55;" d="M1102.385,438.555c4.713-71.509-6.777-152.026-0.275-222.448
		c1.461-15.817,9.361-25.609,26.61-22.387c-9.809-1.248-13.575-8.064-11.297-20.448l2.924-23.177
		c-5.856-1.941-6.931-10.019-2.936-10.44c14.162-1.494,29.014-0.716,43.09,1.096c-8.774-4.397-23.458-3.261-33.231-2.776
		c-239.744,11.887-446.442,67.536-636.834,217.303c1.533,7.448-0.542,13.056,2.648,21.188c2.111-0.812,4.729-1.211,6.047,0.376
		c58.285,70.16,121.201,145.004,182.108,216.517c8.388,12.691,11.014,25.717-0.114,37.361
		c106.667-91.844,233.874-151.09,374.785-166.829c20.226-2.259,47.652-5.264,67.511-5.322l5.297-2.648
		C1114.817,458.327,1105.363,452.169,1102.385,438.555z"/>
	<path style="fill:#8A8C55;" d="M681.241,593.359c-60.908-71.513-123.823-146.356-182.108-216.517
		c-1.318-1.587-3.936-1.188-6.047-0.376c3.705,9.443,21.787,29.18,29.198,38.338c49.94,61.708,105.558,119.201,154.685,181.674
		c7.614,11.131,7.603,21.715,4.159,34.242C692.255,619.075,689.63,606.049,681.241,593.359z"/>
	<path style="fill:#8A8C55;" d="M1123.423,458.569c0.302-0.001,0.605,0.007,0.907,0.007c1.958-0.221,3.106-1.962,4.39-2.655
		L1123.423,458.569z"/>
	<path style="fill:#8A8C55;" d="M1117.412,139.655c-3.995,0.421-2.92,8.5,2.936,10.44l-2.924,23.177
		c-2.278,12.385,1.488,19.201,11.297,20.448c-12.827-7.566-1.491-37.349-3.274-46.551c-0.734-3.79-8.122-1.976-7.307-6.391
		c14.093,0.023,28.27-0.128,42.362-0.027C1146.426,138.939,1131.574,138.161,1117.412,139.655z"/>
	<path d="M1500.505,1428.238c-29.389-14.039-55.313-10.04-83.078,4.974c-8.294-72.057-98.868-105.757-147.013-47.729
		c-7.828-13.053-10.655-28.515-19.868-40.994c-22.837-30.934-64.55-44.573-100.607-29.107c-8.397,3.602-13.131,9.523-21.205,11.874
		c-0.667-18.048,0.815-36.334,0.095-54.39c-0.25-6.267-2.611-12.053-2.867-18.321c-2.718-66.482,11.607-285.174-111.05-243.692
		c-60.816,20.568-59.806,117.854-60.883,169.535c-1.827,87.692,3.897,176.698,5.297,264.629
		c0.808,50.758-0.816,101.646-0.123,152.383l-77.034-59.336c-46.109-42.837-152.484-31.836-148.114,44.68
		c2.793,48.899,95.041,142.096,127.095,182.92c27.042,34.441,50.56,74.279,78.165,107.229c26.064,31.111,58.4,54.351,90.112,79.391
		c3.358,32.157-0.756,66.737,4.579,98.712c2.368,14.193,12.917,24.021,24.999,30.619c48.691,26.592,167.898,17.679,224.624,13.686
		c47.993-3.379,193.07-12.171,229.218-30.333c28.192-14.165,26.035-51.396,23.697-79.51c-1.377-16.558-15.155-56.635-12.762-68.28
		c1.698-8.262,22.901-38.476,28.318-51.321c34.338-81.43,22.609-229.014,10.642-317.111
		C1556.564,1503.279,1546.321,1450.123,1500.505,1428.238z M1509.622,1863.108c-5.646,11.333-27.322,37.011-28.571,45.709
		c-2.436,16.956,13.462,56.14,15.486,76.92c0.803,8.244,1.85,32.165-0.185,38.899c-3.08,10.191-38.568,13.324-48.828,14.735
		c-79.753,10.969-282.851,32.87-353.239,12.261c-4.55-1.332-17.802-5.815-19.884-9.25c-1.067-1.76-3.744-34.885-4.057-40.967
		c-1.154-22.388,2.25-45.289-1.267-67.594c-21.403-21.293-47.936-36.687-70.17-56.956c-38.391-34.999-62.814-79.462-94.257-120.27
		c-34.494-44.768-78.057-87.975-109.148-134.512c-14.545-21.771-39.582-55.865,0.251-67.63
		c47.665-14.079,103.943,52.914,139.856,78.486c26.253,18.693,59.528,33.339,63.427-12.922
		c13.033-154.63-15.465-325.188-5.364-482.09c1.664-25.853,9.315-89.964,43.709-91.565c34.413-1.603,40.321,53.403,43.328,78.636
		c12.601,105.756,7.149,220.842,13.471,328.182c0.796,13.52,1.026,35.584,2.908,47.413c3.622,22.773,37.029,26.687,39.699-2.376
		c3.116-33.906-11.073-137.675,34.12-148.614c48.719-11.793,63.685,49.603,66.366,84.962c1.703,22.449-10.072,78.67,29.941,66.926
		c12.703-3.728,11.017-35.652,14.324-49.214c9.443-38.725,39.744-77.317,80.3-44.284c15.558,12.672,19.809,38.851,21.238,58.217
		c1.255,17.013-4.797,64.141,5.938,74.841c14.3,14.254,33.559,1.649,36.093-16.714c2.978-21.576-4.477-31.392,12.1-51.463
		c16.417-19.877,40.57-16.622,58.446-0.06c32.782,30.372,33.465,139.601,35.662,184.161
		C1534.646,1724.481,1540.76,1800.603,1509.622,1863.108z"/>
	<path style="fill:#010101;" d="M1736.059,286.905c-578.709-401.636-1460.1-132.109-1614.601,580.013
		c-8.917,41.1-26.301,131.191-20.18,170.177c3.339,21.267,36.632,22.162,39.561-6.455c-6.85-2.983-6.212-16.322-5.412-23.359
		c28.229-248.597,121.887-464.455,317.888-627.23c2.541-2.111,5.568-3.651,8.68-5.139c3.173-1.516,6.514-2.68,9.904-3.743
		c6.31-5.281,11.455-10.318,18.539-15.891c3.274-5.713,6.707-11.632,11.867-15.852c176.268-144.166,426.222-202.172,647.349-206.842
		c8.236-0.187,11.852,2.535,10.849,8.167c5.772-2.524,11.802-4.776,18.157-4.983c49.989-1.625,112.298,8.729,161.634,18.837
		c136.892,28.045,299.438,96.473,407.822,185.554c4.859,3.994,7.987,9.661,10.943,15.118c3.468,2.722,7.107,5.128,10.594,7.945
		c3.146,0.795,6.248,1.692,9.198,2.946c2.905,1.235,5.725,2.5,8.027,4.377c189.294,154.33,316.355,400.075,328.744,644.366
		c0.152,2.992-0.504,6.039-1.232,9.139c-0.739,3.146-1.857,6.204-3.084,9.236c5.823,23.36,40.644,21.027,39.938-9.275
		C2144.489,733.96,1970.167,449.38,1736.059,286.905z"/>
	<path style="fill:#010101;" d="M140.865,1005.494c25.142-259.9,132.241-467.935,331.033-634.325
		c-3.389,1.063-6.731,2.227-9.904,3.743c-3.113,1.488-6.139,3.028-8.68,5.139c-196.001,162.774-289.659,378.632-317.888,627.23
		c-0.799,7.037-1.437,20.376,5.412,23.359C141.68,1022.415,140.062,1013.786,140.865,1005.494z"/>
	<path style="fill:#010101;" d="M2115.621,1014.913c-12.388-244.291-139.45-490.037-328.744-644.366
		c-2.302-1.877-5.122-3.142-8.027-4.377c-2.95-1.254-6.053-2.151-9.198-2.946c204.507,165.236,330.002,404.916,341.654,670.065
		c1.227-3.032,2.345-6.09,3.084-9.236C2115.117,1020.952,2115.773,1017.905,2115.621,1014.913z"/>
	<path style="fill:#010101;" d="M1748.115,340.16c-108.384-89.081-270.93-157.509-407.822-185.554
		c-49.337-10.108-111.645-20.462-161.634-18.837c-6.355,0.206-12.386,2.459-18.157,4.983
		c216.22,1.551,430.15,82.371,598.556,214.527C1756.102,349.821,1752.974,344.154,1748.115,340.16z"/>
	<path style="fill:#010101;" d="M1160.502,140.751c1.003-5.631-2.613-8.354-10.849-8.167
		c-221.127,4.67-471.081,62.676-647.349,206.842c-5.16,4.22-8.593,10.138-11.867,15.852
		c190.392-149.767,397.089-205.416,636.834-217.303C1137.044,137.491,1151.728,136.354,1160.502,140.751z"/>
	<path style="fill:#010101;" d="M1221.449,764.5c6.471-5.397,26.552-25.418,28.447-32.457c4.714-17.502-9.129-31.847-26.61-26.609
		c-6.326,1.896-15.545,17.638-21.658,23.353c-37.737,35.28-102.956,42.139-146.833,14.259
		c-15.971-10.148-27.968-37.813-49.411-25.093c-23.325,13.837,2.186,38.679,14.715,49.195
		C1075.016,813.238,1167.133,809.806,1221.449,764.5z"/>
	<path style="fill:#040404;" d="M1366.169,655.467c-20.536-20.328-58.014,5.86-38.827,34.859
		C1349.881,724.391,1393.913,682.929,1366.169,655.467z"/>
	<path style="fill:#030303;" d="M894.531,702.12c41.849,5.996,42.682-63.736-2.2-52.194
		C868.928,655.945,869.161,698.485,894.531,702.12z"/>
	<path style="fill:#E7E6EB;" d="M485.746,366.223c-0.753,0.809-1.59,1.525-2.499,2.149c0.926,0.09,1.82,0.277,2.676,0.574
		C485.738,368.068,485.683,367.158,485.746,366.223z"/>
	<path style="fill:#E7E6EB;" d="M485.923,368.946c-0.855-0.297-1.75-0.484-2.676-0.574c-3.012,2.07-6.85,3.09-11.35,2.796
		l21.188,5.297C488.717,374.578,486.558,371.949,485.923,368.946z"/>
	<path style="fill:#E7E6EB;" d="M485.746,366.223c-0.063,0.935-0.009,1.845,0.177,2.723c3.018,1.048,5.542,3.425,7.162,7.52
		c-3.191-8.132-1.115-13.74-2.648-21.188C489.908,359.759,488.283,363.496,485.746,366.223z"/>
	<path style="fill:#E7E6EB;" d="M485.923,368.946c0.634,3.002,2.794,5.631,7.162,7.52
		C491.465,372.371,488.941,369.995,485.923,368.946z"/>
	<path style="fill:#E7E6EB;" d="M483.248,368.372c0.909-0.624,1.746-1.34,2.499-2.149c0.235-3.478,2.062-7.278,4.691-10.945
		c-7.085,5.573-12.23,10.61-18.539,15.891C475.801,369.102,479.744,368.033,483.248,368.372z"/>
	<path style="fill:#E7E6EB;" d="M483.248,368.372c-3.504-0.339-7.447,0.73-11.35,2.796
		C476.397,371.463,480.236,370.442,483.248,368.372z"/>
	<path style="fill:#E7E6EB;" d="M490.437,355.278c-2.629,3.667-4.456,7.467-4.691,10.945
		C488.283,363.496,489.908,359.759,490.437,355.278z"/>
	<path style="fill:#F4EDEC;" d="M1763.942,362.476c0.221,1.539-0.491,2.684-2.236,3.396c0.971-0.684,6.41,0.812,7.946-2.648
		C1767.505,363.829,1765.61,363.553,1763.942,362.476z"/>
	<path style="fill:#F4EDEC;" d="M1763.763,362.371c-1.874-1.29-3.448-3.636-4.705-7.093l2.649,10.594
		C1761.759,363.981,1762.445,362.815,1763.763,362.371z"/>
	<path style="fill:#F4EDEC;" d="M1763.942,362.476c-0.059-0.038-0.121-0.065-0.179-0.105c-1.318,0.444-2.004,1.61-2.057,3.501
		C1763.451,365.161,1764.163,364.015,1763.942,362.476z"/>
	<path style="fill:#F4EDEC;" d="M1769.652,363.223c-3.488-2.818-7.126-5.224-10.594-7.945c2.949,2.911,4.547,5.254,4.872,7.061
		C1765.25,361.963,1767.148,362.247,1769.652,363.223z"/>
	<path style="fill:#F4EDEC;" d="M1763.93,362.339c0.009,0.048,0.005,0.09,0.012,0.137c1.668,1.077,3.563,1.352,5.71,0.747
		C1767.148,362.247,1765.25,361.963,1763.93,362.339z"/>
	<path style="fill:#F4EDEC;" d="M1763.763,362.371c0.05-0.017,0.115-0.017,0.167-0.032c-0.325-1.807-1.923-4.149-4.872-7.061
		C1760.315,358.736,1761.888,361.081,1763.763,362.371z"/>
	<path style="fill:#F4EDEC;" d="M1763.93,362.339c-0.052,0.015-0.117,0.016-0.167,0.032c0.058,0.04,0.12,0.067,0.179,0.105
		C1763.935,362.429,1763.938,362.387,1763.93,362.339z"/>
	<path d="M1105.36,265.758c0.336,57.268,1.013,115.256,2.259,172.428c0.161,7.402,10.026,14.548,17.437,12.871l3.664,4.863
		c-0.506-4.286,1.547-7.678,6.158-10.175c0.74-59.592,2.264-121.425,3.979-181.99c3.313-26.969-0.066-50.314-10.137-70.034
		c-3.29,3.648-8.409,6.199-15.356,7.651C1105.1,219.72,1102.432,241.182,1105.36,265.758z"/>
	<path d="M1138.857,263.755c-1.715,60.565-3.239,122.398-3.979,181.99c-4.611,2.498-6.663,5.89-6.158,10.175
		c9.249-4.995,11.887-5.421,13.291-17.166c-5.163-72.459,6.699-153.934,0.073-225.292c-0.85-9.155-2.814-17.771-13.364-19.742
		C1138.791,213.441,1142.17,236.785,1138.857,263.755z"/>
	<path d="M1102.11,216.107c-6.502,70.422,4.988,150.939,0.275,222.448c2.978,13.613,12.432,19.772,26.335,17.365l-3.664-4.863
		c-7.411,1.677-17.276-5.469-17.437-12.871c-1.246-57.173-1.924-115.16-2.259-172.428c-2.928-24.576-0.26-46.038,8.004-64.385
		c6.947-1.453,12.066-4.003,15.356-7.651C1111.471,190.498,1103.57,200.291,1102.11,216.107z"/>
</g>
</svg>
