<?xml version="1.0" encoding="iso-8859-1"?>
<!-- Generator: Adobe Illustrator 29.2.1, SVG Export Plug-In . SVG Version: 9.03 Build 55982)  -->
<svg version="1.1" id="Layer_1" xmlns="http://www.w3.org/2000/svg" xmlns:xlink="http://www.w3.org/1999/xlink" x="0px" y="0px"
	 viewBox="0 0 5125.463 2200" style="enable-background:new 0 0 5125.463 2200;" xml:space="preserve">
<g>
	<path style="fill:#000101;" d="M3848.739,747.516c10.991-20.495,13.865-66.527,10.981-89.652
		c-8.116-65.071-85.698-115.743-141.193-138.22c-95.758-38.785-237.641-54.203-341.808-70.532
		c-353.475-55.411-709.933-84.643-1066.063-119.414c-210.598-20.562-328.375-28.743-540.896,7.186
		c-293.169,49.563-582.046,137.567-865.01,226.151c-16.36,0.635-30.25-28.19-45.43-40.722
		c-85.613-70.674-396.249-25.585-505.628-0.967c-128.726,28.972-139.372,73.904-175.3,193.635
		C71.615,1070.806,68.07,1626.922,204.074,1975.11c30.022,76.859,42.483,115.769,131.721,123.278
		c98.259,8.269,366.682-16.784,463.851-40.555c132.177-32.335,153.947-168.684,168.093-287.646
		c2.753-23.157-10.379-41.079,25.131-40.283c18.326,0.411,86.654,44.514,112.288,54.866c159.709,64.496,318.424,46.56,479.858,0.455
		c21.456-6.128,92.076-36.921,105.869-33.19c82.949,70.646,181.672,179.202,295.7,193.007
		c149.06,18.047,357.657-97.272,370.293-258.75c83.959-8.646,178.225-68.962,222.288-141.224
		c29.571-48.496,38.625-101.202,40.625-157.406l105.864-70.466l54.369-81.388c59.376,31.009,130.017,22.173,173.623-29.716
		c89.853-106.919-6.911-283.453-59.799-387.99c67.698,2.833,135.782,6.089,203.401,10.852
		c159.853,11.261,325.513,34.177,485.64,32.498C3680.791,860.425,3797.258,843.516,3848.739,747.516z M3548.583,552.996
		c19.395-6.604,159.046,30.025,175.521,45.218c21.241,19.588-28.871,62.203-52.944,66.653
		c-37.559,6.944-142.949-7.762-147.902-56.173C3521.84,594.826,3535.442,557.47,3548.583,552.996z M422.744,2028.163
		c-23.718,0.892-101.749,3.365-118.255-5.631c-17.601-9.593-65.504-165.73-72.994-194.204
		c-85.257-324.124-82.272-724.735-0.001-1049.393c9.899-39.065,38.215-148.084,69.183-169.54
		c32.628-22.606,189.281-40.598,236.455-45.673c63.582-6.839,128.129-10.762,191.93-11.471
		c-6.984,11.687-17.977,19.702-26.198,30.714c-196.114,262.678-177.271,1072.166-10.724,1348.972l47.747,68.846L422.744,2028.163z
		 M2852.509,1186.786c-8.082,0.548-42.204-7.55-44.681-11.409c-6.688-10.423,4.47-37.353,4.067-50.18
		c-4.14-131.898-126.569-243.163-216.426-326.165c69.944-8.043,140.239,9.605,210.464,9.316
		c22.012,40.196,48.029,78.066,67.153,119.982C2902.128,991.986,2973.577,1178.584,2852.509,1186.786z M3787.603,710.837
		c-40.01,99.202-234.619,83.51-321.308,80.028c-275.69-11.075-560.414-57.695-835.363-65.274
		c-36.471-1.006-72.394,0.117-108.429,5.759l-145.849-115.444c-32.826-12.396-63.288,32.738-36.279,58.46
		c110.93,100.377,381.246,280.22,400.143,435.349c10.586,86.899-70.76,184.837-150.031,212.612
		c-18.908-37.249-46.067-71.6-73.639-102.866c-58.89-66.778-196.228-212.412-263.094-263.147
		c-38.909-29.522-72.96,1.442-54.645,43.8c74.637,96.418,316.743,270.78,343.793,383.186
		c29.566,122.858-89.165,216.108-196.821,237.669c-49.642-107.571-135.056-210.217-214.445-298.425
		c-13.094-14.547-50.477-60.7-64.014-66.467c-29.712-12.658-59.375,25.464-41.145,52.278
		c71.74,95.281,196.806,205.163,246.366,312.449c51.021,110.447-52.595,196.672-145.732,234.497
		c-160.832,65.316-259.581-32.551-367.188-136.55c20.37-2.12,78.988-39.944,94.212-36.943c15.293,3.014,73.81,83.659,101.344,93.612
		c43.727,15.806,61.685-21.271,40.334-56.641c-40.187-22.647-86.687-100.962-131.521-107.577
		c-35.13-5.184-185.342,69.529-231.787,85.876c-237.961,83.755-461.145,98.15-661.862-76.198
		c-27.097-23.537-52.528-61.167-76.001-81.33c-14.708-12.633-35.886-15.821-51.447-2.416
		c-48.915,42.136,95.244,130.221,81.158,143.544c-79.323,14.588-153.726,50.338-227.796,81.422
		c-21.881-86.87-42.544-174.719-53.534-263.918c-27.263-221.285-20.333-530.42,53.376-742.634
		c5.97-17.188,13.729-49.374,28.641-58.167c358.303-118.916,729.539-243.943,1104.394-300.817
		c199.579-30.28,302.576-15.674,497.491,3.672c389.013,38.612,777.954,72.301,1163.727,135.74
		c-71.26,121.571,34.565,181.151,144.456,189.114c74.739,5.416,98.057-17.822,136.415-73.589c2.522-3.667,3.361-15.391,12.031-7.055
		C3795.447,655.878,3794.209,694.457,3787.603,710.837z"/>
	<path style="fill:#AD9FBD;" d="M2632.236,1392.414c-1.867,48.464-14.134,97.152-36.801,146.065l-16.269,6.589
		c34.22,16.595,58.046,53.845,86.731,78.747c73.52,63.824,173.358,120.169,273.971,111.056
		c117.463-10.639,188.073-144.38,320.531-103.325c62.603,19.404,137.136,141.492,184.061,190.3
		c89.578,93.173,223.537,156.787,352.944,114.067c160.004-52.822,143.525-241.187,362.862-222.22
		c25.865,2.237,46.52,24.355,72.931-9.31c25.171-32.084,1.65-61.193-23.792-83.226c-65.117-56.393-176.92-63.368-254.97-32.786
		c-118.032,46.249-170.692,226.284-322.267,132.577c-167.991-103.856-190.486-374.935-452.82-348.839
		c-134.59,13.388-209.512,153.824-342.353,58.907c-43.865-31.341-73.59-76.267-111.34-113.819l2.026,11.687L2632.236,1392.414z"/>
	<path style="fill:#AD9FBD;" d="M2579.166,1545.068l16.269-6.589c22.667-48.913,34.934-97.601,36.801-146.065l95.446-63.531
		l-2.026-11.687l-105.864,70.466C2617.792,1443.866,2608.737,1496.572,2579.166,1545.068z"/>
	<path style="fill:#E9B998;" d="M4864.97,770.273c-90.054-51.859-201.385-68.291-294.817-14.8
		c-103.72,59.38-151.019,217.067-280.637,234.79c-183.376,25.072-298.189-164.535-440.777-242.747
		c9.316,26.603-28.613,56.662-49.919,71.924c-54.324,38.915-151.841,62.568-215.932,42.012
		c20.081,14.446,43.414,22.641,64.637,35.735c104.632,64.552,182.854,179.738,280.033,257.094
		c165.112,131.429,406.625,202.482,580.519,43.692c130.298-118.982,139.025-303.004,374.311-222.671
		c38.668,13.203,79.894,49.761,119.266,21.785C5087.826,935.857,4916.233,799.794,4864.97,770.273z M4125.459,1197.83
		c-27.563,10.106-108.407-42.385-95.184-70.383c13.213-27.975,39.286,9.351,52.113,18.492
		C4103.495,1160.982,4132.968,1162.956,4125.459,1197.83z M4186.661,1229.613c-28.397,7.91-39.07-30.245-13.973-36.46
		C4197.612,1186.98,4214.368,1221.895,4186.661,1229.613z"/>
	<path style="fill:#E9B998;" d="M3798.82,819.44c21.305-15.262,59.235-45.322,49.919-71.924
		c-51.481,96-167.948,112.909-265.851,113.936C3646.979,882.008,3744.497,858.355,3798.82,819.44z"/>
	<path style="fill:#AD9EBC;" d="M3713.399,509.852c2.15,2.942,3.721,6.307,5.127,9.792c37.471-41.315,72.325-84.93,116.797-119.213
		c215.107-165.826,259.84,57.873,445.323,86.066c73.856,11.226,218.214-13.938,242.608-97.99
		c28.745-99.037-100.972-48.877-145.582-53.321c-134.483-13.398-234.084-212.748-375.71-231.904
		c-274.418-37.117-405.724,250.908-625.245,345.831l35.637-5.58C3455.701,445.102,3696.252,486.385,3713.399,509.852z"/>
	<path style="fill:#AD9EBC;" d="M3713.399,509.852c-17.147-23.467-257.698-64.749-301.043-66.32l-35.637,5.58
		c104.167,16.329,246.05,31.747,341.808,70.532C3717.12,516.159,3715.549,512.794,3713.399,509.852z"/>
	<path style="fill:#F7F0E3;" d="M3771.525,651.499c-38.358,55.767-61.677,79.005-136.415,73.589
		c-109.891-7.963-215.717-67.543-144.456-189.114c-385.773-63.438-774.713-97.128-1163.727-135.74
		c-194.915-19.346-297.912-33.952-497.491-3.672c-374.855,56.874-746.091,181.9-1104.394,300.817
		c-14.912,8.793-22.671,40.979-28.641,58.167c-73.709,212.214-80.639,521.35-53.376,742.634
		c10.99,89.199,31.653,177.049,53.534,263.918c74.07-31.083,148.473-66.834,227.796-81.422
		c14.086-13.323-130.073-101.408-81.158-143.544c15.561-13.405,36.739-10.218,51.447,2.416
		c23.473,20.163,48.904,57.793,76.001,81.33c200.718,174.348,423.901,159.953,661.862,76.198
		c46.444-16.347,196.657-91.06,231.787-85.876c44.833,6.615,91.334,84.929,131.521,107.577c21.351,35.37,3.393,72.448-40.334,56.641
		c-27.533-9.953-86.05-90.597-101.344-93.612c-15.224-3.001-73.841,34.823-94.212,36.943
		c107.606,103.999,206.356,201.866,367.188,136.55c93.138-37.824,196.753-124.05,145.732-234.497
		c-49.56-107.286-174.626-217.168-246.366-312.449c-18.23-26.814,11.432-64.936,41.145-52.278
		c13.538,5.767,50.921,51.919,64.014,66.467c79.389,88.208,164.803,190.854,214.445,298.425
		c107.656-21.562,226.387-114.812,196.821-237.669c-27.051-112.406-269.156-286.768-343.793-383.186
		c-18.315-42.358,15.736-73.322,54.645-43.8c66.865,50.734,204.203,196.369,263.094,263.147
		c27.572,31.265,54.731,65.617,73.639,102.866c79.271-27.774,160.616-125.713,150.031-212.612
		c-18.897-155.129-289.213-334.972-400.143-435.349c-27.009-25.722,3.452-70.856,36.279-58.46l145.849,115.444
		c36.035-5.642,71.958-6.765,108.429-5.759c274.949,7.579,559.673,54.199,835.363,65.274
		c86.688,3.483,281.298,19.174,321.308-80.028c6.606-16.38,7.844-54.959-4.047-66.393
		C3774.887,636.108,3774.048,647.832,3771.525,651.499z M1301.415,1582.579c24.684-1.423,27.552,9.257,23.789,32.349
		C1290.532,1634.965,1259.973,1584.968,1301.415,1582.579z M1347.518,1683.223c-6.541,21.936-117.252,0.666-138.53-7.709
		c-18.611-7.326-49.164-34.126-20.695-43.184c7.476-2.379,61.971,16.451,76.78,19.652
		C1285.685,1656.438,1356.304,1653.756,1347.518,1683.223z M1661.923,587.159c-7.414,4.147-103.617,26.129-110.734,24.892
		c-20.182-3.506-17.76-26.664-2.608-35.18c9.048-5.085,84.245-22.858,96.374-23.549
		C1672.179,551.772,1684.208,574.694,1661.923,587.159z M1673.071,516.92c-61.653,25.81-160.8,26.95-225.738,56.727
		c-18.608,6.702-46.965-13.254-29.307-29.672c9.838-9.148,206.562-57.847,232.073-60.96
		C1686.98,478.515,1701.592,504.98,1673.071,516.92z M1899.322,1822.058c-28.072-19.521,12.34-72.898,27.999-48.284
		C1935.027,1785.888,1926.262,1840.792,1899.322,1822.058z M2163.103,1733.951c9.148-6.816,47.34-40.49,50.928-41.525
		c11.246-3.241,22.738-0.725,23.711,12.807c2.195,30.505-92.386,100.86-111.995,73.517
		C2109.815,1756.536,2149.015,1744.448,2163.103,1733.951z M2456.618,1457.786c7.954-12.099,24.435-55.492,33.808-58.574
		c12.436-4.088,21.882,0.17,23.904,13.099c3.728,23.839-57.327,118.643-79.209,122.002
		C2372.784,1543.883,2447.33,1471.912,2456.618,1457.786z M2836.801,541.648c-32.287,3.583-17.621-55.122-4.737-59.486
		C2867.495,470.16,2861.687,538.887,2836.801,541.648z"/>
	<path style="fill:#AC9EBC;" d="M702.863,582.965c8.221-11.012,19.215-19.027,26.198-30.714
		c-63.801,0.709-128.348,4.633-191.93,11.471c-47.174,5.074-203.827,23.067-236.455,45.673
		c-30.968,21.456-59.284,130.475-69.183,169.54c-82.271,324.657-85.256,725.269,0.001,1049.393
		c7.49,28.474,55.393,184.611,72.994,194.204c16.507,8.997,94.537,6.523,118.255,5.631l317.142-27.38l-47.747-68.846
		C525.592,1655.131,506.749,845.643,702.863,582.965z M504.823,634.367c18.962-5.114,19.75,13.689,16.931,27.725
		c-2.189,10.899-42.952,116.22-47.442,120.929c-14.731,15.449-25.978,9.235-27.837-11.027
		C444.376,749.115,482.034,640.513,504.823,634.367z M416.978,687.619c26.599,4.348,1.905,45.366-3.241,48.362
		C385.938,752.172,374.387,680.657,416.978,687.619z M460.636,1886.913c-9.683,15.754-30.052,9.216-40.961-2.659
		c-19.367-21.081-56.34-144.363-36.539-164.248c4.1-4.117,17.294-7.64,23.043-6.937c22.229,2.717,21.543,52.255,27.139,70.776
		C439.994,1805.943,470.573,1870.746,460.636,1886.913z M513.61,1831.686c-42.575,12.661-52.829-61.03-24.844-68.834
		C519.616,1754.249,545.216,1822.286,513.61,1831.686z M547.88,741.664c-25.49-8.399,8.42-86.744,21.909-91.173
		c45.228-14.85,11.31,73.879-0.63,86.296C563.471,742.703,555.351,744.126,547.88,741.664z"/>
	<path style="fill:#F7F1E3;" d="M2805.933,808.348c-70.224,0.289-140.52-17.358-210.464-9.316
		c89.857,83.002,212.286,194.268,216.426,326.165c0.403,12.827-10.755,39.757-4.067,50.18c2.476,3.859,36.598,11.957,44.681,11.409
		c121.068-8.202,49.619-194.8,20.577-258.456C2853.962,886.414,2827.945,848.544,2805.933,808.348z M2826.273,1029.393
		c-7.844-9.631-48.101-101.173-46.631-110.801c0.927-6.067,2.589-11.195,9.054-13.318c27.967-9.179,64.659,84.53,66.84,105.971
		C2858.295,1038.359,2845.769,1053.328,2826.273,1029.393z"/>
	<path style="fill:#F7F1E4;" d="M3671.16,664.867c24.074-4.45,74.186-47.065,52.944-66.653
		c-16.475-15.193-156.126-51.822-175.521-45.218c-13.141,4.474-26.744,41.83-25.325,55.699
		C3528.211,657.105,3633.601,671.811,3671.16,664.867z"/>
	<path style="fill:#FAF5E3;" d="M4082.388,1145.94c-12.827-9.141-38.901-46.467-52.113-18.492
		c-13.223,27.998,67.621,80.489,95.184,70.383C4132.968,1162.956,4103.495,1160.982,4082.388,1145.94z"/>
	<path style="fill:#F7F0DD;" d="M4172.688,1193.152c-25.097,6.215-14.424,44.37,13.973,36.46
		C4214.368,1221.895,4197.612,1186.98,4172.688,1193.152z"/>
	<path style="fill:#EBBD9C;" d="M1650.099,483.015c-25.511,3.113-222.235,51.812-232.073,60.96
		c-17.658,16.418,10.699,36.375,29.307,29.672c64.938-29.777,164.085-30.917,225.738-56.727
		C1701.592,504.98,1686.98,478.515,1650.099,483.015z"/>
	<path style="fill:#EBBE9C;" d="M1265.073,1651.982c-14.81-3.202-69.304-22.031-76.78-19.652
		c-28.469,9.058,2.084,35.858,20.695,43.184c21.277,8.375,131.989,29.645,138.53,7.709
		C1356.304,1653.756,1285.685,1656.438,1265.073,1651.982z"/>
	<path style="fill:#ECBC9B;" d="M2435.121,1534.313c21.882-3.359,82.937-98.163,79.209-122.002
		c-2.022-12.93-11.468-17.188-23.904-13.099c-9.373,3.081-25.854,46.475-33.808,58.574
		C2447.33,1471.912,2372.784,1543.883,2435.121,1534.313z"/>
	<path style="fill:#ECC09F;" d="M1644.955,553.322c-12.129,0.691-87.325,18.464-96.374,23.549
		c-15.152,8.516-17.575,31.675,2.608,35.18c7.117,1.237,103.32-20.745,110.734-24.892
		C1684.208,574.694,1672.179,551.772,1644.955,553.322z"/>
	<path style="fill:#ECBB99;" d="M2237.743,1705.233c-0.974-13.533-12.466-16.048-23.711-12.807
		c-3.588,1.034-41.78,34.709-50.928,41.525c-14.089,10.497-53.289,22.585-37.356,44.8
		C2145.357,1806.093,2239.938,1735.739,2237.743,1705.233z"/>
	<path style="fill:#E9B995;" d="M2832.064,482.162c-12.884,4.364-27.551,63.069,4.737,59.486
		C2861.687,538.887,2867.495,470.16,2832.064,482.162z"/>
	<path style="fill:#E7B496;" d="M1899.322,1822.058c26.941,18.734,35.705-36.17,27.999-48.284
		C1911.662,1749.16,1871.25,1802.538,1899.322,1822.058z"/>
	<path style="fill:#E6BC9C;" d="M1325.204,1614.928c3.763-23.092,0.895-33.772-23.789-32.349
		C1259.973,1584.968,1290.532,1634.965,1325.204,1614.928z"/>
	<path style="fill:#030303;" d="M406.179,1713.069c-5.749-0.703-18.943,2.82-23.043,6.937
		c-19.801,19.885,17.173,143.166,36.539,164.248c10.909,11.875,31.278,18.413,40.961,2.659
		c9.936-16.167-20.642-80.97-27.319-103.068C427.722,1765.324,428.408,1715.786,406.179,1713.069z"/>
	<path style="fill:#E9BE9E;" d="M474.312,783.021c4.49-4.709,45.252-110.03,47.442-120.929c2.819-14.035,2.032-32.838-16.931-27.725
		c-22.79,6.146-60.448,114.748-58.348,137.627C448.335,792.255,459.581,798.469,474.312,783.021z"/>
	<path style="fill:#E9BB98;" d="M569.789,650.491c-13.489,4.429-47.399,82.774-21.909,91.173c7.472,2.462,15.592,1.039,21.28-4.877
		C581.099,724.37,615.017,635.641,569.789,650.491z"/>
	<path style="fill:#040405;" d="M488.766,1762.852c-27.985,7.804-17.731,81.495,24.844,68.834
		C545.216,1822.286,519.616,1754.249,488.766,1762.852z"/>
	<path style="fill:#E7BF9D;" d="M413.737,735.981c5.146-2.997,29.839-44.014,3.241-48.362
		C374.387,680.657,385.938,752.172,413.737,735.981z"/>
	<path style="fill:#EABB9A;" d="M2788.696,905.274c-6.465,2.122-8.127,7.25-9.054,13.318c-1.47,9.628,38.786,101.17,46.631,110.801
		c19.496,23.936,32.022,8.967,29.263-18.148C2853.355,989.804,2816.663,896.094,2788.696,905.274z"/>
</g>
</svg>
