<?xml version="1.0" encoding="iso-8859-1"?>
<!-- Generator: Adobe Illustrator 29.2.1, SVG Export Plug-In . SVG Version: 9.03 Build 55982)  -->
<svg version="1.1" id="Layer_1" xmlns="http://www.w3.org/2000/svg" xmlns:xlink="http://www.w3.org/1999/xlink" x="0px" y="0px"
	 viewBox="0 0 6299.68 2200" style="enable-background:new 0 0 6299.68 2200;" xml:space="preserve">
<g>
	<path style="fill:#010101;" d="M5623.214,194.539c-523.978-59.671-1120.192-59.262-1647.596-42.405
		c-445.586,14.241-881.36,54.821-1328.905,35.516c-496.321-21.409-990.632-107.512-1489.311-83.442
		c-260.035,12.551-732.97,73.813-903.616,289.74c-207.728,262.85-177.751,964.254-70.005,1269.274
		c142.445,403.25,536.828,446.581,915.042,435.264c431.142-12.901,866.418-69.042,1299.274-78.768
		c942.564-21.179,1916.511,110.563,2848.687,28.673c538.53-47.309,836.289-107.322,925.838-700.819
		C6243.832,875.636,6210.333,261.399,5623.214,194.539z M5875.533,1753.709c-186.827,169.573-685.053,178.439-934.086,188.237
		c-833.589,32.796-1665.277-60.592-2500.73-42.985c-404.846,8.532-809.226,51.869-1214.079,71.62
		c-330.242,16.11-771.304,40.928-921.452-322.213C199.844,1393.593,174.347,737.6,316.995,499.776
		c138.218-230.439,616.194-278.308,861.717-289.018c468.06-20.417,930.468,61.624,1396.968,83.442
		c681.171,31.857,1351.682-57.28,2032.133-43.206c257.384,5.324,530.256,17.648,788.1,35.884
		c284.835,20.144,505.481,19.04,625.044,319.696C6128.054,875.879,6103.306,1546.973,5875.533,1753.709z"/>
	<path style="fill:#F7F3E3;" d="M5395.913,286.878c-257.844-18.236-530.716-30.56-788.1-35.884
		C3927.362,236.92,3256.852,326.057,2575.68,294.2c-466.501-21.818-928.909-103.859-1396.968-83.442
		c-245.524,10.71-723.499,58.58-861.717,289.018c-142.648,237.824-117.15,893.817-11.809,1148.592
		c150.148,363.141,591.21,338.324,921.452,322.213c404.854-19.75,809.233-63.087,1214.079-71.62
		c835.453-17.607,1667.14,75.781,2500.73,42.985c249.033-9.797,747.259-18.664,934.086-188.237
		c227.772-206.737,252.521-877.83,145.424-1147.136C5901.394,305.917,5680.749,307.022,5395.913,286.878z M789.492,375.275
		c35.116,18.129,3.078,64.722-27.399,45.474C745.447,410.236,757.929,358.981,789.492,375.275z M387.627,1195.608
		c-64.978,9.768-56.038-37.48-4.875-47.852C433.784,1137.412,434.346,1188.585,387.627,1195.608z M5703.966,1699.344
		c-32.825,20.898-65.678-34.145-20.409-45.932C5713.785,1645.54,5716.89,1691.116,5703.966,1699.344z M5443.645,1648.573
		c-299.739,98.88-787.695,72.84-1105.757,65.703c-963.976-21.63-1940.58-77.363-2905.47-28.043
		c-272.114,13.909-677.658,98.115-807.583-222.551c-73.689-181.873-72.603-650.402,38.04-816.917
		c93.222-140.296,353.501-206.387,513.838-217.803c202.805-14.44,407.232-25.369,610.721-35.68
		c595.825-30.191,1193.094,6.043,1790.444-6.693c139.887-2.983,280.533-16.353,420.847-19.558
		c302.259-6.904,572.467,8.502,871.689,26.25c355.779,21.102,781.906-53.234,873.881,390.508
		C5807.991,1091.096,5794.881,1532.704,5443.645,1648.573z M5947.481,934.19c18.287-11.702,65.11,10.834,42.267,38.627
		C5959.949,1009.072,5921.742,950.661,5947.481,934.19z"/>
	<path style="fill:#010101;" d="M4870.415,393.281c-299.222-17.748-569.43-33.155-871.689-26.25
		c-140.314,3.205-280.96,16.575-420.847,19.558c-597.351,12.736-1194.62-23.498-1790.444,6.693
		c-203.489,10.311-407.916,21.239-610.721,35.68c-160.336,11.417-420.616,77.507-513.838,217.803
		c-110.643,166.515-111.73,635.045-38.04,816.917c129.924,320.666,535.468,236.46,807.583,222.551
		c964.889-49.32,1941.494,6.413,2905.47,28.043c318.062,7.137,806.019,33.177,1105.757-65.703
		c351.236-115.869,364.346-557.477,300.651-864.784C5652.321,340.046,5226.194,414.383,4870.415,393.281z M5463.333,1554.609
		c-224.611,95.156-704.568,77.296-954.967,74.427c-475.688-5.451-948.547-30.258-1424.507-35.224
		c-524.859-5.475-1057.042-1.649-1580.414,21.382c-209.349,9.213-627.635,88.169-773.718-100.133
		c-124.234-160.139-126.044-703.076,6.417-858.957c81.439-95.838,317.606-161.259,440.567-170.317
		c131.971-9.722,265.637-19.768,397.765-28.434c528.918-34.687,1050.87-13.433,1580.416-14.277
		c461.359-0.736,930.456-45.785,1388.99-28.706c169.846,6.326,341.756,28.536,511.219,42.839
		c386.214,32.597,613.185,13.204,642.708,479.615C5711.562,1154.089,5693.623,1457.048,5463.333,1554.609z"/>
	<path style="fill:#060606;" d="M382.752,1147.757c-51.164,10.372-60.103,57.619,4.875,47.852
		C434.346,1188.585,433.784,1137.412,382.752,1147.757z"/>
	<path style="fill:#0A0A09;" d="M5989.748,972.817c22.844-27.793-23.979-50.329-42.267-38.627
		C5921.742,950.661,5959.949,1009.072,5989.748,972.817z"/>
	<path style="fill:#11110F;" d="M762.093,420.749c30.477,19.248,62.516-27.345,27.399-45.474
		C757.929,358.981,745.447,410.236,762.093,420.749z"/>
	<path style="fill:#10100F;" d="M5683.557,1653.412c-45.269,11.787-12.416,66.831,20.409,45.932
		C5716.89,1691.116,5713.785,1645.54,5683.557,1653.412z"/>
	<path style="fill:#F7F2E2;" d="M5055.103,457.209c-169.463-14.302-341.374-36.512-511.219-42.839
		c-458.534-17.079-927.631,27.971-1388.99,28.706c11.049,136.009,7.43,272.109-0.074,408.367
		c-9.909,179.917-24.611,374.795-42.584,554.094c-6.301,62.852-16.329,126.363-28.375,188.276
		c475.96,4.966,948.818,29.772,1424.507,35.224c250.399,2.87,730.356,20.729,954.967-74.427
		c230.29-97.561,248.229-400.52,234.477-617.785C5668.288,470.412,5441.317,489.805,5055.103,457.209z"/>
	<path style="fill:#7F7C49;" d="M3076.847,1553.993c41.718-351.533,80.52-710.091,67.019-1064.747l11.027-46.169
		c-529.546,0.845-1051.498-20.41-1580.416,14.277c-132.128,8.665-265.794,18.711-397.765,28.434
		c-122.961,9.059-359.128,74.479-440.567,170.317c-132.461,155.881-130.651,698.817-6.417,858.957
		c146.083,188.302,564.368,109.346,773.718,100.133c523.372-23.031,1055.555-26.858,1580.414-21.382
		c-2.407-6.688-4.55-13.424-5.765-20.322C3076.929,1566.872,3076.095,1560.333,3076.847,1553.993z M769.394,1016.723
		c2.695-25.57,110.805-204.873,131.392-210.305c10.01-2.642,20.821,0.665,23.374,10.28c3.696,13.922-94.249,180.888-110.308,201.245
		C796.467,1039.98,765.48,1053.848,769.394,1016.723z M1282.983,847.688c-51.456,45.15-131.802,244.201-176.99,270.58
		c-62.906,36.722-66.523-48.964-75.062-57.216c-2.878-2.782-9.74-0.967-14.724,4.483c-31.881,34.859-67.04,143.743-98.361,170.026
		c-16.275,13.657-37.603,12.454-41.676-8.521c-5.14-26.466,104.75-222.747,129.856-244.224c14.53-12.43,35.37-19.884,53.479-10.713
		c21.458,10.867,14.952,55.609,35.34,67.599c16.148-45.192,125.808-223.045,167.302-227.525
		C1285.661,809.638,1292.866,827.906,1282.983,847.688z M2441.792,933.481c-5.476,28.774-56.431,134.227-73.976,160.939
		c-14.839,22.593-44.158,51.427-44.417,5.979c-0.142-24.917,70.623-181.037,90.219-187.62c7.65-2.57,17.413-2.725,24.077,2.459
		C2446.736,921.673,2443.356,925.262,2441.792,933.481z"/>
	<path style="fill:#7F7C49;" d="M3154.82,851.443c7.504-136.258,11.123-272.357,0.074-408.367l-11.027,46.169
		c13.5,354.656-25.302,713.214-67.019,1064.747c-0.752,6.34,0.082,12.879,1.248,19.497c1.215,6.899,3.357,13.634,5.765,20.322
		c12.046-61.913,22.074-125.424,28.375-188.276C3130.209,1226.238,3144.91,1031.36,3154.82,851.443z"/>
	<path style="fill:#010101;" d="M1262.147,812.177c-41.494,4.48-151.155,182.333-167.302,227.525
		c-20.388-11.99-13.881-56.732-35.34-67.599c-18.109-9.171-38.95-1.716-53.479,10.713
		c-25.105,21.477-134.996,217.758-129.856,244.224c4.074,20.975,25.402,22.178,41.676,8.521
		c31.321-26.283,66.479-135.166,98.361-170.026c4.984-5.45,11.846-7.265,14.724-4.483c8.539,8.252,12.156,93.938,75.062,57.216
		c45.188-26.379,125.534-225.43,176.99-270.58C1292.866,827.906,1285.661,809.638,1262.147,812.177z"/>
	<path style="fill:#030402;" d="M924.16,816.698c-2.553-9.615-13.364-12.922-23.374-10.28
		c-20.587,5.433-128.697,184.735-131.392,210.305c-3.914,37.125,27.073,23.257,44.457,1.22
		C829.911,997.586,927.856,830.62,924.16,816.698z"/>
	<path style="fill:#060603;" d="M2437.696,915.239c-6.664-5.185-16.426-5.03-24.077-2.459
		c-19.597,6.583-90.361,162.704-90.219,187.62c0.259,45.448,29.578,16.613,44.417-5.979c17.544-26.712,68.5-132.165,73.976-160.939
		C2443.356,925.262,2446.736,921.673,2437.696,915.239z"/>
</g>
</svg>
