<?xml version="1.0" encoding="iso-8859-1"?>
<!-- Generator: Adobe Illustrator 29.2.1, SVG Export Plug-In . SVG Version: 9.03 Build 55982)  -->
<svg version="1.1" id="Layer_1" xmlns="http://www.w3.org/2000/svg" xmlns:xlink="http://www.w3.org/1999/xlink" x="0px" y="0px"
	 viewBox="0 0 2877.361 2200" style="enable-background:new 0 0 2877.361 2200;" xml:space="preserve">
<g>
	<path style="fill:#050708;" d="M2276.793,1572.771c-66.283,86.264-148.099,115.024-244.543,52.401
		c-51.224-33.261-110.661-94.701-128.009-154.253c-3.16-10.848,0.752-32.346-14.099-36.933
		c-41.546-12.83-19.731,54.221-11.849,73.083c17.537,41.967,50.428,73.88,78.835,108.109
		c-104.564,92.622-227.467,39.007-288.383-71.999c-7.818-14.246-29.088-75.404-32.159-78.317
		c-6.513-6.177-23.569-5.117-28.063,2.452c-12.811,21.577,28.823,97.084,42.437,117.455c9.954,14.894,29.237,32.368,36.007,45.61
		c24.715,48.344,20.835,136.536-15.583,178.667c-13.149,15.212-33.045,15.938-30.813,37.583c2.744,26.621,29.658,11.62,42.712,1.523
		c48.172-37.262,63.519-119.445,52.81-176.744c20.285,7.093,39.211,18.151,60.505,22.779c62.344,13.55,129.756-2.121,177.736-44.744
		c3.807-3.382,6.653-12.134,8.486-12.275c7.012-0.542,79.205,55.916,99.968,51.4c-12.278,176.107-131.516,327.492-305.871,365.441
		c-174.407,37.96-331.441-44.407-347.07-231.122l0.216-1173.364c2.452-27.406,17.185-66.319,44.131-78.296
		c16.825-7.479,51.075-0.213,51.29-23.692c0.281-30.731-46.83-18.23-64.875-10.298c-13.259,5.828-20.91,17.85-33.983,22.095
		c1.136-141.043-25.499-344.564,138.525-407.26c142.087-54.311,314.412,36.04,380.224,165.671
		c5.904,11.629,25.309,71.307,28.692,73.32c12.191,7.255,44.747-4.202,59.615-5.08c79.404-4.692,178.396,45.013,220.729,112.432
		c7.11,11.323,40.114,80.904,32.6,88.127c-1.564,1.504-34.828-4.488-30.089,21.262c4.427,24.055,33.41,2.95,36.902,21.277
		c5.391,26.172-19.127,95.032-12.995,114.947c2.418,7.855,48.239,25.668,59.454,32.395
		c124.169,74.483,171.96,239.916,125.113,374.515c-7.552,21.697-43.497,94.414-60.83,105.807
		c-20.203,13.278-170.893-6.566-184.767,7.366c-7.377,7.409-3.831,29.799,4.284,29.799h141.131
		c-4.723,7.486-14.78,7.951-16.364,19.417c10.501,76.812-7.399,155.161-44.849,222.035c15.36-0.104,31.21-3.35,44.21-3.401
		c23.336-51.025,36.222-105.547,40.776-161.568c0.948-11.666-2.781-41.82,1.75-49.262c1.132-1.86,31.27-26.613,34.067-27.147
		l186.28-0.763c18.571-5.469,4.694-33.32-2.715-33.32h-158.135c127.508-179.12,73.935-444.285-131.021-537.128
		c-2.858-4.895,8.594-35.297,8.594-42.699v-54.412c0-3.725,8.306-4.873,11.729-5.274c59.173-6.943,132.891,7.073,192.315,0.173
		c24.26-2.817,21.727-27.356,5.006-30.51l-200.908,0.095c-4.472,0.641-5.538-1.116-8.142-3.593
		c-4.866-4.629-12.799-44.852-16.922-56.194c-22.617-62.214-67.776-111.652-125.839-142.82
		c-55.148-29.604-125.581-46.582-187.084-32.214c-65.94-254.812-477.268-376.815-586.64-88.459
		c-51.696-140.543-161.986-194.886-306.142-149.675c-110.903,34.782-219.491,124.034-256.54,236.568
		c-157.34,8.092-306.179,118.011-343.958,273.268c-22.789,4.103-137.866-6.036-148.475,4.545
		c-7.781,7.761-1.646,29.797,4.269,29.797h134.329c1.793,11.039-3.154,21.415-3.54,32.167c-1.246,34.67,1.567,69.372,1.883,103.912
		c-84.79,40.045-149.761,116.048-182.54,203.423c-25.041,4.783-161.195-6.132-172.064,4.782c-7.378,7.408-3.83,29.799,4.284,29.799
		H297.56c-40.842,165.861-3.41,337.463,134.422,445.405c11.075,8.673,65.808,40.852,67.9,44.325
		c4.2,6.974,0.937,28.197,2.161,38.648c1.717,14.651,13.905,58.646,13.165,66.753c-0.663,7.256-121.656,1.502-134.336,3.396
		c-12.371,2.232-16.757,23.255-5.088,28.918c16.784,8.146,116.083-1.795,144.833,1.505c4.143,0.476,5.677-0.744,8.193,3.588
		c7.722,13.294,12.721,29.376,22.399,43.915c49.533,74.408,139.437,111.054,226.072,120.804
		c41.79,179.395,251.839,289.148,426.166,263.363c103.995-15.381,174.995-81.822,207.84-179.812
		c76.237,189.846,290.614,222.874,463.118,143.415c142.333-65.561,229.239-207.051,244.026-361.307
		c3.385-5.024,35.858-3.093,46.312-4.699c60.377-9.279,127-68.857,156.26-120.901
		C2307.57,1572.743,2290.621,1572.871,2276.793,1572.771z M1392.742,1809.265c-12.127,202.574-146.333,290.3-340.952,238.646
		c-105.328-27.955-192.139-94.388-230.63-197.864c-4.974-13.373-6.274-39.715-16.919-47.695
		c-7.214-5.407-59.694-12.114-75.522-16.298c-37.364-9.878-76.354-25.426-106.288-50.147c-9.309-7.688-61.598-62.205-52.793-71.299
		c17.88,4.521,99.948,12.449,82.589-22.949c-9.918-20.224-78.214-7.196-99.284-11.41c-11.858-40.912-15.103-83.139-19.081-125.442
		c-27.602-20.564-58.049-36.111-84.875-57.956c-102.43-83.413-143.538-207.39-127.202-337.86
		c1.289-10.294,11.074-65.239,14.8-70.219c6.395-8.548,138.86,0.133,159.235-4.003c15.59-4.574,10.542-33.322-2.717-33.322H348.571
		c32.907-69.185,85.243-141.099,159.805-166.639c5.348,20.968,25.813,72.41,52.56,68.028c32.397-5.307-10.279-55.413-16.762-71.487
		c-21.857-54.197-19.969-113.21-11.963-169.977h134.329c12.753,0,12.756-34.007,0-34.007H542.414
		C577.511,496.553,707.8,398.898,841.667,392.735c1.296,3.668-3.388,7.423-3.388,8.479c0,17.221-1.61,37.802,0,54.412
		c1.557,16.061,15.884,71.469,25.62,83.197c8.623,10.387,21.857,9.674,29.026-1.394c8.305-12.823-4.574-27.467-7.991-40.039
		c-36.611-134.713,38.655-243.904,151.705-309.306c195.694-113.212,343.178-29.564,356.103,192.583V1809.265z"/>
	<path style="fill:#050708;" d="M382.677,1630.568c-0.124-0.159-0.238-0.356-0.366-0.499c0.073,0.193,0.147,0.384,0.262,0.499
		H382.677z"/>
	<path style="fill:#050708;" d="M382.517,1669.345c0.642-0.362,1.276-0.805,1.9-1.336l-1.822,0
		C382.384,1668.201,382.371,1668.659,382.517,1669.345z"/>
	<path style="fill:#6C6631;" d="M2491.083,1486.01c-55.795-46.21-59.669,5.274-37.465,49.332
		c-31.263-0.068-62.597,0.056-93.904,0.26c-6.135,0.04-10.901-3.643-11.505-3.641c-6.536,10.683-36.729,13.814-44.21,3.401
		c-33.923,0.229-78.336-3.728-110.584-0.06c-25.584,2.91-23.641,29.22-9.458,33.383c15.319,4.497,64.645,0.356,84.573,0.58
		c4.35,0.049,7.816,3.502,8.264,3.506c7.525-10.346,36.852-10.526,44.209,0c2.324,0.005,8.76-3.549,15.067-3.537
		c40.316,0.076,80.672,0.212,120.946,0.155c3.309,2.996-29.148,54.476-12.072,71.583c10.534,10.553,23.182,7.525,34.197-0.19
		c8.245-5.775,66.105-60.811,71.174-68.228c8.528-12.478,10.915-16.093,1.916-28.68
		C2542.884,1530.803,2505.076,1497.6,2491.083,1486.01z"/>
	<path style="fill:#6C6631;" d="M2348.209,1531.962c-13,0.05-28.849,3.297-44.21,3.401
		C2311.479,1545.776,2341.673,1542.645,2348.209,1531.962z"/>
	<path style="fill:#6C6631;" d="M2276.793,1572.771c13.827,0.101,30.777-0.027,44.209,0
		C2313.646,1562.245,2284.319,1562.425,2276.793,1572.771z"/>
	<path style="fill:#6B6630;" d="M515.208,1630.583l-132.531-0.016c0.373,0.477,0.744,0.963,1.081,1.584
		C427.645,1633.232,471.461,1632.709,515.208,1630.583z"/>
	<path style="fill:#6B6630;" d="M362.204,1650.396c-0.246-11.647,12.761-28.575,20.107-20.327
		c-3.021-7.949,28.727-79.946-21.644-70.782c-7.379,1.343-95.438,67.201-104.039,76.278c-29.885,31.533,14.176,49.246,37.815,64.45
		c16.31,10.49,66.598,43.203,83.07,43.156c46.161-0.132,7.202-63.435,5.003-73.825
		C373.214,1674.586,362.465,1662.744,362.204,1650.396z"/>
	<path style="fill:#6B6630;" d="M385.899,1666.612c-0.484,0.539-0.982,0.973-1.482,1.397l144.394-0.018
		C481.556,1666.069,433.919,1665.61,385.899,1666.612z"/>
	<path style="fill:#6B6630;" d="M520.617,1664.403c-28.75-3.3-128.05,6.64-144.833-1.505c-11.669-5.663-7.283-26.686,5.088-28.918
		c12.679-1.894,133.673,3.86,134.336-3.396c-43.746,2.126-87.563,2.649-131.45,1.569c-0.337-0.621-0.708-1.108-1.081-1.584h-0.104
		c-0.116-0.115-0.189-0.307-0.262-0.499c-7.346-8.247-20.353,8.681-20.107,20.327c0.261,12.349,11.01,24.19,20.312,18.95
		c-0.145-0.687-0.132-1.145,0.079-1.336l1.822,0c0.5-0.425,0.998-0.859,1.482-1.397c48.02-1.002,95.657-0.543,142.912,1.38
		C526.294,1663.66,524.761,1664.879,520.617,1664.403z"/>
	<path style="fill:#6D6630;" d="M2530.644,588.296c8.501-13.837,28.938,4.935,25.445,20.521
		c-2.543,11.351-17.974,24.359-24.24,11.745c-10.302,50.489-17.17,104.605,48.681,60.584c17.374-11.614,66.152-46.998,78.829-60.603
		c8.045-8.634,11.86-19.335,6.745-30.518c-4.638-10.141-110.083-76.972-122.68-78.262c-51.083-5.232-7.081,70.522-11.587,74.775
		l-204.033,0.018C2395.109,588.692,2462.723,589.273,2530.644,588.296z"/>
	<path style="fill:#6D6630;" d="M2335.947,590.148l200.908-0.095c16.721,3.154,19.254,27.693-5.006,30.51
		c6.266,12.615,21.697-0.394,24.24-11.745c3.492-15.586-16.945-34.359-25.445-20.521c-67.922,0.977-135.535,0.396-202.84-1.742
		C2330.408,589.032,2331.475,590.788,2335.947,590.148z"/>
	<path style="fill:#6B6531;" d="M192.137,845.011h175.138c13.003,0,25.552-29.715,3.305-33.911
		c-46.437-1.205-93.044,1.194-139.467,0.066c-13.234-0.321-25.338-5.001-38.961-0.182c-0.953-17.965,24.942-43.953,5.334-58.035
		c-6.813-4.893-14.96-4.09-22.545-1.635c-6.064,1.963-62.313,56.904-67.823,64.788c-6.799,9.729-10.132,16.228-3.579,27.399
		c4.939,8.418,65.199,64.7,73.454,66.157C224.242,918.002,189.123,847.856,192.137,845.011z"/>
	<path style="fill:#060808;" d="M2683.021,1266.675c-4.096-0.709-8.759-0.512-12.744,0.688
		c-10.479,3.155-11.623,17.824-7.467,26.541l72.824,63.399c-13.5,22.848-67.76,56.055-76.202,79.615
		c-7.409,20.677,13.318,29.504,32.32,15.192c8.721-6.569,78.071-75.142,81.726-81.492c4.662-8.1,5.648-19.979,0.061-27.647
		C2754.753,1333.884,2696.716,1269.046,2683.021,1266.675z"/>
	<path style="fill:#040606;" d="M345.267,731.135c11.861,5.67,26.391-4.399,25.744-17.134c-0.47-9.265-52.326-54.386-63.174-64.735
		c-2.88-2.747-6.185-4.713-10.256-4.962l0.104-4.88c9.33-16.846,65.157-65.711,63.757-81.253
		c-1.426-15.824-21.17-20.944-31.635-9.076l-69.823,79.77c-5.413,7.759-5.282,19.161,1.679,25.909L345.267,731.135z"/>
	<path style="fill:#080A0A;" d="M2621.977,1358.517l-196.693,0.567c-12.696,8.873-11.858,23.733,1.221,31.668l191.994,1.71
		C2635.279,1389.234,2639.322,1361.761,2621.977,1358.517z"/>
	<path style="fill:#BCADCB;" d="M1036.639,188.084c-113.05,65.401-188.317,174.593-151.705,309.306
		c3.417,12.571,16.296,27.215,7.991,40.039c-7.169,11.069-20.403,11.781-29.026,1.394c-9.736-11.728-24.063-67.136-25.62-83.197
		c-1.61-16.609,0-37.191,0-54.412c0-1.056,4.685-4.811,3.388-8.479C707.8,398.898,577.511,496.553,542.414,627.364h124.127
		c12.756,0,12.753,34.007,0,34.007H532.211c-8.006,56.767-9.894,115.78,11.963,169.977c6.482,16.074,49.159,66.18,16.762,71.487
		c-26.747,4.381-47.212-47.061-52.56-68.028c-74.561,25.54-126.898,97.454-159.805,166.639h144.532
		c13.259,0,18.307,28.748,2.717,33.322c-20.375,4.136-152.839-4.545-159.235,4.003c-3.726,4.979-13.511,59.925-14.8,70.219
		c-16.336,130.47,24.772,254.446,127.202,337.86c26.825,21.845,57.273,37.392,84.875,57.956
		c3.978,42.303,7.223,84.53,19.081,125.442c21.07,4.214,89.367-8.814,99.284,11.41c17.359,35.399-64.709,27.47-82.589,22.949
		c-8.804,9.093,43.485,63.611,52.793,71.299c29.933,24.721,68.924,40.269,106.288,50.147c15.828,4.184,68.308,10.891,75.522,16.298
		c10.646,7.98,11.945,34.322,16.919,47.695c38.491,103.476,125.301,169.909,230.63,197.864
		c194.619,51.654,328.825-36.072,340.952-238.646V380.668C1379.817,158.52,1232.333,74.873,1036.639,188.084z M744.462,668.025
		c4.792-15.115,39.35-43.102,53.318-52.253c60.139-39.399,129.46-49.602,198.688-29.272c20.826,6.116,38.975,17.404,59.457,23.826
		c-27.318-85.875-5.426-199.656,71.65-253.088c10.657-7.388,41.256-24.469,53.075-24.886c16.2-0.571,24.417,21.124,13.816,32.296
		c-2.904,3.061-34.16,15.152-44.387,21.894c-61.429,40.495-78.015,124.746-65.437,193.401
		c15.424,84.191,66.174,104.9,106.606,172.255c8.81,14.676,31.62,42.472,12.245,55.042c-24.986,16.211-33.566-20.865-44.108-36.781
		c-76.812-115.967-202.274-214.064-341.232-124.113c-13.179,8.531-44.284,43.237-50.322,45.042
		C753.278,695.737,739.64,683.235,744.462,668.025z M776.353,784.499c68.223-5.035,73.852,111.146,9.299,118.393
		C703.147,912.154,708.249,789.525,776.353,784.499z M515.866,1240.54c-26.212-41.009-40.223-104.592-23.565-151.477
		c4.821-13.568,8.935-17.817,23.877-15.496c22.75,3.533,6.519,39.007,5.701,55.247c-5.897,117.128,117.723,192.811,224.061,169.678
		c11.411-2.483,35.995-9.604,44.597-16.616c9.719-7.923,24.418-42.87,34.715-57.105c35.619-49.246,98.419-89.158,155.854-107.736
		c-37.63-27.036-64.52-65.195-71.717-111.872c-12.108,1.272-23.534-3.14-35.26-3.858c-41.337-2.528-101.02,6.558-138.913-0.686
		c-18.434-3.524-15.719-31.323,0.057-35.861c14.636-4.211,71.812-1.236,91.243-0.86c8.027,0.156,15.476,3.362,23.525,3.681
		c19.148,0.759,83.938-6.584,91.939,10.083c3.822,7.96,4.085,28.73,7.503,40.108c9.634,32.079,36.908,63.273,69.127,73.704
		c33.148,10.732,68.438-0.953,103.764,1.66c18.65,1.38,75.511,10.075,76.59,32.344c1.74,35.906-49.325,7.61-66.887,5.563
		c-161.025-18.766-388.688,125.837-286.443,306.847c4.32,7.648,13.522,11.726,15.77,21.704
		c5.998,26.622-17.869,34.088-34.735,14.267c-13.64-16.029-42.802-73.468-42.802-93.23v-52.712
		C687.331,1356.66,571.954,1328.292,515.866,1240.54z M1090.033,1387.264c-0.838,19.081-20.013,57.807-39.916,62.356
		c-80.393,18.376-77.621-120.542-12.006-124.317C1068.885,1323.533,1091.249,1359.578,1090.033,1387.264z M1253.618,1618.683
		c-26.13,3.02-75.135-64.944-80.349-90.104c-17.306,22.653-30.841,47.823-49.42,69.606c-30.579,35.854-59.279,42.646-69.744,93.492
		c-13.737,66.74,7.871,136.98,61.408,180.286c12.929,10.458,48.074,23.519,45.285,41.811c-7.224,47.381-84.376-27.463-96.411-41.696
		c-17.719-20.955-49.27-77.045-49.27-103.763c0-24.593-1.224-50.419,0-74.816c0.028-0.566,8.635-11.679-1.633-8.452
		c-9.525,2.993-20.617,10.801-33.193,14.435c-66.49,19.213-153.253,7.629-204.807-41.811c-11.683-11.204-20.905-30.723-1.68-39.096
		c12.394-5.399,51.399,29.957,67.786,37.605c124.285,58.007,244.025-44.92,299.937-149.14c12.79-23.84,19.596-53.696,30.835-74.59
		c6.374-11.848,15.341-17.025,27.733-8.936c15.595,10.181,1.245,40.114,2.077,59.047c1.188,27.041,12.794,57.915,30.515,78.386
		c7.544,8.715,32.641,25.116,34.263,27.783C1275.003,1601.971,1269.593,1616.837,1253.618,1618.683z"/>
	<path style="fill:#BDADCB;" d="M2340.505,1410.639c-1.283,1.427-2.734,2.297-4.199,2.297c-22.042,0-89.857,4.359-105.423,0
		c-9.982-2.796-14.616-27.158,1.528-32.478c10.07-3.318,88.614-3.144,98.96,0.007c6.282,1.913,9.933,5.606,11.803,9.823
		c2.656-26.306,2.469-52.951-0.682-79.451c1.08-4.109,3.188-7.454,6.204-10.125c-40.175,0-80.363,0-120.564,0l-4.049-6.802
		c-19.639,9.974-20.898-35.245-0.762-38.932c50.558-2.88,101.395-3.01,152.511-0.393c22.397,0.809,27.004-3.387,39.17-20.405
		c116.252-162.617,63.38-402.694-129.3-477.11c-13.812-6.579-13.752-19.266-11.928-32.619c8.399-32.838,12.483-64.958,12.252-96.363
		c-45.099,5.179-51.146-47.695-4.924-48.039c-28.054-127.787-164.919-211.576-292.265-179.873c-11.384,0.839-21-1.765-24.561-13.288
		c-39.177-158.478-224.981-286.07-387.453-231.774c-113.812,38.035-137.007,139.778-143.294,247.089
		c-0.498,8.506-5.246,149.459,0.753,145.324c21.523-14.838,52.147-35.105,80.605-24.531c26.158,9.719,22.111,44.009-5.172,48.567
		c-48.104-1.142-67.765,35.621-72.87,78.366l-0.213,1172.579c16.194,201.675,204.239,273.815,380.987,213.099
		c146.096-50.187,246.88-187.685,256.641-340.647c-31.197-13.174-61.011-29.422-89.442-48.744
		c-58.558,64.55-161.755,76.141-237.984,36.67c0.511,63.6-7.958,125.691-59.334,170.603c-48.03,41.986-79.155-17.036-27.151-43.351
		c51.967-54.083,47.637-166.696-10.831-215.763c-16.958-24.507-62.926-103.68-46.715-130.562
		c7.435-12.328,30.464-13.002,39.726-2.187c39.428,139.239,167.895,259.996,309.146,153.022
		c-34.44-21.066-116.747-141.18-88.257-180.18c21.75-29.775,52.584,10.258,48.445,38.12
		c57.481,139.758,237.603,260.49,352.256,105.32c-20.742,0.524-77.492-0.763-82.094-2.729c-19.525-8.341-20.123-30.318-3.035-42.261
		c13.787-9.636,96.016-6.271,117.069-4.372l7.942,6.817l-0.137-14.074C2322.171,1486.478,2334.408,1449.064,2340.505,1410.639z
		 M1550.97,1320.88c-21.058-31.46-5.42-88.455,34.651-94.246c21.412-3.095,42.096,8.928,52.549,27.45
		C1673.802,1317.224,1591.488,1381.411,1550.97,1320.88z M1673.396,770.42c-12.728,8.33-30.514,1.598-29.041-15.288
		c1.375-15.77,48.664-79.901,61.21-95.364c29.603-36.487,54.704-47.043,66.909-96.327c18.58-75.023,0.492-147.145-56.755-199.684
		c-13.777-12.644-60.679-36.053-60.361-50.342c0.943-42.337,62.479,3.907,75.514,14.784c69.533,58.018,97.53,146.085,80.037,234.534
		c1.646,1.843,38.66-19.702,44.248-22.032c59.98-25.007,124.189-24.352,184.478-0.952c11.313,4.391,50.717,23.607,55.194,33.239
		c5.985,12.874-3.531,27.547-16.963,27.509c-4.815-0.014-48.774-25.517-62.099-30.079
		c-133.833-45.826-239.484,51.809-311.689,152.476C1696.715,733.161,1681.416,765.171,1673.396,770.42z M2031.112,754.072
		c-12.199,80.602-126.198,70.316-111.178-26.167c2.956-18.987,30.965-46.017,49.96-48.777
		C2010.274,673.259,2036.679,717.291,2031.112,754.072z M1821.786,1479.942c-18.771,34.836-70.159,39.795-93.989,7.586
		c-25.611-34.616-8.646-83.891,34.613-90.81C1809.038,1389.259,1844.294,1438.17,1821.786,1479.942z M2173.071,1219.093
		c-20.364,0-40.868,0.555-61.213,0c-0.826-0.023-4.518-6.471-5.137-1.665c8.745,34.031,9.874,70.028,2.427,104.377
		c-3.078,14.196-13.562,54.196-33.081,48.948c-27.774-7.468-1.959-51.001,0.055-71.772
		c15.458-159.418-160.175-250.318-297.58-260.085c-20.534-1.46-49.558,3.329-67.978-0.04c-16.845-3.08-18.998-31.987,11.125-36.495
		c60.644-9.077,116.507,27.476,169.208-21.234c15.421-14.253,21.211-28.075,27.084-47.732c4.683-15.671,3.029-47.308,23.839-47.306
		c40.876,0.005,2.372,84.497-9.77,102.184c-10.684,15.563-20.792,20.415-32.521,32.093c-2.819,2.807-4.854,3.025-3.608,8.245
		c65.94,20.245,122.577,57.685,168.368,108.82c16.236,18.13,14.688,32.634,40.96,40.657c102.572,31.326,204.8-70.569,187.03-173.427
		c-3.228-18.683-36.264-58.962-9.716-67.201c23.701-7.356,35.244,24.609,40.874,42.845c27.822,90.129-27.116,190.98-112.345,225.796
		C2204.938,1208.617,2176.916,1219.093,2173.071,1219.093z"/>
	<path style="fill:#BDADCB;" d="M2264.118,1577.908c-114.653,155.171-294.775,34.439-352.256-105.32
		c4.139-27.862-26.695-67.896-48.445-38.12c-28.49,39.001,53.817,159.114,88.257,180.18
		c-141.251,106.974-269.718-13.783-309.146-153.022c-9.261-10.815-32.291-10.141-39.726,2.187
		c-16.211,26.882,29.757,106.055,46.715,130.562c58.468,49.067,62.798,161.679,10.831,215.763
		c-52.004,26.315-20.878,85.337,27.151,43.351c51.377-44.912,59.846-107.003,59.334-170.603
		c76.229,39.472,179.426,27.881,237.984-36.67c28.431,19.322,58.245,35.57,89.442,48.744
		c-9.761,152.962-110.546,290.46-256.641,340.647c-176.748,60.717-364.792-11.424-380.987-213.099l0.213-1172.579
		c5.104-42.745,24.766-79.508,72.87-78.366c27.283-4.557,31.329-38.847,5.172-48.567c-28.458-10.574-59.082,9.693-80.605,24.531
		c-5.999,4.135-1.251-136.818-0.753-145.324c6.287-107.312,29.482-209.055,143.294-247.089
		c162.472-54.296,348.276,73.296,387.453,231.774c3.561,11.523,13.176,14.126,24.561,13.288
		c127.346-31.703,264.211,52.086,292.265,179.873c-46.221,0.344-40.175,53.218,4.924,48.039c0.23,31.404-3.854,63.525-12.252,96.363
		c-1.824,13.353-1.885,26.04,11.928,32.619c192.679,74.416,245.552,314.493,129.3,477.11c-12.166,17.018-16.773,21.214-39.17,20.405
		c-51.116-2.617-101.953-2.486-152.511,0.393c-20.136,3.687-18.877,48.907,0.762,38.932c-8.115,0-11.662-22.39-4.284-29.799
		c13.874-13.932,164.564,5.912,184.767-7.366c17.333-11.393,53.278-84.109,60.83-105.807
		c46.847-134.599-0.944-300.033-125.113-374.515c-11.215-6.727-57.036-24.54-59.454-32.395
		c-6.131-19.915,18.386-88.776,12.995-114.947c-3.492-18.326-32.475,2.778-36.902-21.277c-4.739-25.75,28.525-19.758,30.089-21.262
		c7.513-7.223-25.49-76.804-32.6-88.127c-42.333-67.419-141.326-117.124-220.729-112.432c-14.868,0.879-47.423,12.335-59.615,5.08
		c-3.383-2.013-22.788-61.691-28.692-73.32c-65.812-129.632-238.137-219.982-380.224-165.671
		c-164.023,62.696-137.388,266.217-138.525,407.26c13.073-4.244,20.724-16.267,33.983-22.095
		c18.045-7.932,65.156-20.432,64.875,10.298c-0.215,23.479-34.464,16.214-51.29,23.692c-26.946,11.977-41.679,50.89-44.131,78.296
		l-0.216,1173.364c15.629,186.715,172.663,269.082,347.07,231.122c174.356-37.949,293.593-189.334,305.871-365.441
		c-20.763,4.516-92.955-51.942-99.968-51.4c-1.833,0.142-4.679,8.893-8.486,12.275c-47.98,42.623-115.391,58.294-177.736,44.744
		c-21.294-4.628-40.22-15.686-60.505-22.779c10.708,57.299-4.638,139.483-52.81,176.744c-13.054,10.097-39.968,25.099-42.712-1.523
		c-2.231-21.644,17.664-22.371,30.813-37.583c36.418-42.131,40.298-130.323,15.583-178.667c-6.77-13.243-26.054-30.717-36.007-45.61
		c-13.615-20.371-55.248-95.878-42.437-117.455c4.494-7.569,21.55-8.629,28.063-2.452c3.072,2.913,24.342,64.071,32.159,78.317
		c60.916,111.006,183.819,164.621,288.383,71.999c-28.407-34.229-61.297-66.142-78.835-108.109
		c-7.882-18.862-29.697-85.913,11.849-73.083c14.852,4.586,10.94,26.084,14.099,36.933
		c17.348,59.552,76.785,120.992,128.009,154.253c96.444,62.623,178.26,33.863,244.543-52.401l-5.305,4.624
		C2270.804,1577.639,2268.121,1577.807,2264.118,1577.908z"/>
	<path style="fill:#BDADCB;" d="M2350.19,1300.711l15.022-6.802c-7.148,1.047-12.614,3.344-16.518,6.802
		C2349.194,1300.711,2349.692,1300.711,2350.19,1300.711z"/>
	<path style="fill:#BDADCB;" d="M2348.695,1300.711c3.904-3.457,9.37-5.754,16.518-6.802h-141.131l4.049,6.802
		C2268.332,1300.711,2308.52,1300.711,2348.695,1300.711z"/>
	<path style="fill:#BDADCB;" d="M2348.848,1313.327c1.584-11.467,11.641-11.932,16.364-19.417l-15.022,6.802
		c-0.498,0-0.997,0-1.495,0c-3.016,2.671-5.124,6.016-6.204,10.125c3.151,26.5,3.338,53.145,0.682,79.451
		c3.247,7.325,1.034,16.234-2.668,20.352c-6.097,38.425-18.334,75.839-36.643,110.649l0.137,14.074
		C2341.449,1468.488,2359.349,1390.14,2348.848,1313.327z"/>
	<path style="fill:#BDADCB;" d="M2178.989,1532.917c-17.088,11.943-16.49,33.92,3.035,42.261c4.602,1.966,61.352,3.254,82.094,2.729
		c0.378-0.512,0.765-0.994,1.142-1.513l11.534-3.624c-0.449-0.003-3.914-3.457-8.264-3.506c-19.928-0.224-69.253,3.917-84.573-0.58
		c-14.183-4.163-16.125-30.473,9.458-33.383c32.249-3.668,76.661,0.289,110.584,0.06l-7.942-6.817
		C2275.005,1526.646,2192.776,1523.281,2178.989,1532.917z"/>
	<path style="fill:#BDADCB;" d="M2264.118,1577.908c4.003-0.101,6.686-0.269,7.371-0.513l5.305-4.624l-11.534,3.624
		C2264.883,1576.913,2264.496,1577.395,2264.118,1577.908z"/>
	<path style="fill:#060808;" d="M783.866,1380.629c0,19.762,29.162,77.201,42.802,93.23c16.866,19.821,40.734,12.355,34.735-14.267
		c-2.248-9.979-11.45-14.056-15.77-21.704c-102.246-181.01,125.417-325.613,286.443-306.847
		c17.562,2.047,68.628,30.342,66.887-5.563c-1.079-22.269-57.94-30.965-76.59-32.344c-35.326-2.613-70.615,9.072-103.764-1.66
		c-32.219-10.431-59.493-41.625-69.127-73.704c-3.417-11.378-3.681-32.148-7.503-40.108c-8.002-16.667-72.791-9.324-91.939-10.083
		c-8.049-0.319-15.497-3.526-23.525-3.681c-19.43-0.376-76.607-3.351-91.243,0.86c-15.777,4.539-18.491,32.337-0.057,35.861
		c37.892,7.245,97.575-1.842,138.913,0.686c11.726,0.717,23.152,5.13,35.26,3.858c7.198,46.678,34.087,84.836,71.717,111.872
		c-57.436,18.578-120.236,58.49-155.854,107.736c-10.296,14.235-24.996,49.182-34.715,57.105
		c-8.602,7.012-33.185,14.134-44.597,16.616c-106.338,23.132-229.958-52.55-224.061-169.678
		c0.818-16.241,17.049-51.714-5.701-55.247c-14.942-2.321-19.056,1.928-23.877,15.496c-16.659,46.885-2.647,110.469,23.565,151.477
		c56.088,87.752,171.466,116.12,268.001,87.377V1380.629z"/>
	<path style="fill:#050809;" d="M1232.687,1560.946c-17.721-20.471-29.327-51.345-30.515-78.386
		c-0.832-18.934,13.518-48.867-2.077-59.047c-12.392-8.089-21.359-2.913-27.733,8.936c-11.239,20.894-18.045,50.75-30.835,74.59
		c-55.911,104.22-175.652,207.146-299.937,149.14c-16.387-7.648-55.392-43.004-67.786-37.605
		c-19.225,8.374-10.003,27.892,1.68,39.096c51.554,49.44,138.317,61.024,204.807,41.811c12.576-3.634,23.668-11.442,33.193-14.435
		c10.269-3.227,1.661,7.886,1.633,8.452c-1.224,24.398,0,50.223,0,74.816c0,26.719,31.551,82.808,49.27,103.763
		c12.035,14.233,89.187,89.077,96.411,41.696c2.789-18.291-32.356-31.352-45.285-41.811
		c-53.537-43.306-75.145-113.547-61.408-180.286c10.465-50.846,39.165-57.638,69.744-93.492
		c18.579-21.784,32.114-46.953,49.42-69.606c5.214,25.16,54.219,93.124,80.349,90.104c15.975-1.846,21.385-16.711,13.332-29.954
		C1265.328,1586.062,1240.231,1569.661,1232.687,1560.946z"/>
	<path style="fill:#050708;" d="M767.83,691.388c6.038-1.804,37.143-36.511,50.322-45.042
		c138.958-89.951,264.42,8.146,341.232,124.113c10.542,15.916,19.123,52.992,44.108,36.781c19.375-12.57-3.435-40.366-12.245-55.042
		c-40.432-67.355-91.182-88.063-106.606-172.255c-12.578-68.656,4.008-152.907,65.437-193.401
		c10.227-6.742,41.483-18.833,44.387-21.894c10.601-11.173,2.384-32.868-13.816-32.296c-11.819,0.417-42.418,17.497-53.075,24.886
		c-77.075,53.433-98.967,167.214-71.65,253.088c-20.482-6.422-38.631-17.711-59.457-23.826
		c-69.228-20.329-138.549-10.127-198.688,29.272c-13.968,9.151-48.526,37.138-53.318,52.253
		C739.64,683.235,753.278,695.737,767.83,691.388z"/>
	<path style="fill:#F9C7A8;" d="M785.652,902.892c64.553-7.247,58.924-123.429-9.299-118.393
		C708.249,789.525,703.147,912.154,785.652,902.892z"/>
	<path style="fill:#6E6931;" d="M1038.11,1325.303c-65.615,3.775-68.386,142.693,12.006,124.317
		c19.904-4.55,39.078-43.275,39.916-62.356C1091.249,1359.578,1068.885,1323.533,1038.11,1325.303z"/>
	<path style="fill:#050708;" d="M2323.437,980.308c-5.629-18.236-17.173-50.202-40.874-42.845
		c-26.548,8.24,6.489,48.518,9.716,67.201c17.77,102.859-84.458,204.753-187.03,173.427c-26.273-8.024-24.725-22.527-40.96-40.657
		c-45.791-51.136-102.427-88.575-168.368-108.82c-1.246-5.221,0.789-5.438,3.608-8.245c11.728-11.678,21.837-16.53,32.521-32.093
		c12.142-17.687,50.646-102.178,9.77-102.184c-20.81-0.002-19.156,31.635-23.839,47.306c-5.874,19.657-11.664,33.479-27.084,47.732
		c-52.701,48.71-108.564,12.157-169.208,21.234c-30.124,4.509-27.97,33.415-11.125,36.495c18.419,3.368,47.443-1.42,67.978,0.04
		c137.405,9.766,313.038,100.666,297.58,260.085c-2.014,20.771-27.83,64.304-0.055,71.772c19.519,5.248,30.003-34.752,33.081-48.948
		c7.448-34.349,6.319-70.346-2.427-104.377c0.62-4.807,4.311,1.642,5.137,1.665c20.346,0.555,40.849,0,61.213,0
		c3.845,0,31.868-10.477,38.021-12.99C2296.321,1171.288,2351.259,1070.436,2323.437,980.308z"/>
	<path style="fill:#060809;" d="M2015.768,570.419c13.325,4.562,57.284,30.065,62.099,30.079
		c13.433,0.038,22.948-14.635,16.963-27.509c-4.478-9.633-43.881-28.848-55.194-33.239c-60.29-23.4-124.499-24.056-184.478,0.952
		c-5.587,2.329-42.601,23.875-44.248,22.032c17.493-88.449-10.505-176.516-80.037-234.534
		c-13.035-10.877-74.571-57.121-75.514-14.784c-0.318,14.289,46.584,37.698,60.361,50.342
		c57.247,52.539,75.335,124.661,56.755,199.684c-12.205,49.283-37.306,59.84-66.909,96.327
		c-12.547,15.463-59.835,79.594-61.21,95.364c-1.473,16.886,16.313,23.618,29.041,15.288c8.021-5.249,23.32-37.258,30.683-47.524
		C1776.284,622.228,1881.935,524.594,2015.768,570.419z"/>
	<path style="fill:#F9C7A9;" d="M1969.894,679.127c-18.995,2.761-47.004,29.79-49.96,48.777
		c-15.02,96.484,98.979,106.769,111.178,26.167C2036.679,717.291,2010.274,673.259,1969.894,679.127z"/>
	<path style="fill:#FAC6A7;" d="M1762.41,1396.718c-43.258,6.919-60.224,56.195-34.613,90.81
		c23.83,32.209,75.218,27.25,93.989-7.586C1844.294,1438.17,1809.038,1389.259,1762.41,1396.718z"/>
	<path style="fill:#6D6830;" d="M1585.621,1226.633c-40.071,5.791-55.71,62.786-34.651,94.246
		c40.518,60.531,122.832-3.656,87.201-66.796C1627.718,1235.561,1607.033,1223.539,1585.621,1226.633z"/>
	<path style="fill:#FAC7A8;" d="M2331.371,1380.464c-10.346-3.15-88.89-3.325-98.96-0.007c-16.144,5.32-11.509,29.682-1.528,32.478
		c15.566,4.359,83.381,0,105.423,0c1.464,0,2.916-0.87,4.199-2.297c1.072-6.758,1.981-13.541,2.668-20.352
		C2341.304,1386.07,2337.653,1382.377,2331.371,1380.464z"/>
	<path style="fill:#FAC7A8;" d="M2343.174,1390.287c-0.688,6.812-1.596,13.595-2.668,20.352
		C2344.208,1406.521,2346.421,1397.611,2343.174,1390.287z"/>
</g>
</svg>
