<?xml version="1.0" encoding="iso-8859-1"?>
<!-- Generator: Adobe Illustrator 29.2.1, SVG Export Plug-In . SVG Version: 9.03 Build 55982)  -->
<svg version="1.1" id="Layer_1" xmlns="http://www.w3.org/2000/svg" xmlns:xlink="http://www.w3.org/1999/xlink" x="0px" y="0px"
	 viewBox="0 0 2200 3783.014" style="enable-background:new 0 0 2200 3783.014;" xml:space="preserve">
<g>
	<path style="fill:#F7EFE2;" d="M1280.208,2785.673c-24.434-4.593-67.398-3.332-87.528-12.367
		c-13.479-6.05-20.969-55.631-22.019-70.075c-1.345-18.523-2.622-74.803,2.032-90.114c6.064-19.953,47.564-31.173,66.172-42.344
		c204.034-122.48,178.028-566.71-76.377-623.148c-356.663-79.123-521.973,398.97-273.262,602.981
		c15.79,12.952,62.062,35.556,67.637,49.225c8.276,20.293,7.809,115.433,5.44,140.961c-4.502,48.516-32.632,37.032-70.352,46.511
		c-104.057,26.148-198.301,67.8-282.37,134.996c-206.506,165.059-264.638,454.545-331.92,696.887
		c10.511,0.247,14.01,10.028,22.087,13.405c61.671,25.781,223.819,32.459,297.042,36.884c10.443,0.631,22.094,0.964,31.458-4.378
		c9.654-56.242,27.929-283.858,64.644-317.224c7.037-6.395,19.458-6.846,22.549,2.773c3.513,10.93-20.55,103.75-23.93,125.208
		c-10.077,63.971-13.958,129.15-21.527,193.416c5.74,4.923,10.717,7.801,18.569,8.538c141.118,13.249,292.779-2.762,434.101-4.536
		c125.516-1.576,250.871,2.76,375.844-3.959c25.962-1.396,54.69,5.799,77.17-8.39c3.964-103.721-30.751-213.871-33.558-315.324
		c-0.267-9.637,5.006-28.174,15.379-30.336c19.283-4.019,22.372,38.817,25.208,52.736c11.158,54.754,19.661,118.75,25.842,174.493
		c3.115,28.095,13.332,94.532,8.866,118.43c59.24-0.838,127.111,7.634,175.294-33.389
		c-32.42-156.219-56.739-314.608-113.743-464.309C1602.513,2962.469,1501.447,2827.256,1280.208,2785.673z"/>
	<path style="fill:#010101;" d="M1128.227,102.017c-354.547,20.162-712.97,202.99-906.559,504.138
		C5.817,941.937,80.69,1231.612,418.28,1431.387c188.928,111.802,535.808,191.282,748.354,128.082
		c15.62-4.645,46.769-21.923,56.737-22.881c15.94-1.532,54.791,10.549,74.782,12.43c406.758,38.284,736.789-249.44,793.764-646.085
		C2173.979,331.637,1615.52,74.306,1128.227,102.017z M356.961,1340.368c-103.092-77.959-190.551-175.13-211.703-307.918
		c-13.339-83.736,4.978-163.049,28.109-242.98c7.143-1.057,4.456,9.93,4.087,14.507c-0.672,8.325-3.963,16.07-4.305,24.946
		c-6.478,168.069,60.259,392.654,187.986,507.272c6.935,6.223,16.97,11.377,20.867,20.827
		C371.69,1356.849,364.64,1346.175,356.961,1340.368z M1913.736,1236.026c-6.01,8.634-10.799,20.262-20.827,25.041
		c0.325-11.12,12.17-20.313,16.654-29.214c26.884-53.373,54.286-131.23,62.116-190.39c33.76-255.071-167.838-533.495-372.31-665.953
		l-77.932-32.606c177.81,17.793,342.584,105.96,459.191,239.834c51.569,59.206,74.229,99.529,79.148,179.619
		C2069.608,922.468,2004.358,1105.846,1913.736,1236.026z M1988.972,557.697c-109.075-115.712-237.637-196.815-395.841-226.034
		c-287.742-53.144-788.073,9.39-1002.445,228.231c-147.145,150.212-117.626,307.445,4.349,461.014
		c107.617,135.491,236.692,187.124,410.863,173.315c104.812-8.31,330.693-122.604,397.825-203.178c1.56-1.872,12.452-12.96,5-13.785
		c-19.671,16.467-85.055,57.393-108.515,66.779c-73.042,45.114-165.181,102.487-250.272,119.097
		c-227.981,44.503-418.861-66.91-510.06-274.884C419.599,613.965,751.208,447.281,965.415,389.96
		c293.931-78.654,575.671-99.608,787.706,148.994c206.343,241.928,279.418,484.852,84.717,765.165
		c-107.557,154.851-308.227,209.313-489.693,207.441c-7.049-0.073-18.553,2.667-22.895-4.246
		c-34.612,1.708-77.245-15.149-102.337-12.918c-12.764,1.135-15.064,9.7-24.719,13.158c-41.067,14.709-94.273,26.51-137.792,29.15
		c-6.685,0.405-28.582,3.119-31.457-4.302c73.127-18.578,145.458-50.748,211.459-86.979c39.534-21.701,82.475-57.001,120.839-75.323
		c37.788-18.048,85.306-27.509,125.417-45.703c69.123-31.353,172.378-100.726,203.957-171.672
		c6.723-15.104,22.829-75.692-8.444-66.943c-10.739,3.004-1.586,24.029-2.935,34.338c-10.01,76.532-180.489,186.834-253.819,203.512
		c130.338-112.86,279.68-271.276,232.522-459.948c-30.049-120.221-139.37-221.062-245.045-278.75
		c-201.671-110.091-512.911-63.589-635.102,143.286c-68.138,115.361-19.408,221.737,96.699,274.08
		c126.628,57.086,365.942,56.637,463.151-56.469c95.905-111.588-40.893-233.075-156.168-231.668
		c-43.711,0.533-158.802,29.889-138.141,92.197c3.77,11.37,13.354,15.868,24.728,11.862c5.571-1.962,8.036-29.278,32.083-43.11
		c68.081-39.163,166.129-17.927,212.575,45.64c32.845,44.951,15.483,82.52-22.851,114.869
		c-164.778,139.051-649.564,40.312-461.204-210.784c93.393-124.499,246.419-168.191,398.447-156.544
		c127.66,9.781,278.74,107.276,348.554,212.804c82.08,124.068,58.219,230.131-20.868,346.414
		c-32.721,48.11-65.635,82.208-108.515,121.036c-49.084,44.447-102.597,85.619-158.599,121.036
		c-135.891,85.941-233.986,115.95-389.102,151.385c-9.586,2.19-19.968,10.637-25.964,10.923
		c-30.044,1.432-103.816-14.907-136.634-21.714c-104.245-21.622-191.158-54.309-283.033-107.205
		c-12.149-6.995-29.274-12.036-37.561-25.001c15.287,0.859,29.537,15.367,41.735,20.828
		c238.988,106.987,583.413,77.667,813.864-41.737c25.852-13.395,59.202-35.236,84.021-51.623
		c16.178-10.682,71.955-58.187,82.926-61.066v-8.347c-6.858-4.837-13.113-4.897-20.964-2.426
		c-17.844,5.616-63.131,45.327-83.729,58.419c-61.062,38.809-135.015,76.635-204.158,98.433
		c-212.739,67.068-501.233,83.058-699.804-32.673c-195.782-114.106-295.272-500.797-192.633-699.078
		c12.774-24.678,33.165-47.158,49.358-69.592C439.816,376.017,650.2,245.806,903.71,180.09
		c205.567-53.288,409.237-54.638,614.428,1.187c210.381,57.237,437.098,197.6,504.073,416.156L1988.972,557.697z"/>
	<path style="fill:#020202;" d="M1284.388,2743.93c-15.504-2.709-50.734-2.535-60.878-5.901
		c-16.027-5.317-11.425-90.759-9.035-108.173c174.925-70.669,215.625-255.982,194.186-427.564
		c-26.429-211.505-180.173-340.649-396.583-296.54c-328.177,66.889-382.731,564.179-92.349,712.416
		c3.116,4.994,2.278,111.227,0.109,117.723c-1.12,3.354-2.762,5.469-6.382,6.139c-216.968,37.26-407.095,172.559-508.584,367.885
		c-79.454,152.919-121.911,324.988-163.55,491.346c5.869,31.682,20.195,17.546,36.34,17.926c-1.274-3.335-2.393-6.697-2.967-10.149
		c-0.556-3.343-1.01-6.554-0.292-9.444c52.414-210.691,120.223-473.506,274.057-632.677
		c108.24-111.996,248.464-170.039,395.754-200.179c19.417-16.196,10.507-135.469,5.1-163.485l-13.784-12.572
		c-317.656-169.875-169.134-718.979,208.223-655.198c232.122,39.233,289.785,346.068,198.467,530.474
		c-38.183,77.107-88.3,107.218-157.866,143.684c-14.086,18.873-6.417,138.238,11.435,155.943
		c118.417,13.997,227.795,37.98,322.755,122.88c176.182,157.516,236.725,487.492,276.85,710.615
		c0.804,4.469,0.451,9.167-0.002,13.951c-0.462,4.876-1.496,9.698-2.693,14.505c11.71,18.805,39.512,8.056,37.639-14.487
		C1763.449,3266.505,1701.083,2816.73,1284.388,2743.93z"/>
	<path style="fill:#020202;" d="M1795.395,3599.079c-40.126-223.124-100.669-553.099-276.85-710.615
		c-94.96-84.9-204.338-108.883-322.755-122.88c-17.852-17.705-25.521-137.07-11.435-155.943
		c69.566-36.466,119.682-66.577,157.866-143.684c91.317-184.406,33.655-491.241-198.467-530.474
		c-377.357-63.781-525.88,485.323-208.223,655.198l13.784,12.572c5.406,28.016,14.316,147.29-5.1,163.485
		c-147.29,30.14-287.514,88.183-395.754,200.179c-153.834,159.172-221.643,421.986-274.057,632.677
		c-0.719,2.89-0.264,6.102,0.292,9.444c0.574,3.452,1.693,6.814,2.967,10.149c67.282-242.343,125.414-531.829,331.92-696.887
		c84.069-67.196,178.314-108.847,282.37-134.996c37.72-9.479,65.849,2.005,70.352-46.511c2.369-25.528,2.837-120.668-5.44-140.961
		c-5.575-13.669-51.847-36.273-67.637-49.225c-248.711-204.011-83.401-682.104,273.262-602.981
		c254.405,56.438,280.411,500.668,76.377,623.148c-18.607,11.17-60.107,22.391-66.172,42.344
		c-4.654,15.31-3.377,71.591-2.032,90.114c1.049,14.444,8.54,64.025,22.019,70.075c20.13,9.035,63.094,7.774,87.528,12.367
		c221.239,41.583,322.304,176.797,398.749,377.552c57.003,149.701,81.323,308.091,113.743,464.309
		c1.197-4.807,2.231-9.629,2.693-14.505C1795.846,3608.245,1796.199,3603.548,1795.395,3599.079z"/>
	<path style="fill:#010101;" d="M1289.005,1836.246c9.689-2.985,9.868-16.185,18.25-19.294c17.043-6.321,49.946-9.155,71.359-16.288
		c40.797-13.59,117.071-49.347,125.088-96.093c14.364-83.758-79.409-110.294-145.924-104.215
		c-21.287,1.945-75.114,22.341-80.521,22.297c-4.403-0.036-10.445-6.041-16.901-6.59c-77.814-6.627-109.891,80.639-96.031,146.083
		C1173.234,1804.205,1248.304,1848.786,1289.005,1836.246z M1204.214,1703.477c3.77-14.094,16.978-39.556,33.368-41.717
		c-6.196,39.476,33.865,29.351,58.715,35.194c13.924,3.273,52.122,32.5,54.203,8.569c2.637-30.32-51.801-42.611-50.272-45.849
		c19.945-16.252,50.211-18.603,75.106-18.801c53.129-0.423,127.556,31.304,64.685,83.623c-3.655,3.041-8.688,2.798-10.427,4.024
		c-14.194,10.006-24.343,17.944-41.737,25.042c-30.493,12.443-74.719,15.78-100.258,27.042c-15.107,6.662-7.071,17.2-25.85,13.795
		C1215.852,1786.074,1192.267,1748.137,1204.214,1703.477z"/>
	<path style="fill:#020202;" d="M1569.326,3341.198c-8.125-34.704-20.381-11.076-18.589,12.082
		c4.942,63.863,15.07,126.761,25.36,189.985c4.495,33.529,8.543,67.35,8.234,101.241c-0.025,2.703-1.363,5.428-2.863,8.271
		c-1.541,2.922-3.596,5.572-5.798,8.146c4.202,26.148,37.008,25.304,41.737,0l-7.558-6.638
		C1603.27,3553.024,1592.76,3441.29,1569.326,3341.198z"/>
	<path style="fill:#020202;" d="M1608.54,3542.493c-6.181-55.743-14.684-119.739-25.842-174.493
		c-2.836-13.919-5.924-56.754-25.208-52.736c-10.373,2.161-15.645,20.698-15.379,30.336
		c2.807,101.453,37.522,211.603,33.558,315.324c2.202-2.573,4.257-5.224,5.798-8.146c1.5-2.844,2.838-5.569,2.863-8.271
		c0.309-33.891-3.739-67.713-8.234-101.241c-10.29-63.224-20.418-126.123-25.36-189.985c-1.792-23.158,10.464-46.785,18.589-12.082
		c23.434,100.092,33.944,211.826,40.522,313.087l7.558,6.638C1621.871,3637.025,1611.655,3570.588,1608.54,3542.493z"/>
	<path style="fill:#020302;" d="M664.369,3644.251c7.345-94.351,19.986-186.582,41.422-275.985
		c6.576-51.221-33.906,29.11-31.002,45.176c-16.222,82.513-28.753,165.396-37.591,248.648l-8.95,3.007
		c12.155,20.651,25.478,18.436,41.737,4.174c-1.671-4.156-3.186-8.347-4.154-12.66
		C664.887,3652.402,664.057,3648.272,664.369,3644.251z"/>
	<path style="fill:#020302;" d="M715.442,3350.646c-3.092-9.619-15.512-9.168-22.549-2.773
		c-36.716,33.367-54.99,260.982-64.644,317.224l8.95-3.007c8.838-83.252,21.368-166.135,37.591-248.648
		c-2.904-16.066,37.578-96.397,31.002-45.176c-21.436,89.404-34.077,181.634-41.422,275.985c-0.313,4.021,0.517,8.151,1.462,12.359
		c0.968,4.313,2.483,8.505,4.154,12.66c7.57-64.266,11.451-129.446,21.527-193.416
		C694.892,3454.396,718.955,3361.576,715.442,3350.646z"/>
	<path style="fill:#AD9DC4;" d="M882.643,1021.287c-2.268-2.195-16.144-15.96-8.149-18.986
		c-116.107-52.342-164.837-158.719-96.699-274.08c122.191-206.875,433.431-253.378,635.102-143.286
		c4.044-7.744,14.668-3.561,21.063-2.35c354.768,67.149,400.093,382.49,222.742,657.262
		c-57.746,89.466-221.04,262.018-331.453,267.468c4.342,6.913,15.846,4.173,22.895,4.246
		c181.466,1.872,382.136-52.59,489.693-207.441c194.701-280.313,121.626-523.237-84.717-765.165
		c-212.035-248.602-493.774-227.648-787.706-148.994c-214.207,57.321-545.816,224.005-425.539,498.291
		c91.199,207.974,282.079,319.387,510.06,274.884c85.091-16.61,177.23-73.983,250.272-119.097
		C1161.685,1099.453,1003.146,1137.897,882.643,1021.287z"/>
	<path style="fill:#AD9EC3;" d="M588.476,538.981c18.65-134.043,126.158-249.678,238.835-316.341
		c24.657-14.588,55.579-23.065,76.4-42.55C650.2,245.806,439.816,376.017,286.008,589.109
		c-5.221,28.946-20.698,53.734-28.014,82.588c-47.968,189.172,76.383,546.032,235.319,663.789
		c172.839,128.058,414.781,64.97,612.701,50.559c6.709-0.489,18.934-2.061,23.074,4.407
		c69.143-21.798,143.096-59.624,204.158-98.433c20.598-13.091,65.886-52.802,83.729-58.419c7.852-2.471,14.106-2.411,20.964,2.426
		c36.189-32.553,69.932-67.82,104.341-102.248c1.924-1.924,10.757-14.596,12.521-6.267
		c79.087-116.283,102.948-222.346,20.868-346.414c-1.616,7.988-11.779-2.371-14.451-4.336c-20.5-15.079-42.142-37.817-69.001-37.378
		c24.56,63.203,11.505,118.623-25.833,172.415c-12.688,18.279-41.089,51.589-57.661,65.462c7.452,0.826-3.44,11.914-5,13.785
		c-67.133,80.574-293.013,194.869-397.825,203.178c-174.172,13.809-303.247-37.824-410.863-173.315
		c-121.975-153.569-151.494-310.802-4.349-461.014C582.609,555.718,587.591,545.341,588.476,538.981z"/>
	<path style="fill:#E0B199;" d="M1486.964,737.096c12.114-26.367,76.31,32.317,85.544,41.383l3.161,2.619
		c-69.814-105.527-220.894-203.023-348.554-212.804c-152.029-11.647-305.054,32.045-398.447,156.544
		c-188.36,251.097,296.426,349.835,461.204,210.784c38.334-32.349,55.695-69.918,22.851-114.869
		c-46.447-63.567-144.494-84.803-212.575-45.64c-24.047,13.832-26.512,41.148-32.083,43.11
		c-11.374,4.006-20.958-0.492-24.728-11.862c-20.66-62.308,94.43-91.664,138.141-92.197
		c115.275-1.406,252.073,120.08,156.168,231.668c-97.21,113.106-336.523,113.555-463.151,56.469
		c108.951,121.571,275.244,94.987,411.704,38.297l14.009,3.44c23.46-9.385,88.844-50.312,108.515-66.779l-2.13-9.217
		C1472.661,906.575,1516.62,829.49,1486.964,737.096z"/>
	<path style="fill:#E0B199;" d="M874.495,1002.302c-7.995,3.026,5.881,16.791,8.149,18.986
		c120.502,116.61,279.042,78.166,417.564,22.751l-14.009-3.44C1149.739,1097.289,983.445,1123.873,874.495,1002.302z"/>
	<path style="fill:#E0B199;" d="M1466.384,911.798c37.338-53.792,50.393-109.212,25.833-172.415
		c26.859-0.439,48.5,22.299,69.001,37.378c2.672,1.965,12.835,12.324,14.451,4.336l-3.161-2.619
		c-9.234-9.066-73.43-67.75-85.544-41.383c29.656,92.394-14.303,169.479-80.372,230.946l2.13,9.217
		C1425.296,963.387,1453.697,930.077,1466.384,911.798z"/>
	<path style="fill:#E1B29A;" d="M1518.138,181.277c-205.19-55.825-408.86-54.475-614.428-1.187l-0.21,11.18
		C750.263,263.802,616.68,385.93,590.686,559.893c214.372-218.841,714.703-281.375,1002.445-228.231
		c158.205,29.219,286.766,110.322,395.841,226.034l33.239,39.737C1955.236,378.878,1728.519,238.515,1518.138,181.277z"/>
	<path style="fill:#E1B29A;" d="M903.5,191.27l0.21-11.18c-20.821,19.484-51.742,27.962-76.4,42.55
		c-112.677,66.662-220.184,182.297-238.835,316.341c-0.885,6.361-5.867,16.737,2.21,20.913
		C616.68,385.93,750.263,263.802,903.5,191.27z"/>
	<path style="fill:#E1B299;" d="M1583.544,1320.218c242.931-267.95,244.727-665.533-170.647-735.283
		c105.675,57.688,214.996,158.529,245.045,278.75c47.158,188.671-102.184,347.088-232.522,459.948
		c73.33-16.679,243.808-126.98,253.819-203.512c1.348-10.309-7.804-31.333,2.935-34.338c31.273-8.749,15.167,51.839,8.444,66.943
		c-31.579,70.947-134.834,140.319-203.957,171.672c-40.111,18.194-87.629,27.656-125.417,45.703
		c-38.364,18.322-81.305,53.622-120.839,75.323c-66.002,36.231-138.332,68.401-211.459,86.979
		c2.875,7.421,24.772,4.707,31.457,4.302c43.519-2.64,96.725-14.441,137.792-29.15c9.655-3.458,11.954-12.022,24.719-13.158
		c25.092-2.232,67.725,14.626,102.337,12.918l6.916-8.948C1432.113,1477.185,1516.402,1394.276,1583.544,1320.218z"/>
	<path style="fill:#E1B299;" d="M1656.703,1239.847c177.351-274.772,132.026-590.112-222.742-657.262
		c-6.395-1.211-17.019-5.394-21.063,2.35c415.375,69.75,413.578,467.332,170.647,735.283
		c-67.142,74.057-151.432,156.967-251.378,178.149l-6.916,8.948C1435.663,1501.865,1598.957,1329.313,1656.703,1239.847z"/>
	<path style="fill:#DFB19A;" d="M1521.436,342.903l77.932,32.606c204.472,132.458,406.071,410.883,372.31,665.953
		c-7.83,59.16-35.232,137.017-62.116,190.39l4.174,4.174c90.622-130.18,155.872-313.559,146.038-473.671
		c-4.919-80.09-27.579-120.413-79.148-179.619C1864.02,448.863,1699.245,360.696,1521.436,342.903z"/>
	<path style="fill:#E0B199;" d="M317.837,1103.106c-66.133-150.407-122.023-365.554-31.828-513.997
		c-16.193,22.434-36.583,44.914-49.358,69.592c-102.639,198.281-3.149,584.972,192.633,699.078
		c198.571,115.731,487.065,99.741,699.804,32.673c-94.326,11.498-189.646,21.505-285.96,30.019
		C568.367,1434.493,429.431,1356.908,317.837,1103.106z"/>
	<path style="fill:#E0B199;" d="M1106.014,1386.045c-197.919,14.411-439.861,77.5-612.701-50.559
		c-158.936-117.757-283.287-474.617-235.319-663.789c7.316-28.853,22.793-53.642,28.014-82.588
		c-90.195,148.443-34.305,363.59,31.828,513.997c111.595,253.802,250.531,331.387,525.291,317.366
		c96.313-8.515,191.633-18.521,285.96-30.019C1124.948,1383.983,1112.723,1385.556,1106.014,1386.045z"/>
	<path style="fill:#E1B39A;" d="M1270.992,1357.063c-230.451,119.404-574.876,148.723-813.864,41.737l-4.174,4.174
		c91.875,52.896,178.788,85.582,283.033,107.205c32.818,6.807,106.59,23.146,136.634,21.714c5.996-0.286,16.378-8.733,25.964-10.923
		c155.116-35.435,253.211-65.444,389.102-151.385C1284.519,1362.346,1279.233,1357.351,1270.992,1357.063z"/>
	<path style="fill:#DFB09A;" d="M173.148,828.923c0.342-8.875,3.633-16.621,4.305-24.946c0.37-4.577,3.056-15.565-4.087-14.507
		c-23.131,79.931-41.447,159.244-28.109,242.98c21.152,132.788,108.611,229.958,211.703,307.918l4.174-4.174
		C233.407,1221.576,166.67,996.992,173.148,828.923z"/>
	<path style="fill:#AC9BBC;" d="M1355.013,1305.44c-24.819,16.388-58.169,38.228-84.021,51.623
		c14.311-5.509,25.881-2.96,16.695,12.521c56.002-35.417,109.515-76.59,158.599-121.036c-2.224-0.812-7.044-4.516-8.347-4.174
		C1426.968,1247.253,1371.192,1294.757,1355.013,1305.44z"/>
	<path style="fill:#AC9BBC;" d="M1270.992,1357.063c8.241,0.288,13.527,5.284,16.695,12.521
		C1296.873,1354.103,1285.303,1351.553,1270.992,1357.063z"/>
	<path style="fill:#DAAFA1;" d="M1450.727,1231.908l-12.789,4.119v8.347c7.482-8.839,9.871-7.192,8.347,4.174
		c42.88-38.828,75.795-72.926,108.515-121.036C1525.774,1160.325,1491.082,1195.124,1450.727,1231.908z"/>
	<path style="fill:#DAAFA1;" d="M1542.28,1133.779c-34.409,34.427-68.152,69.695-104.341,102.248l12.789-4.119
		c40.355-36.784,75.046-71.582,104.074-104.396C1553.037,1119.182,1544.203,1131.854,1542.28,1133.779z"/>
	<path style="fill:#DAAFA1;" d="M1437.939,1244.374c1.304-0.342,6.123,3.362,8.347,4.174
		C1447.81,1237.182,1445.42,1235.534,1437.939,1244.374z"/>
	<path style="fill:#977972;" d="M457.129,1398.799c-12.198-5.461-26.448-19.969-41.735-20.828
		c8.288,12.966,25.412,18.006,37.561,25.001C447.456,1397.502,449.78,1395.871,457.129,1398.799z"/>
	<path style="fill:#977972;" d="M452.955,1402.973l4.174-4.174C449.78,1395.871,447.456,1397.502,452.955,1402.973z"/>
	<path style="fill:#896A6A;" d="M1909.562,1231.853c-4.483,8.901-16.328,18.094-16.654,29.214
		c10.029-4.779,14.817-16.406,20.827-25.041C1907.871,1241.558,1905.722,1239.226,1909.562,1231.853z"/>
	<path style="fill:#896A6A;" d="M1913.736,1236.026l-4.174-4.174C1905.722,1239.226,1907.871,1241.558,1913.736,1236.026z"/>
	<path style="fill:#7E6865;" d="M361.134,1336.194c5.531,5.865,3.199,8.014-4.174,4.174c7.68,5.807,14.729,16.481,25.04,16.654
		C378.104,1347.572,368.069,1342.418,361.134,1336.194z"/>
	<path style="fill:#7E6865;" d="M361.134,1336.194l-4.174,4.174C364.333,1344.208,366.665,1342.06,361.134,1336.194z"/>
	<path style="fill:#AD9DC4;" d="M1429.591,1728.519c-0.294-41.424-31.144-59.448-54.258-87.647
		c-24.895,0.198-55.161,2.55-75.106,18.801c-1.529,3.239,52.909,15.529,50.272,45.849c-2.081,23.931-40.279-5.295-54.203-8.569
		c-24.849-5.842-64.911,4.283-58.715-35.194c-16.39,2.161-29.599,27.623-33.368,41.717l183.641,50.084
		C1405.248,1746.463,1415.398,1738.524,1429.591,1728.519z"/>
	<path style="fill:#E1B39C;" d="M1261.747,1794.397c18.779,3.406,10.743-7.133,25.85-13.795
		c25.539-11.262,69.765-14.599,100.258-27.042l-29.046,0.731c-15.692-2.292-140.939-35.308-149.436-40.755
		c-3.65-2.34-5.191-4.36-5.158-10.059C1192.267,1748.137,1215.852,1786.074,1261.747,1794.397z"/>
	<path style="fill:#E1B39C;" d="M1209.372,1713.536c8.497,5.448,133.744,38.464,149.436,40.755l29.046-0.731l-183.641-50.084
		C1204.181,1709.176,1205.722,1711.196,1209.372,1713.536z"/>
	<path style="fill:#E1B29A;" d="M1429.591,1728.519c1.739-1.226,6.772-0.983,10.427-4.024
		c62.871-52.319-11.556-84.046-64.685-83.623C1403.559,1650.18,1450.929,1701.495,1429.591,1728.519z"/>
	<path style="fill:#E1B29A;" d="M1375.334,1640.872c23.114,28.199,53.964,46.223,54.258,87.647
		C1450.929,1701.495,1403.559,1650.18,1375.334,1640.872z"/>
</g>
</svg>
