<?xml version="1.0" encoding="iso-8859-1"?>
<!-- Generator: Adobe Illustrator 29.2.1, SVG Export Plug-In . SVG Version: 9.03 Build 55982)  -->
<svg version="1.1" id="Layer_1" xmlns="http://www.w3.org/2000/svg" xmlns:xlink="http://www.w3.org/1999/xlink" x="0px" y="0px"
	 viewBox="0 0 2625.017 2200" style="enable-background:new 0 0 2625.017 2200;" xml:space="preserve">
<g>
	<path style="fill:#010101;" d="M2510.995,362.288c-28.794-22.472-103.939-19.463-140.413-26.086
		c13.392-32.145-3.384-63.27-40.546-57.909c8.336-68.812,76.103-233.351-62.745-159.734c-18.772,9.953-42.295,26.308-55.977,42.471
		c-3.391,4.006-6.521,14.809-10.405,15.73c-3.589,0.851-15.126-8.961-25.667-8.646c-22.461,0.67-66.658,32.018-82.334,48.238
		c-29.062,30.07-47.436,106.289-57.365,148.215c-7.65,32.304-12.052,65.02-18.23,97.59
		c-87.166,54.483-173.924,109.641-260.336,165.301c-65.021,41.882-128.69,86.71-195.408,125.489
		c-131.724-230.106-334.304-450.354-609.175-494.067c-285.254-45.365-607.505,131.922-742.35,382.312
		C-9.164,1048.23,107.629,1655.587,484.696,1931.099c272.763,199.3,606.088,225.194,903.361,61.834
		c268.075-147.314,354.42-460.375,328.124-748.968c-12.737-139.779-56.367-276.24-111.641-404.018l458.998-299.746
		c30.035-0.275,61.276,8.985,91.735,12.764c36.463,4.525,106.443,14.821,140.188,7.818c24.852-5.158,98.838-54.371,107.198-78.358
		c1.816-5.21,2.381-7.884-0.242-12.994C2440.232,473.955,2566.872,405.898,2510.995,362.288z M2075.463,349.472
		c6.026-23.363,18.964-78.345,31.638-95.764c6.996-9.615,62.033-56.11,69.429-50.679c5.443,12.478,14.221,53.457,32.726,48.808
		c14.095-3.542,13.881-38.267,18.597-51.105c12.004-32.675,60.722-54.089,90.576-67.199c1.499,53.484-19.784,104.216-23.613,157.326
		l-37.135,22.193c2.68-30.383,12.306-64.24,14.401-94.148c0.218-3.117,2.5-19.087-4.254-15.853
		c-9.543,4.569-17.014,68.844-18.836,82.521c-1.415,10.62,2.611,26.705-4.523,36.014c-1.927,2.514-47.545,28.876-54.407,32.457
		c-4.337,2.263-8.315,5.862-13.468,5.323c0.568-7.918,7.964-58.687,5.763-60.804c-10.641-10.234-16.194,29.913-16.985,36.582
		c-1.091,9.201,1.772,30.09-1.778,35.863c-1.702,2.768-54.156,34.044-56.495,31.788l22.612-123.748
		c-4.736-13.7-9.996-3.734-13.169,4.372c-14.35,36.663-16.547,89.72-20.977,128.946l-37.685,22.285
		C2054.629,430.961,2072.61,360.531,2075.463,349.472z M395.826,466.514l-42.162,60.598l-33.091,17.551
		C316.55,540.997,389.176,472.023,395.826,466.514z M337.916,550.483c-6.658,28.342-38.633,30.63-57.853,49.221
		C289.858,569.478,313.068,563.805,337.916,550.483z M310.456,596.829c1.975-0.62,1.981,2.376,1.387,4.267
		c-0.961,3.058-16.591,36.898-18.053,38.438c-2.578,2.716-16.523,7.197-22.185,11.098c-14.397,9.921-27.515,21.734-40.765,33.041
		C241.588,639.09,275.914,620.986,310.456,596.829z M210.516,725.632c7.787-11.148,42.977-42.291,55.003-52.13
		c2.561-2.095,15.121-12.445,17.398-10.079c-2.336,30.503-24.678,38.559-43.459,56.406c-11.043,10.494-21.83,23.778-33.25,33.345
		c-3.254,2.726-4.705,7.026-10.141,5.755C201.365,748.172,203.535,735.626,210.516,725.632z M185.966,790.842l76.668-69.525
		c-6.661,13.61-7.491,42.069-14.764,53.25c-4.206,6.465-23.211,18.184-30.164,24.851c-17.508,16.788-33.531,35.003-50.566,52.194
		L185.966,790.842z M150.099,928.727c1.065-10.472,5.262-36.595,9.993-45.045c4.043-7.222,44.767-51.316,53.212-59.713
		c8.673-8.624,20.29-15.674,29.062-24.475c-2.902,9.11-3.184,30.654-7.311,37.54c-1.391,2.32-14.015,10.709-18.633,16.113
		c-22.834,26.718-44.422,55.983-63.825,85.307C147.438,939.129,149.773,931.931,150.099,928.727z M145.433,967.47
		c5.619-12.616,61.262-79.957,73.875-94.063c3.253-3.639,6.955-8.272,11.475-10.212c-4.754,14.07-2.269,46.691-7.253,57.865
		c-3.249,7.284-45.827,47.114-55.004,57.92c-9.492,11.176-16.443,24.879-27.444,34.779
		C142.183,1002.542,141.314,976.716,145.433,967.47z M138.156,1041.267c0-7.208,72.955-86.297,83.94-96.998
		c-3.078,14.697,0.6,55.615-4.368,66.542c-2.141,4.71-16.716,15.948-21.576,21.856c-19.785,24.048-36.947,50.741-57.996,73.748
		V1041.267z M137.972,1139.529c1.373-13.556,24.289-40.576,33.767-53.097c14.095-18.62,31.319-38.383,47.491-55.299
		c0.114,18.787-0.155,37.647,0,56.462c0.014,1.653,4.441,3.718,1.607,9.998c-1.819,4.03-14.616,13.761-18.893,19.043
		c-21.852,26.986-38.893,57.43-59.459,85.316C141.665,1181.496,135.886,1160.118,137.972,1139.529z M144.467,1221.411
		l77.628-103.413c0.967,13.364,6.063,31.183,2.306,44.259c-1.837,6.392-30.996,39.247-37.682,49.184
		c-13.079,19.44-22.693,41.901-36.954,60.016L144.467,1221.411z M156.863,1291.647c3.27-12.125,55.055-92.168,65.324-102.647
		c2.76-2.816,3.751-5.506,8.609-4.392l5.354,52.904l-70.486,103.381C160.558,1341.183,154.878,1299.006,156.863,1291.647z
		 M168.587,1363.771l67.172-103.135l6.62-3.641c-3.48,12.774,10.593,42.253,7.236,51.976c-4.226,12.242-33.931,49.344-43.17,64.074
		c-8.259,13.167-14.603,27.423-23.408,40.234L168.587,1363.771z M201.58,1481.66c-3.425-7.526-14.736-42.553-13.708-48.766
		c1.116-6.747,19.345-34.226,24.363-42.475c13.328-21.905,28.711-43.821,44.604-63.943l11.033,49.991
		c-17.019,32.403-38.293,62.744-56.028,94.634c-2.634,4.736-3.707,14.073-4.227,14.629
		C202.907,1490.766,202.713,1484.15,201.58,1481.66z M226.627,1546.373c-5.802-13.328-11.497-27.358-15.33-41.402l61.499-108.949
		c3.355-0.054,16.784,42.714,15.394,49.885c-3.073,15.857-30.69,58.858-39.593,76.422c-5.491,10.832-10.189,24.387-14.926,35.76
		C229.41,1557.988,228.174,1549.927,226.627,1546.373z M259.801,1618.91l-19.657-44.399l55.815-111.892l20.687,47.708
		C308.802,1516.712,264.985,1622.839,259.801,1618.91z M291.652,1673.924c-1.229-12.821-21.465-30.472-20.337-41.812l48.566-99.218
		l6.452-3.742c-0.967,14.166,21.568,38.295,19.815,49.988c-3.274,21.837-42.059,63.375-48.17,88.121L291.652,1673.924z
		 M325.078,1720.095c-3.502-3.54-21.581-31.75-21.255-35.544l50.034-94.576c2.684,1.315,21.96,37.97,21.769,41.706
		c-1.047,20.419-41.706,66.787-43.504,91.464C327.741,1724.173,327.482,1722.525,325.078,1720.095z M338.97,1736.195
		c-0.064-14.997,42.818-70.703,45.339-91.198l28.286,44.366l-44.247,82.956C366.019,1772.313,338.988,1740.423,338.97,1736.195z
		 M403.015,1812.992c-2.757-2.43-24.25-28.031-24.078-29.945l44.411-83.044c3.213,7.068,27.446,34.163,27.07,38.537
		c-1.375,16.009-37.425,57.136-40.128,77.262C406.246,1816.725,405.534,1815.213,403.015,1812.992z M418.995,1826.089
		c-0.278-9.425,37.536-62.708,42.009-76.819c3.879,9.468,28.516,26.718,26.91,35.621c-2.385,13.218-35.818,52.286-37.08,71.448
		C445.5,1850.889,419.116,1830.214,418.995,1826.089z M462.499,1863.674c-0.177-11.334,30.898-57.188,36.131-71.014l29.621,30.347
		l-33.985,68.079C487.623,1886.063,462.606,1870.525,462.499,1863.674z M538.997,1922.913l-35.624-24.507l34.407-65.223
		c5.362,6.226,30.214,21.871,31.338,27.928C569.903,1865.337,542.56,1922.133,538.997,1922.913z M551.978,1932.803l29.222-61.972
		l34.034,27.45l-28.527,53.449L551.978,1932.803z M628.644,1974.82c-2.552,0.603-29.211-12.912-29.928-15.966
		c7.891-18.271,21.636-33.373,25.922-53.275c2.295-1.726,31.956,20.034,31.935,24.513
		C652.295,1936.775,633.216,1973.74,628.644,1974.82z M641.967,1983.7l27.798-46.05l27.04,15.65
		c-7.275,14.647-21.575,26.517-25.919,42.03L641.967,1983.7z M718.198,2012.41c-8.549,2.823-25.959-10.442-35.693-11.337
		l27.799-40.291l32.928,18.595C738.192,1984.771,722.91,2010.854,718.198,2012.41z M760.638,2025.857
		c-6.515,4.123-17.954-5.701-26.017-4.495c-4.689-5.479,20.546-28.776,20.335-37.612l25.99,11.621
		C782.285,1997.128,762.398,2024.743,760.638,2025.857z M805.212,2041.01c-3.271,0.64-29.298-6.371-30.034-9.529
		c3.082-5.499,17.722-26.202,22.124-27.002c4.609-0.837,25.234,11.75,32.869,11.154
		C831.259,2017.042,807.616,2040.539,805.212,2041.01z M824.4,2047.434c-2.964-2.536,17.839-23.623,20.204-24.69
		c3.603-1.625,19.352,9.379,26.115,7.359C867.403,2056.894,844.394,2049.773,824.4,2047.434z M873.609,2056.107
		c11.278-23.744,21.956-22.155,43.374-10.105C904.388,2065.039,892.476,2057.402,873.609,2056.107z M922.833,2061.898
		c11.293-21.625,21.68-9.645,40.522-8.642C959.873,2074.302,936.727,2059.711,922.833,2061.898z M1002.489,2064.821
		c-8.19,0.319-16.475-0.196-24.642-0.029c6.909-11.674,24.248-3.73,34.727-2.834
		C1013.259,2067.002,1005.996,2064.685,1002.489,2064.821z M1669.025,1163.721c51.646,302.404-19.831,660.205-316.563,808.095
		c-362.774,180.806-785.143-61.753-962.895-388.597C186.186,1209.248,175.455,524.046,631.312,329.9
		c353.105-150.385,679.372,89.207,860.239,377.183c5.277,8.403,38.547,61.617,38.947,65.402
		c0.904,8.58-100.757,68.946-114.028,78.952c-36.579-52.042-67.462-108.486-109.943-156.222
		c-308.487-346.648-811.538-221.998-883.772,245.55c-31.913,206.562,19.608,482.479,145.632,651.841
		c196.048,263.468,663.278,385.496,891.26,95.502c138.265-175.873,123.062-425.444,53.921-626.628
		c-14.866-43.258-34.817-84.439-51.824-126.778l112.533-74.395C1616.217,957.609,1651.102,1058.771,1669.025,1163.721z
		 M1047.725,1150.908c27.523,49.74,91.579-13.842,124.083-27.115c33.14,71.091,32.486,196.172-60.676,218.699
		c-107.251,25.935-206.297-99.24-214.313-197.034c-13.201-161.034,120.74-236.016,228.545-107.04l-66.551,54.859
		C1043.116,1110.519,1035.511,1128.834,1047.725,1150.908z M919.901,974.635c-69.419,60.49-68.591,174.016-36.108,253.342
		c46.068,112.5,182.693,203.548,293.814,115.87c-29.694,68.279-112.203,77.567-176.478,56.343
		c-128.899-42.562-210.169-201.873-199.535-332.491c14.703-180.595,194.923-252.747,326.854-124.913
		c4.704,4.558,24.319,25.445,25.552,29.625c3.079,10.439-7.619,27.158-8.25,38.448C1088.025,945.129,993.307,910.67,919.901,974.635
		z M831.591,912.383c-159.185,177.961,4.973,551.946,251.896,529.863c91.862-8.216,150.975-94.833,143.139-183.584
		c-1.988-22.521-3.619-46.485-5.91-69.373c-2.025-20.239-11.027-39.688-14.096-59.709c19.185,10.09,40.128,16.591,59.839,25.548
		c22.814,10.367,59.379,36.13,83.304,32.19c8.1-1.334,15.767-12.615,18.46-3.656c4.996,16.621,8.447,56.333,9.321,74.648
		c11.198,234.701-160.046,401.362-396.795,335.99c-242.627-66.995-364.417-299.6-350.481-541.571
		c16.264-282.383,270.114-434.499,518.168-280.496c9.379,5.823,64.632,43.803,62.8,50.576c-1.775,6.563-16.169,27.408-20.475,37.586
		c-10.205,24.118-18.376,49.772-24.738,75.185C1082.007,836.127,924.294,808.746,831.591,912.383z M1188.411,761.211
		c-226.694-163.05-514.634-71.714-576.871,206.193c-46.683,208.453,27.579,460.252,206.143,584.38
		c305.591,212.431,642.873,23.531,584.959-353.32c-7.039-45.8-29.677-90.614-36.117-128.926
		c-3.462-20.595-2.548-47.526-3.519-68.745c0.166-4.323,2.855-6.196,5.831-8.649c9.33-7.691,47.642-31.756,58.667-36.887
		c2.607-1.213,4.253-3.144,7.802-2.309c14.989,41.516,34.98,81.185,49.306,123.009c61.038,178.197,78.157,391.18-24.912,557.192
		c-199.063,320.628-681.791,197.02-872.209-68.335c-182.574-254.423-223.755-790.45,80.77-972.116
		c157.949-94.226,331.152-83.506,484.824,12.737c104.416,65.394,175.697,160.792,235.907,266.393l-70.929,46.324
		c-10.192-0.154-17.304-122.82-63.736-124.633c-7.285-0.284-18.764,5.89-21.771,4.523
		C1224.614,794.434,1199.49,769.18,1188.411,761.211z M1913.334,595.607c-194.386,125.866-400.302,251.578-589.557,383.327
		c-11.002,7.659-64.581,47.199-62.181,59.375c3.493,17.714,63.776-21.86,66.589-18.743l11.583,130.267
		c-3.587,3.495-55.907-25.631-64.632-29.441c-17.973-7.847-87.024-37.249-101.957-36.777c-15.174,0.48-89.801,59.176-96.87,51.742
		c-6.386-6.716,14.211-24.672,18.728-29.017c18.001-17.316,61.947-43.334,73.5-59.692c5.567-7.883,9.601-23.857,12.766-33.562
		c19.772-60.629,23.843-131.71,67.345-181.706c6.052-1.333,11.351,16.722,13.049,21.589c7.035,20.163,10.298,43.229,17.161,63.912
		c2.214,6.671,10.901,19.504,11.249,23.584c0.408,4.775-30.081,32.915-3.999,32.927c23.871,0.011,95.667-58.357,119.891-74.383
		c212.237-140.401,424.944-281.099,640.527-416.326c82.205-51.564,173.359-114.216,258.405-158.545
		c5.816-3.032,32.465-18.01,36.675-13.966c8.343,8.012-31.222,31.419-36.119,34.791
		C2179.375,431.811,2042.461,511.996,1913.334,595.607z M2425.511,430.24c-27.258,8.843-99.501-0.027-115.991,14.346
		c-3.247,2.831-5.424,9.744-5.976,10.061c-2.484,1.427-47.061-11.042-56.163-11.369c-16.061-0.578-16.122,5.183-1.33,10.224
		c19.51,6.65,41.146,3.6,55.878,7.823c4.53,1.298,8.017,7.865,15.786,10.274c12.788,3.964,30.744,3.42,44.174,3.63
		c-7.429,11.04-18.948,19.16-29.761,26.672c-34.832,24.2-50.294,27.637-93.269,25.39c-41.984-2.195-83.892-12.604-125.967-14.464
		c-1.684-6.686,1.292-4.768,3.649-6.613c44.765-35.045,108.063-68.735,157.096-100.445c20.99-13.574,41.714-27.652,61.422-43.061
		c36.828,6.127,74.679,8.236,111.405,14.888c13.802,2.5,31.52,4.336,42.769,12.188
		C2489.208,397.047,2434.634,427.28,2425.511,430.24z"/>
	<path style="fill:#727444;" d="M1461.743,934.703c17.007,42.339,36.957,83.52,51.824,126.778
		c69.141,201.184,84.344,450.755-53.921,626.628c-227.982,289.994-695.212,167.966-891.26-95.502
		c-126.023-169.362-177.544-445.279-145.632-651.841c72.233-467.548,575.284-592.199,883.772-245.55
		c42.481,47.736,73.364,104.179,109.943,156.222c13.271-10.007,114.932-70.372,114.028-78.952
		c-0.399-3.785-33.669-56.999-38.947-65.402C1310.683,419.107,984.417,179.515,631.312,329.9
		c-455.857,194.146-445.126,879.348-241.744,1253.319c177.752,326.844,600.121,569.403,962.895,388.597
		c296.731-147.891,368.208-505.692,316.563-808.095c-17.924-104.95-52.808-206.111-94.749-303.413L1461.743,934.703z
		 M1114.717,444.18c18.198-17.327,17.974,28.136,0.675,28.254C1103.083,472.518,1108.943,449.678,1114.717,444.18z
		 M1066.257,411.592c14.934-4.872,12.881,32.444,2.705,34.618C1057.006,448.763,1056.457,414.789,1066.257,411.592z
		 M631.865,437.585c11.598-3.474,13.417,15.017,5.734,17.318C626,458.377,624.182,439.886,631.865,437.585z M320.701,957.43
		c-13.604,9.242-30.6-23.596-18.647-27.409C314.456,926.065,328.277,952.283,320.701,957.43z M314.607,841.194
		c-4.796-21.973,37.693-11.182,40.543-6.757C365.389,850.335,316.07,847.897,314.607,841.194z M365.545,802.567
		c-18.82,2.113-29.804-13.005-16.997-17.123C365.285,780.062,388.438,799.996,365.545,802.567z M405.817,698.224
		c-15.857,2.335-29.966-15.925-13.716-19.885C404.59,675.295,427.069,695.095,405.817,698.224z M788.273,1879.491
		c-9.81-2.895-2.28-24.724,9.057-25.679C811.356,1852.631,801.056,1883.263,788.273,1879.491z M960.515,1947.374
		c-0.97,6.384-9.549,13.607-14.485,10.302c-2.393-1.602-9.939-57.479,7.178-52.079
		C956.977,1906.785,961.324,1942.05,960.515,1947.374z M995.174,1922.969l1.716,17.525
		C977.426,1952.7,974.654,1921.019,995.174,1922.969z M1407.293,1843.902c-10.138-12.239,0.163-22.813,15.016-10.717
		C1441.253,1848.613,1418.502,1857.434,1407.293,1843.902z M1640.9,1439.411c9.046,9.036-23.92,35.337-28.916,18.721
		C1608.697,1447.201,1636.3,1434.816,1640.9,1439.411z M1590.284,1622.05c-17.215,1.689-25.468-13.684-14.048-17.267
		C1593.377,1599.406,1613.439,1619.779,1590.284,1622.05z"/>
	<path style="fill:#F8F0DC;" d="M1254.327,793.519c46.432,1.812,53.544,124.479,63.736,124.633l70.929-46.324
		c-60.21-105.6-131.491-200.998-235.907-266.393c-153.672-96.243-326.874-106.962-484.824-12.737
		c-304.525,181.666-263.343,717.693-80.77,972.116c190.418,265.355,673.146,388.963,872.209,68.335
		c103.069-166.012,85.95-378.995,24.912-557.192c-14.326-41.824-34.317-81.493-49.306-123.009c-3.549-0.836-5.195,1.096-7.802,2.309
		c-11.024,5.13-49.337,29.196-58.667,36.887c-2.976,2.453-5.665,4.326-5.831,8.649c0.972,21.219,0.057,48.15,3.519,68.745
		c6.44,38.312,29.078,83.127,36.117,128.926c57.914,376.852-279.369,565.751-584.959,353.32
		c-178.565-124.129-252.827-375.927-206.143-584.38c62.237-277.906,350.176-369.243,576.871-206.193
		c11.079,7.968,36.203,33.223,44.145,36.831C1235.563,799.409,1247.042,793.235,1254.327,793.519z"/>
	<path style="fill:#717344;" d="M1190.76,860.394c4.306-10.178,18.7-31.023,20.475-37.586c1.832-6.773-53.421-44.754-62.8-50.576
		c-248.054-154.003-501.904-1.887-518.168,280.496c-13.937,241.971,107.854,474.576,350.481,541.571
		c236.75,65.372,407.994-101.29,396.795-335.99c-0.874-18.314-4.325-58.026-9.321-74.648c-2.693-8.958-10.36,2.323-18.46,3.656
		c-23.924,3.939-60.49-21.824-83.304-32.19c-19.711-8.957-40.654-15.458-59.839-25.548c3.069,20.021,12.071,39.47,14.096,59.709
		c2.29,22.887,3.921,46.852,5.91,69.373c7.836,88.751-51.278,175.369-143.139,183.584
		c-246.923,22.084-411.081-351.902-251.896-529.863c92.703-103.638,250.416-76.257,334.432,23.195
		C1172.384,910.166,1180.556,884.512,1190.76,860.394z M1052.843,1533.521c1.172-24.587,26.385,5.031,17.635,18.793
		C1059.38,1553.19,1052.342,1544.021,1052.843,1533.521z M1005.452,1494.504c15.944-5.201,11.808,37.403,2.798,37.493
		C998.417,1532.095,994.183,1498.18,1005.452,1494.504z"/>
	<path style="fill:#F2B18B;" d="M1125.364,1038.418c-107.805-128.975-241.745-53.994-228.545,107.04
		c8.017,97.795,107.062,222.969,214.313,197.034c93.161-22.527,93.816-147.608,60.676-218.699
		c-32.504,13.272-96.56,76.855-124.083,27.115c-12.214-22.074-4.609-40.389,11.088-57.63L1125.364,1038.418z M957.594,1090.447
		c-1.954-7.837,13.094-8.059,17.344-7.18C976.683,1092.913,959.837,1099.447,957.594,1090.447z M963.384,1126.669
		c-7.523-7.287,18.249-20.371,20.239-10.076C985.251,1125.014,966.354,1129.546,963.384,1126.669z"/>
	<path style="fill:#F2B28C;" d="M2341.607,310.172c-4.21-4.043-30.859,10.935-36.675,13.966
		c-85.047,44.329-176.2,106.981-258.405,158.545C1830.944,617.909,1618.237,758.608,1406,899.009
		c-24.224,16.025-96.02,74.394-119.891,74.383c-26.081-0.012,4.408-28.151,3.999-32.927c-0.349-4.081-9.036-16.914-11.249-23.584
		c-6.863-20.684-10.127-43.75-17.161-63.912c-1.698-4.867-6.997-22.922-13.049-21.589c-43.502,49.996-47.573,121.077-67.345,181.706
		c-3.165,9.705-7.199,25.679-12.766,33.562c-11.553,16.359-55.499,42.376-73.5,59.692c-4.518,4.346-25.115,22.301-18.728,29.017
		c7.069,7.434,81.696-51.262,96.87-51.742c14.933-0.472,83.984,28.93,101.957,36.777c8.726,3.81,61.045,32.937,64.632,29.441
		l-11.583-130.267c-2.813-3.117-63.097,36.457-66.589,18.743c-2.401-12.175,51.179-51.716,62.181-59.375
		c189.255-131.748,395.171-257.46,589.557-383.327c129.127-83.61,266.04-163.795,392.154-250.644
		C2310.385,341.59,2349.95,318.184,2341.607,310.172z"/>
	<path style="fill:#F7EFDA;" d="M1145.75,1010.858c0.632-11.29,11.33-28.009,8.25-38.448c-1.233-4.18-20.848-25.067-25.552-29.625
		c-131.931-127.834-312.151-55.681-326.854,124.913c-10.634,130.619,70.636,289.929,199.535,332.491
		c64.275,21.224,146.784,11.936,176.478-56.343c-111.121,87.678-247.746-3.37-293.814-115.87
		c-32.483-79.326-33.311-192.852,36.108-253.342C993.307,910.67,1088.025,945.129,1145.75,1010.858z"/>
	<path style="fill:#F2B188;" d="M2095.565,412.364c4.43-39.226,6.627-92.283,20.977-128.946c3.173-8.106,8.433-18.072,13.169-4.372
		l-22.612,123.748c2.338,2.255,54.793-29.021,56.495-31.788c3.551-5.774,0.687-26.662,1.778-35.863
		c0.791-6.669,6.344-46.816,16.985-36.582c2.201,2.117-5.195,52.886-5.763,60.804c5.154,0.539,9.131-3.06,13.468-5.323
		c6.862-3.581,52.48-29.943,54.407-32.457c7.134-9.309,3.109-25.394,4.523-36.014c1.822-13.677,9.292-77.952,18.836-82.521
		c6.755-3.234,4.473,12.736,4.254,15.853c-2.095,29.908-11.721,63.765-14.401,94.148l37.135-22.193
		c3.828-53.109,25.112-103.841,23.613-157.326c-29.854,13.11-78.572,34.524-90.576,67.199c-4.716,12.838-4.501,47.564-18.597,51.105
		c-18.505,4.649-27.283-36.33-32.726-48.808c-7.396-5.431-62.433,41.065-69.429,50.679c-12.674,17.419-25.612,72.401-31.638,95.764
		c-2.853,11.06-20.834,81.49-17.583,85.177L2095.565,412.364z"/>
	<path style="fill:#F2B188;" d="M2335.06,362.707c-19.708,15.409-40.432,29.487-61.422,43.061
		c-49.033,31.71-112.332,65.4-157.096,100.445c-2.357,1.845-5.333-0.074-3.649,6.613c42.075,1.86,83.983,12.269,125.967,14.464
		c42.974,2.247,58.437-1.19,93.269-25.39c10.812-7.512,22.331-15.631,29.761-26.672c-13.43-0.21-31.386,0.335-44.174-3.63
		c-7.769-2.408-11.256-8.975-15.786-10.274c-14.731-4.223-36.367-1.173-55.878-7.823c-14.791-5.041-14.731-10.802,1.33-10.224
		c9.102,0.328,53.678,12.796,56.163,11.369c0.552-0.317,2.729-7.23,5.976-10.061c16.49-14.373,88.733-5.503,115.991-14.346
		c9.122-2.96,63.696-33.193,63.723-40.457c-11.25-7.852-28.968-9.688-42.769-12.188
		C2409.739,370.943,2371.887,368.833,2335.06,362.707z M2298.131,502.707c0.155,5.122-15.096,4.599-18.862,4.482
		c-8.867-0.275-55.254-6.356-59.252-10.279c-3.519-3.453-3.344-5.458-2.887-10.114
		C2228.93,487.376,2297.806,491.975,2298.131,502.707z M2309.83,407.155c-0.178-5.215,8.675-3.331,11.637-3.058
		c23.504,2.164,48.97,10.482,73.202,10.817l4.849,8.151C2387.135,425.269,2310.254,419.597,2309.83,407.155z"/>
	<path style="fill:#5F6030;" d="M220.837,1097.593c2.834-6.28-1.593-8.346-1.607-9.998c-0.155-18.815,0.114-37.675,0-56.462
		c-16.172,16.915-33.396,36.678-47.491,55.299c-9.478,12.521-32.393,39.541-33.767,53.097c-2.086,20.589,3.693,41.967,4.512,62.423
		c20.566-27.885,37.606-58.33,59.459-85.316C206.221,1111.354,219.018,1101.624,220.837,1097.593z"/>
	<path style="fill:#5C5D30;" d="M217.729,1010.811c4.967-10.927,1.289-51.845,4.368-66.542c-10.985,10.701-83.94,89.79-83.94,96.998
		v65.148c21.049-23.007,38.212-49.7,57.996-73.748C201.013,1026.759,215.587,1015.521,217.729,1010.811z"/>
	<path style="fill:#5A5B30;" d="M288.19,1445.908c1.39-7.172-12.039-49.939-15.394-49.885l-61.499,108.949
		c3.834,14.045,9.528,28.074,15.33,41.402c1.547,3.554,2.782,11.614,7.043,11.717c4.737-11.373,9.436-24.927,14.926-35.76
		C257.5,1504.765,285.117,1461.764,288.19,1445.908z"/>
	<path style="fill:#606131;" d="M267.872,1376.466l-11.033-49.991c-15.893,20.122-31.276,42.037-44.604,63.943
		c-5.019,8.249-23.247,35.729-24.363,42.475c-1.028,6.213,10.283,41.241,13.708,48.766c1.133,2.49,1.327,9.106,6.037,4.069
		c0.52-0.556,1.593-9.892,4.227-14.629C229.579,1439.21,250.853,1408.869,267.872,1376.466z"/>
	<path style="fill:#606231;" d="M230.796,1184.608c-4.857-1.114-5.849,1.576-8.609,4.392
		c-10.269,10.478-62.055,90.522-65.324,102.647c-1.985,7.36,3.695,49.537,8.801,49.246l70.486-103.381L230.796,1184.608z"/>
	<path style="fill:#5B5C30;" d="M295.96,1462.618l-55.815,111.892l19.657,44.399c5.184,3.929,49.001-102.197,56.846-108.584
		L295.96,1462.618z"/>
	<path style="fill:#5A5C30;" d="M249.615,1308.971c3.357-9.723-10.716-39.202-7.236-51.976l-6.62,3.641l-67.172,103.135
		l14.45,49.508c8.805-12.811,15.149-27.067,23.408-40.234C215.684,1358.314,245.389,1321.212,249.615,1308.971z"/>
	<path style="fill:#616132;" d="M326.333,1529.152l-6.452,3.742l-48.566,99.218c-1.128,11.34,19.108,28.991,20.337,41.812
		l6.326-6.663c6.112-24.746,44.896-66.284,48.17-88.121C347.901,1567.447,325.365,1543.317,326.333,1529.152z"/>
	<path style="fill:#5F6131;" d="M384.309,1644.997c-2.521,20.495-45.403,76.201-45.339,91.198
		c0.018,4.228,27.049,36.119,29.377,36.125l44.247-82.956L384.309,1644.997z"/>
	<path style="fill:#5B5C31;" d="M353.856,1589.975l-50.034,94.576c-0.326,3.794,17.754,32.004,21.255,35.544
		c2.404,2.43,2.663,4.078,7.043,3.049c1.798-24.677,42.457-71.044,43.504-91.464C375.816,1627.945,356.54,1591.29,353.856,1589.975z
		"/>
	<path style="fill:#5B5B2F;" d="M423.348,1700.003l-44.411,83.044c-0.172,1.914,21.321,27.515,24.078,29.945
		c2.519,2.221,3.232,3.733,7.276,2.81c2.703-20.126,38.753-61.253,40.128-77.262
		C450.794,1734.166,426.561,1707.071,423.348,1700.003z"/>
	<path style="fill:#5A5B2F;" d="M224.402,1162.257c3.757-13.076-1.339-30.895-2.306-44.259l-77.628,103.413l5.299,50.047
		c14.261-18.116,23.875-40.576,36.954-60.016C193.405,1201.504,222.565,1168.65,224.402,1162.257z"/>
	<path style="fill:#5F6131;" d="M168.525,978.98c9.177-10.806,51.755-50.635,55.004-57.92c4.985-11.175,2.5-43.795,7.253-57.865
		c-4.519,1.94-8.221,6.573-11.475,10.212c-12.612,14.107-68.256,81.448-73.875,94.063c-4.118,9.246-3.25,35.072-4.353,46.289
		C152.082,1003.859,159.032,990.156,168.525,978.98z"/>
	<path style="fill:#5F5F31;" d="M461.004,1749.271c-4.473,14.111-42.287,67.394-42.009,76.819
		c0.121,4.125,26.505,24.799,31.839,30.25c1.262-19.161,34.695-58.23,37.08-71.448
		C489.519,1775.988,464.883,1758.739,461.004,1749.271z"/>
	<path style="fill:#5B5B2E;" d="M498.63,1792.66c-5.233,13.826-36.307,59.68-36.131,71.014c0.107,6.852,25.124,22.389,31.766,27.412
		l33.985-68.079L498.63,1792.66z"/>
	<path style="fill:#5E6031;" d="M217.705,799.417c6.953-6.667,25.958-18.386,30.164-24.851c7.273-11.181,8.104-39.64,14.764-53.25
		l-76.668,69.525l-18.827,60.77C184.174,834.421,200.198,816.206,217.705,799.417z"/>
	<path style="fill:#5F6030;" d="M537.78,1833.184l-34.407,65.223l35.624,24.507c3.563-0.78,30.906-57.575,30.121-61.801
		C567.994,1855.055,543.142,1839.409,537.78,1833.184z"/>
	<path style="fill:#606133;" d="M152.596,938.455c19.403-29.324,40.992-58.589,63.825-85.307
		c4.618-5.403,17.242-13.792,18.633-16.113c4.127-6.885,4.408-28.43,7.311-37.54c-8.772,8.801-20.389,15.851-29.062,24.475
		c-8.444,8.397-49.169,52.49-53.212,59.713c-4.73,8.45-8.928,34.573-9.993,45.045C149.773,931.931,147.438,939.129,152.596,938.455z
		"/>
	<polygon style="fill:#5B5B2F;" points="581.2,1870.831 551.978,1932.803 586.708,1951.73 615.234,1898.281 	"/>
	<path style="fill:#5F5E30;" d="M624.639,1905.579c-4.286,19.903-18.031,35.004-25.922,53.275
		c0.717,3.054,27.376,16.569,29.928,15.966c4.572-1.08,23.65-38.045,27.929-44.728
		C656.595,1925.613,626.934,1903.853,624.639,1905.579z"/>
	<path style="fill:#5C5C31;" d="M206.208,753.173c11.42-9.567,22.207-22.851,33.25-33.345
		c18.781-17.847,41.123-25.903,43.459-56.406c-2.277-2.365-14.837,7.984-17.398,10.079c-12.026,9.84-47.216,40.982-55.003,52.13
		c-6.981,9.995-9.15,22.54-14.449,33.297C201.502,760.199,202.954,755.898,206.208,753.173z"/>
	<path style="fill:#5F5F2F;" d="M710.304,1960.782l-27.799,40.291c9.734,0.895,27.144,14.16,35.693,11.337
		c4.712-1.556,19.994-27.639,25.034-33.033L710.304,1960.782z"/>
	<path style="fill:#606035;" d="M293.79,639.534c1.462-1.54,17.092-35.38,18.053-38.438c0.594-1.891,0.589-4.887-1.387-4.267
		c-34.543,24.158-68.868,42.261-79.616,86.844c13.251-11.307,26.368-23.12,40.765-33.041
		C277.266,646.731,291.212,642.25,293.79,639.534z"/>
	<path style="fill:#58582D;" d="M669.765,1937.651l-27.798,46.05l28.919,11.631c4.344-15.514,18.644-27.384,25.919-42.03
		L669.765,1937.651z"/>
	<path style="fill:#616030;" d="M797.302,2004.479c-4.402,0.8-19.042,21.502-22.124,27.002c0.736,3.157,26.763,10.169,30.034,9.529
		c2.404-0.471,26.047-23.968,24.959-25.376C822.536,2016.229,801.911,2003.642,797.302,2004.479z"/>
	<path style="fill:#57572F;" d="M780.946,1995.37l-25.99-11.621c0.211,8.836-25.025,32.133-20.335,37.612
		c8.063-1.206,19.502,8.619,26.017,4.495C762.398,2024.743,782.285,1997.128,780.946,1995.37z"/>
	<path style="fill:#595733;" d="M353.663,527.112l42.162-60.598c-6.65,5.509-79.275,74.483-75.253,78.149L353.663,527.112z"/>
	<path style="fill:#5B5C31;" d="M844.604,2022.745c-2.365,1.066-23.168,22.153-20.204,24.69c19.994,2.339,43.003,9.46,46.319-17.331
		C863.956,2032.124,848.206,2021.12,844.604,2022.745z"/>
	<path style="fill:#585734;" d="M337.916,550.483c-24.848,13.322-48.058,18.995-57.853,49.221
		C299.283,581.114,331.258,578.825,337.916,550.483z"/>
	<path style="fill:#585930;" d="M873.609,2056.107c18.867,1.295,30.778,8.932,43.374-10.105
		C895.566,2033.952,884.888,2032.363,873.609,2056.107z"/>
	<path style="fill:#575A31;" d="M922.833,2061.898c13.894-2.187,37.04,12.404,40.522-8.642
		C944.513,2052.253,934.126,2040.273,922.833,2061.898z"/>
	<path style="fill:#525331;" d="M977.848,2064.793c8.167-0.167,16.452,0.348,24.642,0.029c3.506-0.137,10.769,2.181,10.086-2.863
		C1002.096,2061.063,984.757,2053.118,977.848,2064.793z"/>
	<path style="fill:#080806;" d="M953.208,1905.596c-17.117-5.4-9.571,50.477-7.178,52.079c4.936,3.306,13.514-3.918,14.485-10.302
		C961.324,1942.05,956.977,1906.785,953.208,1905.596z"/>
	<path style="fill:#070804;" d="M314.607,841.194c1.463,6.703,50.781,9.141,40.543-6.757
		C352.3,830.012,309.812,819.221,314.607,841.194z"/>
	<path style="fill:#050503;" d="M302.054,930.021c-11.953,3.813,5.043,36.651,18.647,27.409
		C328.277,952.283,314.456,926.065,302.054,930.021z"/>
	<path style="fill:#090A06;" d="M1068.962,446.209c10.176-2.174,12.228-39.49-2.705-34.618
		C1056.457,414.789,1057.006,448.763,1068.962,446.209z"/>
	<path style="fill:#050603;" d="M1115.392,472.434c17.298-0.118,17.523-45.581-0.675-28.254
		C1108.943,449.678,1103.083,472.518,1115.392,472.434z"/>
	<path style="fill:#030402;" d="M1640.9,1439.411c-4.6-4.595-32.203,7.79-28.916,18.721
		C1616.98,1474.748,1649.945,1448.448,1640.9,1439.411z"/>
	<path style="fill:#050503;" d="M348.548,785.444c-12.808,4.118-1.823,19.236,16.997,17.123
		C388.438,799.996,365.285,780.062,348.548,785.444z"/>
	<path style="fill:#080905;" d="M392.101,678.339c-16.249,3.96-2.141,22.22,13.716,19.885
		C427.069,695.095,404.59,675.295,392.101,678.339z"/>
	<path style="fill:#060603;" d="M1590.284,1622.05c23.155-2.271,3.093-22.645-14.048-17.267
		C1564.816,1608.366,1573.069,1623.739,1590.284,1622.05z"/>
	<path style="fill:#060804;" d="M1422.31,1833.185c-14.853-12.097-25.154-1.522-15.016,10.717
		C1418.502,1857.434,1441.253,1848.613,1422.31,1833.185z"/>
	<path style="fill:#080A06;" d="M797.33,1853.812c-11.337,0.955-18.867,22.784-9.057,25.679
		C801.056,1883.263,811.356,1852.631,797.33,1853.812z"/>
	<path style="fill:#080905;" d="M996.89,1940.494l-1.716-17.525C974.654,1921.019,977.426,1952.7,996.89,1940.494z"/>
	<path style="fill:#060804;" d="M637.599,454.903c7.683-2.301,5.865-20.792-5.734-17.318
		C624.182,439.886,626,458.377,637.599,454.903z"/>
	<path style="fill:#070705;" d="M1008.25,1531.997c9.01-0.09,13.146-42.694-2.798-37.493
		C994.183,1498.18,998.417,1532.095,1008.25,1531.997z"/>
	<path style="fill:#080906;" d="M1070.478,1552.314c8.75-13.762-16.463-43.381-17.635-18.793
		C1052.342,1544.021,1059.38,1553.19,1070.478,1552.314z"/>
	<path style="fill:#1C1512;" d="M963.384,1126.669c2.97,2.877,21.867-1.655,20.239-10.076
		C981.633,1106.298,955.861,1119.381,963.384,1126.669z"/>
	<path style="fill:#16100F;" d="M974.937,1083.267c-4.25-0.879-19.298-0.657-17.344,7.18
		C959.837,1099.447,976.683,1092.913,974.937,1083.267z"/>
	<path style="fill:#090606;" d="M2220.017,496.91c3.998,3.923,50.385,10.003,59.252,10.279c3.766,0.117,19.017,0.64,18.862-4.482
		c-0.324-10.732-69.201-15.331-81.001-15.91C2216.673,491.452,2216.498,493.458,2220.017,496.91z"/>
	<path style="fill:#120E0C;" d="M2321.466,404.096c-2.961-0.272-11.815-2.157-11.637,3.058
		c0.425,12.443,77.306,18.114,89.687,15.911l-4.849-8.151C2370.436,414.579,2344.97,406.26,2321.466,404.096z"/>
</g>
</svg>
