<?xml version="1.0" encoding="iso-8859-1"?>
<!-- Generator: Adobe Illustrator 29.2.1, SVG Export Plug-In . SVG Version: 9.03 Build 55982)  -->
<svg version="1.1" id="Layer_1" xmlns="http://www.w3.org/2000/svg" xmlns:xlink="http://www.w3.org/1999/xlink" x="0px" y="0px"
	 viewBox="0 0 2950.927 2200" style="enable-background:new 0 0 2950.927 2200;" xml:space="preserve">
<g>
	<path style="fill:#040404;" d="M2287.334,1064.862c114.316-205.21,135.081-532.714-125.356-632.578
		c-176.561-67.702-350.847-5.185-484.205,116.631c-31.999-79.925-64.354-160.797-115.492-230.732
		c-152.182-208.115-393.576-265.495-634.596-180.062c-351.56,124.616-452.127,509.384-279.968,824.265
		c-501.217,1.95-531.413,743.773-123.561,920.437c139.025,60.22,321.854,58.646,463.668,8.059
		c139.304-49.693,252.774-155.033,340.105-271.184c97.266,224.445,289.714,426.726,557.298,362.913
		c160.951-38.383,256.161-152.323,306.56-304.916c27.647,4.177,55.654,13.845,84.289,18.617
		c193.493,32.244,496.007-48.309,509.451-283.389C2799.549,1167.75,2490.538,1050.412,2287.334,1064.862z M2428.679,1669.153
		c-3.681,5.861-13.411,3.521-19.384,3.595c-54.684,0.675-104.441,0.647-158.018-11.71c-15.792-3.642-60.351-21.781-71.539-20.252
		c-16.195,2.214-21.434,42.725-27.445,57.808c-1.8,4.517-5.54,7.57-6.307,9.429c-125.04,302.969-456.698,342.199-669.678,98.993
		c-59.76-68.242-83.576-129.817-121.861-208.536c-5.794-11.913-11.455-30.634-28.189-22.981
		c-5.656,2.587-47.266,58.034-56.619,68.918c-167.285,194.67-372.882,295.337-636.18,242.178
		c-314.196-63.435-452.235-443.624-303.772-712.154c65.529-118.524,166.637-173.164,300.361-180.216
		c14.631-0.772,48.657,4.534,56.297-5.669c9.288-12.403-21.046-53.217-27.526-67.273
		c-158.472-343.745-10.471-709.841,373.343-781.158c231.104-42.942,420.032,48.9,537.838,246.312
		c17.336,29.051,33.172,58.294,46.549,89.496c7.627,17.789,37.006,115.088,42.37,118.365c18.807,11.49,32.914-18.085,43.492-27.746
		c31.506-28.776,67.143-53.305,104.344-74.106c284.051-158.826,575.592,11.374,525.931,347.481
		c-12.131,82.1-43.921,164.697-86.336,235.525c-2.93,8.837,1.506,19.525,10.938,21.257c30.727,5.642,82.499-2.278,116.767-0.155
		c137.01,8.486,326.126,89.148,370.122,230.6C2807.09,1529.426,2603.253,1656.64,2428.679,1669.153z"/>
	<path style="fill:#040505;" d="M358.022,935.983c9.053-3.781,42.348-11.042,44.998-13.268c8.157-6.852,5.548-25.667-8.163-27.508
		c-9.308-1.249-46.281,12.648-56.971,17.106c-97.626,40.709-180.948,141.354-215.835,240.006
		c-7.118,20.127-30.857,105.669-18.589,119.345c26.946,30.038,30.663-49.397,33.608-61.922
		C165.126,1090.413,243.413,983.859,358.022,935.983z"/>
	<path style="fill:#060607;" d="M1893.281,314.37c6.307,0.25,40.146-14.997,51.297-18.033
		c111.771-30.428,218.96-33.203,327.491,11.721c16.223,6.716,56.348,33.194,67.333,35.458c15.882,3.274,25.146-13.85,15.018-25.962
		c-6.637-7.937-61.454-33.786-74.211-38.838c-108.538-42.984-238.006-44.894-348.941-9.824c-8.712,2.754-45.128,15.14-49.342,19.513
		C1872.356,298.338,1881.01,313.883,1893.281,314.37z"/>
	<path style="fill:#070707;" d="M2806.823,992.416c-50.912-43.033-121.356-72.901-186.603-85.488
		c-14.623-2.821-64.651-12.969-74.043-3.719c-28.992,28.555,54.412,30.044,66.432,32.532
		c63.119,13.068,130.143,39.853,178.365,83.126c14.09,12.644,44.568,61.598,59.244,30.885
		C2856.594,1036.408,2818.195,1002.028,2806.823,992.416z"/>
	<path style="fill:#070808;" d="M1448.593,2050.285c-36.342-15.58-69.616-40.841-97.738-68.361
		c-4.766-2.603-9.967-2.743-15.08-1.201c-4.787,1.444-9.404,6.498-9.512,11.679c-0.369,17.626,60.625,59.138,76.579,68.298
		c19.742,11.335,99.629,46.838,117.683,37.86c7.897-3.927,10.562-19.026,3.577-24.864
		C1519.774,2070.081,1462.936,2056.435,1448.593,2050.285z"/>
	<path style="fill:#BDA9C8;" d="M2414.562,1665.654c-0.134-0.126,0.605-0.224,1.778-0.254
		c164.046-22.283,361.844-188.714,265.059-367.344c-77.705-143.415-291.675-187.054-441.681-183.777
		c-9.522-1.796-20.263-14.949-18.101-24.761c71.129-150.101,122.164-344.141,19.124-492.175
		c-99.64-143.149-263.404-152.172-418.02-104.802c-4.657,1.427-12.838,6.707-15.965-0.095
		c-37.201,20.801-72.838,45.329-104.344,74.106c-10.578,9.661-24.685,39.236-43.492,27.746
		c-5.364-3.277-34.743-100.576-42.37-118.365c-13.377-31.203-29.213-60.445-46.549-89.496l-84.765-83.084
		c-277.06-236.978-723.478-88.159-803.989,266.795c-27.039,119.21-17.876,226.059,14.18,342.797
		c5.215,18.991,22.646,51.321,19.423,68.774c-4.048,21.922-68.696,30.671-84.803,12.507
		c-133.724,7.052-234.831,61.692-300.361,180.216l-17.623,100.755c-10.181,537.396,566.946,657.945,945.94,373.491
		c1.96-1.471,10.762-10.631,11.635-4.269c9.353-10.884,50.963-66.331,56.619-68.918c16.734-7.653,22.395,11.067,28.189,22.981
		c2.129-7.194,10.97,5.875,12.066,7.376c126.702,173.469,200.23,330.968,456.087,310.596
		c135.642-10.8,251.354-97.51,323.386-208.429c0.767-1.859,4.507-4.912,6.307-9.429c6.01-15.084,11.25-55.595,27.445-57.808
		c11.188-1.529,55.747,16.61,71.539,20.252c53.577,12.357,103.333,12.385,158.018,11.71c5.973-0.074,15.704,2.266,19.384-3.595
		l-10.419-2.582C2416.463,1666.458,2415.121,1666.182,2414.562,1665.654z M2590.207,1277.523
		c14.279-4.247,21.161,6.039,28.656,15.93c16.485,21.757,35.203,68.709,38.598,95.68c2.542,20.191,5.425,121.504-34.432,101.598
		c-15.235-7.609,1.481-35.905,3.155-49.882c5.263-43.957-7.51-81.62-28.517-119.133
		C2592.268,1312.075,2564.776,1285.087,2590.207,1277.523z M2576.075,1521.442c40.151-12.048,23.513,41.942-0.736,42.051
		C2549.834,1563.607,2558.83,1526.617,2576.075,1521.442z M473.61,1121.894c8.241-1.265,15.326,6.594,17.202,13.585
		c2.339,8.715-26.836,53.492-42.032,49.105C420.371,1176.382,455.667,1124.647,473.61,1121.894z M416.815,1256.484
		c28.601-2.628,19.168,52.328-7.823,34.778C393.555,1281.224,401.699,1257.873,416.815,1256.484z M595.874,1694.494
		c-79.894-43.814-148.38-117.509-183.084-202.084c-6.326-15.416-31.363-74.285-9.918-80.609c4.181-1.233,8.488-1.29,12.668-0.023
		c10.251,3.108,22.367,57.329,28.062,71.021c39.01,93.774,113.837,156.368,202.852,199.985
		c12.121,5.939,42.233,10.629,43.828,27.185C693.975,1748.29,609.775,1702.117,595.874,1694.494z M835.431,526.446
		c-5.546,12.683-16.671,53.989-27.655,57.295c-8.13,2.447-19.331-0.102-21.738-9.029c-3.54-13.129,30.564-92.032,44.434-95.885
		c9.717-2.699,18.444,4.747,20.775,13.53C854.017,502.79,839.806,516.443,835.431,526.446z M913.779,1724.928
		c-35.301,10.458-42.327-24.587-23.307-30.305C923.121,1684.808,939.243,1717.384,913.779,1724.928z M872.201,372.398
		c-80.134,64.644-126.128,160.993-136.097,263.206c-1.404,14.398,2.887,36.348-0.76,48.713c-4.888,16.571-31.088,8.292-31.088,0.712
		c0-22.279-2.068-49.174,0-70.673c8.602-89.411,63.947-194.843,130.695-254.473c11.183-9.99,88.592-75.783,92.09-35.092
		C928.266,339.05,884.463,362.506,872.201,372.398z M1168.874,273.416c-36.466-2.264-72.754,1.52-108.506,7.991
		c-12.924,2.339-32.943,13.986-45.143,7.923c-7.988-3.969-9.05-15.492-5.342-23.058c9.571-19.531,108.921-26.339,130.778-26.266
		c15.684,0.053,85.371,2.62,91.913,15.623C1253.219,296.661,1186.029,274.481,1168.874,273.416z M1911.979,507.596
		c11.889-1.274,35.284-2.925,36.016,14.78c0.704,17.032-23.701,18.658-37.031,19.475c-14.032,0.86-29.482,4.618-30.327-12.301
		C1879.701,510.801,1896.04,509.304,1911.979,507.596z M2020.464,1757.439c-6.491,14.054-67.777,55.083-84.125,64.266
		c-73.254,41.146-168.368,63.895-248.586,28.29c-13.016-5.777-39.244-18.299-31.188-35.87c10.521-22.947,45.007,7.453,64.642,13.018
		c83.717,23.73,180.329-14.729,246.226-66.219c10.34-8.079,24.248-28.781,36.28-31.176
		C2021.016,1726.303,2026.755,1743.82,2020.464,1757.439z M2195.373,988.777c-0.62-6.797,21.372-46.317,25.781-58.964
		c44.111-126.522,5.566-267.82-103.753-346.943c-9.488-6.868-52.093-28.994-54.495-33.859c-4.172-8.448-2.146-21.259,7.872-24.176
		c15.7-4.572,62.838,28.136,76.369,38.889c115.548,91.821,152.32,243.584,103.949,381.897c-3.946,11.283-19.754,51.92-29.833,55.018
		C2211.286,1003.707,2196.496,1001.079,2195.373,988.777z"/>
	<path style="fill:#BDA9C8;" d="M2414.562,1665.654c0.591-0.077,1.186-0.174,1.778-0.254
		C2415.167,1665.431,2414.428,1665.528,2414.562,1665.654z"/>
	<path style="fill:#BDA9C8;" d="M2418.26,1666.571l-3.698-0.917C2415.121,1666.182,2416.463,1666.458,2418.26,1666.571z"/>
	<path style="fill:#F5CCB1;" d="M706.17,964.326c-101.194-266.274-48.89-577.653,218.931-720.947
		c225.969-120.902,498.844-61.72,644.901,143.057c-117.806-197.411-306.735-289.254-537.838-246.312
		C648.35,211.441,500.349,577.538,658.82,921.283c6.48,14.056,36.814,54.87,27.526,67.273c-7.64,10.203-41.666,4.897-56.297,5.669
		C653.687,1004.69,718.568,1001.119,706.17,964.326z"/>
	<path style="fill:#F5CCB1;" d="M714.852,981.718c3.222-17.453-14.208-49.783-19.423-68.774
		c-32.057-116.738-41.219-223.587-14.18-342.797c80.51-354.954,526.929-503.773,803.989-266.795l84.765,83.084
		c-146.056-204.777-418.932-263.959-644.901-143.057C657.279,386.673,604.976,698.052,706.17,964.326
		c12.398,36.793-52.483,40.364-76.121,29.898C646.155,1012.389,710.804,1003.641,714.852,981.718z"/>
	<path style="fill:#F6CDB2;" d="M2374.056,1096.553c-34.269-2.122-86.04,5.797-116.767,0.155
		c-9.432-1.732-13.868-12.42-10.938-21.257c42.415-70.828,74.205-153.425,86.336-235.525
		c49.662-336.107-241.879-506.307-525.931-347.481c140.207-52.102,309.674-51.122,415.816,70.246
		c133.335,152.463,85.16,362.636,5.741,528.743c0.355,6.997,5.798,13.34,12.287,15.911c168.004-4.652,423.34,54.467,468.356,242.838
		c36.406,152.34-126.405,291.803-264.271,313.818c-3.508,0.56-11.94,1.866-19.042,2.4c1.957,0.582,3.304,1.461,3.036,2.752
		c174.574-12.513,378.411-139.727,315.498-342C2700.182,1185.701,2511.066,1105.038,2374.056,1096.553z"/>
	<path style="fill:#F6CDB2;" d="M2416.34,1665.4c-0.592,0.08-1.188,0.178-1.778,0.254l3.698,0.917
		c2.001,0.125,4.579,0.041,7.383-0.17C2422.794,1665.554,2418.675,1665.339,2416.34,1665.4z"/>
	<path style="fill:#F6CDB2;" d="M1822.722,492.541c154.616-47.369,318.379-38.347,418.02,104.802
		c103.04,148.034,52.005,342.074-19.124,492.175c-2.162,9.812,8.579,22.966,18.101,24.761
		c150.006-3.276,363.975,40.363,441.681,183.777c96.786,178.63-101.013,345.061-265.059,367.344
		c2.334-0.061,6.454,0.154,9.303,1.001c7.102-0.533,15.534-1.839,19.042-2.4c137.866-22.015,300.677-161.478,264.271-313.818
		c-45.016-188.37-300.353-247.49-468.356-242.838c-6.489-2.571-11.932-8.915-12.287-15.911
		c79.419-166.107,127.594-376.28-5.741-528.743c-106.142-121.368-275.609-122.348-415.816-70.246
		C1809.884,499.248,1818.065,493.967,1822.722,492.541z"/>
	<path style="fill:#F6CDB2;" d="M2425.643,1666.401c-2.804,0.211-5.382,0.295-7.383,0.17l10.419,2.582
		C2428.948,1667.862,2427.6,1666.983,2425.643,1666.401z"/>
	<path style="fill:#F5CDB3;" d="M1504.288,1802.302c-54.384-65.557-104.331-133.498-149.84-203.822
		c38.285,78.719,62.1,140.294,121.861,208.536c212.98,243.206,544.638,203.976,669.678-98.993
		C2026.844,1942.284,1679.798,2009.138,1504.288,1802.302z"/>
	<path style="fill:#F5CDB3;" d="M1822.601,1916.452c-255.856,20.372-329.384-137.127-456.087-310.596
		c-1.096-1.501-9.937-14.57-12.066-7.376c45.509,70.324,95.456,138.265,149.84,203.822
		c175.51,206.836,522.556,139.982,641.699-94.279C2073.955,1818.942,1958.243,1905.652,1822.601,1916.452z"/>
	<path style="fill:#F7CCB2;" d="M2251.098,945.621c48.371-138.313,11.599-290.076-103.949-381.897
		c-13.531-10.753-60.669-43.461-76.369-38.889c-10.019,2.917-12.044,15.728-7.872,24.176c2.403,4.865,45.007,26.991,54.495,33.859
		c109.319,79.123,147.864,220.422,103.753,346.943c-4.409,12.647-26.402,52.167-25.781,58.964
		c1.122,12.302,15.913,14.93,25.891,11.863C2231.344,997.541,2247.152,956.904,2251.098,945.621z"/>
	<path style="fill:#F5CBB2;" d="M834.951,359.883c-66.748,59.63-122.093,165.062-130.695,254.473c-2.068,21.499,0,48.394,0,70.673
		c0,7.58,26.201,15.859,31.088-0.712c3.647-12.366-0.644-34.316,0.76-48.713c9.969-102.213,55.963-198.563,136.097-263.206
		c12.262-9.892,56.066-33.348,54.84-47.607C923.543,284.1,846.133,349.893,834.951,359.883z"/>
	<path style="fill:#F6CBB2;" d="M646.454,1682.784c-89.015-43.617-163.842-106.211-202.852-199.985
		c-5.696-13.691-17.811-67.913-28.062-71.021c-4.18-1.267-8.487-1.21-12.668,0.023c-21.445,6.323,3.592,65.193,9.918,80.609
		c34.704,84.575,103.19,158.271,183.084,202.084c13.902,7.624,98.101,53.796,94.408,15.475
		C688.687,1693.413,658.575,1688.723,646.454,1682.784z"/>
	<path style="fill:#F6CAB0;" d="M2003.713,1729.748c-12.033,2.395-25.94,23.096-36.28,31.176
		c-65.897,51.49-162.51,89.949-246.226,66.219c-19.634-5.565-54.12-35.965-64.642-13.018c-8.056,17.571,18.173,30.093,31.188,35.87
		c80.219,35.606,175.333,12.856,248.586-28.29c16.348-9.183,77.633-50.212,84.125-64.266
		C2026.755,1743.82,2021.016,1726.303,2003.713,1729.748z"/>
	<path style="fill:#F4CAB1;" d="M1140.662,240.006c-21.857-0.073-121.207,6.735-130.778,26.266
		c-3.708,7.566-2.646,19.089,5.342,23.058c12.2,6.063,32.219-5.584,45.143-7.923c35.752-6.471,72.04-10.255,108.506-7.991
		c17.155,1.065,84.345,23.245,63.701-17.788C1226.034,242.625,1156.346,240.058,1140.662,240.006z"/>
	<path style="fill:#F5CAB1;" d="M2626.184,1440.849c-1.674,13.978-18.39,42.273-3.155,49.882
		c39.856,19.907,36.973-81.406,34.432-101.598c-3.396-26.972-22.113-73.923-38.598-95.68c-7.495-9.891-14.377-20.177-28.656-15.93
		c-25.431,7.564,2.061,34.553,7.46,44.193C2618.674,1359.229,2631.448,1396.892,2626.184,1440.849z"/>
	<path style="fill:#F5CBB2;" d="M830.473,478.828c-13.87,3.853-47.974,82.756-44.434,95.885c2.407,8.927,13.608,11.476,21.738,9.029
		c10.984-3.306,22.109-44.612,27.655-57.295c4.374-10.003,18.586-23.656,15.817-34.088
		C848.917,483.576,840.19,476.129,830.473,478.828z"/>
	<path style="fill:#F4CAAF;" d="M448.78,1184.584c15.195,4.387,44.37-40.391,42.032-49.105c-1.876-6.991-8.961-14.85-17.202-13.585
		C455.667,1124.647,420.371,1176.382,448.78,1184.584z"/>
	<path style="fill:#F5CBB4;" d="M1910.963,541.851c13.33-0.817,37.735-2.443,37.031-19.475
		c-0.732-17.705-24.127-16.055-36.016-14.78c-15.939,1.708-32.278,3.205-31.342,21.955
		C1881.481,546.469,1896.932,542.711,1910.963,541.851z"/>
	<path style="fill:#F6D0B8;" d="M2575.339,1563.492c24.249-0.109,40.887-54.099,0.736-42.051
		C2558.83,1526.617,2549.834,1563.607,2575.339,1563.492z"/>
	<path style="fill:#F4CDB4;" d="M890.472,1694.624c-19.02,5.718-11.994,40.763,23.307,30.305
		C939.243,1717.384,923.121,1684.808,890.472,1694.624z"/>
	<path style="fill:#F2CDB5;" d="M408.992,1291.262c26.991,17.55,36.423-37.406,7.823-34.778
		C401.699,1257.873,393.555,1281.224,408.992,1291.262z"/>
</g>
</svg>
