<?xml version="1.0" encoding="iso-8859-1"?>
<!-- Generator: Adobe Illustrator 29.2.1, SVG Export Plug-In . SVG Version: 9.03 Build 55982)  -->
<svg version="1.1" id="Layer_1" xmlns="http://www.w3.org/2000/svg" xmlns:xlink="http://www.w3.org/1999/xlink" x="0px" y="0px"
	 viewBox="0 0 2200 2241.67" style="enable-background:new 0 0 2200 2241.67;" xml:space="preserve">
<g>
	<path style="fill:#0D0E0E;" d="M2098.567,377.998c-2.43-47.256-7.286-112.201-59.164-130.136c-7.139-2.468-23.889-4.145-27.679-6.5
		c-1.862-1.157-13.26-20.33-20.996-26.329c-44.645-34.621-143.023-13.776-197.266-19.64c4.689-53.264-21.279-104.431-82.178-94.039
		c-44.061,7.519-54.54,54.337-64.934,90.189l-81.62,1.221c1.409-53.289-29.644-107.013-89.961-88.67
		c-42.572,12.946-45.941,50.112-58.991,86.146c-73.643,1.134-146.856-7.23-220.544-5.486
		c-83.834,1.984-168.479,8.953-252.183,10.734c-39.868,0.848-79.9-0.864-119.748-0.095c3.112-57.781-38.383-108.161-98.245-81.181
		c-35.951,16.203-39.336,52.462-49.326,86.083l-78.537,2.985c2.106-49.416-20.194-100.507-77.565-94.659
		c-51.874,5.288-62.645,59.949-72.098,101.405c-84.265,11.316-160.167-5.956-183.004,95.688
		C236.85,428.9,241.34,581.649,231.725,709.354c-12.194,161.954-26.096,324.409-39.439,486.394
		c-18.68,226.78-59.581,453.25-92.094,678.251c-0.292,21.627-1.323,40.865,7.483,61.078c18.439,42.327,67.727,46.143,107.942,51.122
		c3.986,46.227,31.557,85.307,77.183,97.657c39.827,10.78,67.167,2.428,105.779,1.766c175.818-3.017,367.365,33.564,546.964,42.22
		c294.458,14.192,598.87,17.094,893.834,10.382c55.245-1.257,110.709,1.273,165.723-5.173
		c100.471-11.772,82.604-87.562,85.362-167.038c8.251-237.777-0.932-472.836-7.67-709.874
		c-5.688-200.101,5.786-406.296,10.517-607.12C2095.418,559.453,2103.163,467.376,2098.567,377.998z M2014.326,538.512
		c-0.382-9.384-0.472-19.697-0.126-29.073c1.258-34.047,4.175-73.874,7.904-107.779c0.433-3.934,0.585-8.106,5.34-9.093
		c-2.528,51.74-9.367,103.381-10.517,155.107C2012.342,548.291,2014.456,541.711,2014.326,538.512z M1678.559,213.236
		c3.763-23.08,10.927-72.098,37.948-77.713c11.771-2.446,22.549-1.834,30.794,7.437c25.953,29.184,1.171,93.787-1.126,130.005
		c-1.179,18.592-0.035,38.147,1.245,56.665C1659.527,398.514,1670.111,265.057,1678.559,213.236z M1450.312,203.21
		c4.219-22.566,10.314-62.12,37.475-67.706c11.92-2.451,24.665,1.471,31.871,11.619c20.684,29.124,0.292,82.824-2.204,115.343
		c-1.696,22.102,1.544,45.643-0.462,67.896C1425.677,402.139,1440.672,254.773,1450.312,203.21z M722.103,163.841
		c5.868-12.472,15.434-21.16,29.606-23.161c10.367-1.464,22.184,4.211,28.112,12.745c20.364,29.313-1.54,87.954-3.805,122.171
		c-1.032,15.596,3.139,47.721-0.533,59.938c-1.557,5.179-35.106,22.647-40.241,22.654c-4.313,0.006-14.085-5.645-17.16-8.935
		C690.515,319.747,705.436,199.262,722.103,163.841z M476.154,264.942c1.451-28.885,10.248-114.576,44.086-121.535
		c13.429-2.761,24.109,0.116,32.289,11.199c21.929,29.709-0.149,86.626-2.616,120.996c-1.428,19.899,0.103,41.994,1.236,61.915
		C482.476,391.918,473.353,320.72,476.154,264.942z M281.732,443.862c3.096-36.229,10.914-148.093,32.998-172.076
		c24.628-26.745,96.104-20.625,129.969-26.439c-9.157,50.063-2.642,153.419,69.679,147.258
		c17.581-1.498,67.312-27.129,75.463-42.895c4.125-7.978,5.728-17.911,4.814-26.852c-1.116-10.913-8.271-15.036-9.959-21.637
		c-2.064-8.073,2.133-59.078,7.072-62.638l79.05-3.776c-3.379,45.678-9.946,117.597,33.301,146.809
		c18.934,12.789,35.303,12.826,56.072,4.357c8.735-3.562,30.631-14.435,38.672-19.17c16.859-9.927,25.665-31.841,20.586-50.575
		c-1.655-6.104-8.02-10.981-9.165-17.115c-1.642-8.795,3.448-65.692,9.519-67.028c46.082-5.125,92.687-1.138,139.019-2.418
		c79.379-2.193,159.384-8.791,239.037-10.734c71.648-1.747,142.812,6.801,214.395,5.37c-7.162,54.006-11.387,166.842,69.781,160.47
		c24.759-1.944,75.517-29.959,79.507-57.295c3.12-21.375-11.775-27.682-12.606-36.173c-0.741-7.561,4.078-39.93,6.095-49.105
		c0.678-3.085,2.49-15.272,5.761-15.272h82.819c-12.192,52.545-8.142,168.24,72.082,157.508
		c11.412-1.527,60.238-26.684,66.874-35.641c7.831-10.569,10.388-25.632,7.67-38.454c-1.926-9.087-9.164-12.274-10.108-24.117
		c-0.524-6.573,5.048-53.473,7.907-55.533c16.532-3.796,32.13,1.807,48.944,1.621c7.493-0.083,13.987-2.818,20.8-2.863
		c26.922-0.178,95.422-4.08,114.481,14.565c37.184,36.376,13.714,172.998,10.541,223.511c-3.463,55.116-4.952,110.455-7.912,165.613
		l-2.466,5.422c-86.834,0.353-174.871,3.442-261.877,1.256c-25.063-0.63-53.56-4.723-78.658-5.475
		c-116.845-3.501-232.903,2.945-349.679,0c-247.631-6.244-496.159-1.608-744.135-7.806c-4.98-0.125-10.1-2.566-15.693-2.711
		c-83.523-2.157-167.912-0.012-251.203,2.747L281.732,443.862z M212.067,1951.627c-52.237-3.854-81.085-14.793-77.56-72.235
		c2.697-43.94,16.645-97.446,23.19-142.447c22.698-156.087,48.535-316.007,63.527-472.823
		c8.606-90.018,11.044-180.654,18.438-270.77c9.172-111.792,24.196-223.118,28.885-335.254l1701.097,15.775
		c-0.347,10.018,0.495,20.184-0.041,30.221c-12.884,241.512-50.704,485.048-73.578,725.689
		c-5.181,54.504-1.661,144.176-21.597,191.365c-23.223,54.97-111.617,78.747-166.29,80.851
		c-59.162,2.277-125.185-22.88-176.262,23.556c-67.685,61.536,0.028,248.353-123.469,257.76
		c-70.793,5.392-154.249-6.115-226.104-8.101c-172.528-4.767-345.795-0.194-518.027-7.806
		c-55.088-2.435-110.638-8.568-165.556-10.598C404.583,1953.331,305.247,1958.501,212.067,1951.627z M1679.171,1836.042
		c48.202-39.34,105.373-73.281,151.15-114.396c20.198-18.141,36.357-39.825,55.149-59.193c-2.353,32.775-2.666,65.801-5.247,98.578
		c-4.493,57.046-8.04,174.629-63.945,204.23c-42.927,22.729-176.856,16.908-231.712,18.058c-24.979,0.524-50.079-0.588-75.039-0.135
		C1569.172,1937.867,1621.237,1883.327,1679.171,1836.042z M1500.306,1954.273c-1.832,0.576-1.712-2.067-1.249-3.864
		c4.08-15.83,11.501-30.733,14.951-48.162c14.439-72.95-7.058-172.867,96.77-179.271c21.764-1.343,44.069,4.453,65.59,5.315
		c23.421,0.938,46.523-1.426,69.781-2.738c13.918-4.912,28.417-6.95,42.649-11.251c1.747-0.528,9.421-4.91,6.02,0.75
		c-44.589,35.343-92.694,66.498-136.679,102.588c-43.859,35.987-83.709,76.967-127.581,112.987
		c-3.921,3.219-6.969,6.618-10.352,9.313C1513.841,1945.012,1506.884,1949.477,1500.306,1954.273z M2053.789,2010.844
		c-1.177,20.354,2.004,62.762-15.165,77.589c-16.026,13.84-88.846,11.97-112.485,12.981c-209.089,8.945-418.853,3.59-628.153,0
		c-184.615-3.167-368.15-3.05-552.221-20.937c-101.876-9.899-202.197-27.002-304.886-29.018
		c-41.114-0.807-108.62,9.85-144.119-3.114c-10.135-3.701-25.837-11.161-28.174-23.068c5.268,3.493,10.406,2.009,15.749,2.628
		c-2.272-9.1,5.598-8.375,7.542-12.2c-0.151-0.262-0.333-0.505-0.535-0.738c-4.029,0.797-7.148-2.221-9.636-2.837
		c-5.402-1.338-25.22-2.294-26.59-4.187c-1.711-2.363-6.422-20.632-4.965-22.093c6.549,0.335,13.296-0.502,19.857-0.137
		c141.371,7.864,284.074,9.66,425.765,15.927c144.833,6.406,291.178,4.373,436.36,7.969c197.956,4.903,401.817,14.863,599.586,2.549
		c49.247-3.066,100.98-4.365,133.831-47.581c51.325-67.518,45.895-254.403,51.388-340.357
		c18.755-293.443,60.918-584.816,84.215-878.059c3.394-42.723,3.092-86.354,7.806-128.911c0.437-3.945,0.584-8.126,5.367-9.094
		V743.56c0,7.164,9.32,17.781,14.423,6.535c5.319-40.676,4.569-82.423,6.624-123.52l21.187,9.477
		c-1.394,62.112,1.245,124.386-0.059,186.491c-1.151,54.79-6.719,110.471-8.104,165.42
		C2039.798,1329,2073.501,1670.01,2053.789,2010.844z M2059.008,621.293c-4.12,4.189-18.996-12.836-21.055-17.044
		c-2.761-104.967,22.024-210.007,2.691-314.22c3.317,0.741,5.628,4.323,7.43,7.004c11.458,17.045,15.103,67.369,16.178,88.987
		C2068.161,464.549,2058.557,542.825,2059.008,621.293z"/>
	<path style="fill:#F9F2DE;" d="M498.72,1956.811c54.918,2.03,110.468,8.164,165.556,10.598
		c172.232,7.612,345.499,3.038,518.027,7.806c71.855,1.985,155.312,13.493,226.104,8.101
		c123.497-9.407,55.784-196.224,123.469-257.76c51.077-46.436,117.1-21.279,176.262-23.556
		c54.672-2.104,143.067-25.88,166.29-80.851c19.936-47.189,16.417-136.861,21.597-191.365
		c22.874-240.641,60.693-484.177,73.578-725.689c0.535-10.037-0.306-20.203,0.041-30.221L268.547,658.099
		c-4.689,112.135-19.713,223.462-28.885,335.254c-7.394,90.116-9.833,180.752-18.438,270.77
		c-14.992,156.815-40.829,316.735-63.527,472.823c-6.544,45.001-20.493,98.507-23.19,142.447
		c-3.525,57.442,25.323,68.381,77.56,72.235C305.247,1958.501,404.583,1953.331,498.72,1956.811z M1674.85,795.831
		c1.909-11.76-3.81-31.869,15.311-34.703c4.546-0.674,9.945,2.29,15.132,2.273c20.536-0.069,78.517-4.722,92.202,7.689
		c10.96,9.94,7.511,61.998,2.531,76.302c-4.37,12.553-13.625,20.825-26.902,23.052c-15.438,2.59-62.918,5.09-77.619,2.636
		C1652.063,865.828,1670.199,824.494,1674.85,795.831z M1649.264,1014.873c0.613-2.606,11.764-13.587,14.605-14.433
		c29.181,2.379,66.05-1.323,94.175,2.03c29.362,3.501,26.521,33.711,25.024,56.698c-1.521,23.353-6.562,48.647-33.606,53.157
		c-16.847,2.809-58.701,4.952-75.322,2.97c-52.082-6.209-25.877-53.676-22.807-85.568
		C1651.864,1024.209,1648.33,1018.841,1649.264,1014.873z M1625.259,1274.539c2.331-16.797-7.83-27.634,20.364-32.058
		c22.166-3.478,48.022,2.401,70.316,4.54c14.911,1.43,24.825-5.111,35.477,9.221c11.29,15.192,5.286,19.57,5.127,34.084
		c-0.395,36.055,3.448,64.729-40.958,69.445c-13.955,1.482-38.368,3.169-52.248,3.196c-12.463,0.024-31.261-3.612-39.532-13.295
		C1605.669,1328.438,1621.854,1299.072,1625.259,1274.539z M1600.028,1515.105c2.471-9.754,15.765-13.685,24.554-14.974
		c18.59-2.726,71.249,1.635,91.187,4.718c13.801,2.134,22.471,16.693,22.714,30.109c0.125,6.884-2.684,12.578-2.822,18.411
		c-0.546,23.07,3.85,63.554-25.589,71.69c-19.252,5.321-81.074,8.155-99.069,0.331c-37.531-16.318-13.174-64.165-9.647-93.514
		C1602.106,1525.636,1598.821,1519.871,1600.028,1515.105z M1357.073,764.634c12.163-5.496,54.629,0.286,69.661,1.247
		c13.896,0.889,34.806-4.033,45.054,6.215c9.1,9.1,7.264,44.521,5.866,57.905c-1.683,16.111-9.039,38.109-27.425,40.934
		c-19.995,3.072-61.865,5.182-81.424,2.829c-44.771-5.384-22.659-55.306-19.577-83.025
		C1350.106,782.842,1343.148,770.926,1357.073,764.634z M1325.173,1032.457c2.77-16.95-5.358-31.072,18.078-37.366
		c23.307,1.617,46.875,3.432,70.193,4.931c14.281,0.918,22.561-5.63,34.45,5.006c12.569,11.244,10.431,40.399,9.142,56.756
		c-1.641,20.838-7.425,41.362-30.963,45.283c-16.394,2.731-65.195,5.533-80.712,3.102
		C1302.824,1103.502,1320.711,1059.765,1325.173,1032.457z M1007.049,1021.945c2.01-11.776-3.946-28.145,12.701-31.994
		c27.983-6.471,67.526,5.759,96.773,2.008c10.866-0.133,19.652,10.571,21.678,20.371c1.807,8.742-0.987,46.596-2.644,56.621
		c-2.147,12.988-11.269,27.55-24.949,30.264c-18.301,3.63-65.079,5.475-83.303,2.995
		C982.176,1096.066,1002.214,1050.271,1007.049,1021.945z M962.347,1524.109c1.989-12.362-4.491-24.897,9.863-32.204
		c13.307-6.774,57.544-2.186,74.583-0.348l28.909-1.303c-32.246-23.378-55.002-61.421-66.399-99.239
		c-3.565-11.829-4.042-27.416-7.194-36.95c-0.636-1.924-5.447-3.115-7.899-4.483c-1.927-1.075-5.675-0.894-8.779-2.934
		c-26.377-17.335-8.759-53.012-4.677-77.567c1.233-7.417-0.528-15.186,0.921-22.866c3.116-16.505,28.74-11.919,41.455-12.317
		c20.465-40.024,75.02-97.082,120.022-106.86c29.364-6.38,31.666-5.777,57.636-21.67c27.306-16.71,124.228-0.119,155.404,12.373
		c98.001,39.268,138.295,158.15,104.091,254.9c-19.724,55.791-58.318,91.757-105.879,124.173c36.094-3.866,61.79-0.86,60.573,40.866
		c-0.351,12.035-1.514,35.549-3.363,46.579c-3.333,19.883-18.664,28.959-37.522,30.836c-20.47,2.038-62.444,5.158-80.731-0.711
		c-33.492-10.75-24.646-57.25-15.203-83.391c-0.313-8.81,4.093-7.105-4.668-6.018c-43.442,5.389-85.457,12-128.847-1.128
		l-53.156-19.146c9.98,14.023,3.068,22.368,2.657,35.521c-0.736,23.543,4.316,55.795-23.723,65.67
		c-16.034,5.647-78.514,8.241-94.597,2.641C936.62,1594.882,957.83,1552.184,962.347,1524.109z M936.727,1748.488
		c2.043-8.124,15.156-13.167,22.685-14.352c17.85-2.812,71.778,1.708,91.178,4.709c13.885,2.148,22.465,16.787,22.714,30.109
		c0.205,11.007-1.611,38.823-3.079,49.705c-2.457,18.22-14.037,32.972-32.868,35.49c-15.907,2.127-52.589,4.293-68.217,2.957
		c-64.57-5.522-33.927-54.594-30.396-93.716C939.189,1758.467,935.393,1753.795,936.727,1748.488z M678.788,1014.191
		c1.275-8.909-4.57-24.596,12.295-29.518c23.745-6.93,70.164,7.762,96.852,1.969c10.387,1.131,19.616,10.511,21.625,20.444
		c2.384,11.786-0.503,46.387-2.65,59.235c-2.099,12.565-12.124,25.076-24.948,27.635c-18.229,3.637-65.137,5.467-83.303,2.995
		C653.904,1090.859,674.659,1043.051,678.788,1014.191z M649.512,1271.745c1.748-11.165-3.373-28.885,6.295-37.06
		c8.777-7.422,31.362-6.423,42.73-6.152c17.34,0.412,48.844,2.434,65.474,5.512c10.499,1.943,17.37,9.878,19.243,20.195
		c1.972,10.866-0.542,50.248-2.62,61.866c-4.769,26.668-27.961,29.391-50.549,30.955c-18.86,1.306-67.004,3.508-80.096-9.512
		C632.885,1320.54,646.405,1291.592,649.512,1271.745z M625.852,1524.147c4.951-29.926-8.242-37.965,33.945-39.719
		c18.858-0.784,59.294,1.749,77.919,4.649c12.076,1.88,21.654,16.078,22.406,27.775c0.586,9.108-1.648,39.312-2.829,49.345
		c-2.815,23.92-13.735,35.991-37.863,38.383c-15.65,1.552-48.238,3.99-63.049,2.631
		C598.263,1601.881,619.859,1560.367,625.852,1524.147z M596.929,1766.029c2.781-16.84-6.23-34.825,19.935-37.906
		c17.774-2.093,79.858,1.262,97.111,5.559c4.045,1.007,8.197,3.023,11.149,5.923c12.959,12.733,6.383,24.22,6.185,37.249
		c-0.474,31.191,5.242,69.624-35.809,74.601c-20.893,2.533-68.52,5.49-87.037-1.758
		C571.478,1835.221,592.489,1792.916,596.929,1766.029z M323.462,1261.195c2.023-12.404-4.49-30.636,12.706-34.619
		c19.316-4.474,47.922,0.932,67.686,2.174c17.322,1.089,43.411-6.56,50.208,15.523c3.103,10.082-0.107,51.906-2.091,63.927
		c-2.075,12.577-12.129,25.073-24.948,27.635c-17.451,3.488-65.892,5.37-83.299,2.999
		C300.537,1332.95,318.967,1288.756,323.462,1261.195z M312.503,1481.603c28.318-6.323,67.221,6.002,96.777,2.007
		c12.486,1.064,20.975,10.411,22.345,22.347c1.364,11.881-2.915,55.764-7.461,66.274c-5.532,12.788-14.191,19.739-28.323,21.631
		c-17.543,2.349-58.155,4.55-74.84,1.69c-50.12-8.591-25.14-54.307-21.172-87.202
		C300.959,1498.982,293.592,1485.826,312.503,1481.603z M285.522,1838.734c-36.764-10.393-18.537-49.251-14.654-75.379
		c2.194-14.763-5.718-35.156,15.334-39.879c17.268-3.873,42.502,0.975,59.945,2.049c19.598,1.208,54.484-5.8,58.979,22.525
		c3.917,24.683,2.085,85.558-30.255,90.387C354.622,1841.461,303.943,1843.942,285.522,1838.734z"/>
	<path style="fill:#807F45;" d="M522.383,623.825c5.594,0.144,10.713,2.586,15.693,2.711c247.976,6.198,496.505,1.562,744.135,7.806
		c116.776,2.945,232.834-3.501,349.679,0c25.098,0.752,53.594,4.846,78.658,5.475c87.006,2.186,175.044-0.903,261.877-1.256
		l2.466-5.422c2.96-55.157,4.449-110.496,7.912-165.613c3.174-50.513,26.643-187.135-10.541-223.511
		c-19.059-18.645-87.559-14.743-114.481-14.565c-6.813,0.045-13.307,2.781-20.8,2.863c-16.815,0.185-32.412-5.417-48.944-1.621
		c-2.859,2.06-8.43,48.96-7.907,55.533c0.944,11.843,8.182,15.031,10.108,24.117c2.718,12.822,0.161,27.885-7.67,38.454
		c-6.637,8.958-55.462,34.114-66.874,35.641c-80.224,10.733-84.274-104.963-72.082-157.508h-82.819
		c-3.271,0-5.083,12.187-5.761,15.272c-2.017,9.174-6.836,41.544-6.095,49.105c0.832,8.49,15.726,14.798,12.606,36.173
		c-3.99,27.336-54.748,55.351-79.507,57.295c-81.168,6.372-76.943-106.464-69.781-160.47c-71.583,1.431-142.747-7.118-214.395-5.37
		c-79.653,1.943-159.658,8.541-239.037,10.734c-46.332,1.28-92.938-2.707-139.019,2.418c-6.071,1.336-11.161,58.233-9.519,67.028
		c1.145,6.134,7.51,11.011,9.165,17.115c5.079,18.734-3.727,40.647-20.586,50.575c-8.041,4.735-29.937,15.608-38.672,19.17
		c-20.769,8.469-37.138,8.433-56.072-4.357c-43.247-29.212-36.68-101.132-33.301-146.809l-79.05,3.776
		c-4.939,3.56-9.135,54.566-7.072,62.638c1.687,6.601,8.843,10.724,9.959,21.637c0.914,8.94-0.689,18.874-4.814,26.852
		c-8.151,15.766-57.882,41.398-75.463,42.895c-72.321,6.161-78.836-97.195-69.679-147.258
		c-33.866,5.813-105.342-0.306-129.969,26.439c-22.085,23.984-29.902,135.847-32.998,172.076l-10.553,182.71
		C354.471,623.812,438.86,621.668,522.383,623.825z"/>
	<path style="fill:#D1C8BB;" d="M2048.396,987.964c1.385-54.949,6.953-110.631,8.104-165.42
		c1.304-62.104-1.334-124.379,0.059-186.491l-21.187-9.477c-2.055,41.096-1.305,82.844-6.624,123.52
		c-5.103,11.246-14.423,0.628-14.423-6.535V608.158c-4.783,0.968-4.93,5.149-5.367,9.094c-4.714,42.557-4.411,86.188-7.806,128.911
		c-23.297,293.243-65.46,584.616-84.215,878.059c-5.494,85.954-0.064,272.839-51.388,340.357
		c-32.851,43.216-84.584,44.515-133.831,47.581c-197.769,12.314-401.63,2.355-599.586-2.549
		c-145.182-3.596-291.527-1.563-436.36-7.969c-141.691-6.267-284.395-8.063-425.765-15.927c-6.561-0.365-13.307,0.473-19.857,0.137
		c-1.457,1.461,3.254,19.73,4.965,22.093c1.371,1.892,21.189,2.849,26.59,4.187c8.549-1.272,16.531,2.254,24.873,2.737
		c138.275,8.018,277.356,8.679,415.486,20.951c141.028,12.529,276.217,23.005,417.954,26.375
		c58.36,1.387,116.929-2.083,174.935,2.534c0.81,5.049-2.066,7.035-6.575,7.858c-16.296,2.972-44.874-0.724-63.193-0.093
		c-136.786,4.71-276.088,5.582-412.644-5.176c-57.058-4.495-113.823-14.249-170.95-18.35
		c-124.183-8.914-254.521-6.834-377.257-21.062c-5.343-0.619-10.481,0.865-15.749-2.628c2.337,11.907,18.039,19.367,28.174,23.068
		c35.499,12.963,103.006,2.307,144.119,3.114c102.69,2.015,203.01,19.118,304.886,29.018
		c184.071,17.887,367.606,17.77,552.221,20.937c209.3,3.59,419.064,8.945,628.153,0c23.639-1.011,96.459,0.859,112.485-12.981
		c17.169-14.827,13.988-57.236,15.165-77.589C2073.501,1670.01,2039.798,1329,2048.396,987.964z M1980.146,1293.055
		c0-6.631,7.133-25.337,14.521-14.521c4.424,38.778,3.642,77.985,3.775,117.167c0.026,7.576,3.004,14.914,2.942,23.597
		c-0.086,12.095-2.693,52.755-6.082,62.423c-3.026,8.634-8.188,6.784-15.157,4.578V1293.055z M1985.393,1550.52
		c2.827-1.71,7.94,0.185,9.871,2.19c2.731,2.835,5.64,32.99,6.024,39.961c3.507,63.636-2.461,128.846-5.34,192.065
		c-1.232,27.062,0.504,54.537-2.593,81.54c-0.635,5.536-2.253,13.881-9.226,14.384c-4.149-0.86-6.368-20.375-6.71-24.865
		c-5.854-76.87,4.6-157.172,5.46-233.98C1983.035,1607.883,1974.98,1556.775,1985.393,1550.52z M2007.57,2072.421
		c-11.489,16.427-43.512,23.424-61.732,17.403c-12.156-4.018-5.651-13.875-8.094-16.892c-1.237-1.528-32.994-10.341-37.812-10.82
		c-56.907-5.659-125.827,6.43-183.908,7.971c-27.573,0.732-54.309-1.543-81.504-2.846c-13.426-0.643-32.736,2.297-44.806,0.11
		c-8.6-1.558-8.438-12.6-4.859-13.117c42.669-6.166,87.932-1.008,131.17-2.551l156.314-10.638
		c-2.282-15.874-44.294-20.999-46.508-32.781c-2.832-15.074,29.902,0.034,35.913,2.65c12.238,5.325,46.399,29.897,56.068,27.17
		c7.983-2.252,13.806-22.662,14.72-30.181c1.653-13.609-1.866-89.457,9.842-92.873c3.542-1.034,7.769,2.462,11.483,2.458v85.448
		c0,5.07-5.772,28.505-8.501,33.565c-2.739,5.077-17.866,16.548-15.153,20.295c10.912,5.053,22.196,6.779,33.697,9.693
		c10.086,2.556,12.451,10.795,25.515-1.708c16.445-15.738,8.901-92.008,14.923-116.529c4.166-9.434,13.201-9.452,17.339,0.015
		C2018.406,1980.576,2025.818,2046.329,2007.57,2072.421z M2030.209,827.802c-1.901,83.706-4.52,191.363-15.909,273.299
		c-0.736,5.298-3.114,27.589-9.176,27.58c-1.932-0.003-5.944-6.335-6.502-9.222c-4.316-22.328,1.764-60.784,2.531-84.089
		c2.356-71.504,4.474-144.082,10.57-215.538c0.699-8.193,2.806-47.173,9.21-48.657
		C2034.194,768.103,2030.43,818.038,2030.209,827.802z"/>
	<path style="fill:#D1C8BB;" d="M291.342,2014.969c0.201,0.233,0.384,0.476,0.535,0.738c0.143-0.281,0.26-0.582,0.333-0.919
		C291.912,2014.887,291.631,2014.912,291.342,2014.969z"/>
	<path style="fill:#F9F2DF;" d="M1584.565,1983.319c54.856-1.151,188.785,4.671,231.712-18.058
		c55.905-29.601,59.452-147.184,63.945-204.23c2.581-32.776,2.895-65.803,5.247-98.578c-18.792,19.368-34.951,41.051-55.149,59.193
		c-45.777,41.115-102.948,75.056-151.15,114.396c-57.935,47.284-109.999,101.824-169.645,147.142
		C1534.486,1982.731,1559.586,1983.844,1584.565,1983.319z"/>
	<path style="fill:#161717;" d="M700.184,2047.191c178.577,25.311,361.944,26.594,543.334,20.202
		c-199.836-1.01-400.356-11.761-601.559-32.252c-117.945-4.555-234.41-10.308-349.395-17.26c-0.065-0.818-0.315-1.531-0.687-2.175
		c-1.944,3.826-9.814,3.101-7.542,12.2l11.54-2.237C430.739,2032.055,565.509,2039.229,700.184,2047.191z"/>
	<path style="fill:#161717;" d="M281.706,2012.132c2.489,0.616,5.608,3.634,9.636,2.837
		C289.732,2013.109,286.545,2012.149,281.706,2012.132z"/>
	<path style="fill:#161717;" d="M832.542,2067.318c136.556,10.758,275.859,9.886,412.644,5.176
		c18.319-0.631,46.896,3.065,63.193,0.093c4.509-0.823,7.385-2.809,6.575-7.858c-58.006-4.617-116.575-1.147-174.935-2.534
		c-141.737-3.37-276.926-13.846-417.954-26.375c-138.13-12.271-277.212-12.932-415.486-20.951
		c-8.342-0.484-16.324-4.01-24.873-2.737c4.839,0.017,8.026,0.977,9.636,2.837c0.289-0.057,0.57-0.082,0.868-0.181
		c-0.072,0.336-0.19,0.637-0.333,0.919c0.371,0.643,0.621,1.356,0.687,2.175c114.985,6.952,231.45,12.706,349.395,17.26
		c201.204,20.491,401.724,31.241,601.559,32.252c-181.39,6.391-364.757,5.108-543.334-20.202
		c-134.676-7.962-269.445-15.136-404.309-21.521l-11.54,2.237c122.736,14.228,253.074,12.148,377.257,21.062
		C718.719,2053.069,775.484,2062.823,832.542,2067.318z"/>
	<path style="fill:#FAF3E0;" d="M1533.707,1916.687c15.275-26.615,35.184-55.964,52.513-81.573
		c3.141-4.642,11.735-11.047,12.697-14.911c2.776-11.151-1.303-45.484,12.21-46.515c12.747-0.973,10.022,17.556,8.824,28.111
		c6.074-1.933,15.912-17.468,20.078-18.216c5.184-0.93,7.756,9.34,14.074,7.687c4.384-13.434,2.209-30.043,14.88-39.032
		c17.771-12.608,62.98-19.76,85.042-24.082l-7.875-2.603c-23.258,1.311-46.36,3.676-69.781,2.738
		c-21.521-0.862-43.826-6.658-65.59-5.315c-103.828,6.404-82.331,106.322-96.77,179.271c-3.45,17.429-10.871,32.332-14.951,48.162
		c-0.463,1.797-0.583,4.44,1.249,3.864c6.577-4.796,13.535-9.261,19.901-14.333c3.383-2.695,6.431-6.093,10.352-9.313
		C1526.855,1925.62,1531.29,1920.897,1533.707,1916.687z"/>
	<path style="fill:#8D8D8D;" d="M1516.993,330.361c2.007-22.253-1.234-45.794,0.462-67.896
		c2.496-32.519,22.888-86.218,2.204-115.343c-7.207-10.147-19.952-14.07-31.871-11.619c-27.161,5.586-33.256,45.14-37.475,67.706
		C1440.672,254.773,1425.677,402.139,1516.993,330.361z"/>
	<path style="fill:#8B8C8C;" d="M551.151,337.517c-1.133-19.921-2.664-42.016-1.236-61.915c2.467-34.37,24.544-91.287,2.616-120.996
		c-8.181-11.083-18.861-13.961-32.289-11.199c-33.838,6.958-42.635,92.65-44.086,121.535
		C473.353,320.72,482.476,391.918,551.151,337.517z"/>
	<path style="fill:#8C8C8C;" d="M735.242,358.187c5.135-0.007,38.684-17.474,40.241-22.654c3.672-12.217-0.499-44.342,0.533-59.938
		c2.265-34.217,24.169-92.858,3.805-122.171c-5.928-8.533-17.745-14.209-28.112-12.745c-14.172,2.002-23.738,10.69-29.606,23.161
		c-16.667,35.421-31.588,155.906-4.021,185.411C721.156,352.542,730.928,358.193,735.242,358.187z"/>
	<path style="fill:#8C8C8D;" d="M1747.42,329.63c-1.28-18.518-2.424-38.073-1.245-56.665c2.297-36.218,27.079-100.821,1.126-130.005
		c-8.245-9.271-19.023-9.883-30.794-7.437c-27.022,5.615-34.186,54.634-37.948,77.713
		C1670.111,265.057,1659.527,398.514,1747.42,329.63z"/>
	<path style="fill:#D1C8BB;" d="M1751.533,1733.991l-52.209,11.283c-29.81,8.708-36.037,13.747-39.366,44.704
		c-4.496,10.085-13.765,6.45-19.146-0.861c-7.895,11.848-14.849,16.075-20.861,12.681c-1.643,14.467-4.382,27.898-21.033,18.404
		l3.132,5.272c-26.548,33.301-50.379,68.352-71.49,105.153c43.872-36.021,83.722-77,127.581-112.987
		c43.985-36.09,92.09-67.245,136.679-102.588c3.401-5.66-4.273-1.278-6.02-0.75c-14.232,4.3-28.731,6.339-42.649,11.251
		C1756.371,1723.792,1761.44,1726.725,1751.533,1733.991z"/>
	<path style="fill:#D1C8BB;" d="M1668.983,1752.237c-12.671,8.99-10.495,25.598-14.88,39.032c-6.318,1.654-8.89-8.617-14.074-7.687
		c-4.166,0.748-14.004,16.283-20.078,18.216c6.012,3.394,12.966-0.833,20.861-12.681c5.381,7.311,14.65,10.945,19.146,0.861
		c3.329-30.958,9.556-35.996,39.366-44.704l52.209-11.283c9.908-7.266,4.839-10.2-5.382-8.438l7.875,2.603
		C1731.962,1732.478,1686.754,1739.63,1668.983,1752.237z"/>
	<path style="fill:#D1C8BB;" d="M1598.917,1820.203c-0.962,3.864-9.556,10.269-12.697,14.911
		c-17.329,25.609-37.238,54.958-52.513,81.573c-2.416,4.21-6.851,8.933-3.148,13.941c21.111-36.801,44.941-71.852,71.49-105.153
		L1598.917,1820.203z"/>
	<path style="fill:#656635;" d="M2048.074,297.033c-1.802-2.681-4.113-6.263-7.43-7.004c19.333,104.212-5.452,209.252-2.691,314.22
		c2.058,4.208,16.935,21.233,21.055,17.044c-0.451-78.467,9.153-156.744,5.244-235.272
		C2063.176,364.402,2059.532,314.078,2048.074,297.033z"/>
	<path style="fill:#48472F;" d="M2016.928,547.674c1.149-51.726,7.988-103.367,10.517-155.107c-4.755,0.987-4.907,5.159-5.34,9.093
		c-3.729,33.905-6.646,73.732-7.904,107.779c-0.347,9.376-0.256,19.689,0.126,29.073
		C2014.456,541.711,2012.342,548.291,2016.928,547.674z"/>
	<path style="fill:#79783E;" d="M1091.488,1504.703l53.156,19.146c43.389,13.127,85.405,6.517,128.847,1.128
		c8.76-1.087,4.355-2.792,4.668,6.018c3.678-10.181,13.096-12.03,23.663-13.146c10.118-1.069,23.632-0.212,34.179,0l-23.647-5.229
		c15.188-1.056,27.323-14.227,42.051-15.804c47.561-32.416,86.155-68.382,105.879-124.173c34.205-96.751-6.09-215.633-104.091-254.9
		c-31.176-12.492-128.099-29.083-155.404-12.373c-25.97,15.893-28.272,15.29-57.636,21.67
		c-45.002,9.777-99.557,66.835-120.022,106.86c-2.939,5.749-8.453,17.775-10.517,23.662c-7.279,20.77-9.505,37.496-10.505,59.286
		c-0.232,5.051,2.708,10.537-5.27,9.072c2.687,8.184,14.206,25.769-2.629,23.662c2.453,1.369,7.263,2.559,7.899,4.483
		c3.152,9.534,3.63,25.121,7.194,36.95c11.396,37.818,34.153,75.861,66.399,99.239l-28.909,1.303
		c0.495,0.053,3.016,2.332,6.364,2.736C1067.775,1496.057,1080.54,1489.32,1091.488,1504.703z M1364.922,1239.157
		c3.5,9.28,5.738,9.14,7.887,23.662c3.813,25.763,2.764,45.504-5.501,70.729c-5.745-1.84-12.447,2.544-15.532,2.888l13.185,1.353
		c-3.358,15.896-7.392,20.445-23.702,22.31l13.128,1.297c-37.788,59.957-117.989,97.003-186.609,70.96
		c-35.044-13.3-71.269-50.89-78.92-88.032c-7.115-34.54,1.81-60.693,18.404-89.392c12.793-22.125,39.054-54.105,63.917-63.785
		c7.518-2.927,11.243,1.125,17.742-0.315c5.359-1.187,6.992-8.969,13.748-12.714
		C1267.528,1142.157,1340.407,1174.156,1364.922,1239.157z M1038.905,1352.212c-1.244-8.853-2.681-13.689-2.629-23.662
		c0.056-10.807,6.152-63.209,13.609-67.906c2.231-1.405,9.277-0.503,12.682-0.452l-10.55-3.974
		c-0.234-5.286,7.826-14.943,10.55-19.688c33.138-57.729,92.643-86.963,156.409-99.986c7.962,0.27,7.387,0.931,0.151,2.793
		c-13.472,3.466-33.185,8.201-44.461,16.063c-28.073,19.574-54.582,33.362-79.265,60.067c-8.679,9.389-11.553,24.769-27.576,21.064
		c1.733,0.509,10.538,3.407,10.545,3.97c-2.984,6.912-7.604,12.672-10.545,19.693c-4.97,11.864-10.394,28.802-12.471,41.426
		c-1.294,7.865,0.635,16.499-0.513,22.82c-0.594,3.269-9.406-0.161-10.678,4.113c3.51-0.007,7.031-0.046,10.529-0.015
		c-0.606,3.862,0.869,20.255-0.015,21.036c-0.961,0.849-10.495-1.632-13.143,2.642c18.282-4.365,17.092,14.782,23.209,28.059
		c67.744,147.039,280.504,110.589,334.357-25.43c13.224-33.4,15.988-75.147,5.258-113.054
		c-9.778-34.545-29.798-70.377-63.079-86.797c-0.356-5.41,7.466-1.585,9.792-0.578c31.917,13.815,58.791,49.157,72.14,80.341
		c1.892,4.42,7.547,13.59,2.182,17.551c7.23,11.25,4.876,19.213,5.258,31.55l5.232-7.874
		c16.512,151.377-140.485,244.322-276.062,214.29C1090.181,1474.843,1048.571,1420.982,1038.905,1352.212z"/>
	<path style="fill:#0D0E0D;" d="M1611.003,1625.39c17.995,7.824,79.817,4.99,99.069-0.331c29.439-8.136,25.043-48.621,25.589-71.69
		c0.138-5.834,2.947-11.527,2.822-18.411c-0.243-13.416-8.912-27.975-22.714-30.109c-19.938-3.083-72.596-7.444-91.187-4.718
		c-8.789,1.289-22.083,5.22-24.554,14.974c-1.207,4.766,2.078,10.531,1.328,16.771
		C1597.828,1561.226,1573.471,1609.073,1611.003,1625.39z M1626.892,1523.475c27.826-0.228,56.821,1.408,84.003,4.635
		c7.756,6.777,1.245,15.103,1.088,22.635c-0.226,10.878,1.241,23.917,0.046,34.205c-3.121,26.86-31.556,18.882-51.3,19.689
		c-9,0.368-38.52,6.537-44.875-2.506c-7.023-9.994,4.558-42.211,6.459-54.316
		C1623.432,1540.688,1619.653,1525.848,1626.892,1523.475z"/>
	<path style="fill:#0E0F0E;" d="M608.464,1849.697c18.517,7.248,66.144,4.291,87.037,1.758c41.05-4.977,35.335-43.41,35.809-74.601
		c0.198-13.028,6.774-24.516-6.185-37.249c-2.952-2.9-7.104-4.916-11.149-5.923c-17.253-4.297-79.337-7.652-97.111-5.559
		c-26.165,3.081-17.154,21.066-19.935,37.906C592.489,1792.916,571.478,1835.221,608.464,1849.697z M620.893,1751.869
		c11.835,1.09,81.844,0.21,86.893,3.752c6.26,4.39,0.076,17.669-0.133,23.858c-0.407,12.002,3.156,36.532-5.135,44.814
		c-6.935,6.927-27.566,3.141-38.242,3.825c-13.119,0.841-39.729,7.952-50.124-2.509
		C602.528,1813.912,623.462,1769.157,620.893,1751.869z"/>
	<path style="fill:#0D0D0D;" d="M969.141,1857.105c15.627,1.336,52.31-0.83,68.217-2.957c18.831-2.518,30.411-17.27,32.868-35.49
		c1.468-10.882,3.284-38.698,3.079-49.705c-0.249-13.322-8.829-27.961-22.714-30.109c-19.401-3.001-73.328-7.521-91.178-4.709
		c-7.529,1.186-20.642,6.229-22.685,14.352c-1.335,5.307,2.462,9.979,2.017,14.902
		C935.214,1802.511,904.571,1851.584,969.141,1857.105z M960.017,1757.09l89.025,5.648c-2.125,13.619,1.832,60.96-10.133,66.671
		c-2.624,1.253-36.808,3.856-43.261,4.064c-8.845,0.286-36.603,1.953-41.131-3.815
		C944.463,1816.852,965.262,1774.096,960.017,1757.09z"/>
	<path style="fill:#0B0C0C;" d="M975.826,1608.534c16.083,5.6,78.563,3.006,94.597-2.641c28.039-9.875,22.986-42.127,23.723-65.67
		c0.411-13.153,7.323-21.498-2.657-35.521l-5.83,1.056c-10.203-5.762-23.041-8.416-38.515-7.962l-0.35-6.24
		c-17.039-1.838-61.276-6.426-74.583,0.348c-14.354,7.307-7.874,19.842-9.863,32.204
		C957.83,1552.184,936.62,1594.882,975.826,1608.534z M986.453,1512.733c10.298-0.562,82.748,1.027,85.475,4.945
		c-0.31,13.361,2.081,61.78-9.355,67.221c-15.475-1.229-73.74,9.127-83.487,0.674
		C968.583,1576.464,988.277,1527.254,986.453,1512.733z"/>
	<path style="fill:#0B0C0C;" d="M1085.658,1505.759l5.83-1.056c-10.948-15.383-23.714-8.646-38.332-10.409
		c-3.348-0.404-5.869-2.683-6.364-2.736l0.35,6.24C1062.617,1497.343,1075.455,1499.997,1085.658,1505.759z"/>
	<path style="fill:#0D0E0E;" d="M656.381,1607.212c14.811,1.358,47.399-1.08,63.049-2.631c24.128-2.392,35.048-14.463,37.863-38.383
		c1.181-10.033,3.415-40.237,2.829-49.345c-0.753-11.697-10.331-25.894-22.406-27.775c-18.625-2.9-59.062-5.433-77.919-4.649
		c-42.187,1.753-28.994,9.793-33.945,39.719C619.859,1560.367,598.263,1601.881,656.381,1607.212z M646.851,1532
		c1.018-7.146-2.482-21.973,4.621-24.301c6.314-2.069,78.535,3.309,82.607,6.035c5.974,4,0.051,15.374-0.14,21.234
		c-0.422,12.95,4.742,42.77-11.903,45.926c-16.334-2.552-69.736,9.439-80.193-1.189C634.378,1572.118,645.305,1542.858,646.851,1532
		z"/>
	<path style="fill:#0D0D0D;" d="M405.127,1748.051c-4.495-28.325-39.381-21.318-58.979-22.525
		c-17.444-1.075-42.677-5.922-59.945-2.049c-21.052,4.722-13.14,25.116-15.334,39.879c-3.883,26.128-22.111,64.986,14.654,75.379
		c18.421,5.208,69.1,2.726,89.349-0.297C407.212,1833.609,409.044,1772.734,405.127,1748.051z M373.77,1813.673
		c-0.788,0.388-16.254,3.901-17.133,3.901h-65.729c-2.154,0-5.776-7.937-5.792-11.305c-0.08-16.782,12.141-41.159,9.727-59.696
		l86.771,2.643v51.269C381.614,1802.37,376.199,1812.477,373.77,1813.673z"/>
	<path style="fill:#0E0F0E;" d="M1663.338,1362.966c13.88-0.027,38.293-1.714,52.248-3.196c44.406-4.716,40.563-33.39,40.958-69.445
		c0.159-14.514,6.163-18.892-5.127-34.084c-10.651-14.332-20.566-7.791-35.477-9.221c-22.295-2.139-48.151-8.018-70.316-4.54
		c-28.195,4.424-18.033,15.261-20.364,32.058c-3.405,24.533-19.591,53.9-1.453,75.133
		C1632.077,1359.354,1650.875,1362.99,1663.338,1362.966z M1638.276,1322.115l10.428-55.517c15.409-4.17,31.497,0.505,46.204,1.454
		c7.735,0.499,36.281-2.182,39.601,2.477c2.897,4.066-4.441,42.49-1.657,51.295l-7.728,13.305
		c-15.142-0.83-74.699,9.534-83.512,0.686C1638.913,1333.104,1638.138,1326.009,1638.276,1322.115z"/>
	<path style="fill:#0D0E0E;" d="M730.086,1347.061c22.588-1.565,45.78-4.287,50.549-30.955c2.077-11.618,4.592-51,2.62-61.866
		c-1.873-10.317-8.744-18.251-19.243-20.195c-16.63-3.078-48.135-5.1-65.474-5.512c-11.368-0.27-33.953-1.27-42.73,6.152
		c-9.668,8.176-4.547,25.895-6.295,37.06c-3.107,19.846-16.627,48.795,0.478,65.804
		C663.082,1350.569,711.226,1348.368,730.086,1347.061z M673.438,1252.287c11.65,1.263,79.311,0.311,84.314,3.793
		c5.122,3.565,3.717,56.832-3.413,63.96c-5.517,5.515-33.243,2.896-42.738,3.279c-11.458,0.462-33.354,7.285-43.436-1.316
		C658.054,1313.376,677.314,1266.467,673.438,1252.287z"/>
	<path style="fill:#0D0F0E;" d="M1674.14,1115.295c16.621,1.982,58.475-0.161,75.322-2.97c27.045-4.51,32.085-29.804,33.606-53.157
		c1.498-22.987,4.338-53.197-25.024-56.698c-28.125-3.353-64.994,0.349-94.175-2.03c-2.842,0.846-13.992,11.827-14.605,14.433
		c-0.934,3.968,2.6,9.336,2.069,14.854C1648.263,1061.62,1622.058,1109.086,1674.14,1115.295z M1672.521,1023.553l86.776,2.642
		v48.64c0,3.276-6.677,15.087-11.879,14.412c-19.927-2.209-65.232,11.148-81.235,0.353
		C1658.771,1084.6,1677.76,1034.945,1672.521,1023.553z"/>
	<path style="fill:#0D0E0E;" d="M321.001,1595.552c16.685,2.86,57.297,0.659,74.84-1.69c14.132-1.892,22.791-8.843,28.323-21.631
		c4.546-10.509,8.825-54.393,7.461-66.274c-1.371-11.936-9.859-21.283-22.345-22.347c-29.555,3.995-68.459-8.33-96.777-2.007
		c-18.912,4.223-11.544,17.379-12.674,26.746C295.861,1541.245,270.881,1586.961,321.001,1595.552z M321.143,1504.703h86.762v38.123
		c0,1.011-3.219,18.04-3.797,19.866c-0.935,2.956-2.731,6.299-5.831,7.315c-3.084,1.011-27.764,2.844-33.645,3.163
		c-8.467,0.46-40.62,1.284-46.133-1.411C303.749,1564.549,326.408,1519.166,321.143,1504.703z"/>
	<path style="fill:#0D0E0D;" d="M1345.362,1110.169c15.517,2.432,64.318-0.37,80.712-3.102
		c23.537-3.921,29.321-24.446,30.963-45.283c1.288-16.357,3.427-45.512-9.142-56.756c-11.889-10.636-20.169-4.088-34.45-5.006
		c-23.319-1.499-46.887-3.313-70.193-4.931c-23.436,6.294-15.308,20.416-18.078,37.366
		C1320.711,1059.765,1302.824,1103.502,1345.362,1110.169z M1348.98,1019.456c27.983-3.145,55.755,3.688,83.946,1.811
		c2.706,1.675,1.474,58.274-5.328,62.331c-1.395,0.832-27.596,2.931-32.315,3.193c-9.177,0.51-48.135,1.443-52.757-2.698
		c-1.97-1.765-3.433-6.353-3.514-9.14L1348.98,1019.456z"/>
	<path style="fill:#0B0C0C;" d="M1027.306,1102.209c18.223,2.48,65.002,0.635,83.303-2.995
		c13.679-2.714,22.802-17.275,24.949-30.264c1.657-10.025,4.451-47.879,2.644-56.621c-2.026-9.8-10.812-20.504-21.678-20.371
		c-29.247,3.751-68.791-8.479-96.773-2.008c-16.647,3.85-10.691,20.218-12.701,31.994
		C1002.214,1050.271,982.176,1096.066,1027.306,1102.209z M1028.375,1013.037c23.422-2.008,46.661,1.528,69.691,2.882
		c3.058,0.18,17.084-5.209,17.084,1.074c0,12.753,1.574,30.149,0,42.067c-2.357,17.844-8.614,18.404-25.025,19.683
		c-11.997,0.935-42.063,3.659-52.272,2.45C1002.324,1076.987,1035.346,1035.681,1028.375,1013.037z"/>
	<path style="fill:#0E0F0E;" d="M698.661,1096.95c18.166,2.472,65.074,0.642,83.303-2.995c12.824-2.559,22.849-15.07,24.948-27.635
		c2.146-12.848,5.034-47.449,2.65-59.235c-2.009-9.933-11.238-19.313-21.625-20.444c-26.688,5.793-73.108-8.898-96.852-1.969
		c-16.866,4.922-11.021,20.609-12.295,29.518C674.659,1043.051,653.904,1090.859,698.661,1096.95z M699.73,1007.778l86.775,2.642
		v46.01c0,0.752-5.322,13.35-5.887,13.846c-1.795,1.575-10.735,2.908-13.858,3.205c-12.016,1.145-47.148,3.771-57.578,2.424
		C674.339,1071.406,706.836,1031.086,699.73,1007.778z"/>
	<path style="fill:#0D0E0D;" d="M343.724,1338.834c17.407,2.371,65.848,0.489,83.299-2.999
		c12.819-2.562,22.873-15.059,24.948-27.635c1.984-12.021,5.194-53.845,2.091-63.927c-6.796-22.083-32.886-14.434-50.208-15.523
		c-19.764-1.242-48.371-6.648-67.686-2.174c-17.196,3.983-10.683,22.215-12.706,34.619
		C318.967,1288.756,300.537,1332.95,343.724,1338.834z M347.261,1248.203l84.307,1.471v48.64c0,0.757-5.071,13.612-5.699,14.036
		c-0.811,0.547-16.377,2.788-19.325,3.019c-11.961,0.934-42.108,3.661-52.272,2.45c-6.621-0.789-16.635-4.004-17.35-11.652
		L347.261,1248.203z"/>
	<path style="fill:#0C0D0D;" d="M1695.506,873.079c14.701,2.454,62.181-0.047,77.619-2.636
		c13.277-2.227,22.532-10.499,26.902-23.052c4.98-14.305,8.429-66.363-2.531-76.302c-13.686-12.411-71.666-7.758-92.202-7.689
		c-5.187,0.018-10.586-2.947-15.132-2.273c-19.121,2.834-13.403,22.944-15.311,34.703
		C1670.199,824.494,1652.063,865.828,1695.506,873.079z M1696.183,784.298l84.282,3.814c5.623,3.788,0.046,13.159-0.125,18.578
		c-0.297,9.453,2.359,31.973-3.889,38.159c-2.049,2.029-32.83,4.99-39.395,5.301
		C1662.593,853.675,1696.604,840.042,1696.183,784.298z"/>
	<path style="fill:#0E0E0E;" d="M1368.805,873.763c19.559,2.352,61.429,0.243,81.424-2.829
		c18.386-2.825,25.741-24.822,27.425-40.934c1.398-13.384,3.234-48.805-5.866-57.905c-10.248-10.248-31.158-5.326-45.054-6.215
		c-15.031-0.961-57.497-6.743-69.661-1.247c-13.925,6.292-6.967,18.209-7.845,26.105
		C1346.147,818.457,1324.035,868.38,1368.805,873.763z M1372.627,785.462l75.237,1.352l7.965,2.676
		c-4.032,12.589,3.238,49.724-6.887,56.495c-6.972,4.663-76.763,8.322-83.432,3.505
		C1357.575,843.759,1371.792,796.484,1372.627,785.462z"/>
	<path style="fill:#0E0F0E;" d="M1332.167,1511.584c2.995,0.37,3.532,3.347,3.833,6.265c17.006,0.342,33.758,3.803,50.902,2.997
		l3.932,3.936c-3.132,16.042,4.838,63.077-14.151,66.615c-14.448-3.109-77.09,11.165-82.309-4.302
		c-6.198-18.368,11.501-49.092,7.448-69.245c-5.403,6.129-13.29,10.511-23.663,13.146c-9.443,26.141-18.289,72.641,15.203,83.391
		c18.287,5.87,60.261,2.749,80.731,0.711c18.859-1.877,34.189-10.953,37.522-30.836c1.849-11.03,3.012-34.545,3.363-46.579
		c1.217-41.726-24.479-44.733-60.573-40.866C1350.014,1503.085,1342.601,1508.008,1332.167,1511.584z"/>
	<path style="fill:#0E0F0E;" d="M1301.822,1517.849c-10.567,1.116-19.985,2.965-23.663,13.146
		C1288.531,1528.36,1296.419,1523.978,1301.822,1517.849z"/>
	<path style="fill:#0E0F0E;" d="M1336.001,1517.849c-0.302-2.918-0.839-5.894-3.833-6.265c10.434-3.576,17.847-8.499,22.238-14.768
		c-14.728,1.578-26.863,14.748-42.051,15.804L1336.001,1517.849z"/>
	<path style="fill:#0D0E0D;" d="M993.152,1330.966l3.687-5.046c-4.126-12.567,2.903-46.202,5.957-61.204
		c1.424-6.994,2.383-8.276,9.818-7.154c-6.388-6.718,1.696-22.594,10.517-23.662c-12.715,0.398-38.339-4.188-41.455,12.317
		c-1.45,7.68,0.312,15.449-0.921,22.866c-4.082,24.555-21.701,60.231,4.677,77.567c3.103,2.04,6.852,1.858,8.779,2.934
		C998.711,1344.722,998.358,1338.517,993.152,1330.966z"/>
	<path style="fill:#0D0E0D;" d="M996.839,1325.92l-3.687,5.046c5.206,7.551,5.559,13.757,1.057,18.617
		C1011.044,1351.689,999.525,1334.104,996.839,1325.92z"/>
	<path style="fill:#0D0E0D;" d="M1012.614,1257.562c2.063-5.887,7.577-17.914,10.517-23.662
		C1014.31,1234.968,1006.225,1250.844,1012.614,1257.562z"/>
	<path style="fill:#161716;" d="M2004.334,1948.246c-6.022,24.521,1.522,100.791-14.923,116.529
		c-13.064,12.503-15.43,4.263-25.515,1.708c-11.501-2.914-22.785-4.64-33.697-9.693c-2.713-3.748,12.415-15.218,15.153-20.295
		c2.729-5.06,8.501-28.495,8.501-33.565v-85.448c-3.714,0.004-7.941-3.491-11.483-2.458c-11.708,3.416-8.188,79.264-9.842,92.873
		c-0.913,7.52-6.736,27.93-14.72,30.181c-9.668,2.727-43.829-21.844-56.068-27.17c-6.01-2.616-38.745-17.723-35.913-2.65
		c2.214,11.782,44.226,16.907,46.508,32.781l-156.314,10.638c-43.237,1.544-88.501-3.615-131.17,2.551
		c-3.578,0.517-3.741,11.559,4.859,13.117c12.07,2.187,31.38-0.754,44.806-0.11c27.196,1.303,53.931,3.578,81.504,2.846
		c58.081-1.541,127.001-13.63,183.908-7.971c4.818,0.479,36.575,9.292,37.812,10.82c2.443,3.017-4.063,12.875,8.094,16.892
		c18.221,6.021,50.244-0.975,61.732-17.403c18.247-26.092,10.836-91.845,14.104-124.16
		C2017.536,1938.794,2008.5,1938.812,2004.334,1948.246z"/>
	<path style="fill:#161716;" d="M2020.932,771.175c-6.404,1.484-8.511,40.464-9.21,48.657
		c-6.097,71.456-8.214,144.034-10.57,215.538c-0.768,23.304-6.848,61.76-2.531,84.089c0.558,2.886,4.57,9.219,6.502,9.222
		c6.062,0.009,8.44-22.282,9.176-27.58c11.389-81.936,14.008-189.593,15.909-273.299
		C2030.43,818.038,2034.194,768.103,2020.932,771.175z"/>
	<path style="fill:#181918;" d="M1977.419,1855.794c0.342,4.49,2.56,24.005,6.71,24.865c6.973-0.503,8.591-8.848,9.226-14.384
		c3.097-27.003,1.361-54.478,2.593-81.54c2.879-63.219,8.847-128.429,5.34-192.065c-0.384-6.971-3.293-37.126-6.024-39.961
		c-1.93-2.004-7.044-3.9-9.871-2.19c-10.413,6.255-2.359,57.363-2.515,71.294
		C1982.019,1698.622,1971.565,1778.924,1977.419,1855.794z"/>
	<path style="fill:#181918;" d="M1995.303,1481.721c3.389-9.668,5.996-50.328,6.082-62.423c0.061-8.682-2.917-16.021-2.942-23.597
		c-0.133-39.182,0.649-78.389-3.775-117.167c-7.388-10.816-14.521,7.89-14.521,14.521v193.244
		C1987.115,1488.505,1992.276,1490.355,1995.303,1481.721z"/>
	<path style="fill:#101110;" d="M1614.209,1805.332l5.742-3.533l-4.818-4.134c-0.091-47.82-13.069,4.198-10.428,19.891l-5.787,2.647
		C1609.325,1820.118,1614.422,1815.161,1614.209,1805.332z"/>
	<path style="fill:#101110;" d="M1615.132,1797.665l4.818,4.134c1.199-10.554,3.923-29.083-8.824-28.111
		c-13.513,1.031-9.434,35.364-12.21,46.515l5.787-2.647C1602.063,1801.863,1615.041,1749.845,1615.132,1797.665z"/>
	<path style="fill:#101110;" d="M1619.95,1801.799l-5.742,3.533c0.213,9.829-4.884,14.786-15.292,14.871
		C1615.569,1829.697,1618.307,1816.266,1619.95,1801.799z"/>
	<path style="fill:#F9F2DF;" d="M1188.922,1190.833c-6.499,1.44-10.224-2.612-17.742,0.315c-24.863,9.68-51.123,41.66-63.917,63.785
		c3.586,6.639,3.132,15.154,2.752,22.485c-0.908,17.488-1.363,46.397-11.046,59.928c-2.816,3.934-4.6,6.941-10.11,6.979
		c7.651,37.143,43.876,74.732,78.92,88.032c68.62,26.044,148.821-11.003,186.609-70.96l-13.128-1.297
		c-10.713,1.225-24.003-0.258-34.134-3.985c-35.889-13.205-15.224-57.682-10.875-84.404c1.474-9.06-2.815-20.519,4.111-27.439
		c10.401-10.394,49.323-2.787,64.56-5.113c-24.514-65.002-97.393-97.001-162.252-61.039
		C1195.914,1181.864,1194.281,1189.646,1188.922,1190.833z"/>
	<path style="fill:#FAF5DE;" d="M1159.82,1490.269c135.577,30.032,292.574-62.913,276.062-214.29l-5.232,7.874
		c0.823,26.549,2.099,65.797-31.55,70.987c-53.853,136.02-266.613,172.47-334.357,25.43c-6.117-13.277-4.927-32.424-23.209-28.059
		h-2.629C1048.571,1420.982,1090.181,1474.843,1159.82,1490.269z"/>
	<path style="fill:#D5CBA1;" d="M1307.333,1521.491c-3.658,21.289-6.387,42.475-8.165,63.554c5.266,7.92,56.03,2.024,66.771,0.763
		c21.199,14.445,23.029-59.824,19.384-60.258c-14.419,0.456-28.838-0.275-43.258-2.192l-6.064-5.509
		C1332.001,1524.017,1316.396,1524.947,1307.333,1521.491z"/>
	<path style="fill:#D5CBA1;" d="M1307.333,1521.491c9.064,3.456,24.669,2.526,28.668-3.642c-10.547-0.212-24.061-1.069-34.179,0
		l5.681,2.596C1307.442,1520.794,1307.393,1521.142,1307.333,1521.491z"/>
	<path style="fill:#D5CBA1;" d="M1294.374,1587.094c5.219,15.467,67.861,1.193,82.309,4.302c18.99-3.537,11.02-50.573,14.151-66.615
		l-3.932-3.936c-17.144,0.806-33.896-2.655-50.902-2.997l6.064,5.509c14.42,1.917,28.84,2.648,43.258,2.192
		c3.645,0.434,1.815,74.703-19.384,60.258c-10.74,1.261-61.504,7.157-66.771-0.763c1.778-21.079,4.507-42.264,8.165-63.554
		c-2.402-0.916-4.371-2.123-5.511-3.642C1305.875,1538.002,1288.177,1568.726,1294.374,1587.094z"/>
	<path style="fill:#D5CBA1;" d="M1307.333,1521.491c0.06-0.349,0.109-0.697,0.17-1.046l-5.681-2.596
		C1302.962,1519.369,1304.93,1520.575,1307.333,1521.491z"/>
	<path style="fill:#0D0E0D;" d="M1325.602,1243.884c-24.536,1.141-25.168,2.018-24.142,28.511
		c-21.653,56.329-9.85,83.924,35.411,82.787l4.389,4.917c16.31-1.865,20.344-6.414,23.702-22.31l-13.185-1.353
		c-7.931,0.883-32.263,1.209-37.932-2.821c-10.799-7.677,1.501-39.198,3.491-51.339c0.969-5.912-1.674-17.859,2.725-20.938
		c17.504-4.325,35.176,1.894,52.75,1.481c-2.149-14.522-4.388-14.383-7.887-23.662l-4.426,5.658L1325.602,1243.884z"/>
	<path style="fill:#0D0E0D;" d="M1300.361,1244.27c-6.926,6.921-2.636,18.38-4.111,27.439c-4.35,26.722-25.014,71.2,10.875,84.404
		c10.131,3.728,23.421,5.21,34.134,3.985l-4.389-4.917c-45.26,1.137-57.064-26.458-35.411-82.787
		c-1.026-26.493-0.394-27.37,24.142-28.511l34.894,0.932l4.426-5.658C1349.685,1241.483,1310.762,1233.876,1300.361,1244.27z"/>
	<path style="fill:#D5CCA2;" d="M1323.022,1266.168c-0.747,16.745-3.382,33.3-7.905,49.664c-3.247,14.33,7.721,19.543,32.904,15.639
		l3.754,4.965c3.085-0.344,9.787-4.728,15.532-2.888c8.265-25.224,9.315-44.966,5.501-70.729l-4.372,5.236
		C1353.194,1265.64,1338.056,1265.011,1323.022,1266.168z"/>
	<path style="fill:#D5CCA2;" d="M1320.059,1261.339c-4.399,3.078-1.756,15.025-2.725,20.938
		c-1.989,12.141-14.289,43.661-3.491,51.339c5.669,4.03,30.001,3.704,37.932,2.821l-3.754-4.965
		c-25.183,3.904-36.151-1.309-32.904-15.639c4.523-16.364,7.157-32.919,7.905-49.664c15.034-1.158,30.172-0.529,45.415,1.887
		l4.372-5.236C1355.235,1263.233,1337.563,1257.014,1320.059,1261.339z"/>
	<path style="fill:#0D0F0E;" d="M1425.488,1287.063l5.163-3.21c-0.382-12.337,1.971-20.3-5.258-31.55
		c-5.239-8.152-11.136-11.321-21.033-10.517c10.729,37.907,7.965,79.654-5.258,113.054
		C1424.657,1338.498,1427.323,1315.816,1425.488,1287.063z"/>
	<path style="fill:#0D0F0E;" d="M1430.651,1283.853l-5.163,3.21c1.835,28.753-0.831,51.435-26.387,67.778
		C1432.749,1349.65,1431.474,1310.402,1430.651,1283.853z"/>
	<path style="fill:#F9F4D9;" d="M1067.826,1236.528c16.023,3.705,18.897-11.674,27.576-21.064
		c24.683-26.704,51.192-40.492,79.265-60.067c11.276-7.862,30.99-12.597,44.461-16.063c7.237-1.862,7.811-2.523-0.151-2.793
		c-63.766,13.023-123.272,42.257-156.409,99.986C1064.219,1236.802,1066.44,1236.121,1067.826,1236.528z"/>
	<path style="fill:#F8F3DE;" d="M1425.392,1252.303c5.366-3.96-0.289-13.13-2.182-17.551c-13.348-31.183-40.222-66.526-72.14-80.341
		c-2.326-1.007-10.147-4.832-9.792,0.578c33.281,16.419,53.302,52.251,63.079,86.797
		C1408.599,1229.384,1427.65,1240.811,1425.392,1252.303z"/>
	<path style="fill:#F8F3DE;" d="M1425.392,1252.303c2.257-11.492-16.793-22.92-21.033-10.517
		C1414.256,1240.982,1420.153,1244.152,1425.392,1252.303z"/>
	<path style="fill:#0C0E0D;" d="M1105.001,1268.939l2.262-14.007c-16.594,28.698-25.519,54.852-18.404,89.392
		C1101.622,1322.316,1107.003,1297.187,1105.001,1268.939z"/>
	<path style="fill:#0C0E0D;" d="M1098.97,1337.345c9.682-13.531,10.138-42.439,11.046-59.928c0.38-7.331,0.833-15.846-2.752-22.485
		l-2.262,14.007c2.002,28.248-3.379,53.376-16.142,75.385C1094.369,1344.286,1096.154,1341.279,1098.97,1337.345z"/>
	<path style="fill:#D8CD9F;" d="M1054.842,1324.436c1.149-6.321-0.781-14.955,0.513-22.82c2.077-12.624,7.501-29.562,12.471-41.426
		c-1.752-0.018-3.506,0.026-5.258,0c-3.405-0.052-10.451-0.953-12.682,0.452c-7.458,4.697-13.553,57.1-13.609,67.906
		c2.629-0.003,5.258,0.005,7.888,0C1045.436,1324.275,1054.248,1327.705,1054.842,1324.436z"/>
	<path style="fill:#D4CCA3;" d="M1004.997,1270.85c0,0-0.551,3.722-1.645,11.104c1.249-6.185,2.655-12.543,4.219-19.078
		C1006.244,1265.127,1005.381,1267.781,1004.997,1270.85z"/>
	<path style="fill:#D4CCA3;" d="M1007.57,1262.876c-1.564,6.534-2.969,12.893-4.219,19.078c-1.345,9.081-3.513,23.715-6.513,43.966
		c7.977,1.465,5.038-4.021,5.27-9.072c1-21.79,3.226-38.516,10.505-59.286C1010.505,1258.962,1008.83,1260.738,1007.57,1262.876z"/>
	<path style="fill:#D4CCA3;" d="M1002.796,1264.716c-3.054,15.002-10.083,48.637-5.957,61.204
		c1.138-13.511,3.326-28.185,6.513-43.966c1.094-7.382,1.645-11.104,1.645-11.104c0.384-3.069,1.248-5.723,2.574-7.974
		c0.274-1.144,0.529-2.266,0.812-3.421l4.231-1.893C1005.179,1256.44,1004.219,1257.722,1002.796,1264.716z"/>
	<path style="fill:#D4CCA3;" d="M1007.57,1262.876c1.259-2.138,2.935-3.913,5.043-5.314l-4.231,1.893
		C1008.099,1260.609,1007.844,1261.732,1007.57,1262.876z"/>
	<path style="fill:#D4CCA3;" d="M996.839,1325.92c3-20.251,5.168-34.886,6.513-43.966
		C1000.164,1297.735,997.976,1312.409,996.839,1325.92z"/>
	<path style="fill:#090B08;" d="M1041.534,1352.212c2.648-4.273,12.182-1.793,13.143-2.642c0.884-0.781-0.591-17.174,0.015-21.036
		c-3.498-0.031-7.019,0.008-10.529,0.015c-2.403,5.091-5.483,5.089-7.888,0c-0.052,9.973,1.385,14.809,2.629,23.662
		C1039.651,1349.916,1040.53,1349.949,1041.534,1352.212z"/>
	<path style="fill:#090B08;" d="M1038.905,1352.212h2.629C1040.53,1349.949,1039.651,1349.916,1038.905,1352.212z"/>
	<path style="fill:#090B08;" d="M1044.163,1328.549c-2.629,0.005-5.258-0.003-7.888,0
		C1038.681,1333.638,1041.76,1333.64,1044.163,1328.549z"/>
	<path style="fill:#090A08;" d="M1067.826,1260.191c2.941-7.021,7.561-12.781,10.545-19.693c-0.006-0.563-8.811-3.461-10.545-3.97
		c-1.338,5.013-3.698,5.023-5.258,0c-2.724,4.745-10.784,14.402-10.55,19.688l10.55,3.974
		C1064.052,1255.167,1066.342,1255.163,1067.826,1260.191z"/>
	<path style="fill:#090A08;" d="M1067.826,1236.528c-1.386-0.407-3.607,0.274-5.258,0
		C1064.128,1241.552,1066.488,1241.541,1067.826,1236.528z"/>
	<path style="fill:#090A08;" d="M1062.568,1260.191c1.752,0.026,3.506-0.018,5.258,0
		C1066.342,1255.163,1064.052,1255.167,1062.568,1260.191z"/>
	<path style="fill:#D4CAA2;" d="M1615.854,1602.133c6.355,9.044,35.875,2.874,44.875,2.506c19.744-0.807,48.178,7.17,51.3-19.689
		c1.196-10.288-0.272-23.327-0.046-34.205c0.157-7.532,6.668-15.858-1.088-22.635c-27.182-3.227-56.177-4.863-84.003-4.635
		c-7.238,2.373-3.46,17.214-4.579,24.343C1620.412,1559.922,1608.831,1592.14,1615.854,1602.133z"/>
	<path style="fill:#D6CCA3;" d="M664.277,1828.118c10.676-0.684,31.307,3.102,38.242-3.825c8.291-8.282,4.728-32.812,5.135-44.814
		c0.21-6.189,6.393-19.469,0.133-23.858c-5.05-3.541-75.058-2.661-86.893-3.752c2.569,17.288-18.365,62.043-6.741,73.74
		C624.548,1836.069,651.158,1828.958,664.277,1828.118z"/>
	<path style="fill:#D6CBA2;" d="M995.649,1833.474c6.453-0.208,40.636-2.812,43.261-4.064c11.965-5.711,8.007-53.052,10.133-66.671
		l-89.025-5.648c5.245,17.006-15.555,59.762-5.499,72.569C959.046,1835.427,986.805,1833.76,995.649,1833.474z"/>
	<path style="fill:#D6CBA2;" d="M979.087,1585.573c9.747,8.453,68.012-1.903,83.487-0.674c11.436-5.441,9.045-53.859,9.355-67.221
		c-2.728-3.918-75.177-5.507-85.475-4.945C988.277,1527.254,968.583,1576.464,979.087,1585.573z"/>
	<path style="fill:#D6CCA4;" d="M722.036,1580.894c16.645-3.156,11.481-32.975,11.903-45.926c0.191-5.859,6.114-17.234,0.14-21.234
		c-4.072-2.726-76.293-8.104-82.607-6.035c-7.103,2.328-3.604,17.155-4.621,24.301c-1.546,10.857-12.473,40.117-5.008,47.705
		C652.301,1590.333,705.702,1578.342,722.036,1580.894z"/>
	<path style="fill:#D6CCA3;" d="M381.614,1749.215l-86.771-2.643c2.414,18.536-9.807,42.914-9.727,59.696
		c0.016,3.369,3.639,11.305,5.792,11.305h65.729c0.879,0,16.345-3.512,17.133-3.901c2.429-1.196,7.844-11.303,7.844-13.189V1749.215
		z"/>
	<path style="fill:#D5CBA2;" d="M1725.123,1335.128l7.728-13.305c-2.784-8.804,4.554-47.229,1.657-51.295
		c-3.32-4.659-31.866-1.977-39.601-2.477c-14.706-0.949-30.794-5.624-46.204-1.454l-10.428,55.517
		c-0.138,3.894,0.636,10.989,3.335,13.699C1650.424,1344.662,1709.981,1334.298,1725.123,1335.128z"/>
	<path style="fill:#D7CCA4;" d="M668.166,1322.002c10.082,8.601,31.978,1.778,43.436,1.316c9.494-0.383,37.221,2.236,42.738-3.279
		c7.13-7.127,8.535-60.395,3.413-63.96c-5.003-3.482-72.664-2.53-84.314-3.793C677.314,1266.467,658.054,1313.376,668.166,1322.002z
		"/>
	<path style="fill:#D5CBA2;" d="M1666.182,1089.6c16.002,10.795,61.308-2.562,81.235-0.353c5.203,0.675,11.879-11.137,11.879-14.412
		v-48.64l-86.776-2.642C1677.76,1034.945,1658.771,1084.6,1666.182,1089.6z"/>
	<path style="fill:#D7CDA6;" d="M318.5,1571.759c5.512,2.694,37.665,1.871,46.133,1.411c5.881-0.319,30.561-2.153,33.645-3.163
		c3.1-1.016,4.897-4.359,5.831-7.315c0.578-1.826,3.797-18.855,3.797-19.866v-38.123h-86.762
		C326.408,1519.166,303.749,1564.549,318.5,1571.759z"/>
	<path style="fill:#D6CBA3;" d="M1395.282,1086.791c4.72-0.262,30.921-2.362,32.315-3.193c6.802-4.058,8.034-60.657,5.328-62.331
		c-28.191,1.877-55.963-4.956-83.946-1.811l-9.969,55.497c0.081,2.787,1.544,7.375,3.514,9.14
		C1347.148,1088.234,1386.105,1087.301,1395.282,1086.791z"/>
	<path style="fill:#D5CBA2;" d="M1037.854,1081.194c10.21,1.209,40.275-1.515,52.272-2.45c16.411-1.279,22.667-1.839,25.025-19.683
		c1.574-11.917,0-29.313,0-42.067c0-6.283-14.026-0.894-17.084-1.074c-23.03-1.355-46.269-4.89-69.691-2.882
		C1035.346,1035.681,1002.324,1076.987,1037.854,1081.194z"/>
	<path style="fill:#D7CCA5;" d="M709.182,1075.906c10.43,1.347,45.562-1.279,57.578-2.424c3.123-0.298,12.063-1.631,13.858-3.205
		c0.565-0.496,5.887-13.094,5.887-13.846v-46.01l-86.775-2.642C706.836,1031.086,674.339,1071.406,709.182,1075.906z"/>
	<path style="fill:#D7CCA4;" d="M354.271,1317.818c10.164,1.211,40.311-1.516,52.272-2.45c2.948-0.23,18.514-2.472,19.325-3.019
		c0.628-0.423,5.699-13.278,5.699-14.036v-48.64l-84.307-1.471l-10.34,57.964C337.636,1313.815,347.65,1317.03,354.271,1317.818z"/>
	<path style="fill:#D6CCA4;" d="M1737.057,850.149c6.565-0.311,37.346-3.272,39.395-5.301c6.247-6.186,3.592-28.705,3.889-38.159
		c0.17-5.419,5.747-14.79,0.125-18.578l-84.282-3.814C1696.604,840.042,1662.593,853.675,1737.057,850.149z"/>
	<path style="fill:#D7CDA4;" d="M1365.511,849.49c6.668,4.816,76.459,1.157,83.432-3.505c10.126-6.771,2.856-43.906,6.887-56.495
		l-7.965-2.676l-75.237-1.352C1371.792,796.484,1357.575,843.759,1365.511,849.49z"/>
</g>
</svg>
