<?xml version="1.0" encoding="iso-8859-1"?>
<!-- Generator: Adobe Illustrator 29.2.1, SVG Export Plug-In . SVG Version: 9.03 Build 55982)  -->
<svg version="1.1" id="Layer_1" xmlns="http://www.w3.org/2000/svg" xmlns:xlink="http://www.w3.org/1999/xlink" x="0px" y="0px"
	 viewBox="0 0 3441.732 2200" style="enable-background:new 0 0 3441.732 2200;" xml:space="preserve">
<g>
	<path style="fill:#7B7B4C;" d="M3291.445,2011.677c-8.948-5.307-44.422-176.883-52.443-200.812
		c-11.915-15.784-95.166,20.16-101.797-7.495c-8.604-35.88,69.234-26.166,91.954-31.394l-32.972-148.159l-7.89-3.913
		l-171.652,19.818c-14.99,3.021-22.664-21.61-16.786-30.827c7.676-12.038,186.609-15.497,186.549-26.011
		c-31.126-134.245-64.21-267.897-102.248-400.305c-6.49-14.037-24.326-10.133-39.183-15.363
		c-66.872-23.538-97.888-109.267-58.331-169.565c5.595-8.529,28.185-26.958,27.593-33.364
		c-33.75-79.654-61.251-167.535-113.007-237.747c-13.333-18.089-58.901-68.629-80.008-72.028c-8.743-1.408-23.437,6.04-34.292,7.026
		c-16.533,1.502-49.548-6.926-58.694-0.207c-87.683,115.22-165.523,237.095-247.847,356.045
		c-19.854,28.687-44.458,55.909-60.836,85.75c74.431,125.374-78.639,255.06-180,133.142c-6.645-7.993-9.011-21.301-15.72-27.137
		c-7.691-6.69-25.538-8.68-36.195-14.455c-126.603-68.614-196.302-364.28-244.127-496.141c-4.932-13.598-21.801-66.28-26.908-73.59
		c-2.916-4.174-38.99-5.594-42.893,3.937c-127.816,239.378-247.385,484.48-376.3,722.365
		c124.678,170.79-167.483,301.649-194.789,81.687c-162.354-77.763-238.1-259.823-322.012-408.547
		c-41.552,9.99-69.298,8.961-107.41-11.393c-6.375-3.405-22.798-19.059-26.527-19.059c-4.396,0-63.658,48.472-68.263,55.248
		c-2.212,3.254-5.353,4.055-3.791,9.748c41.911,24.158,72.208,65.179,108.506,96.369c-5.184,48.797-46.398,4.853-65.727-12.474
		c-12.231-10.963-53.676-58.176-64.963-59.929c-10.46-1.624-89.603,103.419-102.146,118.963
		c-1.526,10.92,64.167,36.334,41.504,58.768c-22.205,21.981-55.671-33.156-68.635-25.735c-11.93,30.316-78.084,89.85-84.527,116.171
		c-2.463,10.06,6.694,32.101,5.725,48.277c-2.493,41.614-30.832,82.339-68.391,99.355c-22.705,10.287-42.388,10.415-65.643,16.177
		L141.22,1927.592c-5.377,13.139-23.406,9.214-28.972,11.938c-2.636,1.291-10.608,31.635-11.27,37.43
		c-4.566,39.938,7.058,71.524,30.751,102.831l3.521-21.801c16.655-6.252,45.242-8.569,64.501-9.529
		c53.651-2.674,108.173,2.299,161.864,0.18c1.262-16.661,2.287-67.789,22.234-69.38c36.655-2.923,14.324,48.903,12.818,69.36
		h140.261c0.29-20.772-3.049-56.482,25.348-54.949c28.151,1.52,12.015,37.511,13.613,54.949h144.157
		c8.105-19.054-2.992-86.848,11.633-95.481c13.294-7.847,30.623-0.323,31.051,15.83c-3.298,23.59-6.073,51.999-6.014,75.592
		c0.008,3.254,1.428,7.955,4.24,7.955h142.209v-60.39c0-2.03,12.825-13.372,17.733-13.844c32.048-3.076,19.005,55.326,17.332,74.234
		h109.092c-12.377-71.465,49.256-66.687,38.962,0h163.638c-4.372-20.604-13.71-63.312,17.268-62.099
		c25.919,1.014,16.502,43.619,21.73,62.065l120.764,0.055c-13.027-75.623,51.945-75.636,38.921,0l149.478-0.564
		c17.626-5.789-10.89-60.47,27.798-58.274c27.173,1.542,15.247,35.661,17.532,54.942l120.801,3.876v-56.494
		c0-21.055,38.961-17.681,38.961-3.896v60.39h151.95v-60.39c0-18.463,38.962-18.463,38.962,0v60.39h280.523v-68.183
		c0-21.099,38.961-15.06,38.961,3.896v64.286l202.62-3.876c0.912-19.581-7.138-64.393,21.441-65.81
		c28.508-1.414,13.901,48.43,13.604,65.79h190.911v-56.494c0-4.209,12.065-10.111,17.531-10.131
		c28.809-0.107,22.258,47.791,17.552,66.604l198.707,3.937c-0.106-16.641-4.773-63.781,21.042-62.375
		c29.043,1.582,14.794,42.787,17.879,62.375l253.27,7.772c9.611-5.062,24.201-39.042,27.215-40.97
		c3.99-2.553,11.67-1.635,19.538-5.783C3307.651,2013.222,3297.797,2015.444,3291.445,2011.677z M385.754,1809.785
		c-21.139,35.538-47.331,101.197-69.216,129.49c-10.474,13.542-30.029,19.831-35.108,0.374
		c-2.766-10.596,29.226-66.527,36.642-80.661c13.115-24.993,110.237-191.05,124.141-195.361c22.331-6.923,29.52,6.084,22.451,26.391
		C456.549,1713.34,402.845,1781.052,385.754,1809.785z M464.724,1810.938c-6.31-12.627,18.037-50.791,28.165-53.914
		c10.991-3.389,23.1,1.358,24.681,13.277C519.731,1786.581,479.654,1840.817,464.724,1810.938z M546.464,1573.46
		c-20.793,1.88-25.483-31.539-2.757-34.673C564.867,1535.869,566.621,1571.638,546.464,1573.46z M2996.362,1336.394
		c-0.538-27.381,29.543-28.854,36.326-1.043c7.961,32.638,11.328,75.082,18.467,110.106c3.275,16.064,21.369,71.025,16.48,81.038
		c-4.209,8.623-20.908,14.67-28.436,6.881c-6.166-6.379-23.237-85.146-26.304-100.309
		C3007.466,1406.231,2996.868,1362.169,2996.362,1336.394z"/>
	<path style="fill:#000100;" d="M3191.448,1422.048c-21.343-86.057-47.104-171.69-67.012-257.372
		c127.077-55.953,62.573-236.772-70.346-210.952c-46.841-118.662-89.254-252.713-198.609-329.125
		c27.12-31.044,33.669-71.035,19.869-109.845c-50.033-140.709-262.363-60.708-211.104,76.663
		c-160.646,25.452-214.342,194.64-307.922,301.892c-8.425,9.656-46.407,50.615-56.09,49.086
		c-8.307-1.312-40.451-94.08-47.177-109.247c-38.474-86.769-96.479-201.516-169.312-263.16
		c-12.003-10.159-66.21-41.185-68.296-44.693c-2.649-4.453-4.431-36.904-8.59-49.852c-20.518-63.864-105.684-94.889-164.33-64.76
		c-24.551,12.613-39.839,45.92-47.072,50.331c-2.71,1.653-47.371,6.172-60.226,9.904c-82.226,23.876-142.711,96.934-190.722,163.828
		c-105.105,146.444-170.15,320.245-280.992,463.209c-5.105,1.302-48.418-55.948-56.348-64.383
		c-27.734-29.497-61.727-58.592-97.421-77.906c-11.25-6.087-59.636-23.383-61.62-26.077c-3.414-4.636-3.989-29.618-6.48-38.291
		c-30.569-106.422-196.493-110.567-218.579-3.956c-3.741,18.058,2.797,64.834,0.399,70.214c-2.047,4.591-51.203,40.175-60.617,48.79
		c-21.887,20.031-44.602,45.734-64.286,68.183c-64.085,73.086-120.696,155.824-181.031,232.147
		c-8.917,4.811-15.778-10.419-23.71-15.609c-114.956-75.229-245.152,69.959-151.609,178.88c6.406,7.459,30.971,24.355,29.574,29.525
		c-95.018,132.799-175.628,275.169-269.141,409.054c-7.126,13.75,1.867,21.154,9.6,31.001c1.329-6.088,8.435-10.709,21.317-13.865
		l269.524-413.549l8.007-5.293c66.331-5.661,124.376-42.332,125.309-114.598c-6.387-27.911-10.185-50.282,11.998-73.158
		l51.268-61.721c22.244-38.885,32.309-35.895,64.348-6.331c55.828,21.083,1.808-28.422-17.888-40.114
		c-3.573-4.024-2.835-8.081-1.936-12.998c2.101-11.492,95.114-121.795,107.998-122.393c25.593,15.35,48.533,35.363,68.818,60.039
		c31.217,34.167,49.163,41.765,53.838,22.794c-30.877-32.962-66.245-64.751-106.105-95.367c-0.433-1.919-0.902-3.827-1.501-5.693
		c-3.727-11.61,66.976-69.763,78.765-70.581c2.681-0.186,5.218,0.613,7.594,1.823c37.373,35.296,81.289,38.513,130.187,29.93
		c34.76,59.432,68.7,119.441,101.817,180.026c54.745,94.035,123.815,180.146,222.655,229.989
		c28.391,211.544,300.04,88.883,182.335-77.967l376.548-725.743c7.576-14.222,53.924-16.525,59.357,2.54
		c43.784,137.299,92.732,273.784,146.844,409.455c34.784,71.858,76.414,142.209,155.433,166.423
		c76.845,152.484,261.431,43.057,183.681-100.334c99.798-149.005,203.092-301.17,310.682-447.114
		c19.861-4.766,40.904-5.414,63.13-1.945c43.132-25.638,100.204,34.242,121.234,68.134c25.049,40.367,44.333,73.2,64.135,116.863
		c11.627,25.637,50.366,111.565,48.862,131.59c-79.436,67.327-43.381,185.474,59.718,197.322c4.424,2.634,9.635,7.05,11.07,11.951
		c37.948,129.591,79.207,271.865,101.706,404.306c1.116,6.573-15.762,12.182-22.432,11.982l-156.384,15.913
		c-14.661-2.496-7.909,19.642,0.205,20.404l170.659-19.802c5.421-0.483,12.621,2.14,16.219,6.281
		c5.276,6.073,37.953,150.164,33.09,156.572c-2.236,2.945-5.783,4.362-9.264,5.243c-28.125-1.216-54.308,2.772-78.55,11.966
		c-29.572,22.537,76.53,7.259,80.523,6.42c6.893,0.075,13.483,1.942,18.002,7.526c16.287,66.621,33.365,132.932,51.233,198.935
		c10.022-1.025,16.217,1.697,18.583,8.166c12.534-6.608,13.849-14.618,10.739-28.178
		C3275.941,1798.841,3237.905,1609.37,3191.448,1422.048z M444.445,1467.148c-103.789,17.945-127.46-141.816-29.198-153.92
		C517.604,1300.62,532.286,1451.961,444.445,1467.148z M870.232,953.621c-25.609-39.17-3.848-96.612,43.63-104.12
		c33.709-5.331,80.746,18.687,88.913,53.373C1021.651,983.051,915.992,1023.611,870.232,953.621z M1453.831,1494.729
		c-99.895,67.861-156.837-117.941-56.881-134.772C1481.514,1345.719,1520.968,1449.122,1453.831,1494.729z M1837.665,611.99
		c-131.964,234.679-241.429,481.526-377.232,714.119c-64.205-23.776-124.856,2.958-153.984,63.972
		c-145.538-83.752-211.564-252.712-293.82-390.928c7.085-4.849,19.558-28.111,25.464-29.235
		c4.923-0.937,48.147,20.237,56.059,24.722c63.966,36.266,102.18,92.805,149.708,146.377c23.378,11.889,37.982-1.556,52.692-17.855
		c136.489-151.236,255.673-550.223,451.234-612.415c5.709-1.816,38.412-10.393,39.786-8.887
		c-1.928,34.33,11.013,64.209,32.975,89.767C1826.889,599.007,1840.942,600.409,1837.665,611.99z M1913.287,582.727
		c-90.79,15.282-120.085-127.456-33.216-142.261C1983.484,422.84,2003.112,567.608,1913.287,582.727z M2334.028,1245.064
		c-74.966,4.219-113.393-125.387-13.699-142.26C2422.891,1085.445,2421.581,1240.138,2334.028,1245.064z M2389.629,1071.052
		c-6.038,6.201-13.637-4.097-21.548-6.2c-70.921-18.858-131.361,19.73-148.101,89.617c-1.01,4.217,2.73,7.417-5.799,5.899
		c-43.257-7.695-100.736-116.458-118.244-154.514c-57.857-125.761-88.255-267.806-141.107-396.271
		c17.927-11.536,32.183-27.909,45.003-44.889c99.006,50.459,160.403,163.852,205.335,261.799
		c15.851,34.552,45.927,135.127,73.522,152.454c45.051,28.287,105.757-52.424,130.006-83.916
		c78.245-101.622,137.808-258.752,286.68-264.585L2389.629,1071.052z M2749.089,617.63c-71.884-23.414-65.708-121.659,7.618-134.312
		C2874.224,463.041,2862.286,654.5,2749.089,617.63z M3019.429,1022.642c8.532-13.83,25.022-26.168,41.179-28.927
		c82.888-14.152,124.884,86.649,59.283,129.389C3059.583,1162.396,2982.085,1083.172,3019.429,1022.642z"/>
	<path style="fill:#000100;" d="M3296.298,2005.391c-17.868-66.002-34.946-132.314-51.233-198.935
		c-4.52-5.584-11.109-7.452-18.002-7.526c-3.993,0.839-110.094,16.117-80.523-6.42c24.242-9.193,50.426-13.182,78.55-11.966
		c3.481-0.881,7.028-2.297,9.264-5.243c4.863-6.408-27.814-150.499-33.09-156.572c-3.597-4.142-10.798-6.764-16.219-6.281
		l-170.659,19.802c-8.115-0.763-14.866-22.901-0.205-20.404l156.384-15.913c6.669,0.199,23.548-5.41,22.432-11.982
		c-22.499-132.441-63.759-274.715-101.706-404.306c-1.435-4.901-6.646-9.317-11.07-11.951
		c-103.099-11.849-139.154-129.996-59.718-197.322c1.504-20.025-37.235-105.953-48.862-131.59
		c-19.802-43.663-39.087-76.496-64.135-116.863c-21.031-33.892-78.103-93.772-121.234-68.134c-22.226-3.469-43.27-2.821-63.13,1.945
		c-107.591,145.944-210.884,298.11-310.682,447.114c77.751,143.39-106.836,252.818-183.681,100.334
		c-79.019-24.213-120.649-94.565-155.433-166.423c-54.112-135.671-103.06-272.156-146.844-409.455
		c-5.433-19.065-51.781-16.761-59.357-2.54l-376.548,725.743c117.705,166.849-153.944,289.511-182.335,77.967
		c-98.839-49.844-167.91-135.954-222.655-229.989c-33.118-60.585-67.057-120.594-101.817-180.026
		c-48.898,8.583-92.814,5.366-130.187-29.93c-2.376-1.21-4.912-2.009-7.594-1.823c-11.789,0.818-82.492,58.97-78.765,70.581
		c0.599,1.866,1.069,3.774,1.501,5.693c39.86,30.616,75.229,62.405,106.105,95.367c-4.676,18.971-22.621,11.373-53.838-22.794
		c-20.286-24.675-43.225-44.688-68.818-60.039c-12.885,0.598-105.897,110.901-107.998,122.393
		c-0.899,4.917-1.638,8.973,1.936,12.998c19.696,11.693,73.716,61.197,17.888,40.114c-32.039-29.564-42.104-32.554-64.348,6.331
		l-51.268,61.721c-22.183,22.876-18.385,45.247-11.998,73.158c-0.934,72.266-58.978,108.937-125.309,114.598l-8.007,5.293
		l-269.524,413.549c-12.882,3.155-19.988,7.777-21.317,13.865c5.566-2.725,23.595,1.201,28.972-11.938l269.102-412.723
		c23.255-5.761,42.938-5.89,65.643-16.177c37.558-17.016,65.898-57.741,68.391-99.355c0.969-16.176-8.188-38.217-5.725-48.277
		c6.443-26.322,72.596-85.856,84.527-116.171c12.964-7.42,46.43,47.717,68.635,25.735c22.662-22.434-43.03-47.848-41.504-58.768
		c12.543-15.544,91.686-120.588,102.146-118.963c11.287,1.753,52.732,48.966,64.963,59.929
		c19.33,17.327,60.543,61.271,65.727,12.474c-36.298-31.19-66.594-72.21-108.506-96.369c-1.562-5.693,1.579-6.494,3.791-9.748
		c4.606-6.776,63.867-55.249,68.263-55.248c3.729,0,20.152,15.655,26.527,19.059c38.112,20.354,65.858,21.383,107.41,11.393
		c83.912,148.724,159.658,330.783,322.012,408.547c27.307,219.962,319.468,89.103,194.789-81.687
		c128.915-237.885,248.484-482.987,376.3-722.365c3.903-9.53,39.977-8.111,42.893-3.937c5.107,7.31,21.976,59.992,26.908,73.59
		c47.825,131.862,117.524,427.527,244.127,496.141c10.657,5.776,28.503,7.765,36.195,14.455c6.709,5.836,9.075,19.144,15.72,27.137
		c101.361,121.918,254.431-7.768,180-133.142c16.379-29.841,40.982-57.063,60.836-85.75
		c82.324-118.95,160.164-240.825,247.847-356.045c9.146-6.719,42.161,1.71,58.694,0.207c10.855-0.986,25.549-8.434,34.292-7.026
		c21.107,3.399,66.675,53.939,80.008,72.028c51.756,70.212,79.257,158.094,113.007,237.747c0.592,6.407-21.998,24.835-27.593,33.364
		c-39.556,60.298-8.541,146.027,58.331,169.565c14.857,5.229,32.693,1.326,39.183,15.363
		c38.037,132.408,71.122,266.06,102.248,400.305c0.06,10.514-178.873,13.973-186.549,26.011
		c-5.877,9.218,1.797,33.848,16.786,30.827l171.652-19.818l7.89,3.913l32.972,148.159c-22.72,5.228-100.558-4.486-91.954,31.394
		c6.632,27.655,89.882-8.289,101.797,7.495c8.021,23.929,43.495,195.505,52.443,200.812c6.352,3.767,16.206,1.545,23.437,1.88
		C3312.515,2007.088,3306.321,2004.365,3296.298,2005.391z"/>
	<path style="fill:#010101;" d="M3264.27,2067.988c-31.484-0.069-245.091-1.417-253.802-10.692c-2.477-2.638-3.335-6.32-3.836-9.806
		c6.984-83.12-29.324-52.13-25.837,8.775l-8.583,3.994l-190.506-3.775c-6.16-0.962-10.498-3.569-10.98-9.849
		c10.526-44.252,1.001-62.421-28.576-54.507c12.638,5.012,12.091,50.37,0,56.494c-0.336,3.071-1.428,7.702-3.589,7.792
		c-57.597,2.409-125.033,2.398-182.674,0l-4.649-7.792l-7.574-4.031c17.147-78.734-28.811-67.806-19.859,2.538
		c-1.373,5.575-5.51,8.31-11.026,9.372l-194.44,3.72l-4.766-7.703c-11.855,2.722-9.176-55.726-7.792-58.788
		c1.309-2.897,4.732-4.328,7.792-5.499c-13.494-9.696-26.481-10.995-38.961-3.896c11.33-3.338,9.2,59.674,7.792,62.762
		c-1.31,2.874-4.744,4.27-7.792,5.42l-3.642,7.792c-90.688,0-181.406,0-272.157,0l-4.724-7.792c-12.721-5.718-12.183-53.555,0-60.39
		c-15.202-6.349-22.948-7.665-38.962,0c12.721,5.718,12.183,53.555,0,60.39c0.001,3.021-0.732,7.681-2.624,7.792
		c-17.326,1.015-138.052,2.753-144.746,0l-4.58-7.792c-12.721-5.718-12.183-53.555,0-60.39c-14.174-4.468-27.161-3.169-38.961,3.896
		c12.638,5.012,12.091,50.37,0,56.494c-0.44,3.035-1.601,7.611-3.728,7.677c-14.667,0.455-116.408-2.403-120.932-6.463
		c-2.52-2.263-3.484-5.702-4.209-8.888c10.031-61.838-32.5-58.212-23.94,1.289c-3.375,7.236-3.863,8.203-10.722,12.887
		c-6.514,4.448-139.335,1.603-156.853-2.9c2.048-68.577-31.262-70.454-29.021-0.894l-8.605,5.104
		c-5.119,3.3-116.816,1.242-121.452-2.707c-1.399-1.192-2.35-2.909-3.174-4.775c5.312-63.384-38.401-81.386-25.19-7.452
		l-6.466,7.123c0.005,3.023-0.739,7.692-2.623,7.792c-19.072,1.013-149.321,3.256-156.433,0l-4.582-7.792l-6.997-6.803
		c3.508-47.398-30.468-50.874-25.176-0.588l-6.789,7.391c-0.356,3.047-1.354,7.619-3.523,7.792c-11.21,0.894-95.758,2.827-99.874,0
		c-2.857-1.962-4.885-4.321-5.695-7.792l-7.372-4.344c3.125-18.194,12.012-82.591-19.003-54.642l-8.69-1.404
		c12.721,5.718,12.183,53.555,0,60.39c0.001,3.025-0.744,7.682-2.653,7.792c-19.175,1.106-121.489,3.525-132.467,0
		c-3.828-1.229-5.734-2.663-7.089-7.792c-11.954,5.725-15.578-7.112-10.871-38.511c9.009-50.829,3.491-67.186-16.555-49.069
		c-0.251,28.828-2.772,56.303-7.563,82.423l-5.92,1.261c0.197,1.832,0.231,3.609-0.302,5.195
		c-2.238,6.656-132.574,4.666-139.285,2.598l-4.571-7.792c-3.396,0.164-6.08-0.971-7.89-3.704
		c16.713-58.628-27.87-59.573-23.263-2.293l-7.808,5.998c-0.819,3.055-2.151,7.576-4.563,7.792
		c-28.827,2.581-102.857,3.971-129.978,0l-5.72-7.792l-7.078-6.072c23.171-86.677-23.184-63.517-19.862,1.518
		c-2.83,13.078-12.578,13.385-25.927,12.828c-68.914-5.213-136.078-2.898-201.492,6.945c0.234,9.911-3.292,15.227-10.581,15.949
		c2.385,3.151,3.597,7.852,7.702,9.69c438.07,1.738,876.824,6.816,1315.227,6.081c575.961-0.967,1153.547-11.438,1729.865-0.347
		c31.214,0.601,109.143,23.087,83.606-34.905C3267.706,2063.38,3266.433,2067.993,3264.27,2067.988z"/>
	<path style="fill:#010101;" d="M768.046,2060.311c10.979,3.525,113.292,1.106,132.467,0c1.909-0.11,2.654-4.767,2.653-7.792
		H760.957C762.311,2057.647,764.218,2059.082,768.046,2060.311z"/>
	<path style="fill:#010101;" d="M733.531,1964.938c20.046-18.116,25.565-1.76,16.555,49.069
		c-4.707,31.399-1.084,44.236,10.871,38.511c-2.812,0-4.232-4.701-4.24-7.955c-0.059-23.594,2.716-52.002,6.014-75.592
		c-0.428-16.154-17.757-23.677-31.051-15.83c-14.625,8.633-3.529,76.427-11.633,95.481l5.92-1.261
		C730.759,2021.241,733.28,1993.767,733.531,1964.938z"/>
	<path style="fill:#010101;" d="M1803.176,1992.128c0-13.784-38.961-17.159-38.961,3.896
		C1776.015,1988.959,1789.002,1987.661,1803.176,1992.128z"/>
	<path style="fill:#010101;" d="M1764.215,1996.024v56.494C1776.306,2046.394,1776.853,2001.036,1764.215,1996.024z"/>
	<path style="fill:#010101;" d="M903.166,1992.128v60.39C915.349,2045.683,915.887,1997.846,903.166,1992.128z"/>
	<path style="fill:#010101;" d="M943.927,2060.311c4.116,2.827,88.664,0.894,99.874,0c2.169-0.173,3.167-4.745,3.523-7.792H938.231
		C939.042,2055.99,941.069,2058.348,943.927,2060.311z"/>
	<path style="fill:#010101;" d="M1079.288,2045.716l6.997,6.803c10.295-66.687-51.338-71.465-38.962,0l6.789-7.391
		C1048.821,1994.842,1082.797,1998.318,1079.288,2045.716z"/>
	<path style="fill:#010101;" d="M1247.3,2060.311c1.885-0.1,2.629-4.769,2.623-7.792h-163.638l4.582,7.792
		C1097.978,2063.567,1228.228,2061.324,1247.3,2060.311z"/>
	<path style="fill:#010101;" d="M1281.579,2052.847c0.824,1.867,1.775,3.584,3.174,4.775c4.636,3.949,116.333,6.007,121.452,2.707
		l8.605-5.104c-2.241-69.56,31.07-67.683,29.021,0.894c17.518,4.503,150.339,7.348,156.853,2.9
		c6.859-4.683,7.347-5.651,10.722-12.887c-8.56-59.5,33.971-63.126,23.94-1.289c0.726,3.185,1.689,6.625,4.209,8.888
		c4.524,4.06,106.265,6.918,120.932,6.463c2.126-0.066,3.287-4.642,3.728-7.677l-120.801-3.876
		c-2.285-19.281,9.641-53.4-17.532-54.942c-38.688-2.196-10.172,52.485-27.798,58.274l-149.478,0.564
		c13.024-75.636-51.948-75.623-38.921,0l-120.764-0.055c-5.228-18.446,4.19-61.05-21.73-62.065
		c-30.979-1.212-21.641,41.495-17.268,62.099l6.466-7.123C1243.178,1971.46,1286.891,1989.463,1281.579,2052.847z"/>
	<path style="fill:#010101;" d="M930.859,2048.174l7.372,4.344c1.672-18.908,14.716-77.31-17.332-74.234
		c-4.908,0.471-17.733,11.814-17.733,13.844l8.69,1.404C942.871,1965.583,933.984,2029.98,930.859,2048.174z"/>
	<path style="fill:#010101;" d="M2305.78,1993.731c-1.384,3.061-4.062,61.509,7.792,58.788v-64.286
		C2310.512,1989.402,2307.089,1990.834,2305.78,1993.731z"/>
	<path style="fill:#010101;" d="M1803.176,2052.519v-60.39C1790.994,1998.964,1790.455,2046.801,1803.176,2052.519z"/>
	<path style="fill:#010101;" d="M2742.148,1992.128v56.494C2754.24,2042.498,2754.786,1997.14,2742.148,1992.128z"/>
	<path style="fill:#010101;" d="M2738.559,2056.415c2.161-0.091,3.253-4.721,3.589-7.792h-190.911l4.649,7.792
		C2613.526,2058.812,2680.962,2058.824,2738.559,2056.415z"/>
	<path style="fill:#010101;" d="M2313.572,1988.232c0-18.956-38.961-24.995-38.961-3.896
		C2287.091,1977.237,2300.078,1978.536,2313.572,1988.232z"/>
	<path style="fill:#010101;" d="M2512.778,2056.501c5.515-1.062,9.653-3.797,11.026-9.372c-8.952-70.344,37.006-81.272,19.859-2.538
		l7.574,4.031c0.297-17.36,14.904-67.203-13.604-65.79c-28.579,1.417-20.529,46.229-21.441,65.81l-202.62,3.876l4.766,7.703
		L2512.778,2056.501z"/>
	<path style="fill:#010101;" d="M1994.088,1992.128c0-18.463-38.962-18.463-38.962,0
		C1971.14,1984.463,1978.886,1985.779,1994.088,1992.128z"/>
	<path style="fill:#010101;" d="M1955.126,1992.128v60.39C1967.309,2045.683,1967.847,1997.846,1955.126,1992.128z"/>
	<path style="fill:#010101;" d="M2270.969,2060.311l3.642-7.792h-280.523l4.724,7.792
		C2089.562,2060.311,2180.281,2060.311,2270.969,2060.311z"/>
	<path style="fill:#010101;" d="M1994.088,2052.519v-60.39C1981.905,1998.964,1981.367,2046.801,1994.088,2052.519z"/>
	<path style="fill:#010101;" d="M2282.403,2047.098c1.407-3.089,3.538-66.1-7.792-62.762v68.183
		C2277.659,2051.368,2281.093,2049.972,2282.403,2047.098z"/>
	<path style="fill:#010101;" d="M1952.502,2060.311c1.892-0.111,2.625-4.771,2.624-7.792h-151.95l4.58,7.792
		C1814.45,2063.063,1935.176,2061.326,1952.502,2060.311z"/>
	<path style="fill:#010101;" d="M142.309,2063.842c65.414-9.843,132.578-12.158,201.492-6.945
		c13.349,0.556,23.097,0.25,25.927-12.828c-3.322-65.035,43.032-88.195,19.862-1.518l7.078,6.072
		c1.506-20.456,23.837-72.283-12.818-69.36c-19.947,1.591-20.972,52.719-22.234,69.38c-53.691,2.118-108.213-2.854-161.864-0.18
		c-19.26,0.96-47.846,3.276-64.501,9.529l-3.521,21.801C139.017,2079.07,142.544,2073.753,142.309,2063.842z"/>
	<path style="fill:#010101;" d="M2996.979,1990.163c-25.814-1.406-21.148,45.734-21.042,62.375l-198.707-3.937
		c4.707-18.813,11.257-66.711-17.552-66.604c-5.466,0.02-17.531,5.922-17.531,10.131c29.577-7.914,39.102,10.255,28.576,54.507
		c0.483,6.28,4.821,8.886,10.98,9.849l190.506,3.775l8.583-3.994c-3.487-60.905,32.821-91.895,25.837-8.775
		c0.501,3.487,1.359,7.168,3.836,9.806c8.711,9.275,222.318,10.623,253.802,10.692c2.163,0.005,3.436-4.608,3.859-7.677
		l-253.27-7.772C3011.773,2032.951,3026.022,1991.745,2996.979,1990.163z"/>
	<path style="fill:#010101;" d="M568,2044.918c1.81,2.733,4.495,3.868,7.89,3.704c-1.599-17.438,14.538-53.429-13.613-54.949
		c-28.397-1.534-25.058,34.177-25.348,54.949l7.808-5.998C540.129,1985.345,584.712,1986.29,568,2044.918z"/>
	<path style="fill:#010101;" d="M532.365,2056.415c2.413-0.216,3.745-4.738,4.563-7.792H396.667l5.72,7.792
		C429.508,2060.386,503.537,2058.996,532.365,2056.415z"/>
	<path style="fill:#010101;" d="M719.745,2053.817c0.533-1.586,0.499-3.363,0.302-5.195H575.89l4.571,7.792
		C587.171,2058.483,717.507,2060.473,719.745,2053.817z"/>
	<path style="fill:#AD9DB3;" d="M3224.326,475.61c-125.227,17.855-111.447,224.871,40.911,200.628
		C3383.145,657.477,3361.073,456.113,3224.326,475.61z"/>
	<path style="fill:#AD9DB4;" d="M434.021,945.675c158.725,21.868,154.416-220.106-3.309-193.544
		C329.662,769.148,333.089,931.769,434.021,945.675z"/>
	<path style="fill:#AD9DB4;" d="M2388.959,404.164c130.711-4.734,121.419-216.323-21.86-193.583
		C2252.929,228.701,2271.289,408.427,2388.959,404.164z"/>
	<path style="fill:#AD9DB4;" d="M1199.023,690.564c86.16-58.945,35.07-191.509-78.686-172.194
		c-34.786,5.906-64.92,45.614-68.668,79.354C1042.882,676.827,1133.097,735.667,1199.023,690.564z"/>
	<path style="fill:#AFA0B5;" d="M3239.188,396.908c38.038-15.112,21.437-76.508-26.71-65.665
		C3171.558,340.458,3188.498,417.046,3239.188,396.908z"/>
	<path style="fill:#B09FB5;" d="M2509.407,170.022c40.228-8.196,36.144-80.774-17.728-68.663
		C2450.289,110.665,2463.287,179.419,2509.407,170.022z"/>
	<path style="fill:#AE9FB5;" d="M538.382,700.412c48.429-3.115,40.986-80.543-10.321-69.229
		C488.739,639.854,496.938,703.078,538.382,700.412z"/>
	<path style="fill:#AFA0B5;" d="M1291.18,474.536c51.793,5.15,50.161-78.557-7.346-61.476
		C1256.302,421.238,1259.733,471.409,1291.18,474.536z"/>
	<path style="fill:#010101;" d="M442.215,1663.628c-13.904,4.31-111.026,170.368-124.141,195.361
		c-7.417,14.134-39.408,70.065-36.642,80.661c5.079,19.457,24.633,13.168,35.108-0.374c21.885-28.294,48.077-93.952,69.216-129.49
		c17.091-28.733,70.795-96.445,78.912-119.766C471.734,1669.712,464.546,1656.705,442.215,1663.628z"/>
	<path style="fill:#010101;" d="M3039.199,1533.376c7.528,7.788,24.227,1.741,28.436-6.881c4.888-10.013-13.206-64.974-16.48-81.038
		c-7.14-35.023-10.507-77.468-18.467-110.106c-6.784-27.811-36.865-26.338-36.326,1.043c0.507,25.775,11.104,69.837,16.533,96.673
		C3015.963,1448.23,3033.034,1526.997,3039.199,1533.376z"/>
	<path style="fill:#030302;" d="M492.888,1757.023c-10.128,3.123-34.474,41.287-28.165,53.914
		c14.93,29.88,55.007-24.357,52.846-40.638C515.988,1758.381,503.879,1753.634,492.888,1757.023z"/>
	<path style="fill:#040502;" d="M543.707,1538.787c-22.726,3.134-18.037,36.553,2.757,34.673
		C566.621,1571.638,564.867,1535.869,543.707,1538.787z"/>
	<path style="fill:#7B7B4D;" d="M1820.547,591.627c-21.962-25.558-34.903-55.437-32.975-89.767
		c-1.374-1.506-34.077,7.071-39.786,8.887c-195.561,62.193-314.745,461.179-451.234,612.415
		c-14.71,16.3-29.315,29.745-52.692,17.855c-47.527-53.572-85.742-110.111-149.708-146.377
		c-7.912-4.485-51.136-25.659-56.059-24.722c-5.905,1.124-18.379,24.386-25.464,29.235
		c82.256,138.216,148.282,307.176,293.82,390.928c29.128-61.014,89.778-87.748,153.984-63.972
		c135.803-232.593,245.269-479.44,377.232-714.119C1840.942,600.409,1826.889,599.007,1820.547,591.627z M1444.045,1114.497
		c-14.838,17.457-57.966,98.495-73.303,106.318c-13.279,6.774-30.676-7.519-25.796-21.665
		c14.193-10.627,65.207-102.46,71.195-104.486C1430.956,1089.652,1448.548,1097.778,1444.045,1114.497z M1477.051,1027.192
		c-49.72,14.927-3.329-62.646,4.61-77.367c29.19-54.123,69.119-104.576,97.631-159.49c4.779-10.216,21.153-9.958,28.105-3.095
		c2.523,2.491,4.632,9.092,4.441,12.641c-26.822,57.026-65.64,108.494-97.648,162.992
		C1506.967,975.173,1485.127,1024.767,1477.051,1027.192z M1604.467,928.573c-21.902,11.014-31.869-23.879-16.981-28.872
		C1609.477,892.325,1621.648,919.934,1604.467,928.573z"/>
	<path style="fill:#7A7A4C;" d="M2408.695,895.03c-24.248,31.492-84.954,112.203-130.006,83.916
		c-27.595-17.327-57.672-117.902-73.522-152.454c-44.931-97.947-106.329-211.34-205.335-261.799
		c-12.82,16.98-27.075,33.353-45.003,44.889c52.852,128.465,83.25,270.51,141.107,396.271
		c17.508,38.056,74.987,146.819,118.244,154.514c8.529,1.517,4.789-1.682,5.799-5.899c16.74-69.887,77.18-108.475,148.101-89.617
		c7.911,2.104,15.51,12.401,21.548,6.2l305.747-440.606C2546.503,636.278,2486.94,793.408,2408.695,895.03z"/>
	<path style="fill:#E5AD92;" d="M415.247,1313.229c-98.261,12.104-74.591,171.865,29.198,153.92
		C532.286,1451.961,517.604,1300.62,415.247,1313.229z"/>
	<path style="fill:#E3AD93;" d="M1396.95,1359.958c-99.956,16.83-43.013,202.632,56.881,134.772
		C1520.968,1449.122,1481.514,1345.719,1396.95,1359.958z"/>
	<path style="fill:#E4AD93;" d="M1880.072,440.466c-86.869,14.806-57.574,157.543,33.216,142.261
		C2003.112,567.608,1983.484,422.84,1880.072,440.466z"/>
	<path style="fill:#E3AE94;" d="M913.863,849.501c-47.478,7.508-69.24,64.95-43.63,104.12c45.76,69.99,151.419,29.43,132.543-50.747
		C994.609,868.188,947.572,844.171,913.863,849.501z"/>
	<path style="fill:#E4AD92;" d="M2756.708,483.319c-73.327,12.653-79.502,110.898-7.618,134.312
		C2862.286,654.5,2874.224,463.041,2756.708,483.319z"/>
	<path style="fill:#E3AC91;" d="M3060.608,993.715c-16.157,2.758-32.647,15.097-41.179,28.927
		c-37.344,60.53,40.154,139.755,100.462,100.462C3185.492,1080.364,3143.496,979.563,3060.608,993.715z"/>
	<path style="fill:#E3AC91;" d="M2320.329,1102.804c-99.694,16.873-61.267,146.479,13.699,142.26
		C2421.581,1240.138,2422.891,1085.445,2320.329,1102.804z"/>
	<path style="fill:#010201;" d="M1607.397,787.24c-6.952-6.863-23.326-7.121-28.105,3.095
		c-28.512,54.914-68.44,105.367-97.631,159.49c-7.939,14.721-54.33,92.294-4.61,77.367c8.076-2.425,29.916-52.019,37.139-64.318
		c32.008-54.498,70.826-105.967,97.648-162.992C1612.029,796.332,1609.92,789.731,1607.397,787.24z"/>
	<path style="fill:#010202;" d="M1416.142,1094.664c-5.988,2.026-57.002,93.859-71.195,104.486
		c-4.88,14.147,12.517,28.439,25.796,21.665c15.337-7.823,58.465-88.862,73.303-106.318
		C1448.548,1097.778,1430.956,1089.652,1416.142,1094.664z"/>
	<path style="fill:#030402;" d="M1587.486,899.701c-14.887,4.993-4.921,39.886,16.981,28.872
		C1621.648,919.934,1609.477,892.325,1587.486,899.701z"/>
</g>
</svg>
